<svg xmlns="http://www.w3.org/2000/svg" width="15" height="15" viewBox="0 0 15 15" fill="none"><g clip-path="url(#clip0_52_156)"><path d="M14.868 2.97986L10.3188 7.49975L14.868 12.0196C14.9503 11.8478 15.0002 11.6577 15.0002 11.4548V3.54467C15.0002 3.34173 14.9503 3.15174 14.868 2.97986Z" fill="#234C63"></path><path d="M13.6815 2.22656H1.31823C1.11529 2.22656 0.925303 2.27646 0.753418 2.35869L6.56776 8.14374C7.08187 8.65784 7.91788 8.65784 8.43198 8.14374L14.2463 2.35869C14.0744 2.27646 13.8845 2.22656 13.6815 2.22656Z" fill="#234C63"></path><path d="M0.132129 2.97986C0.0498926 3.15174 0 3.34173 0 3.54467V11.4548C0 11.6578 0.0498926 11.8478 0.132129 12.0196L4.68132 7.49975L0.132129 2.97986Z" fill="#234C63"></path><path d="M9.69714 8.12146L9.0534 8.7652C8.19679 9.62181 6.80293 9.62181 5.94632 8.7652L5.30261 8.12146L0.753418 12.6414C0.925303 12.7236 1.11529 12.7735 1.31823 12.7735H13.6815C13.8845 12.7735 14.0744 12.7236 14.2463 12.6414L9.69714 8.12146Z" fill="#234C63"></path></g><defs><clipPath id="clip0_52_156"><rect width="15" height="15" fill="white"></rect></clipPath></defs></svg>