<svg xmlns="http://www.w3.org/2000/svg" width="140" height="42" viewBox="0 0 140 42" fill="none"><g clip-path="url(#clip0_0_633)"><path d="M127.682 20.1319H122.755C119.583 20.1319 117.884 22.5072 117.884 26.4656V40.7748H108.539V20.1305H104.574C101.402 20.1305 99.7039 22.5058 99.7039 26.4641V40.7733H90.3577V12.4965H99.7039V16.795C101.234 13.4581 103.329 12.4965 106.445 12.4965H117.885V16.795C119.415 13.4581 121.511 12.4965 124.627 12.4965H127.684L127.682 20.1319ZM88.3183 28.8409H68.8351C69.3446 32.0084 71.3267 33.8182 74.6679 33.8182C77.1594 33.8182 78.9161 32.7992 79.483 30.9908L87.7514 33.3087C85.7134 38.2287 80.6714 41.2269 74.6679 41.2269C64.5294 41.2269 59.885 33.3647 59.885 26.6364C59.885 20.02 63.9625 12.1018 74.1009 12.1018C84.8623 12.1018 88.4302 20.1319 88.4302 26.0709C88.4373 26.9955 88.3999 27.9199 88.3183 28.8409ZM79.2563 23.3554C79.0295 20.9227 77.2728 18.6622 74.1024 18.6622C71.1559 18.6622 69.402 19.9611 68.8351 23.3554H79.2563ZM43.5751 40.7733H51.7861L62.0379 12.4994H52.6371L47.6526 28.9542L42.5547 12.4979H33.2085L43.5751 40.7733ZM5.2876 40.7733H14.5764V20.1319H23.4145V40.7748H32.6459V12.4979H14.5764V10.7455C14.5764 8.82233 15.9355 7.6354 18.0884 7.6354H23.4131V0H16.5599C9.81861 0 5.2876 4.12914 5.2876 10.1786V12.4979H0.0203247V20.1333H5.2876V40.7733Z" fill="#003912"></path><path d="M133.46 41.6218C136.651 41.6218 139.237 39.0384 139.237 35.8522C139.237 32.666 136.651 30.084 133.46 30.084C130.27 30.084 127.682 32.6674 127.682 35.8536C127.682 39.0398 130.27 41.6218 133.46 41.6218Z" fill="#1DBF73"></path></g><defs><clipPath id="clip0_0_633"><rect width="139.257" height="42" fill="white"></rect></clipPath></defs></svg>