<svg xmlns="http://www.w3.org/2000/svg" width="124" height="79" viewBox="0 0 124 79" fill="none"><path d="M25.82 7.234L28.48 11H27.346L24.686 7.234H23.062V11H22.124V1.354H25.708C27.668 1.354 28.382 2.81 28.382 4.308C28.382 5.75 27.682 7.192 25.82 7.234ZM25.708 2.278H23.062V6.31H25.638C26.996 6.31 27.458 5.33 27.458 4.308C27.458 3.286 26.996 2.278 25.708 2.278ZM32.9308 11.14C31.0688 11.14 29.6268 9.782 29.6268 7.71C29.6268 5.638 31.0688 4.322 32.9308 4.322C34.7928 4.322 36.1368 5.638 36.1368 7.71C36.1368 7.864 36.1368 8.018 36.1228 8.144H30.5788C30.7328 9.418 31.7268 10.216 32.9308 10.216C33.8268 10.216 34.5688 9.796 34.9748 9.082C35.2548 9.152 35.6188 9.222 35.9128 9.292C35.3668 10.468 34.2608 11.14 32.9308 11.14ZM30.5788 7.276H35.1848C35.0028 6.03 34.1488 5.246 32.9308 5.246C31.6988 5.246 30.7608 6.03 30.5788 7.276ZM36.9467 4.462H37.9267L40.1527 9.908L42.3647 4.462H43.3587L40.6427 11H40.6567H39.6487L36.9467 4.462ZM45.7371 4.462V11H44.8131V4.462H45.7371ZM44.5751 2.026C44.5751 1.634 44.8971 1.354 45.2891 1.354C45.6811 1.354 46.0031 1.634 46.0031 2.026C46.0031 2.418 45.6811 2.698 45.2891 2.698C44.8971 2.698 44.5751 2.418 44.5751 2.026ZM50.8546 11.14C48.9926 11.14 47.5506 9.782 47.5506 7.71C47.5506 5.638 48.9926 4.322 50.8546 4.322C52.7166 4.322 54.0606 5.638 54.0606 7.71C54.0606 7.864 54.0606 8.018 54.0466 8.144H48.5026C48.6566 9.418 49.6506 10.216 50.8546 10.216C51.7506 10.216 52.4926 9.796 52.8986 9.082C53.1786 9.152 53.5426 9.222 53.8366 9.292C53.2906 10.468 52.1846 11.14 50.8546 11.14ZM48.5026 7.276H53.1086C52.9266 6.03 52.0726 5.246 50.8546 5.246C49.6226 5.246 48.6846 6.03 48.5026 7.276ZM62.9762 11H62.1922L60.1622 5.75L58.2022 11H57.4182L54.8982 4.462H55.8922L57.7822 9.516L59.6582 4.462H60.6662L62.5562 9.516L64.4322 4.462H65.4262L62.9762 11ZM69.6398 11.14C67.7778 11.14 66.3358 9.782 66.3358 7.71C66.3358 5.638 67.7778 4.322 69.6398 4.322C71.5018 4.322 72.8458 5.638 72.8458 7.71C72.8458 7.864 72.8458 8.018 72.8318 8.144H67.2878C67.4418 9.418 68.4358 10.216 69.6398 10.216C70.5358 10.216 71.2778 9.796 71.6838 9.082C71.9638 9.152 72.3278 9.222 72.6218 9.292C72.0758 10.468 70.9698 11.14 69.6398 11.14ZM67.2878 7.276H71.8938C71.7118 6.03 70.8578 5.246 69.6398 5.246C68.4078 5.246 67.4698 6.03 67.2878 7.276ZM80.8767 0.92V11H79.9387V9.88C79.4487 10.706 78.4267 11.14 77.4747 11.14C75.6127 11.14 74.1287 9.782 74.1287 7.71C74.1287 5.638 75.6127 4.322 77.4747 4.322C78.4267 4.322 79.4487 4.714 79.9387 5.54V0.92H80.8767ZM75.0667 7.71C75.0667 9.166 76.1167 10.202 77.4747 10.202C78.8187 10.202 79.9387 9.334 79.9387 7.71C79.9387 6.086 78.6507 5.26 77.4747 5.26C76.1167 5.26 75.0667 6.212 75.0667 7.71ZM86.4897 6.198C86.4897 3.468 88.5897 1.242 91.3337 1.242C94.0777 1.242 96.1917 3.468 96.1917 6.198C96.1917 8.942 94.0777 11.14 91.3337 11.14C88.5897 11.14 86.4897 8.942 86.4897 6.198ZM87.4137 6.198C87.4137 8.424 89.1077 10.216 91.3337 10.216C93.5597 10.216 95.2678 8.424 95.2678 6.198C95.2678 3.958 93.5597 2.166 91.3337 2.166C89.1077 2.166 87.4137 3.958 87.4137 6.198ZM98.9347 7.43V11H97.9967V4.462H98.9347V5.54C99.3407 4.686 100.349 4.322 101.105 4.322C102.715 4.322 103.639 5.4 103.625 7.192V11H102.687V7.192C102.687 5.974 102.113 5.246 101.105 5.246C100.069 5.246 98.9347 5.834 98.9347 7.43Z" fill="black"></path><g clip-path="url(#clip0_0_604)"><path d="M31.7456 19.2935H37.362V52.8705H31.7456V19.2935Z" fill="#17313B"></path><path d="M56.8988 42.2298C56.8988 47.4318 52.5033 47.9048 51.0382 47.9048C47.6195 47.9048 47.1311 44.8308 47.1311 43.1756V30.1704H41.5147V42.9391C41.5147 46.0131 42.4915 48.8506 44.445 50.5058C46.1544 52.161 48.3521 52.8704 51.0382 52.8704C52.9917 52.8704 55.4336 52.3975 56.8988 50.9787V52.8704H62.5152V30.1704H56.8988V42.2298Z" fill="#17313B"></path><path d="M73.5038 21.8945H67.8874V30.1706H63.7361V35.3726H67.8874V52.8705H73.5038V35.3726H77.655V30.1706H73.5038V21.8945Z" fill="#17313B"></path><path d="M95.2316 46.0134C94.0106 46.9592 92.3013 47.6686 90.592 47.6686C86.6849 47.6686 83.9988 44.8311 83.9988 41.0477C83.9988 37.2644 86.6849 34.6634 90.592 34.6634C92.3013 34.6634 94.0106 35.1363 95.2316 36.3186L95.9642 37.0279L99.8712 33.4811L98.8945 32.7717C96.6967 30.88 93.7664 29.6978 90.592 29.6978C83.7546 29.6978 78.6266 34.6634 78.6266 41.2842C78.6266 47.905 83.7546 52.8706 90.592 52.8706C93.7664 52.8706 96.6967 51.6883 98.8945 49.7967L99.8712 49.0873L95.9642 45.304L95.2316 46.0134Z" fill="#17313B"></path><path d="M119.656 32.0622C117.946 30.407 116.237 29.6976 113.551 29.6976C111.597 29.6976 109.644 30.1705 108.179 31.5893V19.2935H102.562V52.8705H108.179V40.3382C108.179 35.1361 111.842 34.6632 113.307 34.6632C116.725 34.6632 116.481 37.7372 116.481 39.3924V52.634H122.098V39.6288C122.098 36.5549 121.365 33.7174 119.656 32.0622Z" fill="#17313B"></path><path d="M90.349 45.0671C92.5068 45.0671 94.256 43.3733 94.256 41.2838C94.256 39.1943 92.5068 37.5005 90.349 37.5005C88.1911 37.5005 86.4419 39.1943 86.4419 41.2838C86.4419 43.3733 88.1911 45.0671 90.349 45.0671Z" fill="#EF4335"></path><path d="M23.9307 44.5947C21.9772 46.4863 19.0469 47.6686 15.8724 47.6686C9.76765 47.6686 5.37221 42.9395 5.37221 36.5551C5.37221 30.1707 9.76765 25.4416 16.1166 25.4416C19.0469 25.4416 21.9772 26.6239 24.1749 28.752L24.9075 29.4614L28.5704 25.9145L27.8378 25.2051C24.6633 22.1312 20.5121 20.476 16.1166 20.476C6.83735 20.2395 0 27.3332 0 36.5551C0 45.777 6.83735 52.8707 15.8724 52.8707C20.2679 52.8707 24.6633 51.2155 27.5936 48.1415L28.3262 47.4322L24.6633 43.8853L23.9307 44.5947Z" fill="#17313B"></path></g><g clip-path="url(#clip1_0_604)"><path d="M25.0242 65.14C24.8874 64.7169 24.512 64.4163 24.068 64.3763L18.036 63.8286L15.6508 58.2458C15.4749 57.8366 15.0743 57.5718 14.6293 57.5718C14.1843 57.5718 13.7838 57.8366 13.6079 58.2467L11.2227 63.8286L5.18973 64.3763C4.74646 64.4173 4.37207 64.7169 4.23447 65.14C4.09686 65.5632 4.22394 66.0274 4.55927 66.32L9.11873 70.3186L7.77425 76.2411C7.67587 76.6765 7.84489 77.1266 8.2062 77.3878C8.40041 77.5281 8.62763 77.5996 8.85676 77.5996C9.05432 77.5996 9.25028 77.5463 9.42615 77.4411L14.6293 74.3313L19.8306 77.4411C20.2112 77.67 20.691 77.6491 21.0515 77.3878C21.413 77.1258 21.5818 76.6756 21.4834 76.2411L20.139 70.3186L24.6984 66.3208C25.0337 66.0274 25.1618 65.564 25.0242 65.14Z" fill="#FFC107"></path></g><g clip-path="url(#clip2_0_604)"><path d="M48.71 65.14C48.5732 64.7169 48.1978 64.4163 47.7538 64.3763L41.7218 63.8286L39.3366 58.2458C39.1607 57.8366 38.7602 57.5718 38.3151 57.5718C37.8701 57.5718 37.4696 57.8366 37.2937 58.2467L34.9085 63.8286L28.8756 64.3763C28.4323 64.4173 28.0579 64.7169 27.9203 65.14C27.7827 65.5632 27.9098 66.0274 28.2451 66.32L32.8046 70.3186L31.4601 76.2411C31.3617 76.6765 31.5307 77.1266 31.892 77.3878C32.0862 77.5281 32.3135 77.5996 32.5426 77.5996C32.7401 77.5996 32.9361 77.5463 33.112 77.4411L38.3151 74.3313L43.5164 77.4411C43.897 77.67 44.3768 77.6491 44.7373 77.3878C45.0988 77.1258 45.2676 76.6756 45.1693 76.2411L43.8248 70.3186L48.3842 66.3208C48.7196 66.0274 48.8476 65.564 48.71 65.14Z" fill="#FFC107"></path></g><g clip-path="url(#clip3_0_604)"><path d="M72.3951 65.14C72.2582 64.7169 71.8829 64.4163 71.4388 64.3763L65.4068 63.8286L63.0216 58.2458C62.8458 57.8366 62.4452 57.5718 62.0002 57.5718C61.5552 57.5718 61.1546 57.8366 60.9788 58.2467L58.5936 63.8286L52.5606 64.3763C52.1173 64.4173 51.743 64.7169 51.6053 65.14C51.4677 65.5632 51.5948 66.0274 51.9301 66.32L56.4896 70.3186L55.1451 76.2411C55.0468 76.6765 55.2158 77.1266 55.5771 77.3878C55.7713 77.5281 55.9985 77.5996 56.2276 77.5996C56.4252 77.5996 56.6212 77.5463 56.797 77.4411L62.0002 74.3313L67.2015 77.4411C67.5821 77.67 68.0618 77.6491 68.4224 77.3878C68.7838 77.1258 68.9527 76.6756 68.8543 76.2411L67.5098 70.3186L72.0693 66.3208C72.4046 66.0274 72.5327 65.564 72.3951 65.14Z" fill="#FFC107"></path></g><g clip-path="url(#clip4_0_604)"><path d="M96.0804 65.14C95.9436 64.7169 95.5683 64.4163 95.1242 64.3763L89.0922 63.8286L86.707 58.2458C86.5311 57.8366 86.1306 57.5718 85.6856 57.5718C85.2405 57.5718 84.84 57.8366 84.6641 58.2467L82.2789 63.8286L76.246 64.3763C75.8027 64.4173 75.4283 64.7169 75.2907 65.14C75.1531 65.5632 75.2802 66.0274 75.6155 66.32L80.175 70.3186L78.8305 76.2411C78.7321 76.6765 78.9011 77.1266 79.2624 77.3878C79.4567 77.5281 79.6839 77.5996 79.913 77.5996C80.1106 77.5996 80.3065 77.5463 80.4824 77.4411L85.6856 74.3313L90.8868 77.4411C91.2674 77.67 91.7472 77.6491 92.1077 77.3878C92.4692 77.1258 92.6381 76.6756 92.5397 76.2411L91.1952 70.3186L95.7547 66.3208C96.09 66.0274 96.218 65.564 96.0804 65.14Z" fill="#FFC107"></path></g><g clip-path="url(#clip5_0_604)"><path d="M119.766 65.14C119.629 64.7169 119.254 64.4163 118.81 64.3763L112.778 63.8286L110.392 58.2458C110.217 57.8366 109.816 57.5718 109.371 57.5718C108.926 57.5718 108.525 57.8366 108.35 58.2467L105.964 63.8286L99.9314 64.3763C99.4881 64.4173 99.1137 64.7169 98.9761 65.14C98.8385 65.5632 98.9656 66.0274 99.3009 66.32L103.86 70.3186L102.516 76.2411C102.418 76.6765 102.587 77.1266 102.948 77.3878C103.142 77.5281 103.369 77.5996 103.598 77.5996C103.796 77.5996 103.992 77.5463 104.168 77.4411L109.371 74.3313L114.572 77.4411C114.953 77.67 115.433 77.6491 115.793 77.3878C116.155 77.1258 116.323 76.6756 116.225 76.2411L114.881 70.3186L119.44 66.3208C119.775 66.0274 119.903 65.564 119.766 65.14Z" fill="#FFC107"></path></g><defs><clipPath id="clip0_0_604"><rect width="124" height="33.4381" fill="white" transform="translate(0 19.5054)"></rect></clipPath><clipPath id="clip1_0_604"><rect width="20.8989" height="20.8988" fill="white" transform="translate(4.17978 57.1235)"></rect></clipPath><clipPath id="clip2_0_604"><rect width="20.8989" height="20.8988" fill="white" transform="translate(27.8656 57.1235)"></rect></clipPath><clipPath id="clip3_0_604"><rect width="20.8989" height="20.8988" fill="white" transform="translate(51.5507 57.1235)"></rect></clipPath><clipPath id="clip4_0_604"><rect width="20.8989" height="20.8988" fill="white" transform="translate(75.236 57.1235)"></rect></clipPath><clipPath id="clip5_0_604"><rect width="20.8989" height="20.8988" fill="white" transform="translate(98.9214 57.1235)"></rect></clipPath></defs></svg>