<svg xmlns="http://www.w3.org/2000/svg" width="185" height="58" viewBox="0 0 185 58" fill="none"><g clip-path="url(#clip0_1799_90)"><path d="M10.6859 0.0231934C4.78384 0.0231934 0 4.82639 0 10.7516V47.2484C0 53.1736 4.785 57.9768 10.6871 57.9768H47.3129C53.215 57.9768 58 53.1736 58 47.2484V10.7516C58 4.82639 53.215 0.0231934 47.3129 0.0231934H10.6859Z" fill="#14A800"></path><path d="M41.7208 35.2266C38.1121 35.2266 35.7248 32.4436 35.0566 31.3611C35.9104 24.5214 38.4125 22.3655 41.7208 22.3655C44.9897 22.3655 47.5359 24.9769 47.5359 28.796C47.5359 32.6152 44.9897 35.2266 41.7208 35.2266ZM41.7208 18.1674C35.8385 18.1674 32.5418 22.0004 31.5998 25.947C30.528 23.9372 29.7392 21.2482 29.1174 18.7492H20.987V28.861C20.987 32.5352 19.3189 35.244 16.0466 35.244C12.7742 35.244 10.8996 32.5352 10.8996 28.8621L10.9344 18.7492H6.24805V28.861C6.24805 31.8131 7.20621 34.4894 8.94621 36.3996C10.7419 38.3677 13.1964 39.4074 16.0442 39.4074C21.7027 39.4074 25.6502 35.0713 25.6502 28.8644V22.07C26.2464 24.3058 27.6454 28.606 30.3378 32.3764L27.8229 46.684H32.5882L34.2481 36.5398C34.7933 36.9907 35.371 37.3987 35.9765 37.7626C37.565 38.7714 39.3954 39.3354 41.2766 39.3958H41.2858C41.4262 39.3958 41.5689 39.4039 41.7139 39.4039C47.5475 39.4039 52.1933 34.8904 52.1933 28.8065C52.1945 22.719 47.5533 18.1674 41.7208 18.1674Z" fill="white"></path></g><path d="M67.624 8.056L71.352 6.408V17H69.384V9.112L67.624 9.816V8.056ZM73.7569 11.768C73.7569 8.76 74.6049 6.344 77.6449 6.344C80.6689 6.344 81.4849 8.76 81.4849 11.768C81.4849 14.76 80.6689 17.16 77.6449 17.16C74.6049 17.16 73.7569 14.76 73.7569 11.768ZM75.7249 11.768C75.7249 13.688 76.1409 15.24 77.6449 15.24C79.1169 15.24 79.5329 13.688 79.5329 11.768C79.5329 9.848 79.1169 8.264 77.6449 8.264C76.1409 8.264 75.7249 9.848 75.7249 11.768ZM83.3975 11.768C83.3975 8.76 84.2455 6.344 87.2855 6.344C90.3095 6.344 91.1255 8.76 91.1255 11.768C91.1255 14.76 90.3095 17.16 87.2855 17.16C84.2455 17.16 83.3975 14.76 83.3975 11.768ZM85.3655 11.768C85.3655 13.688 85.7815 15.24 87.2855 15.24C88.7575 15.24 89.1735 13.688 89.1735 11.768C89.1735 9.848 88.7575 8.264 87.2855 8.264C85.7815 8.264 85.3655 9.848 85.3655 11.768ZM99.5661 6.424H100.654L95.4541 17H94.3661L99.5661 6.424ZM92.6541 8.488C92.6541 7.288 93.5661 6.344 94.7821 6.344C95.9821 6.344 96.9261 7.288 96.9261 8.488C96.9261 9.704 95.9821 10.616 94.7821 10.616C93.5661 10.616 92.6541 9.704 92.6541 8.488ZM93.8861 8.488C93.8861 9 94.2701 9.384 94.7821 9.384C95.2781 9.384 95.6941 9 95.6941 8.488C95.6941 7.992 95.2781 7.576 94.7821 7.576C94.2701 7.576 93.8861 7.992 93.8861 8.488ZM98.2381 15.032C98.2381 13.832 99.1501 12.888 100.366 12.888C101.566 12.888 102.51 13.832 102.51 15.032C102.51 16.248 101.566 17.16 100.366 17.16C99.1501 17.16 98.2381 16.248 98.2381 15.032ZM99.4701 15.032C99.4701 15.544 99.8541 15.928 100.366 15.928C100.862 15.928 101.278 15.544 101.278 15.032C101.278 14.536 100.862 14.12 100.366 14.12C99.8541 14.12 99.4701 14.536 99.4701 15.032ZM105.478 20.488L105.67 18.632C106.054 18.76 106.822 18.792 106.95 18.792C108.023 18.792 108.439 18.008 108.439 17.048V5.976H110.487V17.048C110.487 19.032 109.527 20.728 106.95 20.728C106.646 20.728 105.99 20.616 105.478 20.488ZM116.231 15.24C117.319 15.24 118.183 14.456 118.183 13.24C118.183 12.04 117.319 11.288 116.231 11.288C115.143 11.288 114.279 12.04 114.279 13.24C114.279 14.456 115.143 15.24 116.231 15.24ZM116.231 17.144C114.119 17.144 112.343 15.592 112.343 13.24C112.343 10.872 114.119 9.368 116.231 9.368C118.343 9.368 120.119 10.872 120.119 13.24C120.119 15.592 118.343 17.144 116.231 17.144ZM123.854 13.24C123.854 14.488 124.766 15.288 125.838 15.288C126.926 15.288 127.806 14.472 127.806 13.24C127.806 12.024 126.926 11.224 125.838 11.224C124.83 11.224 123.854 11.96 123.854 13.24ZM123.822 17H121.87V5.464H123.822V10.52C124.222 9.768 125.15 9.368 126.158 9.368C128.126 9.368 129.822 10.888 129.822 13.272C129.822 15.64 128.126 17.16 126.158 17.16C125.182 17.16 124.222 16.744 123.822 15.992V17ZM135.174 13.784H137.222C137.27 14.6 137.942 15.336 139.126 15.336C140.23 15.336 140.902 14.76 140.95 14.008C140.998 13.288 140.486 12.792 139.43 12.504L138.07 12.152C135.67 11.464 135.286 10.04 135.286 9.08C135.286 7.144 136.966 5.848 138.998 5.848C141.078 5.848 142.661 7.128 142.661 9.176H140.614C140.614 8.296 139.99 7.736 138.966 7.736C138.054 7.736 137.318 8.248 137.318 9.032C137.318 9.352 137.446 10.008 138.63 10.296L139.99 10.696C142.47 11.384 143.078 12.76 142.998 14.056C142.918 16.04 141.126 17.176 139.126 17.176C136.774 17.176 135.174 15.672 135.174 13.784ZM149.61 13.512V9.528H151.562V17H149.61V15.944C149.194 16.744 148.298 17.16 147.546 17.16C145.77 17.16 144.602 16.056 144.602 13.944V9.528H146.57V13.592C146.57 14.808 147.306 15.256 147.994 15.256C148.81 15.256 149.61 14.808 149.61 13.512ZM153.296 13.24C153.296 10.872 155.184 9.368 157.328 9.368C158.592 9.368 159.728 9.88 160.432 10.824L158.88 11.992C158.512 11.496 157.952 11.256 157.328 11.256C156.24 11.256 155.232 12.024 155.232 13.24C155.232 14.456 156.24 15.288 157.328 15.288C157.952 15.288 158.512 15.032 158.88 14.536L160.448 15.688C159.744 16.632 158.608 17.16 157.328 17.16C155.184 17.16 153.296 15.592 153.296 13.24ZM169.179 13.24C169.179 13.432 169.163 13.736 169.147 13.912H163.451C163.579 14.92 164.411 15.512 165.515 15.512C166.267 15.512 167.019 15.192 167.387 14.552C167.851 14.808 168.379 15.096 168.875 15.352C168.187 16.632 166.763 17.16 165.387 17.16C163.259 17.16 161.515 15.592 161.515 13.24C161.515 10.872 163.259 9.368 165.387 9.368C167.499 9.368 169.179 10.872 169.179 13.24ZM163.435 12.584H167.275C167.131 11.56 166.363 11 165.403 11C164.379 11 163.579 11.56 163.435 12.584ZM173.655 14.136L172.631 13.88C170.695 13.368 170.519 12.456 170.519 11.592C170.519 10.376 171.799 9.368 173.271 9.368C174.695 9.368 176.103 10.008 176.183 11.72H174.327C174.279 11.16 173.767 10.952 173.319 10.952C172.823 10.952 172.375 11.128 172.375 11.688C172.375 11.992 172.727 12.2 173.159 12.312L174.407 12.616C176.135 13.096 176.359 14.248 176.359 14.856C176.359 16.392 174.855 17.16 173.303 17.16C171.831 17.16 170.343 16.248 170.295 14.648H172.119C172.167 15.176 172.775 15.64 173.495 15.592C174.055 15.576 174.471 15.272 174.471 14.84C174.487 14.456 174.215 14.264 173.655 14.136ZM180.92 14.136L179.896 13.88C177.96 13.368 177.784 12.456 177.784 11.592C177.784 10.376 179.064 9.368 180.536 9.368C181.96 9.368 183.368 10.008 183.448 11.72H181.592C181.544 11.16 181.032 10.952 180.584 10.952C180.088 10.952 179.64 11.128 179.64 11.688C179.64 11.992 179.992 12.2 180.424 12.312L181.672 12.616C183.4 13.096 183.624 14.248 183.624 14.856C183.624 16.392 182.12 17.16 180.568 17.16C179.096 17.16 177.608 16.248 177.56 14.648H179.384C179.432 15.176 180.04 15.64 180.76 15.592C181.32 15.576 181.736 15.272 181.736 14.84C181.752 14.456 181.48 14.264 180.92 14.136Z" fill="#232831"></path><path d="M90.336 38.136V36.732H96.54V38.136H94.212V45H92.664V38.136H90.336ZM99.3023 43.68C100.118 43.68 100.766 43.092 100.766 42.18C100.766 41.28 100.118 40.716 99.3023 40.716C98.4863 40.716 97.8383 41.28 97.8383 42.18C97.8383 43.092 98.4863 43.68 99.3023 43.68ZM99.3023 45.108C97.7183 45.108 96.3863 43.944 96.3863 42.18C96.3863 40.404 97.7183 39.276 99.3023 39.276C100.886 39.276 102.218 40.404 102.218 42.18C102.218 43.944 100.886 45.108 99.3023 45.108ZM104.995 39.396V40.152C105.295 39.588 106.015 39.276 106.747 39.276C108.211 39.276 109.483 40.428 109.483 42.192C109.483 43.98 108.211 45.12 106.747 45.12C106.015 45.12 105.295 44.82 104.995 44.256V47.724H103.531V39.396H104.995ZM105.019 42.216C105.019 43.176 105.739 43.728 106.507 43.728C107.311 43.728 107.983 43.128 107.983 42.216C107.983 41.292 107.311 40.68 106.507 40.68C105.703 40.68 105.019 41.28 105.019 42.216ZM117.217 38.1H115.513V40.692H117.169C117.985 40.692 118.333 40.02 118.333 39.408C118.333 38.808 117.985 38.1 117.217 38.1ZM117.829 42L119.941 45H118.093L116.149 42.06H115.513V45H113.977V36.732H117.289C119.113 36.732 119.929 38.064 119.929 39.408C119.929 40.584 119.305 41.772 117.829 42ZM125.357 45V44.28C125.009 44.856 124.157 45.108 123.617 45.108C122.141 45.108 120.761 43.98 120.761 42.192C120.761 40.404 122.141 39.276 123.617 39.276C124.133 39.276 124.937 39.48 125.357 40.092V39.396H126.821V45H125.357ZM122.273 42.192C122.273 43.104 123.005 43.704 123.821 43.704C124.625 43.704 125.357 43.152 125.357 42.192C125.357 41.232 124.589 40.68 123.821 40.68C123.005 40.68 122.273 41.28 122.273 42.192ZM130.4 37.26V39.396H131.588V40.572H130.4V45H128.948V40.572H127.928V39.396H128.948V37.26H130.4ZM138.017 42.18C138.017 42.324 138.005 42.552 137.993 42.684H133.721C133.817 43.44 134.441 43.884 135.269 43.884C135.833 43.884 136.397 43.644 136.673 43.164C137.021 43.356 137.417 43.572 137.789 43.764C137.273 44.724 136.205 45.12 135.173 45.12C133.577 45.12 132.269 43.944 132.269 42.18C132.269 40.404 133.577 39.276 135.173 39.276C136.757 39.276 138.017 40.404 138.017 42.18ZM133.709 41.688H136.589C136.481 40.92 135.905 40.5 135.185 40.5C134.417 40.5 133.817 40.92 133.709 41.688ZM143.414 45V44.244C143.09 44.808 142.382 45.12 141.65 45.12C140.174 45.12 138.902 43.98 138.902 42.204C138.902 40.416 140.174 39.276 141.65 39.276C142.406 39.276 143.09 39.576 143.414 40.14V36.348H144.866V45H143.414ZM143.39 42.18C143.39 41.22 142.658 40.668 141.89 40.668C141.074 40.668 140.414 41.268 140.414 42.18C140.414 43.104 141.074 43.716 141.89 43.716C142.694 43.716 143.39 43.116 143.39 42.18ZM153.044 38.1H151.244V40.692H152.996C153.788 40.692 154.16 40.02 154.16 39.408C154.16 38.808 153.812 38.1 153.044 38.1ZM149.708 45V36.732H153.068C154.904 36.732 155.696 38.064 155.696 39.408C155.696 40.752 154.904 42.06 153.068 42.06H151.244V45H149.708ZM156.851 45V36.348H158.315V45H156.851ZM163.653 42.384V39.396H165.117V45H163.653V44.208C163.341 44.808 162.669 45.12 162.105 45.12C160.773 45.12 159.897 44.292 159.897 42.708V39.396H161.373V42.444C161.373 43.356 161.925 43.692 162.441 43.692C163.053 43.692 163.653 43.356 163.653 42.384ZM168.901 42.852L168.133 42.66C166.681 42.276 166.549 41.592 166.549 40.944C166.549 40.032 167.509 39.276 168.613 39.276C169.681 39.276 170.737 39.756 170.797 41.04H169.405C169.369 40.62 168.985 40.464 168.649 40.464C168.277 40.464 167.941 40.596 167.941 41.016C167.941 41.244 168.205 41.4 168.529 41.484L169.465 41.712C170.761 42.072 170.929 42.936 170.929 43.392C170.929 44.544 169.801 45.12 168.637 45.12C167.533 45.12 166.417 44.436 166.381 43.236H167.749C167.785 43.632 168.241 43.98 168.781 43.944C169.201 43.932 169.513 43.704 169.513 43.38C169.525 43.092 169.321 42.948 168.901 42.852Z" fill="#232831"></path><rect x="67" y="34" width="18" height="12.8571" fill="#F4A0BC"></rect><path d="M85 46.8571L67 34V46.8571L76 52.8571L85 46.8571Z" fill="#F07096"></path><path d="M85 34L67 46.8571L76 52.8571L85 46.8571V34Z" fill="#EB3677"></path><path d="M67 27H185" stroke="#989898"></path><defs><clipPath id="clip0_1799_90"><rect width="58" height="58" fill="white"></rect></clipPath></defs></svg>