<svg xmlns="http://www.w3.org/2000/svg" width="55" height="62" viewBox="0 0 55 62" fill="none"><path d="M25.5608 2.15917C25.9989 2.15917 26.218 2.37822 26.6561 2.59728C24.0274 3.69255 21.3988 6.54026 20.0844 12.6738L15.2652 13.9881C16.7986 9.60703 19.8654 2.15917 25.5608 2.15917ZM27.9704 4.34971C28.4085 5.66404 28.8466 7.19743 28.8466 9.60703C28.8466 9.82609 28.8466 9.82609 28.8466 10.0451L22.494 11.7976C23.8084 7.19743 25.9989 5.22593 27.9704 4.34971ZM33.6658 8.2927L30.8181 9.16892C30.8181 8.94987 30.8181 8.73081 30.8181 8.51176C30.8181 6.54026 30.5991 5.00688 30.161 3.69255C31.6943 4.13066 33.0087 6.10215 33.6658 8.2927ZM47.9044 11.7976C47.9044 11.5785 47.6854 11.3595 47.4663 11.3595C47.0282 11.3595 42.428 10.9214 42.428 10.9214C42.428 10.9214 39.1422 7.63554 38.7041 7.41648C38.266 6.97837 37.6088 7.19743 37.3898 7.19743C37.3898 7.19743 36.7326 7.41648 35.6373 7.85459C34.5421 4.78782 32.5706 1.94011 29.2847 1.94011H29.0657C28.1895 0.625782 26.8751 0.187673 25.7799 0.187673C17.8939 -0.0313819 14.17 9.82609 12.8556 14.8643C11.1032 15.3025 9.35076 15.9596 7.37926 16.6168C5.62682 17.0549 5.62682 17.2739 5.40777 18.8073C5.18871 19.9026 0.807617 54.5133 0.807617 54.5133L35.6373 61.0849L54.4761 56.9229C54.4761 56.9229 47.9044 12.2357 47.9044 11.7976Z" fill="#8DB849"></path><path d="M47.2471 11.3598C47.0281 11.3598 42.4279 10.9217 42.4279 10.9217C42.4279 10.9217 39.1421 7.63586 38.704 7.41681C38.4849 7.19775 38.4849 7.19775 38.2659 7.19775L35.6372 61.0852L54.4759 56.9232C54.4759 56.9232 47.9043 12.236 47.9043 11.7979C47.9043 11.5789 47.4662 11.3598 47.2471 11.3598Z" fill="#5A863E"></path><path d="M29.2852 21.8739L26.8756 28.8837C26.8756 28.8837 24.9041 27.7884 22.2754 27.7884C18.5515 27.7884 18.3324 29.979 18.3324 30.6361C18.3324 33.7029 26.6565 35.0172 26.6565 42.4651C26.6565 48.3796 22.9326 52.1035 17.8943 52.1035C11.9799 52.1035 8.91309 48.3796 8.91309 48.3796L10.4465 43.1223C10.4465 43.1223 13.5132 45.7509 16.1419 45.7509C17.8943 45.7509 18.5515 44.4366 18.5515 43.3413C18.5515 39.1793 11.7608 38.9602 11.7608 32.1695C11.7608 26.4741 15.9228 20.9977 24.0279 20.9977C27.7518 20.7787 29.2852 21.8739 29.2852 21.8739Z" fill="#FFFFFE"></path></svg>