<svg xmlns="http://www.w3.org/2000/svg" width="280" height="256" viewBox="0 0 280 256" fill="none"><g clip-path="url(#clip0_728_4728)"><path d="M173.02 193.87H125.729V194.253H173.02V193.87Z" fill="#4F7082"></path><path d="M173.02 191.035H125.729V191.418H173.02V191.035Z" fill="#4F7082"></path><path d="M173.02 188.2H125.729V188.583H173.02V188.2Z" fill="#4F7082"></path><path d="M173.02 185.441H125.729V185.825H173.02V185.441Z" fill="#4F7082"></path><path d="M173.02 182.606H125.729V182.989H173.02V182.606Z" fill="#4F7082"></path><path d="M173.02 179.848H125.729V180.231H173.02V179.848Z" fill="#4F7082"></path><path d="M173.02 177.013H125.729V177.396H173.02V177.013Z" fill="#4F7082"></path><path d="M10.7129 71.2737C11.8607 71.2737 12.8556 72.2698 12.8556 73.4191V212.259C12.8556 213.255 13.6208 214.022 14.6156 214.022H32.9813V214.405H14.6156C13.4677 214.405 12.4729 213.409 12.4729 212.259V73.4191C12.4729 72.423 11.7077 71.6568 10.7129 71.6568" fill="#4F7082"></path><path d="M8.95312 74.032C10.101 74.032 11.0958 75.0281 11.0958 76.1774V215.018C11.0958 216.014 11.861 216.78 12.8558 216.78H32.9815V217.163H12.8558C11.708 217.163 10.7132 216.167 10.7132 215.018V76.1774C10.7132 75.1813 9.94793 74.4151 8.95312 74.4151" fill="#4F7082"></path><path d="M7.19336 76.8672C8.34121 76.8672 9.33602 77.8633 9.33602 79.0126V217.853C9.33602 218.849 10.1013 219.615 11.0961 219.615H33.0584V219.998H11.0961C9.94821 219.998 8.9534 219.002 8.9534 217.853V79.0126C8.9534 78.0165 8.18817 77.2503 7.19336 77.2503" fill="#4F7082"></path><path d="M5.35742 79.7021C6.50528 79.7021 7.50008 80.6982 7.50008 81.8476V220.688C7.50008 221.684 8.26532 222.45 9.26013 222.45H32.9825V222.833H9.26013C8.11227 222.833 7.11747 221.837 7.11747 220.688V81.8476C7.11747 80.8515 6.35223 80.0853 5.35742 80.0853" fill="#4F7082"></path><path d="M3.5957 82.4607C4.74356 82.4607 5.73837 83.4568 5.73837 84.6061V223.446C5.73837 224.442 6.5036 225.209 7.49841 225.209H33.0573V225.592H7.49841C6.35055 225.592 5.35575 224.596 5.35575 223.446V84.6061C5.35575 83.61 4.59051 82.8438 3.5957 82.8438" fill="#4F7082"></path><path d="M1.75977 85.2957C2.90762 85.2957 3.90243 86.2917 3.90243 87.4411V226.281C3.90243 227.277 4.66766 228.044 5.66247 228.044H32.9814V228.427H5.73899C4.59114 228.427 3.59633 227.431 3.59633 226.281V87.4411C3.59633 86.445 2.8311 85.6788 1.83629 85.6788" fill="#4F7082"></path><path d="M0 88.054C1.14785 88.054 2.14266 89.05 2.14266 90.1994V229.04C2.14266 230.036 2.9079 230.802 3.90271 230.802H32.9817V231.185H3.90271C2.75485 231.185 1.76004 230.189 1.76004 229.04V90.1994C1.76004 89.2033 0.994807 88.4371 0 88.4371" fill="#4F7082"></path><path d="M110.728 227.813H33.0566V239.383H110.728V227.813Z" fill="#4F7082"></path><path d="M110.666 239.398H126.43V227.828H110.666V239.398Z" fill="#80A3B2"></path><path d="M110.652 24.074H27.7773V227.89H110.652V24.074Z" fill="#80A3B2"></path><path d="M124.732 22.3118H34.7402V24.0741H124.732V22.3118Z" fill="#4F7082"></path><path d="M110.716 227.811H131.684L131.684 23.9949H110.716L110.716 227.811Z" fill="#4F7082"></path><path d="M108.204 26.5261H30.2266V48.8233H108.204V26.5261Z" fill="#4F7082"></path><path d="M108.204 202.911H30.2266V225.209H108.204V202.911Z" fill="#4F7082"></path><path d="M108.204 177.702H30.2266V200H108.204V177.702Z" fill="#4F7082"></path><path d="M108.204 152.494H30.2266V174.791H108.204V152.494Z" fill="#4F7082"></path><path d="M108.204 127.285H30.2266V149.582H108.204V127.285Z" fill="#4F7082"></path><path d="M108.204 102.076H30.2266V124.373H108.204V102.076Z" fill="#4F7082"></path><path d="M108.204 76.8672H30.2266V99.1644H108.204V76.8672Z" fill="#4F7082"></path><path d="M108.204 51.6584H30.2266V73.9556H108.204V51.6584Z" fill="#4F7082"></path><path d="M101.929 45.605H86.7007C84.9406 45.605 83.4102 44.1492 83.4102 42.3102V32.9623C83.4102 31.1999 84.8641 29.6675 86.7007 29.6675H101.929C103.689 29.6675 105.219 31.1233 105.219 32.9623V42.3868C105.143 44.1492 103.689 45.605 101.929 45.605Z" fill="#80A3B2"></path><path d="M98.5625 38.7089V36.5635C98.5625 36.0271 99.0216 35.5674 99.5573 35.5674H101.7C102.236 35.5674 102.695 36.0271 102.695 36.5635V38.7089C102.695 39.2453 102.236 39.705 101.7 39.705H99.4808C98.9451 39.705 98.5625 39.2453 98.5625 38.7089Z" fill="white"></path><path d="M101.929 70.814H86.7007C84.9406 70.814 83.4102 69.3581 83.4102 67.5192V58.1712C83.4102 56.4089 84.8641 54.8765 86.7007 54.8765H101.929C103.689 54.8765 105.219 56.3323 105.219 58.1712V67.5958C105.143 69.3581 103.689 70.814 101.929 70.814Z" fill="#80A3B2"></path><path d="M98.5625 63.9179V61.7725C98.5625 61.2361 99.0216 60.7764 99.5573 60.7764H101.7C102.236 60.7764 102.695 61.2361 102.695 61.7725V63.9179C102.695 64.4543 102.236 64.914 101.7 64.914H99.4808C98.9451 64.914 98.5625 64.4543 98.5625 63.9179Z" fill="white"></path><path d="M101.929 96.0227H86.7007C84.9406 96.0227 83.4102 94.5668 83.4102 92.7279V83.3033C83.4102 81.541 84.8641 80.0085 86.7007 80.0085H101.929C103.689 80.0085 105.219 81.4644 105.219 83.3033V92.7279C105.143 94.5668 103.689 96.0227 101.929 96.0227Z" fill="#80A3B2"></path><path d="M98.5625 89.1266V86.9812C98.5625 86.4448 99.0216 85.9851 99.5573 85.9851H101.7C102.236 85.9851 102.695 86.4448 102.695 86.9812V89.1266C102.695 89.663 102.236 90.1227 101.7 90.1227H99.4808C98.9451 90.1227 98.5625 89.663 98.5625 89.1266Z" fill="white"></path><path d="M101.929 121.232H86.7007C84.9406 121.232 83.4102 119.776 83.4102 117.937V108.512C83.4102 106.75 84.8641 105.218 86.7007 105.218H101.929C103.689 105.218 105.219 106.673 105.219 108.512V118.014C105.143 119.776 103.689 121.232 101.929 121.232Z" fill="#80A3B2"></path><path d="M98.5625 114.336V112.19C98.5625 111.654 99.0216 111.194 99.5573 111.194H101.7C102.236 111.194 102.695 111.654 102.695 112.19V114.336C102.695 114.872 102.236 115.332 101.7 115.332H99.4808C98.9451 115.332 98.5625 114.872 98.5625 114.336Z" fill="white"></path><path d="M101.929 146.44H86.7007C84.9406 146.44 83.4102 144.985 83.4102 143.146V133.721C83.4102 131.959 84.8641 130.426 86.7007 130.426H101.929C103.689 130.426 105.219 131.882 105.219 133.721V143.146C105.143 144.985 103.689 146.44 101.929 146.44Z" fill="#80A3B2"></path><path d="M98.5625 139.544V137.399C98.5625 136.863 99.0216 136.403 99.5573 136.403H101.7C102.236 136.403 102.695 136.863 102.695 137.399V139.544C102.695 140.081 102.236 140.54 101.7 140.54H99.4808C98.9451 140.54 98.5625 140.081 98.5625 139.544Z" fill="white"></path><path d="M101.929 171.649H86.7007C84.9406 171.649 83.4102 170.193 83.4102 168.354V158.93C83.4102 157.167 84.8641 155.635 86.7007 155.635H101.929C103.689 155.635 105.219 157.091 105.219 158.93V168.354C105.143 170.193 103.689 171.649 101.929 171.649Z" fill="#80A3B2"></path><path d="M98.5625 164.753V162.608C98.5625 162.071 99.0216 161.612 99.5573 161.612H101.7C102.236 161.612 102.695 162.071 102.695 162.608V164.753C102.695 165.289 102.236 165.749 101.7 165.749H99.4808C98.9451 165.749 98.5625 165.289 98.5625 164.753Z" fill="white"></path><path d="M101.929 196.858H86.7007C84.9406 196.858 83.4102 195.402 83.4102 193.563V184.139C83.4102 182.376 84.8641 180.844 86.7007 180.844H101.929C103.689 180.844 105.219 182.3 105.219 184.139V193.563C105.143 195.402 103.689 196.858 101.929 196.858Z" fill="#80A3B2"></path><path d="M98.5625 189.962V187.817C98.5625 187.28 99.0216 186.821 99.5573 186.821H101.7C102.236 186.821 102.695 187.28 102.695 187.817V189.962C102.695 190.498 102.236 190.958 101.7 190.958H99.4808C98.9451 190.958 98.5625 190.498 98.5625 189.962Z" fill="white"></path><path d="M101.929 222.067H86.7007C84.9406 222.067 83.4102 220.611 83.4102 218.772V209.348C83.4102 207.585 84.8641 206.053 86.7007 206.053H101.929C103.689 206.053 105.219 207.509 105.219 209.348V218.772C105.143 220.611 103.689 222.067 101.929 222.067Z" fill="#80A3B2"></path><path d="M98.5625 215.171V213.025C98.5625 212.489 99.0216 212.029 99.5573 212.029H101.7C102.236 212.029 102.695 212.489 102.695 213.025V215.171C102.695 215.707 102.236 216.167 101.7 216.167H99.4808C98.9451 216.167 98.5625 215.707 98.5625 215.171Z" fill="white"></path><path d="M92.2871 38.7089V36.5635C92.2871 36.0271 92.7463 35.5674 93.2819 35.5674H95.4246C95.9602 35.5674 96.4194 36.0271 96.4194 36.5635V38.7089C96.4194 39.2453 95.9602 39.705 95.4246 39.705H93.2819C92.6697 39.705 92.2871 39.2453 92.2871 38.7089Z" fill="white"></path><path d="M92.2871 63.9179V61.7725C92.2871 61.2361 92.7463 60.7764 93.2819 60.7764H95.4246C95.9602 60.7764 96.4194 61.2361 96.4194 61.7725V63.9179C96.4194 64.4543 95.9602 64.914 95.4246 64.914H93.2819C92.6697 64.914 92.2871 64.4543 92.2871 63.9179Z" fill="white"></path><path d="M92.2871 89.1266V86.9812C92.2871 86.4448 92.7463 85.9851 93.2819 85.9851H95.4246C95.9602 85.9851 96.4194 86.4448 96.4194 86.9812V89.1266C96.4194 89.663 95.9602 90.1227 95.4246 90.1227H93.2819C92.6697 90.1227 92.2871 89.663 92.2871 89.1266Z" fill="white"></path><path d="M92.2871 114.336V112.19C92.2871 111.654 92.7463 111.194 93.2819 111.194H95.4246C95.9602 111.194 96.4194 111.654 96.4194 112.19V114.336C96.4194 114.872 95.9602 115.332 95.4246 115.332H93.2819C92.6697 115.332 92.2871 114.872 92.2871 114.336Z" fill="white"></path><path d="M92.2871 139.544V137.399C92.2871 136.863 92.7463 136.403 93.2819 136.403H95.4246C95.9602 136.403 96.4194 136.863 96.4194 137.399V139.544C96.4194 140.081 95.9602 140.54 95.4246 140.54H93.2819C92.6697 140.54 92.2871 140.081 92.2871 139.544Z" fill="white"></path><path d="M92.2871 164.753V162.608C92.2871 162.071 92.7463 161.612 93.2819 161.612H95.4246C95.9602 161.612 96.4194 162.071 96.4194 162.608V164.753C96.4194 165.289 95.9602 165.749 95.4246 165.749H93.2819C92.6697 165.749 92.2871 165.289 92.2871 164.753Z" fill="white"></path><path d="M92.2871 189.962V187.817C92.2871 187.28 92.7463 186.821 93.2819 186.821H95.4246C95.9602 186.821 96.4194 187.28 96.4194 187.817V189.962C96.4194 190.498 95.9602 190.958 95.4246 190.958H93.2819C92.6697 190.958 92.2871 190.498 92.2871 189.962Z" fill="white"></path><path d="M92.2871 215.171V213.025C92.2871 212.489 92.7463 212.029 93.2819 212.029H95.4246C95.9602 212.029 96.4194 212.489 96.4194 213.025V215.171C96.4194 215.707 95.9602 216.167 95.4246 216.167H93.2819C92.6697 216.167 92.2871 215.707 92.2871 215.171Z" fill="white"></path><path d="M75.6057 40.2413C77.0426 40.2413 78.2075 39.075 78.2075 37.6362C78.2075 36.1974 77.0426 35.031 75.6057 35.031C74.1688 35.031 73.0039 36.1974 73.0039 37.6362C73.0039 39.075 74.1688 40.2413 75.6057 40.2413Z" fill="white"></path><path d="M70.8618 37.6362C70.8618 39.092 69.714 40.2413 68.26 40.2413C66.8061 40.2413 65.6582 39.092 65.6582 37.6362C65.6582 36.1803 66.8061 35.031 68.26 35.031C69.714 35.1076 70.8618 36.257 70.8618 37.6362Z" fill="white"></path><path d="M63.5142 37.6362C63.5142 39.092 62.3663 40.2413 60.9124 40.2413C59.4584 40.2413 58.3105 39.092 58.3105 37.6362C58.3105 36.1803 59.4584 35.031 60.9124 35.031C62.3663 35.1076 63.5142 36.257 63.5142 37.6362Z" fill="white"></path><path d="M53.5666 40.2413C55.0036 40.2413 56.1685 39.075 56.1685 37.6362C56.1685 36.1974 55.0036 35.031 53.5666 35.031C52.1297 35.031 50.9648 36.1974 50.9648 37.6362C50.9648 39.075 52.1297 40.2413 53.5666 40.2413Z" fill="white"></path><path d="M75.6057 65.4503C77.0426 65.4503 78.2075 64.284 78.2075 62.8452C78.2075 61.4064 77.0426 60.24 75.6057 60.24C74.1688 60.24 73.0039 61.4064 73.0039 62.8452C73.0039 64.284 74.1688 65.4503 75.6057 65.4503Z" fill="white"></path><path d="M70.8618 62.8452C70.8618 64.301 69.714 65.4503 68.26 65.4503C66.8061 65.4503 65.6582 64.301 65.6582 62.8452C65.6582 61.3893 66.8061 60.24 68.26 60.24C69.714 60.3166 70.8618 61.466 70.8618 62.8452Z" fill="white"></path><path d="M63.5142 62.8452C63.5142 64.301 62.3663 65.4503 60.9124 65.4503C59.4584 65.4503 58.3105 64.301 58.3105 62.8452C58.3105 61.3893 59.4584 60.24 60.9124 60.24C62.3663 60.3166 63.5142 61.466 63.5142 62.8452Z" fill="white"></path><path d="M53.5666 65.4503C55.0036 65.4503 56.1685 64.284 56.1685 62.8452C56.1685 61.4064 55.0036 60.24 53.5666 60.24C52.1297 60.24 50.9648 61.4064 50.9648 62.8452C50.9648 64.284 52.1297 65.4503 53.5666 65.4503Z" fill="white"></path><path d="M78.2075 88.0539C78.2075 89.5097 77.0597 90.6591 75.6057 90.6591C74.1518 90.6591 73.0039 89.5097 73.0039 88.0539C73.0039 86.5981 74.1518 85.4487 75.6057 85.4487C77.0597 85.4487 78.2075 86.6747 78.2075 88.0539Z" fill="white"></path><path d="M70.8618 88.0539C70.8618 89.5097 69.714 90.6591 68.26 90.6591C66.8061 90.6591 65.6582 89.5097 65.6582 88.0539C65.6582 86.5981 66.8061 85.4487 68.26 85.4487C69.714 85.5254 70.8618 86.6747 70.8618 88.0539Z" fill="white"></path><path d="M63.5142 88.0539C63.5142 89.5097 62.3663 90.6591 60.9124 90.6591C59.4584 90.6591 58.3105 89.5097 58.3105 88.0539C58.3105 86.5981 59.4584 85.4487 60.9124 85.4487C62.3663 85.5254 63.5142 86.6747 63.5142 88.0539Z" fill="white"></path><path d="M56.1685 88.0539C56.1685 89.5097 55.0206 90.6591 53.5666 90.6591C52.1127 90.6591 50.9648 89.5097 50.9648 88.0539C50.9648 86.5981 52.1127 85.4487 53.5666 85.4487C55.0206 85.4487 56.1685 86.6747 56.1685 88.0539Z" fill="white"></path><path d="M78.2075 113.263C78.2075 114.719 77.0597 115.868 75.6057 115.868C74.1518 115.868 73.0039 114.719 73.0039 113.263C73.0039 111.807 74.1518 110.658 75.6057 110.658C77.0597 110.658 78.2075 111.884 78.2075 113.263Z" fill="white"></path><path d="M70.8618 113.263C70.8618 114.719 69.714 115.868 68.26 115.868C66.8061 115.868 65.6582 114.719 65.6582 113.263C65.6582 111.807 66.8061 110.658 68.26 110.658C69.714 110.734 70.8618 111.884 70.8618 113.263Z" fill="white"></path><path d="M63.5142 113.263C63.5142 114.719 62.3663 115.868 60.9124 115.868C59.4584 115.868 58.3105 114.719 58.3105 113.263C58.3105 111.807 59.4584 110.658 60.9124 110.658C62.3663 110.734 63.5142 111.884 63.5142 113.263Z" fill="white"></path><path d="M56.1685 113.263C56.1685 114.719 55.0206 115.868 53.5666 115.868C52.1127 115.868 50.9648 114.719 50.9648 113.263C50.9648 111.807 52.1127 110.658 53.5666 110.658C55.0206 110.658 56.1685 111.884 56.1685 113.263Z" fill="white"></path><path d="M78.2075 138.472C78.2075 139.927 77.0597 141.077 75.6057 141.077C74.1518 141.077 73.0039 139.927 73.0039 138.472C73.0039 137.016 74.1518 135.866 75.6057 135.866C77.0597 135.866 78.2075 137.092 78.2075 138.472Z" fill="white"></path><path d="M70.8618 138.472C70.8618 139.927 69.714 141.077 68.26 141.077C66.8061 141.077 65.6582 139.927 65.6582 138.472C65.6582 137.016 66.8061 135.866 68.26 135.866C69.714 135.943 70.8618 137.092 70.8618 138.472Z" fill="white"></path><path d="M63.5142 138.472C63.5142 139.927 62.3663 141.077 60.9124 141.077C59.4584 141.077 58.3105 139.927 58.3105 138.472C58.3105 137.016 59.4584 135.866 60.9124 135.866C62.3663 135.943 63.5142 137.092 63.5142 138.472Z" fill="white"></path><path d="M56.1685 138.472C56.1685 139.927 55.0206 141.077 53.5666 141.077C52.1127 141.077 50.9648 139.927 50.9648 138.472C50.9648 137.016 52.1127 135.866 53.5666 135.866C55.0206 135.866 56.1685 137.092 56.1685 138.472Z" fill="white"></path><path d="M78.2075 163.68C78.2075 165.136 77.0597 166.286 75.6057 166.286C74.1518 166.286 73.0039 165.136 73.0039 163.68C73.0039 162.225 74.1518 161.075 75.6057 161.075C77.0597 161.075 78.2075 162.301 78.2075 163.68Z" fill="white"></path><path d="M70.8618 163.68C70.8618 165.136 69.714 166.286 68.26 166.286C66.8061 166.286 65.6582 165.136 65.6582 163.68C65.6582 162.225 66.8061 161.075 68.26 161.075C69.714 161.152 70.8618 162.301 70.8618 163.68Z" fill="white"></path><path d="M63.5142 163.68C63.5142 165.136 62.3663 166.286 60.9124 166.286C59.4584 166.286 58.3105 165.136 58.3105 163.68C58.3105 162.225 59.4584 161.075 60.9124 161.075C62.3663 161.152 63.5142 162.301 63.5142 163.68Z" fill="white"></path><path d="M56.1685 163.68C56.1685 165.136 55.0206 166.286 53.5666 166.286C52.1127 166.286 50.9648 165.136 50.9648 163.68C50.9648 162.225 52.1127 161.075 53.5666 161.075C55.0206 161.075 56.1685 162.301 56.1685 163.68Z" fill="white"></path><path d="M75.6057 191.495C77.0426 191.495 78.2075 190.328 78.2075 188.889C78.2075 187.451 77.0426 186.284 75.6057 186.284C74.1688 186.284 73.0039 187.451 73.0039 188.889C73.0039 190.328 74.1688 191.495 75.6057 191.495Z" fill="white"></path><path d="M70.8618 188.889C70.8618 190.345 69.714 191.495 68.26 191.495C66.8061 191.495 65.6582 190.345 65.6582 188.889C65.6582 187.434 66.8061 186.284 68.26 186.284C69.714 186.284 70.8618 187.51 70.8618 188.889Z" fill="white"></path><path d="M63.5142 188.889C63.5142 190.345 62.3663 191.495 60.9124 191.495C59.4584 191.495 58.3105 190.345 58.3105 188.889C58.3105 187.434 59.4584 186.284 60.9124 186.284C62.3663 186.284 63.5142 187.51 63.5142 188.889Z" fill="white"></path><path d="M53.5666 191.495C55.0036 191.495 56.1685 190.328 56.1685 188.889C56.1685 187.451 55.0036 186.284 53.5666 186.284C52.1297 186.284 50.9648 187.451 50.9648 188.889C50.9648 190.328 52.1297 191.495 53.5666 191.495Z" fill="white"></path><path d="M75.6057 216.703C77.0426 216.703 78.2075 215.537 78.2075 214.098C78.2075 212.659 77.0426 211.493 75.6057 211.493C74.1688 211.493 73.0039 212.659 73.0039 214.098C73.0039 215.537 74.1688 216.703 75.6057 216.703Z" fill="white"></path><path d="M70.8618 214.098C70.8618 215.554 69.714 216.703 68.26 216.703C66.8061 216.703 65.6582 215.554 65.6582 214.098C65.6582 212.642 66.8061 211.493 68.26 211.493C69.714 211.493 70.8618 212.719 70.8618 214.098Z" fill="white"></path><path d="M63.5142 214.098C63.5142 215.554 62.3663 216.703 60.9124 216.703C59.4584 216.703 58.3105 215.554 58.3105 214.098C58.3105 212.642 59.4584 211.493 60.9124 211.493C62.3663 211.493 63.5142 212.719 63.5142 214.098Z" fill="white"></path><path d="M53.5666 216.703C55.0036 216.703 56.1685 215.537 56.1685 214.098C56.1685 212.659 55.0036 211.493 53.5666 211.493C52.1297 211.493 50.9648 212.659 50.9648 214.098C50.9648 215.537 52.1297 216.703 53.5666 216.703Z" fill="white"></path><path d="M40.2503 43.2296C43.3355 43.2296 45.8365 40.7254 45.8365 37.6362C45.8365 34.547 43.3355 32.0427 40.2503 32.0427C37.1651 32.0427 34.6641 34.547 34.6641 37.6362C34.6641 40.7254 37.1651 43.2296 40.2503 43.2296Z" fill="white"></path><path d="M40.2503 68.4386C43.3355 68.4386 45.8365 65.9343 45.8365 62.8452C45.8365 59.756 43.3355 57.2517 40.2503 57.2517C37.1651 57.2517 34.6641 59.756 34.6641 62.8452C34.6641 65.9343 37.1651 68.4386 40.2503 68.4386Z" fill="white"></path><path d="M45.7706 88.989C46.2636 85.9397 44.1945 83.0676 41.1491 82.5739C38.1037 82.0802 35.2353 84.152 34.7423 87.2014C34.2493 90.2507 36.3184 93.1228 39.3638 93.6165C42.4092 94.1101 45.2776 92.0384 45.7706 88.989Z" fill="white"></path><path d="M45.7706 114.196C46.2636 111.147 44.1945 108.275 41.1491 107.781C38.1037 107.288 35.2353 109.359 34.7423 112.409C34.2493 115.458 36.3184 118.33 39.3638 118.824C42.4092 119.317 45.2776 117.246 45.7706 114.196Z" fill="white"></path><path d="M42.3788 143.658C45.2313 142.481 46.5909 139.211 45.4154 136.355C44.24 133.499 40.9746 132.137 38.1221 133.314C35.2695 134.491 33.9099 137.761 35.0854 140.617C36.2608 143.474 39.5262 144.835 42.3788 143.658Z" fill="white"></path><path d="M42.3788 168.867C45.2313 167.69 46.5909 164.421 45.4154 161.564C44.24 158.708 40.9746 157.347 38.1221 158.524C35.2695 159.701 33.9099 162.97 35.0854 165.826C36.2608 168.683 39.5262 170.044 42.3788 168.867Z" fill="white"></path><path d="M40.2503 194.483C43.3355 194.483 45.8365 191.979 45.8365 188.889C45.8365 185.8 43.3355 183.296 40.2503 183.296C37.1651 183.296 34.6641 185.8 34.6641 188.889C34.6641 191.979 37.1651 194.483 40.2503 194.483Z" fill="white"></path><path d="M40.2503 219.692C43.3355 219.692 45.8365 217.187 45.8365 214.098C45.8365 211.009 43.3355 208.505 40.2503 208.505C37.1651 208.505 34.6641 211.009 34.6641 214.098C34.6641 217.187 37.1651 219.692 40.2503 219.692Z" fill="white"></path><path d="M260.104 228.81H170.342V239.383H260.104V228.81Z" fill="#4F7082"></path><path d="M260.121 239.357H275.043V228.783H260.121V239.357Z" fill="#80A3B2"></path><path d="M260.103 41.8506H165.367V228.733H260.103V41.8506Z" fill="#80A3B2"></path><path d="M273.418 40.2415H171.947V41.8505H273.418V40.2415Z" fill="#4F7082"></path><path d="M260.059 228.821H280.031V41.9383H260.059V228.821Z" fill="#4F7082"></path><path d="M167.709 64.5659L257.777 64.5659V44.1077L167.709 44.1077V64.5659Z" fill="#4F7082"></path><path d="M167.709 226.422H257.777V205.963H167.709V226.422Z" fill="#4F7082"></path><path d="M167.709 203.321H257.777V182.863H167.709V203.321Z" fill="#4F7082"></path><path d="M167.709 180.221H257.777V159.763H167.709V180.221Z" fill="#4F7082"></path><path d="M167.709 157.044H257.777V136.586H167.709V157.044Z" fill="#4F7082"></path><path d="M167.709 133.944H257.777V113.485L167.709 113.485V133.944Z" fill="#4F7082"></path><path d="M167.709 110.843L257.777 110.843V90.385L167.709 90.385V110.843Z" fill="#4F7082"></path><path d="M167.709 87.7429L257.777 87.7429V67.2847L167.709 67.2847V87.7429Z" fill="#4F7082"></path><path d="M173.631 61.6957H217.02C218.704 61.6957 220.081 60.3165 220.081 58.6308V50.049C220.081 48.3633 218.704 46.9841 217.02 46.9841H173.631C171.948 46.9841 170.57 48.3633 170.57 50.049V58.6308C170.57 60.3165 171.948 61.6957 173.631 61.6957Z" fill="#80A3B2"></path><path d="M176.846 55.336V53.4204C176.846 52.8841 176.463 52.501 175.928 52.501H173.862C173.326 52.501 172.943 52.8841 172.943 53.4204V55.336C172.943 55.8724 173.326 56.2555 173.862 56.2555H175.928C176.463 56.2555 176.846 55.7957 176.846 55.336Z" fill="white"></path><path d="M173.631 84.7592H217.02C218.704 84.7592 220.081 83.38 220.081 81.6943V73.1892C220.081 71.5035 218.704 70.1243 217.02 70.1243H173.631C171.948 70.1243 170.57 71.5035 170.57 73.1892V81.7709C170.57 83.4566 171.948 84.7592 173.631 84.7592Z" fill="#80A3B2"></path><path d="M176.846 78.3995V76.4839C176.846 75.9476 176.463 75.5645 175.928 75.5645H173.862C173.326 75.5645 172.943 75.9476 172.943 76.4839V78.3995C172.943 78.9359 173.326 79.319 173.862 79.319H175.928C176.463 79.319 176.846 78.9359 176.846 78.3995Z" fill="white"></path><path d="M173.631 107.899H217.02C218.704 107.899 220.081 106.52 220.081 104.834V96.2526C220.081 94.567 218.704 93.1877 217.02 93.1877H173.631C171.948 93.1877 170.57 94.567 170.57 96.2526V104.834C170.57 106.52 171.948 107.899 173.631 107.899Z" fill="#80A3B2"></path><path d="M176.846 101.54V99.6241C176.846 99.0877 176.463 98.7046 175.928 98.7046H173.862C173.326 98.7046 172.943 99.0877 172.943 99.6241V101.54C172.943 102.076 173.326 102.459 173.862 102.459H175.928C176.463 102.459 176.846 102.076 176.846 101.54Z" fill="white"></path><path d="M173.631 131.039H217.02C218.704 131.039 220.081 129.66 220.081 127.974V119.393C220.081 117.707 218.704 116.328 217.02 116.328H173.631C171.948 116.328 170.57 117.707 170.57 119.393V127.974C170.57 129.66 171.948 131.039 173.631 131.039Z" fill="#80A3B2"></path><path d="M176.846 124.68V122.764C176.846 122.228 176.463 121.844 175.928 121.844H173.862C173.326 121.844 172.943 122.228 172.943 122.764V124.68C172.943 125.216 173.326 125.599 173.862 125.599H175.928C176.463 125.599 176.846 125.216 176.846 124.68Z" fill="white"></path><path d="M173.631 154.179H217.02C218.704 154.179 220.081 152.8 220.081 151.114V142.533C220.081 140.847 218.704 139.468 217.02 139.468H173.631C171.948 139.468 170.57 140.847 170.57 142.533V151.114C170.57 152.8 171.948 154.179 173.631 154.179Z" fill="#80A3B2"></path><path d="M176.846 147.82V145.904C176.846 145.368 176.463 144.985 175.928 144.985H173.862C173.326 144.985 172.943 145.368 172.943 145.904V147.82C172.943 148.356 173.326 148.739 173.862 148.739H175.928C176.463 148.739 176.846 148.279 176.846 147.82Z" fill="white"></path><path d="M173.631 177.243H217.02C218.704 177.243 220.081 175.864 220.081 174.178V165.596C220.081 163.91 218.704 162.531 217.02 162.531H173.631C171.948 162.531 170.57 163.91 170.57 165.596V174.178C170.57 175.94 171.948 177.243 173.631 177.243Z" fill="#80A3B2"></path><path d="M176.846 170.883V168.967C176.846 168.431 176.463 168.048 175.928 168.048H173.862C173.326 168.048 172.943 168.431 172.943 168.967V170.883C172.943 171.419 173.326 171.802 173.862 171.802H175.928C176.463 171.802 176.846 171.419 176.846 170.883Z" fill="white"></path><path d="M173.631 200.383H217.02C218.704 200.383 220.081 199.003 220.081 197.318V188.736C220.081 187.05 218.704 185.671 217.02 185.671H173.631C171.948 185.671 170.57 187.05 170.57 188.736V197.318C170.57 199.003 171.948 200.383 173.631 200.383Z" fill="#80A3B2"></path><path d="M176.846 194.023V192.107C176.846 191.571 176.463 191.188 175.928 191.188H173.862C173.326 191.188 172.943 191.571 172.943 192.107V194.023C172.943 194.559 173.326 194.942 173.862 194.942H175.928C176.463 194.942 176.846 194.559 176.846 194.023Z" fill="white"></path><path d="M173.631 223.523H217.02C218.704 223.523 220.081 222.144 220.081 220.458V211.876C220.081 210.19 218.704 208.811 217.02 208.811H173.631C171.948 208.811 170.57 210.19 170.57 211.876V220.458C170.57 222.144 171.948 223.523 173.631 223.523Z" fill="#80A3B2"></path><path d="M176.846 217.163V215.248C176.846 214.711 176.463 214.328 175.928 214.328H173.862C173.326 214.328 172.943 214.711 172.943 215.248V217.163C172.943 217.7 173.326 218.083 173.862 218.083H175.928C176.463 218.083 176.846 217.623 176.846 217.163Z" fill="white"></path><path d="M182.815 55.336V53.4204C182.815 52.8841 182.432 52.501 181.897 52.501H179.83C179.295 52.501 178.912 52.8841 178.912 53.4204V55.336C178.912 55.8724 179.295 56.2555 179.83 56.2555H181.897C182.432 56.2555 182.815 55.7957 182.815 55.336Z" fill="white"></path><path d="M182.815 78.3995V76.4839C182.815 75.9476 182.432 75.5645 181.897 75.5645H179.83C179.295 75.5645 178.912 75.9476 178.912 76.4839V78.3995C178.912 78.9359 179.295 79.319 179.83 79.319H181.897C182.432 79.319 182.815 78.9359 182.815 78.3995Z" fill="white"></path><path d="M182.815 101.54V99.6241C182.815 99.0877 182.432 98.7046 181.897 98.7046H179.83C179.295 98.7046 178.912 99.0877 178.912 99.6241V101.54C178.912 102.076 179.295 102.459 179.83 102.459H181.897C182.432 102.459 182.815 102.076 182.815 101.54Z" fill="white"></path><path d="M182.815 124.68V122.764C182.815 122.228 182.432 121.844 181.897 121.844H179.83C179.295 121.844 178.912 122.228 178.912 122.764V124.68C178.912 125.216 179.295 125.599 179.83 125.599H181.897C182.432 125.599 182.815 125.216 182.815 124.68Z" fill="white"></path><path d="M182.815 147.82V145.904C182.815 145.368 182.432 144.985 181.897 144.985H179.83C179.295 144.985 178.912 145.368 178.912 145.904V147.82C178.912 148.356 179.295 148.739 179.83 148.739H181.897C182.432 148.739 182.815 148.279 182.815 147.82Z" fill="white"></path><path d="M182.815 170.883V168.967C182.815 168.431 182.432 168.048 181.897 168.048H179.83C179.295 168.048 178.912 168.431 178.912 168.967V170.883C178.912 171.419 179.295 171.802 179.83 171.802H181.897C182.432 171.802 182.815 171.419 182.815 170.883Z" fill="white"></path><path d="M182.815 194.023V192.107C182.815 191.571 182.432 191.188 181.897 191.188H179.83C179.295 191.188 178.912 191.571 178.912 192.107V194.023C178.912 194.559 179.295 194.942 179.83 194.942H181.897C182.432 194.942 182.815 194.559 182.815 194.023Z" fill="white"></path><path d="M182.815 217.163V215.248C182.815 214.711 182.432 214.328 181.897 214.328H179.83C179.295 214.328 178.912 214.711 178.912 215.248V217.163C178.912 217.7 179.295 218.083 179.83 218.083H181.897C182.432 218.083 182.815 217.623 182.815 217.163Z" fill="white"></path><path d="M188.784 55.336V53.4204C188.784 52.8841 188.401 52.501 187.865 52.501H185.799C185.263 52.501 184.881 52.8841 184.881 53.4204V55.336C184.881 55.8724 185.263 56.2555 185.799 56.2555H187.865C188.401 56.2555 188.784 55.7957 188.784 55.336Z" fill="white"></path><path d="M188.784 78.3995V76.4839C188.784 75.9476 188.401 75.5645 187.865 75.5645H185.799C185.263 75.5645 184.881 75.9476 184.881 76.4839V78.3995C184.881 78.9359 185.263 79.319 185.799 79.319H187.865C188.401 79.319 188.784 78.9359 188.784 78.3995Z" fill="white"></path><path d="M188.784 101.54V99.6241C188.784 99.0877 188.401 98.7046 187.865 98.7046H185.799C185.263 98.7046 184.881 99.0877 184.881 99.6241V101.54C184.881 102.076 185.263 102.459 185.799 102.459H187.865C188.401 102.459 188.784 102.076 188.784 101.54Z" fill="white"></path><path d="M188.784 124.68V122.764C188.784 122.228 188.401 121.844 187.865 121.844H185.799C185.263 121.844 184.881 122.228 184.881 122.764V124.68C184.881 125.216 185.263 125.599 185.799 125.599H187.865C188.401 125.599 188.784 125.216 188.784 124.68Z" fill="white"></path><path d="M188.784 147.82V145.904C188.784 145.368 188.401 144.985 187.865 144.985H185.799C185.263 144.985 184.881 145.368 184.881 145.904V147.82C184.881 148.356 185.263 148.739 185.799 148.739H187.865C188.401 148.739 188.784 148.279 188.784 147.82Z" fill="white"></path><path d="M188.784 170.883V168.967C188.784 168.431 188.401 168.048 187.865 168.048H185.799C185.263 168.048 184.881 168.431 184.881 168.967V170.883C184.881 171.419 185.263 171.802 185.799 171.802H187.865C188.401 171.802 188.784 171.419 188.784 170.883Z" fill="white"></path><path d="M188.784 194.023V192.107C188.784 191.571 188.401 191.188 187.865 191.188H185.799C185.263 191.188 184.881 191.571 184.881 192.107V194.023C184.881 194.559 185.263 194.942 185.799 194.942H187.865C188.401 194.942 188.784 194.559 188.784 194.023Z" fill="white"></path><path d="M188.784 217.163V215.248C188.784 214.711 188.401 214.328 187.865 214.328H185.799C185.263 214.328 184.881 214.711 184.881 215.248V217.163C184.881 217.7 185.263 218.083 185.799 218.083H187.865C188.401 218.083 188.784 217.623 188.784 217.163Z" fill="white"></path><path d="M194.752 55.336V53.4204C194.752 52.8841 194.37 52.501 193.834 52.501H191.768C191.232 52.501 190.85 52.8841 190.85 53.4204V55.336C190.85 55.8724 191.232 56.2555 191.768 56.2555H193.834C194.37 56.2555 194.752 55.7957 194.752 55.336Z" fill="white"></path><path d="M194.752 78.3995V76.4839C194.752 75.9476 194.37 75.5645 193.834 75.5645H191.768C191.232 75.5645 190.85 75.9476 190.85 76.4839V78.3995C190.85 78.9359 191.232 79.319 191.768 79.319H193.834C194.37 79.319 194.752 78.9359 194.752 78.3995Z" fill="white"></path><path d="M194.752 101.54V99.6241C194.752 99.0877 194.37 98.7046 193.834 98.7046H191.768C191.232 98.7046 190.85 99.0877 190.85 99.6241V101.54C190.85 102.076 191.232 102.459 191.768 102.459H193.834C194.37 102.459 194.752 102.076 194.752 101.54Z" fill="white"></path><path d="M194.752 124.68V122.764C194.752 122.228 194.37 121.844 193.834 121.844H191.768C191.232 121.844 190.85 122.228 190.85 122.764V124.68C190.85 125.216 191.232 125.599 191.768 125.599H193.834C194.37 125.599 194.752 125.216 194.752 124.68Z" fill="white"></path><path d="M194.752 147.82V145.904C194.752 145.368 194.37 144.985 193.834 144.985H191.768C191.232 144.985 190.85 145.368 190.85 145.904V147.82C190.85 148.356 191.232 148.739 191.768 148.739H193.834C194.37 148.739 194.752 148.279 194.752 147.82Z" fill="white"></path><path d="M194.752 170.883V168.967C194.752 168.431 194.37 168.048 193.834 168.048H191.768C191.232 168.048 190.85 168.431 190.85 168.967V170.883C190.85 171.419 191.232 171.802 191.768 171.802H193.834C194.37 171.802 194.752 171.419 194.752 170.883Z" fill="white"></path><path d="M194.752 194.023V192.107C194.752 191.571 194.37 191.188 193.834 191.188H191.768C191.232 191.188 190.85 191.571 190.85 192.107V194.023C190.85 194.559 191.232 194.942 191.768 194.942H193.834C194.37 194.942 194.752 194.559 194.752 194.023Z" fill="white"></path><path d="M194.752 217.163V215.248C194.752 214.711 194.37 214.328 193.834 214.328H191.768C191.232 214.328 190.85 214.711 190.85 215.248V217.163C190.85 217.7 191.232 218.083 191.768 218.083H193.834C194.37 218.083 194.752 217.623 194.752 217.163Z" fill="white"></path><path d="M224.979 54.3399C224.979 55.6425 226.05 56.7152 227.427 56.7152C228.805 56.7152 229.876 55.6425 229.876 54.3399C229.876 53.0373 228.805 51.9646 227.427 51.9646C226.126 51.9646 224.979 53.0373 224.979 54.3399Z" fill="#EEF5FF"></path><path d="M231.941 54.3399C231.941 55.6425 233.013 56.7152 234.39 56.7152C235.768 56.7152 236.839 55.6425 236.839 54.3399C236.839 53.0373 235.768 51.9646 234.39 51.9646C233.089 51.9646 231.941 53.0373 231.941 54.3399Z" fill="#EEF5FF"></path><path d="M238.982 54.3399C238.982 55.6425 240.054 56.7152 241.431 56.7152C242.809 56.7152 243.88 55.6425 243.88 54.3399C243.88 53.0373 242.809 51.9646 241.431 51.9646C240.054 51.9646 238.982 53.0373 238.982 54.3399Z" fill="#EEF5FF"></path><path d="M245.945 54.3399C245.945 55.6425 247.017 56.7152 248.394 56.7152C249.772 56.7152 250.843 55.6425 250.843 54.3399C250.843 53.0373 249.772 51.9646 248.394 51.9646C247.017 51.9646 245.945 53.0373 245.945 54.3399Z" fill="#EEF5FF"></path><path d="M224.979 77.48C224.979 78.7826 226.05 79.8553 227.427 79.8553C228.805 79.8553 229.876 78.7826 229.876 77.48C229.876 76.1775 228.805 75.1047 227.427 75.1047C226.126 75.1047 224.979 76.1775 224.979 77.48Z" fill="#EEF5FF"></path><path d="M231.941 77.48C231.941 78.7826 233.013 79.8553 234.39 79.8553C235.768 79.8553 236.839 78.7826 236.839 77.48C236.839 76.1775 235.768 75.1047 234.39 75.1047C233.089 75.1047 231.941 76.1775 231.941 77.48Z" fill="#EEF5FF"></path><path d="M238.982 77.48C238.982 78.7826 240.054 79.8553 241.431 79.8553C242.809 79.8553 243.88 78.7826 243.88 77.48C243.88 76.1775 242.809 75.1047 241.431 75.1047C240.054 75.1047 238.982 76.1775 238.982 77.48Z" fill="#EEF5FF"></path><path d="M245.945 77.48C245.945 78.7826 247.017 79.8553 248.394 79.8553C249.772 79.8553 250.843 78.7826 250.843 77.48C250.843 76.1775 249.772 75.1047 248.394 75.1047C247.017 75.1047 245.945 76.1775 245.945 77.48Z" fill="#EEF5FF"></path><path d="M224.979 100.62C224.979 101.923 226.05 102.995 227.427 102.995C228.805 102.995 229.876 101.923 229.876 100.62C229.876 99.3176 228.805 98.2449 227.427 98.2449C226.126 98.2449 224.979 99.3176 224.979 100.62Z" fill="#EEF5FF"></path><path d="M231.941 100.62C231.941 101.923 233.013 102.995 234.39 102.995C235.768 102.995 236.839 101.923 236.839 100.62C236.839 99.3176 235.768 98.2449 234.39 98.2449C233.089 98.2449 231.941 99.3176 231.941 100.62Z" fill="#EEF5FF"></path><path d="M238.982 100.62C238.982 101.923 240.054 102.995 241.431 102.995C242.809 102.995 243.88 101.923 243.88 100.62C243.88 99.3176 242.809 98.2449 241.431 98.2449C240.054 98.2449 238.982 99.3176 238.982 100.62Z" fill="#EEF5FF"></path><path d="M245.945 100.62C245.945 101.923 247.017 102.995 248.394 102.995C249.772 102.995 250.843 101.923 250.843 100.62C250.843 99.3176 249.772 98.2449 248.394 98.2449C247.017 98.2449 245.945 99.3176 245.945 100.62Z" fill="#EEF5FF"></path><path d="M224.979 123.683C224.979 124.986 226.05 126.059 227.427 126.059C228.805 126.059 229.876 124.986 229.876 123.683C229.876 122.381 228.805 121.308 227.427 121.308C226.126 121.385 224.979 122.381 224.979 123.683Z" fill="#EEF5FF"></path><path d="M231.941 123.683C231.941 124.986 233.013 126.059 234.39 126.059C235.768 126.059 236.839 124.986 236.839 123.683C236.839 122.381 235.768 121.308 234.39 121.308C233.089 121.385 231.941 122.381 231.941 123.683Z" fill="#EEF5FF"></path><path d="M238.982 123.683C238.982 124.986 240.054 126.059 241.431 126.059C242.809 126.059 243.88 124.986 243.88 123.683C243.88 122.381 242.809 121.308 241.431 121.308C240.054 121.385 238.982 122.381 238.982 123.683Z" fill="#EEF5FF"></path><path d="M245.945 123.683C245.945 124.986 247.017 126.059 248.394 126.059C249.772 126.059 250.843 124.986 250.843 123.683C250.843 122.381 249.772 121.308 248.394 121.308C247.017 121.385 245.945 122.381 245.945 123.683Z" fill="#EEF5FF"></path><path d="M224.979 146.824C224.979 148.126 226.05 149.199 227.427 149.199C228.805 149.199 229.876 148.126 229.876 146.824C229.876 145.521 228.805 144.448 227.427 144.448C226.126 144.448 224.979 145.521 224.979 146.824Z" fill="#EEF5FF"></path><path d="M231.941 146.824C231.941 148.126 233.013 149.199 234.39 149.199C235.768 149.199 236.839 148.126 236.839 146.824C236.839 145.521 235.768 144.448 234.39 144.448C233.089 144.448 231.941 145.521 231.941 146.824Z" fill="#EEF5FF"></path><path d="M238.982 146.824C238.982 148.126 240.054 149.199 241.431 149.199C242.809 149.199 243.88 148.126 243.88 146.824C243.88 145.521 242.809 144.448 241.431 144.448C240.054 144.448 238.982 145.521 238.982 146.824Z" fill="#EEF5FF"></path><path d="M245.945 146.824C245.945 148.126 247.017 149.199 248.394 149.199C249.772 149.199 250.843 148.126 250.843 146.824C250.843 145.521 249.772 144.448 248.394 144.448C247.017 144.448 245.945 145.521 245.945 146.824Z" fill="#EEF5FF"></path><path d="M224.979 169.963C224.979 171.266 226.05 172.339 227.427 172.339C228.805 172.339 229.876 171.266 229.876 169.963C229.876 168.661 228.805 167.588 227.427 167.588C226.126 167.588 224.979 168.661 224.979 169.963Z" fill="#EEF5FF"></path><path d="M231.941 169.963C231.941 171.266 233.013 172.339 234.39 172.339C235.768 172.339 236.839 171.266 236.839 169.963C236.839 168.661 235.768 167.588 234.39 167.588C233.089 167.588 231.941 168.661 231.941 169.963Z" fill="#EEF5FF"></path><path d="M238.982 169.963C238.982 171.266 240.054 172.339 241.431 172.339C242.809 172.339 243.88 171.266 243.88 169.963C243.88 168.661 242.809 167.588 241.431 167.588C240.054 167.588 238.982 168.661 238.982 169.963Z" fill="#EEF5FF"></path><path d="M245.945 169.963C245.945 171.266 247.017 172.339 248.394 172.339C249.772 172.339 250.843 171.266 250.843 169.963C250.843 168.661 249.772 167.588 248.394 167.588C247.017 167.588 245.945 168.661 245.945 169.963Z" fill="#EEF5FF"></path><path d="M224.979 193.104C224.979 194.406 226.05 195.479 227.427 195.479C228.805 195.479 229.876 194.406 229.876 193.104C229.876 191.801 228.805 190.728 227.427 190.728C226.126 190.728 224.979 191.801 224.979 193.104Z" fill="#EEF5FF"></path><path d="M231.941 193.104C231.941 194.406 233.013 195.479 234.39 195.479C235.768 195.479 236.839 194.406 236.839 193.104C236.839 191.801 235.768 190.728 234.39 190.728C233.089 190.728 231.941 191.801 231.941 193.104Z" fill="#EEF5FF"></path><path d="M238.982 193.104C238.982 194.406 240.054 195.479 241.431 195.479C242.809 195.479 243.88 194.406 243.88 193.104C243.88 191.801 242.809 190.728 241.431 190.728C240.054 190.728 238.982 191.801 238.982 193.104Z" fill="#EEF5FF"></path><path d="M245.945 193.104C245.945 194.406 247.017 195.479 248.394 195.479C249.772 195.479 250.843 194.406 250.843 193.104C250.843 191.801 249.772 190.728 248.394 190.728C247.017 190.728 245.945 191.801 245.945 193.104Z" fill="#EEF5FF"></path><path d="M224.979 216.167C224.979 217.47 226.05 218.542 227.427 218.542C228.805 218.542 229.876 217.47 229.876 216.167C229.876 214.864 228.805 213.792 227.427 213.792C226.126 213.868 224.979 214.864 224.979 216.167Z" fill="#EEF5FF"></path><path d="M231.941 216.167C231.941 217.47 233.013 218.542 234.39 218.542C235.768 218.542 236.839 217.47 236.839 216.167C236.839 214.864 235.768 213.792 234.39 213.792C233.089 213.868 231.941 214.864 231.941 216.167Z" fill="#EEF5FF"></path><path d="M238.982 216.167C238.982 217.47 240.054 218.542 241.431 218.542C242.809 218.542 243.88 217.47 243.88 216.167C243.88 214.864 242.809 213.792 241.431 213.792C240.054 213.868 238.982 214.864 238.982 216.167Z" fill="#EEF5FF"></path><path d="M245.945 216.167C245.945 217.47 247.017 218.542 248.394 218.542C249.772 218.542 250.843 217.47 250.843 216.167C250.843 214.864 249.772 213.792 248.394 213.792C247.017 213.868 245.945 214.864 245.945 216.167Z" fill="#EEF5FF"></path><path d="M154.077 244.747H64.6211V254.938H154.077V244.747Z" fill="white"></path><path d="M69.2114 246.203H66.9922V253.482H69.2114V246.203Z" fill="#EAEAEA"></path><path d="M73.1137 246.203H70.8945V253.482H73.1137V246.203Z" fill="#EAEAEA"></path><path d="M77.0942 246.203H74.875V253.482H77.0942V246.203Z" fill="#EAEAEA"></path><path d="M80.9965 246.203H78.7773V253.482H80.9965V246.203Z" fill="#EAEAEA"></path><path d="M84.975 246.203H82.7559V253.482H84.975V246.203Z" fill="#EAEAEA"></path><path d="M88.8774 246.203H86.6582V253.482H88.8774V246.203Z" fill="#EAEAEA"></path><path d="M92.7797 246.203H90.5605V253.482H92.7797V246.203Z" fill="#EAEAEA"></path><path d="M96.7602 246.203H94.541V253.482H96.7602V246.203Z" fill="#EAEAEA"></path><path d="M100.663 246.203H98.4434V253.482H100.663V246.203Z" fill="#EAEAEA"></path><path d="M104.641 246.203H102.422V253.482H104.641V246.203Z" fill="#EAEAEA"></path><path d="M108.545 246.203H106.326V253.482H108.545V246.203Z" fill="#EAEAEA"></path><path d="M112.524 246.203H110.305V253.482H112.524V246.203Z" fill="#EAEAEA"></path><path d="M116.426 246.203H114.207V253.482H116.426V246.203Z" fill="#EAEAEA"></path><path d="M120.329 246.203H118.109V253.482H120.329V246.203Z" fill="#EAEAEA"></path><path d="M124.309 246.203H122.09V253.482H124.309V246.203Z" fill="#EAEAEA"></path><path d="M128.211 246.203H125.992V253.482H128.211V246.203Z" fill="#EAEAEA"></path><path d="M132.19 246.203H129.971V253.482H132.19V246.203Z" fill="#EAEAEA"></path><path d="M136.092 246.203H133.873V253.482H136.092V246.203Z" fill="#EAEAEA"></path><path d="M139.997 246.203H137.777V253.482H139.997V246.203Z" fill="#EAEAEA"></path><path d="M143.975 246.203H141.756V253.482H143.975V246.203Z" fill="#EAEAEA"></path><path d="M147.877 246.203H145.658V253.482H147.877V246.203Z" fill="#EAEAEA"></path><path d="M151.858 246.203H149.639V253.482H151.858V246.203Z" fill="#EAEAEA"></path><path d="M154.155 255.016H168.082V244.825H154.155V255.016Z" fill="#CCCCCC"></path><path d="M154.153 64.1477H60.0293V244.824H154.153V64.1477Z" fill="#CCCCCC"></path><path d="M166.549 62.6152H66.1504V64.1477H166.549V62.6152Z" fill="#EAEAEA"></path><path d="M57.0445 148.279H56.2793V155.865H57.0445V148.279Z" fill="#EAEAEA"></path><path d="M57.0445 158.47H56.2793V178.239H57.0445V158.47Z" fill="#EAEAEA"></path><path d="M154.143 244.751H172.738L172.738 64.0751H154.143L154.143 244.751Z" fill="white"></path><path d="M149.409 129.813H64.6972C63.3197 129.813 62.1719 128.664 62.1719 127.285V114.336C62.1719 112.956 63.3197 111.807 64.6972 111.807H149.485C150.863 111.807 152.011 112.956 152.011 114.336V127.285C151.934 128.741 150.863 129.813 149.409 129.813Z" fill="#7C7979"></path><path d="M144.358 118.473L140.762 110.964V130.733H144.511H145.506H151.934V120.848H148.261C146.578 120.848 145.124 119.929 144.358 118.473Z" fill="#B5B5B5"></path><path d="M151.934 66.2932H62.1719V86.0618H151.934V66.2932Z" fill="white"></path><path d="M151.934 222.68H62.1719V242.449H151.934V222.68Z" fill="white"></path><path d="M151.934 200.383H62.1719V220.151H151.934V200.383Z" fill="white"></path><path d="M151.934 178.009H62.1719V197.778H151.934V178.009Z" fill="white"></path><path d="M151.934 155.635H62.1719V175.404H151.934V155.635Z" fill="white"></path><path d="M151.934 133.338H62.1719V153.107H151.934V133.338Z" fill="white"></path><path d="M140.762 110.964H51V130.733H140.762V110.964Z" fill="white"></path><path d="M151.934 88.667H62.1719V108.436H151.934V88.667Z" fill="white"></path><path d="M146.348 83.2267H112.218C110.611 83.2267 109.311 81.9242 109.311 80.3151V72.0398C109.311 70.4308 110.611 69.1282 112.218 69.1282H146.348C147.955 69.1282 149.256 70.4308 149.256 72.0398V80.3917C149.256 81.9242 147.955 83.2267 146.348 83.2267Z" fill="#EAEAEA"></path><path d="M130.508 76.7903V75.641C130.508 74.9514 131.043 74.415 131.732 74.415H142.828C143.517 74.415 144.052 74.9514 144.052 75.641V76.7903C144.052 77.4799 143.517 78.0163 142.828 78.0163H131.732C131.043 78.0163 130.508 77.4799 130.508 76.7903Z" fill="#B5B5B5"></path><path d="M146.348 105.6H112.218C110.611 105.6 109.311 104.298 109.311 102.689V94.3369C109.311 92.7279 110.611 91.4253 112.218 91.4253H146.348C147.955 91.4253 149.256 92.7279 149.256 94.3369V102.689C149.256 104.298 147.955 105.6 146.348 105.6Z" fill="#EAEAEA"></path><path d="M130.508 99.0877V97.9384C130.508 97.2488 131.043 96.7124 131.732 96.7124H142.828C143.517 96.7124 144.052 97.2488 144.052 97.9384V99.0877C144.052 99.7773 143.517 100.314 142.828 100.314H131.732C131.043 100.314 130.508 99.7773 130.508 99.0877Z" fill="#B5B5B5"></path><path d="M135.176 127.974H101.047C99.4396 127.974 98.1387 126.672 98.1387 125.063V116.711C98.1387 115.102 99.4396 113.799 101.047 113.799H135.176C136.783 113.799 138.084 115.102 138.084 116.711V125.063C138.084 126.672 136.783 127.974 135.176 127.974Z" fill="#EAEAEA"></path><path d="M119.336 121.461V120.312C119.336 119.623 119.872 119.086 120.56 119.086H131.656C132.345 119.086 132.881 119.623 132.881 120.312V121.461C132.881 122.151 132.345 122.687 131.656 122.687H120.56C119.872 122.687 119.336 122.151 119.336 121.461Z" fill="#B5B5B5"></path><path d="M146.348 150.271H112.218C110.611 150.271 109.311 148.969 109.311 147.36V139.008C109.311 137.399 110.611 136.096 112.218 136.096H146.348C147.955 136.096 149.256 137.399 149.256 139.008V147.36C149.256 148.969 147.955 150.271 146.348 150.271Z" fill="#EAEAEA"></path><path d="M130.508 143.835V142.686C130.508 141.996 131.043 141.46 131.732 141.46H142.828C143.517 141.46 144.052 141.996 144.052 142.686V143.835C144.052 144.525 143.517 145.061 142.828 145.061H131.732C131.043 145.061 130.508 144.448 130.508 143.835Z" fill="#B5B5B5"></path><path d="M146.348 172.645H112.218C110.611 172.645 109.311 171.343 109.311 169.734V161.382C109.311 159.773 110.611 158.47 112.218 158.47H146.348C147.955 158.47 149.256 159.773 149.256 161.382V169.734C149.256 171.343 147.955 172.645 146.348 172.645Z" fill="#EAEAEA"></path><path d="M130.508 166.132V164.983C130.508 164.293 131.043 163.757 131.732 163.757H142.828C143.517 163.757 144.052 164.293 144.052 164.983V166.132C144.052 166.822 143.517 167.358 142.828 167.358H131.732C131.043 167.358 130.508 166.822 130.508 166.132Z" fill="#B5B5B5"></path><path d="M146.348 194.943H112.218C110.611 194.943 109.311 193.64 109.311 192.031V183.679C109.311 182.07 110.611 180.767 112.218 180.767H146.348C147.955 180.767 149.256 182.07 149.256 183.679V192.031C149.256 193.717 147.955 194.943 146.348 194.943Z" fill="#EAEAEA"></path><path d="M130.508 188.506V187.357C130.508 186.667 131.043 186.131 131.732 186.131H142.828C143.517 186.131 144.052 186.667 144.052 187.357V188.506C144.052 189.196 143.517 189.732 142.828 189.732H131.732C131.043 189.732 130.508 189.196 130.508 188.506Z" fill="#B5B5B5"></path><path d="M146.348 217.316H112.218C110.611 217.316 109.311 216.014 109.311 214.405V206.053C109.311 204.444 110.611 203.141 112.218 203.141H146.348C147.955 203.141 149.256 204.444 149.256 206.053V214.405C149.256 216.014 147.955 217.316 146.348 217.316Z" fill="#EAEAEA"></path><path d="M130.508 210.803V209.654C130.508 208.964 131.043 208.428 131.732 208.428H142.828C143.517 208.428 144.052 208.964 144.052 209.654V210.803C144.052 211.493 143.517 212.029 142.828 212.029H131.732C131.043 212.029 130.508 211.493 130.508 210.803Z" fill="#B5B5B5"></path><path d="M146.348 239.69H112.218C110.611 239.69 109.311 238.387 109.311 236.778V228.427C109.311 226.817 110.611 225.515 112.218 225.515H146.348C147.955 225.515 149.256 226.817 149.256 228.427V236.778C149.256 238.387 147.955 239.69 146.348 239.69Z" fill="#EAEAEA"></path><path d="M130.508 233.177V232.028C130.508 231.338 131.043 230.802 131.732 230.802H142.828C143.517 230.802 144.052 231.338 144.052 232.028V233.177C144.052 233.867 143.517 234.403 142.828 234.403H131.732C131.043 234.403 130.508 233.867 130.508 233.177Z" fill="#B5B5B5"></path><path d="M102.425 78.476C103.693 78.476 104.72 77.4469 104.72 76.1773C104.72 74.9078 103.693 73.8787 102.425 73.8787C101.157 73.8787 100.129 74.9078 100.129 76.1773C100.129 77.4469 101.157 78.476 102.425 78.476Z" fill="#EAEAEA"></path><path d="M95.9207 78.476C97.1886 78.476 98.2164 77.4469 98.2164 76.1773C98.2164 74.9078 97.1886 73.8787 95.9207 73.8787C94.6528 73.8787 93.625 74.9078 93.625 76.1773C93.625 77.4469 94.6528 78.476 95.9207 78.476Z" fill="#EAEAEA"></path><path d="M89.4148 78.476C90.6827 78.476 91.7106 77.4469 91.7106 76.1773C91.7106 74.9078 90.6827 73.8787 89.4148 73.8787C88.147 73.8787 87.1191 74.9078 87.1191 76.1773C87.1191 77.4469 88.147 78.476 89.4148 78.476Z" fill="#EAEAEA"></path><path d="M85.1305 76.1773C85.1305 77.4033 84.1357 78.476 82.8348 78.476C81.6104 78.476 80.5391 77.4799 80.5391 76.1773C80.5391 74.8748 81.5339 73.8787 82.8348 73.8787C84.1357 73.8787 85.1305 74.9514 85.1305 76.1773Z" fill="#EAEAEA"></path><path d="M102.425 100.85C103.693 100.85 104.72 99.8206 104.72 98.5511C104.72 97.2816 103.693 96.2524 102.425 96.2524C101.157 96.2524 100.129 97.2816 100.129 98.5511C100.129 99.8206 101.157 100.85 102.425 100.85Z" fill="#EAEAEA"></path><path d="M95.9207 100.85C97.1886 100.85 98.2164 99.8206 98.2164 98.5511C98.2164 97.2816 97.1886 96.2524 95.9207 96.2524C94.6528 96.2524 93.625 97.2816 93.625 98.5511C93.625 99.8206 94.6528 100.85 95.9207 100.85Z" fill="#EAEAEA"></path><path d="M89.4148 100.85C90.6827 100.85 91.7106 99.8206 91.7106 98.5511C91.7106 97.2816 90.6827 96.2524 89.4148 96.2524C88.147 96.2524 87.1191 97.2816 87.1191 98.5511C87.1191 99.8206 88.147 100.85 89.4148 100.85Z" fill="#EAEAEA"></path><path d="M85.1305 98.5511C85.1305 99.7771 84.1357 100.85 82.8348 100.85C81.6104 100.85 80.5391 99.8537 80.5391 98.5511C80.5391 97.3252 81.5339 96.2524 82.8348 96.2524C84.1357 96.2524 85.1305 97.2485 85.1305 98.5511Z" fill="#EAEAEA"></path><path d="M91.2508 123.147C92.5187 123.147 93.5465 122.118 93.5465 120.848C93.5465 119.579 92.5187 118.55 91.2508 118.55C89.9829 118.55 88.9551 119.579 88.9551 120.848C88.9551 122.118 89.9829 123.147 91.2508 123.147Z" fill="#EAEAEA"></path><path d="M84.7469 123.147C86.0148 123.147 87.0426 122.118 87.0426 120.848C87.0426 119.579 86.0148 118.55 84.7469 118.55C83.479 118.55 82.4512 119.579 82.4512 120.848C82.4512 122.118 83.479 123.147 84.7469 123.147Z" fill="#EAEAEA"></path><path d="M78.241 123.147C79.5089 123.147 80.5367 122.118 80.5367 120.848C80.5367 119.579 79.5089 118.55 78.241 118.55C76.9731 118.55 75.9453 119.579 75.9453 120.848C75.9453 122.118 76.9731 123.147 78.241 123.147Z" fill="#EAEAEA"></path><path d="M71.6609 123.147C72.9288 123.147 73.9567 122.118 73.9567 120.848C73.9567 119.579 72.9288 118.55 71.6609 118.55C70.3931 118.55 69.3652 119.579 69.3652 120.848C69.3652 122.118 70.3931 123.147 71.6609 123.147Z" fill="#EAEAEA"></path><path d="M102.425 145.521C103.693 145.521 104.72 144.492 104.72 143.222C104.72 141.953 103.693 140.924 102.425 140.924C101.157 140.924 100.129 141.953 100.129 143.222C100.129 144.492 101.157 145.521 102.425 145.521Z" fill="#EAEAEA"></path><path d="M95.9207 145.521C97.1886 145.521 98.2164 144.492 98.2164 143.222C98.2164 141.953 97.1886 140.924 95.9207 140.924C94.6528 140.924 93.625 141.953 93.625 143.222C93.625 144.492 94.6528 145.521 95.9207 145.521Z" fill="#EAEAEA"></path><path d="M89.4148 145.521C90.6827 145.521 91.7106 144.492 91.7106 143.222C91.7106 141.953 90.6827 140.924 89.4148 140.924C88.147 140.924 87.1191 141.953 87.1191 143.222C87.1191 144.492 88.147 145.521 89.4148 145.521Z" fill="#EAEAEA"></path><path d="M85.1305 143.222C85.1305 144.448 84.1357 145.521 82.8348 145.521C81.6104 145.521 80.5391 144.525 80.5391 143.222C80.5391 141.996 81.5339 140.924 82.8348 140.924C84.1357 140.924 85.1305 141.996 85.1305 143.222Z" fill="#EAEAEA"></path><path d="M102.425 167.895C103.693 167.895 104.72 166.866 104.72 165.596C104.72 164.327 103.693 163.297 102.425 163.297C101.157 163.297 100.129 164.327 100.129 165.596C100.129 166.866 101.157 167.895 102.425 167.895Z" fill="#EAEAEA"></path><path d="M95.9207 167.895C97.1886 167.895 98.2164 166.866 98.2164 165.596C98.2164 164.327 97.1886 163.297 95.9207 163.297C94.6528 163.297 93.625 164.327 93.625 165.596C93.625 166.866 94.6528 167.895 95.9207 167.895Z" fill="#EAEAEA"></path><path d="M89.4148 167.895C90.6827 167.895 91.7106 166.866 91.7106 165.596C91.7106 164.327 90.6827 163.297 89.4148 163.297C88.147 163.297 87.1191 164.327 87.1191 165.596C87.1191 166.866 88.147 167.895 89.4148 167.895Z" fill="#EAEAEA"></path><path d="M85.1305 165.596C85.1305 166.822 84.1357 167.895 82.8348 167.895C81.6104 167.895 80.5391 166.899 80.5391 165.596C80.5391 164.37 81.5339 163.297 82.8348 163.297C84.1357 163.297 85.1305 164.293 85.1305 165.596Z" fill="#EAEAEA"></path><path d="M102.425 190.192C103.693 190.192 104.72 189.163 104.72 187.893C104.72 186.624 103.693 185.594 102.425 185.594C101.157 185.594 100.129 186.624 100.129 187.893C100.129 189.163 101.157 190.192 102.425 190.192Z" fill="#EAEAEA"></path><path d="M95.9207 190.192C97.1886 190.192 98.2164 189.163 98.2164 187.893C98.2164 186.624 97.1886 185.594 95.9207 185.594C94.6528 185.594 93.625 186.624 93.625 187.893C93.625 189.163 94.6528 190.192 95.9207 190.192Z" fill="#EAEAEA"></path><path d="M89.4148 190.192C90.6827 190.192 91.7106 189.163 91.7106 187.893C91.7106 186.624 90.6827 185.594 89.4148 185.594C88.147 185.594 87.1191 186.624 87.1191 187.893C87.1191 189.163 88.147 190.192 89.4148 190.192Z" fill="#EAEAEA"></path><path d="M85.1305 187.893C85.1305 189.119 84.1357 190.192 82.8348 190.192C81.6104 190.192 80.5391 189.196 80.5391 187.893C80.5391 186.667 81.5339 185.594 82.8348 185.594C84.1357 185.594 85.1305 186.667 85.1305 187.893Z" fill="#EAEAEA"></path><path d="M104.72 210.267C104.72 211.493 103.726 212.566 102.425 212.566C101.2 212.566 100.129 211.57 100.129 210.267C100.129 209.041 101.124 207.968 102.425 207.968C103.649 207.968 104.72 208.964 104.72 210.267Z" fill="#EAEAEA"></path><path d="M98.2164 210.267C98.2164 211.493 97.2216 212.566 95.9207 212.566C94.6198 212.566 93.625 211.57 93.625 210.267C93.625 209.041 94.6198 207.968 95.9207 207.968C97.2216 207.968 98.2164 208.964 98.2164 210.267Z" fill="#EAEAEA"></path><path d="M91.6344 210.267C91.6344 211.493 90.6396 212.566 89.3387 212.566C88.0378 212.566 87.043 211.57 87.043 210.267C87.043 209.041 88.0378 207.968 89.3387 207.968C90.6396 207.968 91.6344 208.964 91.6344 210.267Z" fill="#EAEAEA"></path><path d="M85.1305 210.267C85.1305 211.493 84.1357 212.566 82.8348 212.566C81.6104 212.566 80.5391 211.57 80.5391 210.267C80.5391 209.041 81.5339 207.968 82.8348 207.968C84.1357 207.968 85.1305 208.964 85.1305 210.267Z" fill="#EAEAEA"></path><path d="M102.425 234.863C103.693 234.863 104.72 233.834 104.72 232.564C104.72 231.295 103.693 230.265 102.425 230.265C101.157 230.265 100.129 231.295 100.129 232.564C100.129 233.834 101.157 234.863 102.425 234.863Z" fill="#EAEAEA"></path><path d="M95.9207 234.863C97.1886 234.863 98.2164 233.834 98.2164 232.564C98.2164 231.295 97.1886 230.265 95.9207 230.265C94.6528 230.265 93.625 231.295 93.625 232.564C93.625 233.834 94.6528 234.863 95.9207 234.863Z" fill="#EAEAEA"></path><path d="M89.4148 234.863C90.6827 234.863 91.7106 233.834 91.7106 232.564C91.7106 231.295 90.6827 230.265 89.4148 230.265C88.147 230.265 87.1191 231.295 87.1191 232.564C87.1191 233.834 88.147 234.863 89.4148 234.863Z" fill="#EAEAEA"></path><path d="M85.1305 232.564C85.1305 233.79 84.1357 234.863 82.8348 234.863C81.6104 234.863 80.5391 233.867 80.5391 232.564C80.5391 231.338 81.5339 230.265 82.8348 230.265C84.1357 230.342 85.1305 231.338 85.1305 232.564Z" fill="#EAEAEA"></path><path d="M76.0223 76.1775C76.0223 78.9359 73.8031 81.158 71.0483 81.158C68.2934 81.158 66.0742 78.9359 66.0742 76.1775C66.0742 73.4191 68.2934 71.197 71.0483 71.197C73.8031 71.2736 76.0223 73.4957 76.0223 76.1775Z" fill="#EAEAEA"></path><path d="M76.0223 98.5513C76.0223 101.31 73.8031 103.532 71.0483 103.532C68.2934 103.532 66.0742 101.31 66.0742 98.5513C66.0742 95.7929 68.2934 93.5708 71.0483 93.5708C73.8031 93.5708 76.0223 95.7929 76.0223 98.5513Z" fill="#EAEAEA"></path><path d="M64.8504 120.848C64.8504 123.607 62.6312 125.829 59.8764 125.829C57.1215 125.829 54.9023 123.607 54.9023 120.848C54.9023 118.09 57.1215 115.868 59.8764 115.868C62.6312 115.945 64.8504 118.167 64.8504 120.848Z" fill="#EAEAEA"></path><path d="M76.0223 143.222C76.0223 145.981 73.8031 148.203 71.0483 148.203C68.2934 148.203 66.0742 145.981 66.0742 143.222C66.0742 140.464 68.2934 138.242 71.0483 138.242C73.8031 138.242 76.0223 140.464 76.0223 143.222Z" fill="#EAEAEA"></path><path d="M76.0223 165.596C76.0223 168.354 73.8031 170.576 71.0483 170.576C68.2934 170.576 66.0742 168.354 66.0742 165.596C66.0742 162.838 68.2934 160.615 71.0483 160.615C73.8031 160.615 76.0223 162.838 76.0223 165.596Z" fill="#EAEAEA"></path><path d="M76.0223 187.893C76.0223 190.651 73.8031 192.874 71.0483 192.874C68.2934 192.874 66.0742 190.651 66.0742 187.893C66.0742 185.135 68.2934 182.913 71.0483 182.913C73.8031 182.989 76.0223 185.211 76.0223 187.893Z" fill="#EAEAEA"></path><path d="M76.0223 210.267C76.0223 213.026 73.8031 215.248 71.0483 215.248C68.2934 215.248 66.0742 213.026 66.0742 210.267C66.0742 207.509 68.2934 205.287 71.0483 205.287C73.8031 205.287 76.0223 207.509 76.0223 210.267Z" fill="#EAEAEA"></path><path d="M76.0223 232.564C76.0223 235.323 73.8031 237.545 71.0483 237.545C68.2934 237.545 66.0742 235.323 66.0742 232.564C66.0742 229.806 68.2934 227.584 71.0483 227.584C73.8031 227.66 76.0223 229.882 76.0223 232.564Z" fill="#EAEAEA"></path><path d="M143.978 46.831C143.289 42.9999 140.917 39.7817 137.703 37.9428C137.703 37.8662 137.703 37.7129 137.703 37.6363C137.703 30.587 131.963 24.8403 124.923 24.8403H120.026V25.8364C116.735 27.2156 114.21 29.8974 112.986 33.1922C112.603 33.1156 112.144 33.1156 111.685 33.1156C108.471 33.1156 105.716 35.1078 104.568 37.9428C102.961 37.5597 101.201 37.5597 99.2879 38.3259C95.8443 39.7051 93.4721 42.9233 93.3956 46.6778C93.3191 51.8115 97.4513 56.0257 102.502 56.0257H120.561H137.091C140.84 56.0257 144.054 53.0374 144.131 49.2063V49.1297C144.207 48.3635 144.131 47.5972 143.978 46.831Z" fill="white"></path><path d="M139.079 46.831C138.391 42.9999 136.018 39.7817 132.804 37.9428C132.804 37.8662 132.804 37.7129 132.804 37.6363C132.804 30.587 127.065 24.8403 120.025 24.8403C114.515 24.8403 109.847 28.2883 108.087 33.1922C107.705 33.1156 107.245 33.1156 106.786 33.1156C103.572 33.1156 100.817 35.1078 99.6696 37.9428C98.0626 37.5597 96.3025 37.5597 94.3895 38.3259C90.9459 39.7051 88.5737 42.9233 88.4971 46.6778C88.4206 51.8115 92.5529 56.0257 97.6035 56.0257H115.663H132.192C135.942 56.0257 139.156 53.0374 139.232 49.2063V49.1297C139.309 48.3635 139.232 47.5972 139.079 46.831Z" fill="#B5B5B5"></path><path d="M120.942 16.8716H120.33V18.7871H120.942V16.8716Z" fill="#B5B5B5"></path><path d="M244.068 60.5465H243.456V56.7154H244.068V60.5465ZM244.068 52.8842H243.456V49.0531H244.068V52.8842ZM244.068 45.222H243.456V41.3909H244.068V45.222ZM244.068 37.5597H243.456V33.7286H244.068V37.5597ZM244.068 29.8975H243.456V26.0663H244.068V29.8975ZM244.068 22.2352H243.456V18.4041H244.068V22.2352ZM244.068 14.5729H243.456V10.7418H244.068V14.5729ZM121.018 13.0405H120.406V10.4353C120.406 10.0522 120.406 9.59247 120.483 9.20936L121.095 9.28598C121.018 9.6691 121.018 10.0522 121.018 10.4353V13.0405ZM242.921 7.14055C242.538 5.99121 241.849 4.91849 241.084 3.99902L241.543 3.53929C242.385 4.53538 243.074 5.68472 243.533 6.91068L242.921 7.14055ZM122.166 5.68472L121.631 5.37823C122.243 4.22889 123.085 3.2328 124.156 2.38995L124.539 2.84968C123.544 3.69253 122.778 4.612 122.166 5.68472ZM238.1 1.70035C237.028 1.16399 235.804 0.780874 234.58 0.704252L234.656 0.091271C235.957 0.167894 237.258 0.551007 238.406 1.16399L238.1 1.70035ZM127.753 1.08736L127.523 0.474384C128.518 0.167894 129.589 0.0146484 130.66 0.0146484H131.426V0.627629H130.66C129.666 0.627629 128.671 0.780874 127.753 1.08736ZM230.83 0.627629H227.004V0.0146484H230.83V0.627629ZM223.177 0.627629H219.351V0.0146484H223.177V0.627629ZM215.525 0.627629H211.699V0.0146484H215.525V0.627629ZM207.873 0.627629H204.047V0.0146484H207.873V0.627629ZM200.22 0.627629H196.394V0.0146484H200.22V0.627629ZM192.568 0.627629H188.742V0.0146484H192.568V0.627629ZM184.916 0.627629H181.089V0.0146484H184.916V0.627629ZM177.263 0.627629H173.437V0.0146484H177.263V0.627629ZM169.611 0.627629H165.785V0.0146484H169.611V0.627629ZM162.035 0.627629H158.209V0.0146484H162.035V0.627629ZM154.383 0.627629H150.557V0.0146484H154.383V0.627629ZM146.73 0.627629H142.904V0.0146484H146.73V0.627629ZM139.078 0.627629H135.252V0.0146484H139.078V0.627629Z" fill="#B5B5B5"></path><path d="M244.069 64.3777H243.457V66.2933H244.069V64.3777Z" fill="#B5B5B5"></path><path d="M192.723 249.268H198.309L198.921 236.242H193.335L192.723 249.268Z" fill="#FF8B7B"></path><path d="M198.538 248.578H192.416C192.187 248.578 191.957 248.732 191.957 248.961L191.039 253.942C190.963 254.478 191.345 254.938 191.881 254.938C194.1 254.938 197.314 254.785 200.069 254.785C203.359 254.785 203.818 254.938 207.568 254.938C209.864 254.938 210.4 252.639 209.481 252.409C205.043 251.413 203.819 251.337 199.916 248.961C199.457 248.808 198.998 248.578 198.538 248.578Z" fill="#80A3B2"></path><path d="M198.92 236.242L198.614 242.908H192.951L193.334 236.242H198.92Z" fill="#EA7063"></path><path d="M230.371 61.8492C230.295 63.6116 230.142 65.5271 230.065 67.4427C229.988 69.2816 229.988 71.1972 229.988 73.0361C229.988 74.8751 230.065 76.714 230.218 78.4763C230.371 80.2387 230.601 81.9244 231.06 83.3802C231.213 84.1464 231.519 84.7594 231.749 85.1425C231.749 85.2191 231.902 85.449 232.055 85.6022L232.437 86.1386C232.667 86.5217 232.896 86.9048 233.202 87.2879C234.197 88.8204 235.345 90.2762 236.493 91.732C238.789 94.7203 241.314 97.632 243.763 100.544L240.855 103.992C237.411 101.77 234.274 99.3177 231.289 96.5593C229.759 95.1801 228.381 93.7242 227.004 92.1152C226.698 91.732 226.315 91.3489 226.009 90.8892L225.55 90.2762C225.397 90.0464 225.244 89.8931 225.014 89.5866C224.173 88.3607 223.714 87.1347 223.254 86.062C222.413 83.7633 222.03 81.6179 221.724 79.5491C221.418 77.4036 221.265 75.3348 221.188 73.3426C221.112 71.2738 221.112 69.2816 221.188 67.2128C221.265 65.144 221.341 63.2284 221.571 61.083L230.371 61.8492Z" fill="#FF8B7B"></path><path d="M232.361 73.4193L229.989 74.3387L226.01 75.9478L218.893 78.7828C218.893 78.7828 215.679 61.8492 217.363 56.7155C219.276 51.0455 226.087 51.1987 229.76 57.635C233.356 63.9181 232.361 73.4193 232.361 73.4193Z" fill="#379956"></path><path d="M229.606 74.4919L225.933 75.9478C225.321 73.266 224.785 68.8219 226.546 65.5271C229.071 67.5959 229.453 71.8102 229.606 74.4919Z" fill="#1C7735"></path><path d="M226.011 98.0917H195.248C195.019 95.3333 195.707 87.8243 195.248 77.6335C195.172 75.2582 194.942 72.8063 194.713 70.2011C194.177 64.7609 193.259 58.7844 191.805 52.5779C191.805 52.5779 197.008 51.5052 202.059 51.2753C205.962 51.1221 211.701 50.9689 215.144 51.2753C219.736 51.6585 224.098 52.8844 224.098 52.8844C224.098 52.8844 231.291 65.6804 226.011 98.0917Z" fill="#379956"></path><path d="M195.247 77.5568C195.17 75.1815 194.941 72.7296 194.711 70.1244C195.706 69.5114 197.007 69.4348 197.236 73.1127C197.542 76.4841 196.318 77.4036 195.247 77.5568Z" fill="#1C7735"></path><path d="M252.334 104.758L247.896 107.516L242.463 106.367L246.825 100.927L252.334 104.758Z" fill="#FF8B7B"></path><path d="M241.698 100.16L246.825 101.003L242.463 106.443C242.463 106.443 239.708 106.137 239.02 102.459L241.698 100.16Z" fill="#FF8B7B"></path><path d="M202.824 36.4871C203.819 40.7013 204.89 48.4402 202.059 51.1986C202.059 51.1986 203.513 54.0336 211.318 54.0336C218.435 54.0336 215.144 51.1986 215.144 51.1986C210.4 50.0493 210.4 46.6012 211.088 43.3065L202.824 36.4871Z" fill="#FF8B7B"></path><path d="M206.191 39.2456L211.088 43.3066C210.935 44.0728 210.782 44.8391 210.782 45.6053C209.328 47.0611 206.421 43.3832 206.191 41.4677C206.038 40.6248 206.038 39.7053 206.191 39.2456Z" fill="#EA7063"></path><path d="M219.505 25.7598C221.495 28.2118 219.199 35.874 215.144 35.6442C211.088 35.4909 215.756 21.0859 219.505 25.7598Z" fill="#0F264C"></path><path d="M203.666 29.4379C203.207 35.108 202.671 38.4028 205.12 41.7742C208.793 46.8313 216.139 45.5287 218.282 40.1651C220.195 35.3379 220.578 26.8328 215.374 23.6146C210.247 20.4731 204.048 23.7679 203.666 29.4379Z" fill="#FF8B7B"></path><path d="M201.599 22.312L207.721 24.4574C205.043 28.0587 208.945 36.5638 204.201 34.9547C201.982 34.2651 194.942 26.373 201.599 22.312Z" fill="#0F264C"></path><path d="M204.583 23.7677C206.879 25.4534 216.291 27.5223 221.648 24.4574C220.27 24.1509 218.434 23.2314 218.434 23.2314C218.434 23.2314 222.49 23.0781 224.25 20.0899C220.424 20.7028 217.822 19.5535 216.827 19.1704C218.587 18.7873 220.424 16.9483 220.959 15.6458C213.536 15.7224 197.543 17.2548 200.298 22.4652C203.129 27.7521 204.583 23.7677 204.583 23.7677Z" fill="#0F264C"></path><path d="M201.37 23.0781C201.37 23.0781 199.533 22.2352 198.309 20.9326C198.003 21.7755 198.003 24.1508 201.37 23.0781Z" fill="#0F264C"></path><path d="M200.22 35.1845C200.833 36.6403 202.057 37.6364 203.205 38.0962C204.965 38.7858 206.036 37.3299 205.654 35.491C205.347 33.8819 203.97 31.5833 202.133 31.5833C200.373 31.7365 199.532 33.5754 200.22 35.1845Z" fill="#FF8B7B"></path><path d="M209.939 249.268H215.602L216.75 236.242H211.087L209.939 249.268Z" fill="#FF8B7B"></path><path d="M215.831 248.578H209.709C209.48 248.578 209.25 248.732 209.25 248.961L208.332 253.942C208.255 254.478 208.638 254.938 209.174 254.938C211.393 254.938 214.607 254.785 217.362 254.785C220.652 254.785 223.407 254.938 227.233 254.938C229.529 254.938 230.065 252.639 229.146 252.409C224.708 251.413 221.111 251.337 217.209 248.961C216.75 248.808 216.29 248.578 215.831 248.578Z" fill="#80A3B2"></path><path d="M216.75 236.242L216.137 242.908H210.475L211.087 236.242H216.75Z" fill="#EA7063"></path><path d="M218.204 249.421C218.663 249.498 219.046 249.498 219.352 249.268C219.582 249.115 219.735 248.885 219.735 248.579C219.735 248.349 219.658 248.195 219.582 248.195C218.97 247.812 216.98 248.579 216.75 248.732C216.674 248.732 216.674 248.808 216.674 248.885C216.674 248.962 216.674 248.962 216.75 249.038C217.056 249.192 217.669 249.345 218.204 249.421ZM219.199 248.425C219.276 248.425 219.352 248.425 219.352 248.502C219.352 248.502 219.429 248.579 219.429 248.655C219.429 248.885 219.352 249.038 219.199 249.115C218.893 249.345 218.128 249.268 217.133 248.885C217.822 248.655 218.74 248.349 219.199 248.425Z" fill="white"></path><path d="M216.751 249.038C217.439 248.808 218.74 247.736 218.664 247.123C218.664 246.969 218.587 246.816 218.281 246.74C218.052 246.663 217.899 246.74 217.669 246.816C216.904 247.276 216.598 248.885 216.598 248.962C216.598 248.885 216.598 248.962 216.751 249.038ZM218.205 246.893C218.434 246.969 218.434 247.046 218.434 247.046C218.434 247.429 217.592 248.272 216.98 248.578C217.133 248.119 217.439 247.199 217.899 246.893C217.975 246.893 218.052 246.893 218.205 246.893Z" fill="white"></path><path d="M208.41 241.299H217.593C217.593 241.299 231.673 187.434 231.444 169.121C231.214 151.574 226.087 98.0151 226.087 98.0151H205.885C205.885 98.0151 207.492 109.892 209.252 124.603C210.859 137.552 212.619 152.724 213.614 163.757C213.92 167.052 214.149 169.964 214.302 172.339C215.221 190.345 208.41 241.299 208.41 241.299Z" fill="white"></path><path d="M209.098 124.68C210.705 137.629 212.465 152.8 213.46 163.834C215.602 154.179 220.806 126.212 213 112.037C211.087 114.795 209.863 119.623 209.098 124.68Z" fill="#DBDCDD"></path><path d="M215.068 98.0916C215.068 98.0916 214.303 149.735 211.318 166.209C208.028 184.292 201.523 241.376 201.523 241.376H190.963C190.963 241.376 192.493 185.748 194.1 167.895C195.86 148.509 195.172 98.1682 195.172 98.1682H215.068V98.0916Z" fill="white"></path><path d="M190.58 241.529H201.905L202.747 237.238L190.197 236.932L190.58 241.529Z" fill="#80A3B2"></path><path d="M207.874 241.529H219.2L220.042 237.238L207.568 237.468L207.874 241.529Z" fill="#80A3B2"></path><path d="M195.018 235.093C194.941 235.093 194.941 235.016 194.941 235.016C195.018 234.48 195.783 184.522 197.237 168.508C198.768 151.038 197.849 104.834 197.849 104.451C197.849 104.375 197.926 104.375 197.926 104.375C198.002 104.375 198.002 104.451 198.002 104.451C198.002 104.834 198.921 151.115 197.39 168.508C195.936 184.599 195.171 234.48 195.094 235.016L195.018 235.093Z" fill="#DBDCDD"></path><path d="M212.005 32.5795C211.929 33.0392 212.158 33.4223 212.464 33.4989C212.77 33.5756 213.076 33.1924 213.153 32.7327C213.229 32.273 213 31.8899 212.694 31.8132C212.311 31.8132 212.082 32.1197 212.005 32.5795Z" fill="#0F264C"></path><path d="M217.286 33.1923C217.21 33.652 217.439 34.0351 217.745 34.1117C218.052 34.1883 218.358 33.8052 218.434 33.3455C218.511 32.8858 218.281 32.5026 217.975 32.426C217.669 32.426 217.363 32.7325 217.286 33.1923Z" fill="#0F264C"></path><path d="M215.526 33.3455C215.526 33.3455 216.215 36.1805 217.209 37.6363C216.291 38.2493 214.99 37.6363 214.99 37.6363L215.526 33.3455Z" fill="#FF5652"></path><path d="M213.918 39.5519C213.995 39.5519 214.071 39.4753 214.071 39.3986C214.071 39.322 213.995 39.2454 213.918 39.2454C211.852 38.9389 211.087 37.4065 211.087 37.4065C211.087 37.3298 210.934 37.3298 210.934 37.3298C210.857 37.3298 210.857 37.4065 210.857 37.4831C210.934 37.6363 211.776 39.2454 213.918 39.5519Z" fill="#0F264C"></path><path d="M210.629 29.2847C210.706 29.2847 210.782 29.2847 210.859 29.2081C211.777 28.4418 212.772 28.7483 212.772 28.7483C212.925 28.8249 213.078 28.7483 213.078 28.5951C213.154 28.4418 213.078 28.2886 212.925 28.212C212.848 28.212 211.7 27.8289 210.476 28.7483C210.323 28.8249 210.323 28.9782 210.476 29.1314C210.476 29.2081 210.553 29.2847 210.629 29.2847Z" fill="#0F264C"></path><path d="M196.318 51.505L197.772 51.3518C197.925 51.3518 198.078 51.4284 198.078 51.5817C202.899 73.3425 201.445 96.4059 201.445 96.4059H199.838C200.298 72.4996 196.624 54.3401 196.089 51.8115C196.012 51.6583 196.165 51.505 196.318 51.505Z" fill="#1C7735"></path><path d="M200.145 96.9423H201.216C201.522 96.9423 201.752 96.7125 201.752 96.406C201.752 96.0995 201.522 95.8696 201.216 95.8696H200.145C199.839 95.8696 199.609 96.0995 199.609 96.406C199.609 96.6359 199.839 96.9423 200.145 96.9423Z" fill="#0F264C"></path><path d="M201.446 98.2448L201.37 96.789C201.37 96.4059 201.064 96.0994 200.681 96.0994C200.298 96.0994 199.992 96.4059 199.992 96.789L200.069 98.2448C200.069 98.6279 200.375 98.9344 200.757 98.9344C201.14 98.9344 201.446 98.6279 201.446 98.2448Z" fill="#0F264C"></path><path d="M219.657 30.4338C219.734 30.4338 219.734 30.4338 219.811 30.4338C219.964 30.3572 220.04 30.2039 219.964 30.1273C219.504 28.6715 218.28 28.2884 218.28 28.2884C218.127 28.2117 217.974 28.2884 217.974 28.4416C217.897 28.5948 218.05 28.7481 218.127 28.7481C218.204 28.7481 219.122 29.0546 219.428 30.2039C219.504 30.3572 219.581 30.4338 219.657 30.4338Z" fill="#0F264C"></path><path d="M195.247 61.6192C194.406 65.2205 193.487 68.975 192.722 72.6529C192.339 74.4918 191.957 76.3307 191.727 78.0931C191.498 79.8554 191.192 81.6943 191.268 83.0735C191.345 85.9852 192.416 88.9735 194.406 91.5786C195.4 92.8812 196.625 94.1838 197.926 95.3331C198.614 95.9461 199.303 96.4825 199.992 97.0188C200.374 97.2487 200.681 97.5552 201.063 97.7851C201.446 98.0149 201.828 98.3214 202.134 98.4747L200.451 102.689C199.839 102.536 199.38 102.382 198.844 102.153C198.385 101.923 197.849 101.769 197.39 101.54C196.395 101.08 195.477 100.62 194.559 100.084C192.722 99.011 190.962 97.7084 189.355 96.0994C187.748 94.4903 186.371 92.6513 185.223 90.5825C184.151 88.4371 183.386 86.1384 183.157 83.6865C182.927 81.2346 183.004 79.1658 183.157 77.0203C183.31 74.9515 183.616 72.9593 183.922 70.9672C184.534 66.9828 185.452 63.1516 186.524 59.2439L195.247 61.6192Z" fill="#FF8B7B"></path><path d="M191.804 52.5012C185.682 53.5739 182.238 69.8946 182.238 69.8946L197.313 75.2581C197.313 75.2581 198.461 69.8946 197.313 62.8453C196.242 55.9492 197.543 51.5051 191.804 52.5012Z" fill="#379956"></path><path d="M220.654 51.7351L222.108 52.0416C222.261 52.0416 222.337 52.1948 222.337 52.2715C226.163 74.0323 223.638 96.4061 223.638 96.4061H222.031C223.562 72.7297 220.807 54.8766 220.348 52.1182C220.348 51.8884 220.501 51.7351 220.654 51.7351Z" fill="#1C7735"></path><path d="M222.336 96.9423H223.408C223.714 96.9423 223.943 96.7125 223.943 96.406C223.943 96.0995 223.714 95.8696 223.408 95.8696H222.336C222.03 95.8696 221.801 96.0995 221.801 96.406C221.801 96.6359 222.03 96.9423 222.336 96.9423Z" fill="#0F264C"></path><path d="M223.561 98.245V96.7892C223.561 96.4061 223.255 96.0996 222.872 96.0996C222.49 96.0996 222.184 96.4061 222.184 96.7892V98.245C222.184 98.6282 222.49 98.9346 222.872 98.9346C223.255 98.9346 223.561 98.6282 223.561 98.245Z" fill="#0F264C"></path><path d="M200.833 249.421C201.292 249.498 201.675 249.498 201.981 249.268C202.211 249.115 202.364 248.885 202.364 248.579C202.364 248.349 202.287 248.195 202.211 248.195C201.598 247.812 199.609 248.579 199.379 248.732C199.303 248.732 199.303 248.808 199.303 248.885C199.303 248.962 199.303 248.962 199.379 249.038C199.762 249.192 200.374 249.345 200.833 249.421ZM201.828 248.425C201.905 248.425 201.981 248.425 201.981 248.502C201.981 248.502 202.058 248.579 202.058 248.655C202.058 248.885 201.981 249.038 201.828 249.115C201.522 249.345 200.757 249.268 199.762 248.885C200.527 248.655 201.445 248.349 201.828 248.425Z" fill="white"></path><path d="M199.456 249.038C200.144 248.808 201.445 247.736 201.369 247.123C201.369 246.969 201.292 246.816 200.986 246.74C200.757 246.663 200.604 246.74 200.374 246.816C199.609 247.276 199.303 248.885 199.303 248.962C199.303 248.885 199.303 248.962 199.456 249.038C199.379 249.038 199.379 249.038 199.456 249.038ZM200.833 246.893C200.91 246.893 200.91 246.893 200.833 246.893C201.063 246.969 201.063 247.046 201.063 247.046C201.063 247.429 200.221 248.272 199.609 248.578C199.762 248.119 200.068 247.199 200.527 246.893C200.68 246.893 200.757 246.893 200.833 246.893Z" fill="white"></path><path d="M197.467 101.616L199.227 98.3982L204.048 98.5514L207.797 100.084L210.323 103.838L203.742 103.455C203.818 103.532 199.763 104.681 197.467 101.616Z" fill="#FF8B7B"></path><path d="M210.781 54.0338L209.634 53.1909L207.338 55.4896L210.781 54.0338Z" fill="#105B22"></path><path d="M209.633 53.1908C209.633 53.1908 207.72 55.9492 207.414 57.9414C205.042 56.9453 200.45 54.4934 199.762 51.0453C200.68 50.8921 202.134 49.896 202.134 49.896C202.134 49.896 204.659 51.9648 209.633 53.1908Z" fill="#1C7735"></path><path d="M210.781 54.0337L211.24 53.1143L214.378 55.4896L210.781 54.0337Z" fill="#105B22"></path><path d="M211.24 53.1141C211.24 53.1141 213.306 54.8764 213.689 57.5582C215.985 56.5621 216.826 53.344 216.138 51.2752C214.837 50.6622 213.306 50.3557 213.306 50.3557C213.306 50.3557 213.612 52.3479 211.24 53.1141Z" fill="#1C7735"></path><path d="M266.338 75.9476L218.128 74.1853L211.164 102.382L259.374 104.145L266.338 75.9476Z" fill="#234C63"></path><path d="M267.869 75.9477L219.659 74.262L212.695 102.459L260.829 104.145L267.869 75.9477Z" fill="#254654"></path><path d="M260.828 104.145L260.675 105.754L212.465 104.068L212.694 102.459L260.828 104.145Z" fill="#3A6C82"></path><path d="M212.695 102.459L212.466 104.068L193.564 103.379L193.794 101.77L212.695 102.459Z" fill="#234C63"></path></g><defs><clipPath id="clip0_728_4728"><rect width="280" height="255" fill="white" transform="translate(0 0.0146484)"></rect></clipPath></defs></svg>