<svg xmlns="http://www.w3.org/2000/svg" width="286" height="261" viewBox="0 0 286 261" fill="none"><g clip-path="url(#clip0_720_2601)"><path d="M48.8195 212.259C31.1743 210.062 13.4416 198.639 4.81609 178.693C-3.80945 158.747 -0.744536 130.102 14.0108 117.45C19.8342 112.485 26.971 110.025 31.8311 103.567C40.4128 92.1877 38.3988 73.6476 42.6021 58.7102C48.7757 36.7433 68.7414 24.9251 86.7806 27.2536C98.077 28.7034 108.76 34.6344 119.969 37.2705C135.162 40.873 145.058 29.4503 159.069 21.1028C165.549 17.2367 177.59 6.4729 184.245 3.13394C190.9 -0.205027 203.685 -0.600431 210.778 0.629715C239.545 5.6821 233.853 35.7767 256.402 54.7122C268.793 65.1245 283.942 89.5077 282.847 110.201C282.103 124.391 268.311 134.1 267.654 148.247C267.085 160.373 274.879 169.555 275.973 174.256C280.571 193.938 276.192 216.388 225.139 214.016" fill="white" fill-opacity="0.2"></path><path d="M80.2559 106.115L81.0878 105.456" stroke="#379956" stroke-width="1.5" stroke-linecap="round" stroke-linejoin="round"></path><path d="M82.7949 104.094L132.928 64.7729" stroke="#379956" stroke-width="1.5" stroke-linecap="round" stroke-linejoin="round" stroke-dasharray="4.93 4.93"></path><path d="M133.805 64.1141L134.637 63.4551L135.337 64.2898" stroke="#379956" stroke-width="1.5" stroke-linecap="round" stroke-linejoin="round"></path><path d="M136.693 65.8713L152.105 84.1478" stroke="#379956" stroke-width="1.5" stroke-linecap="round" stroke-linejoin="round" stroke-dasharray="4.74 4.74"></path><path d="M152.807 84.9387L153.507 85.7735L154.339 85.0705" stroke="#379956" stroke-width="1.5" stroke-linecap="round" stroke-linejoin="round"></path><path d="M156.047 83.6646L223.125 28.3081" stroke="#379956" stroke-width="1.5" stroke-linecap="round" stroke-linejoin="round" stroke-dasharray="5.02 5.02"></path><path d="M223.957 27.6051L224.789 26.946" stroke="#379956" stroke-width="1.5" stroke-linecap="round" stroke-linejoin="round"></path><path d="M222.776 156.155H49.8711V15.699" stroke="#71A8B5" stroke-width="3.2549" stroke-miterlimit="10"></path><path d="M47.2871 15.9627L49.8704 11.4814L52.4537 15.9627H47.2871Z" fill="#71A8B5"></path><path d="M221.986 153.563L226.452 156.155L221.986 158.747V153.563Z" fill="#71A8B5"></path><path d="M97.859 98.9536H65.0645V160.461H97.859V98.9536Z" fill="#234C63"></path><path d="M147.509 71.0117H114.715V160.417H147.509V71.0117Z" fill="#234C63"></path><path d="M204.955 32.2183H172.16V160.461H204.955V32.2183Z" fill="#234C63"></path><path d="M76.4914 161.999C76.4914 161.999 73.9081 162.526 71.9378 161.252C71.9378 161.252 70.887 163.097 70.8432 164.063C70.7994 164.679 70.7994 165.206 70.887 165.689C70.9746 166.172 71.4124 166.48 71.894 166.48H82.8839C82.8839 166.48 84.285 166.128 83.3656 165.074C83.1466 164.81 82.0082 164.02 79.5563 163.492C79.206 163.404 78.8558 163.317 78.5055 163.141C77.6298 162.702 76.9292 162.262 76.4914 161.999Z" fill="#161819"></path><path d="M59.7672 161.339C59.7672 161.339 62.3067 162.613 63.7516 161.998C63.7516 161.998 64.5835 163.009 65.4592 163.448C66.1598 163.844 68.349 164.459 68.3928 165.557C68.3928 165.821 68.1738 166.348 67.7798 166.48H59.3294C58.9353 166.48 58.6288 166.216 58.5413 165.821C58.4099 164.986 58.4099 163.272 59.7672 161.339Z" fill="#161819"></path><path d="M83.9796 122.063C82.9288 112.925 80.2142 103.171 79.7326 101.59C78.8131 101.853 74.9163 102.468 71.1946 102.6C70.7567 102.6 70.2751 102.6 69.8373 102.644L69.1367 112.925C70.2751 116.571 74.566 130.366 74.566 130.366C74.566 130.366 73.5589 135.287 73.2962 137.22C72.4206 143.019 71.8514 161.383 71.8514 161.383C74.4784 162.877 77.0617 162.394 77.0617 162.394C77.0617 162.394 84.2861 129.356 84.2861 126.764C84.2861 126.017 83.9796 122.063 83.9796 122.063Z" fill="#379956"></path><path d="M69.4434 101.59C70.7132 104.226 70.9759 109.146 70.8883 111.343C70.757 115.429 69.0056 129.268 68.524 132.958C68.305 139.548 63.9704 162.262 63.9704 162.262C61.606 162.789 59.2417 161.779 59.2417 161.779C59.2417 161.779 57.7968 144.864 59.373 133.53C58.1908 128.301 57.3589 114.946 57.3589 114.946C57.3589 114.946 55.2573 103.127 57.8406 100.667C60.6865 97.8553 66.685 102.161 69.4434 101.59Z" fill="#379956"></path><path d="M74.0852 63.587C73.6036 64.7293 72.0711 66.267 70.8014 66.4427C66.5543 67.0578 64.7154 64.4217 64.0586 63.4552C64.1462 63.4113 64.2775 63.3673 64.3651 63.3673C65.1094 63.1037 65.81 62.225 65.8975 61.3024C66.0289 60.1162 66.0289 57.8317 65.7224 56.4697L71.5457 58.5346C71.5895 58.93 71.6333 59.3694 71.6771 59.8526C71.6771 60.1162 71.7209 60.3798 71.7209 60.6874C71.7209 60.951 71.7209 61.1706 71.7647 61.3903C71.8084 62.1372 72.2463 62.7962 72.9031 63.1037L74.0852 63.587Z" fill="#F7B59C"></path><path d="M72.9458 52.1641C72.8583 52.9988 73.2523 53.7896 73.734 54.4486C74.0842 54.9319 74.5659 55.3273 75.1351 55.4152C75.7481 55.503 75.7918 47.9904 75.4853 47.595C75.0913 47.0678 74.3469 46.7602 73.6902 46.892" fill="#362D70"></path><path d="M71.7643 60.6433C71.2827 60.7312 70.6259 60.7751 70.407 60.7312C69.0497 60.5115 68.2616 59.7207 67.9551 58.9299C68.9183 59.3693 70.1005 59.8086 71.7205 59.8086C71.7643 60.1161 71.7643 60.3797 71.7643 60.6433Z" fill="#ED9780"></path><path d="M73.1213 46.4088C75.9235 48.8252 76.7117 58.7982 75.3981 59.3693C72.9462 60.4677 68.6991 60.3358 66.5537 58.6664C64.2331 56.8651 64.1017 52.5596 64.1017 49.8357C64.058 47.3754 64.6709 44.0804 67.7796 44.1682C69.7937 44.2561 71.5889 45.0908 73.1213 46.4088Z" fill="#F7B59C"></path><path d="M65.4596 49.2206C66.2039 49.8796 70.4948 50.1872 73.7348 48.6055C75.924 47.5072 76.143 46.98 76.2305 46.8921C77.3251 45.4862 77.4565 42.0594 73.8224 42.5866C73.3408 42.6306 68.3931 43.3774 67.8677 43.4653C66.9482 43.641 66.0288 43.9046 65.2844 44.4758C64.5401 45.0908 64.0147 46.1453 64.3649 47.1118" fill="#362D70"></path><path d="M66.6851 48.1224C67.2105 48.5178 67.4294 49.1768 67.5608 49.8358C67.7797 50.8023 67.8673 51.8128 67.5608 52.7354C67.4732 52.999 67.6046 54.2731 67.2981 54.2292C67.2105 54.2292 67.0792 53.3065 66.8165 52.8672C66.4224 52.1203 65.3278 52.0325 64.9775 52.5597C64.3207 53.5262 64.8899 54.4488 65.1526 54.8882C65.3716 55.2396 65.7218 55.5911 65.8094 55.9426C65.9408 56.4258 66.2473 58.1832 66.0283 58.6665C65.8094 59.0619 65.2402 57.4363 64.9775 57.1288C62.7883 54.976 61.3434 47.9906 63.7078 46.8483C64.1894 46.6286 64.7148 46.4529 65.1526 46.6286" fill="#362D70"></path><path d="M79.9951 99.349C79.7762 98.7339 79.6449 98.0749 79.6011 97.372L79.7762 78.744L78.7692 64.9928C76.7113 63.9823 74.3032 63.499 73.734 63.3672C73.4275 63.2794 72.4642 62.9279 71.9826 62.1371C71.9826 62.1371 71.501 63.1476 70.4501 63.3233C70.4501 63.3233 70.3188 65.3882 70.0999 65.52C69.8809 65.6518 69.6182 63.3233 69.6182 63.3233C69.6182 63.3233 67.9982 63.2354 65.8528 61.6538C65.8528 61.6538 65.196 63.0597 64.2327 63.3233C64.189 63.3233 64.1014 63.3672 64.0138 63.3672C63.3133 63.499 61.5181 63.8944 59.9419 64.4216L56.877 79.447C56.877 79.447 58.3656 90.9576 58.1029 98.2946C58.0591 99.1732 56.3078 100.975 58.0591 101.502C58.0591 101.502 60.9051 102.732 70.2312 103.215C72.6394 103.347 78.2875 103.435 79.7762 101.502C80.4768 101.106 80.2578 100.052 79.9951 99.349Z" fill="#234C63"></path><path d="M69.5306 66.3108C69.5306 66.3108 67.0348 87.1793 67.21 90.3426C67.4289 93.5058 69.8808 99.7883 70.7127 100.096C71.5446 100.403 73.296 93.5497 73.6463 90.694C73.9966 87.8383 70.6252 66.3108 70.6252 66.3108" fill="#F3FEFF"></path><path d="M69.2238 63.587C69.5303 63.3673 70.406 63.3673 70.7562 63.4991C71.1065 63.6309 71.4568 64.5975 71.5006 64.8611C71.5444 65.1247 70.9314 66.0473 70.6687 66.3988C70.2308 66.4866 69.5303 66.4427 69.5303 66.4427C69.5303 66.4427 68.7422 65.6079 68.6546 64.8171C68.6108 64.4217 68.9173 63.7627 69.2238 63.587Z" fill="#F3FEFF"></path><path d="M72.0268 62.181C72.0268 62.181 71.1511 62.9279 70.2754 63.4112C70.2754 63.4112 71.4576 65.6518 71.5889 65.6518C71.7203 65.6518 73.603 63.543 73.6468 63.3672C73.6906 63.1915 72.1143 62.0932 72.0268 62.181Z" fill="#234C63"></path><path d="M65.8972 61.522C65.8972 61.522 67.5172 62.7521 70.2319 63.4111C70.2319 63.4111 69.1811 65.5639 69.0059 65.6517C68.8308 65.6957 66.2475 64.817 64.6713 63.1915C64.6275 63.1915 65.6783 61.522 65.8972 61.522Z" fill="#234C63"></path><path d="M83.4109 72.4177C83.4109 72.4177 90.0223 80.9409 90.8542 81.5559C89.9348 83.1376 86.6071 87.9703 84.0239 84.8949C82.7979 83.4451 78.0254 76.8111 78.0254 76.8111" fill="#F7B59C"></path><path d="M84.2855 74.2629C84.2855 74.2629 83.3223 80.0622 84.2855 83.1376L86.0807 75.9324L84.2855 74.2629Z" fill="#ED9780"></path><path d="M80.3447 65.7837C79.9507 65.5201 77.455 64.29 76.0977 63.9824L77.3236 67.2335C77.1485 67.2775 77.0171 67.2775 77.0171 67.2775C77.0171 67.2775 76.229 71.4512 76.229 71.583C76.229 71.7148 77.849 76.4157 77.849 76.4157L79.7318 79.0956C79.7318 79.0956 82.8842 78.3488 85.774 75.4052C85.7302 75.4052 82.2713 67.0138 80.3447 65.7837Z" fill="#3DD1F9"></path><path d="M100.268 69.2545L100.575 67.1896L99.1734 66.8821L97.5096 66.926L96.0647 68.7273C96.0647 68.7273 96.0647 68.8152 96.0647 68.9909L95.7582 68.8152C95.7582 68.8152 94.3571 70.5725 92.562 72.3299C90.9419 73.8676 88.9278 75.3613 88.0959 76.24C87.8332 76.5036 87.5267 76.855 87.1765 77.2505C87.1765 77.2505 87.0889 77.3823 86.9138 77.558L86.87 77.6019C85.8629 78.7442 83.0607 82.215 84.637 83.8844C87.5267 86.8719 91.8614 80.3697 91.8614 80.3697C93.4814 77.7777 95.189 74.7462 96.3712 72.6374C96.7653 71.9345 97.1155 71.5391 97.3345 71.4073C97.5534 71.2315 99.1734 70.5286 99.4361 70.4407C99.9615 70.1771 100.268 69.2545 100.268 69.2545Z" fill="#F7B59C"></path><path d="M120.627 37.7979L90.372 40.7853L94.6191 46.0574L34.5469 95.1754L47.2444 110.772L107.317 61.6539L111.607 66.9699L120.627 37.7979Z" fill="#379956"></path><path d="M59.373 76.3717C59.373 76.3717 58.7162 78.1291 57.7092 80.0622C57.3589 80.7651 56.921 81.512 56.4832 82.2149C56.4394 82.3028 56.3519 82.3906 56.3081 82.4785C55.9578 82.9618 55.6075 83.4451 55.2572 83.8405C54.9507 84.1919 54.6443 84.4995 54.3378 84.7191C51.7545 86.6522 48.7771 82.6982 48.9085 81.9952C49.0836 81.2923 51.7107 75.0537 51.7107 75.0537L59.373 76.3717Z" fill="#F7B59C"></path><path d="M56.4391 82.171C56.3953 82.2589 56.3077 82.3467 56.264 82.4346C55.9137 82.9179 55.5634 83.4011 55.2131 83.7965H55.1693L53.418 81.2923C53.418 81.2923 54.2061 81.2484 56.4391 82.171Z" fill="#ED9780"></path><path d="M56.5706 65.7837C56.9646 65.5641 59.942 64.4218 61.2555 64.0703L60.336 67.2775C60.5112 67.3214 60.6425 67.3214 60.6425 67.3214C60.6425 67.3214 62.0436 71.5391 61.9998 71.6709C60.4674 76.4157 57.9717 79.8425 57.9717 79.8425C57.9717 79.8425 53.8559 78.9639 50.791 76.4596C50.8348 76.4157 54.2062 67.1017 56.5706 65.7837Z" fill="#234C63"></path><path d="M55.563 82.5224C53.7241 80.5893 50.7905 79.7106 49.2143 81.3801C48.0321 82.6542 49.9148 85.2902 52.7608 87.6187C56.6138 90.738 62.0869 93.5058 62.1307 93.5498L63.6631 91.2652C61.2112 89.2003 57.6209 84.6751 55.563 82.5224Z" fill="#F7B59C"></path><path d="M67.9547 94.6921C68.0861 94.4285 67.9985 94.0331 67.692 93.5498C67.692 93.5498 67.692 93.5498 67.7358 93.5938C68.0423 93.9452 68.3488 93.7695 68.3926 93.5938C68.4364 93.418 67.9547 92.2318 67.692 92.1C67.3855 91.9682 65.6342 91.6607 64.9336 91.441C64.4958 91.3092 63.7952 91.3092 63.1384 90.8259L60.9492 92.9347C61.3433 93.1544 62.0438 93.5938 62.4817 94.1649C63.9703 96.0101 64.6709 96.2737 64.846 96.4495L64.7147 96.5373C64.7147 96.5373 65.1087 96.8449 65.5028 96.8449C65.8531 96.8009 65.9844 96.3176 65.9844 96.3176C65.9844 96.3176 66.2034 96.3616 66.4223 96.1419C66.6412 95.9222 66.6412 95.7465 66.6412 95.7465C66.6412 95.7465 67.0353 95.6586 67.2104 95.5268C67.3417 95.395 67.4731 95.0875 67.4731 95.0875C67.4731 95.0875 67.8672 94.9118 67.9547 94.6921Z" fill="#F7B59C"></path><path d="M96.6328 70.3969C96.6328 70.3969 96.9831 69.8697 97.0707 69.4743C97.1582 69.0789 97.0269 68.1563 97.0707 67.7609C97.1144 67.4094 97.4647 67.4973 97.5523 67.8487C97.6399 68.2002 97.815 68.8592 97.8588 69.1228C97.9026 69.3864 97.5961 70.1772 97.5961 70.1772" fill="#F7B59C"></path><path d="M97.1582 70.2651C97.1582 70.2651 97.5523 69.606 97.6836 69.1667C97.815 68.7274 97.5961 67.5412 97.6836 67.1018C97.7712 66.6625 98.1652 66.7943 98.2966 67.1897C98.428 67.5851 98.6469 68.4198 98.6907 68.7274C98.7344 69.0349 98.3404 70.0015 98.3404 70.0015" fill="#F7B59C"></path><path d="M97.8594 69.8256C97.8594 69.8256 98.2972 69.1226 98.4286 68.6393C98.5599 68.1561 98.341 66.882 98.4286 66.4427C98.5161 66.0033 98.954 66.0912 99.0853 66.5305C99.2167 66.9699 99.4356 67.8485 99.4794 68.2C99.5232 68.5515 99.1291 69.562 99.1291 69.562" fill="#F7B59C"></path><path d="M98.7344 69.3863C98.7344 69.3863 99.1284 68.7713 99.216 68.3319C99.3474 67.8926 99.1284 66.7942 99.216 66.3988C99.3036 66.0034 99.6538 66.0913 99.7852 66.4867C99.9166 66.8821 100.092 67.629 100.135 67.9365C100.179 68.244 99.829 69.1227 99.829 69.1227" fill="#F7B59C"></path><path d="M54.9941 45.8815L57.3585 47.1556C57.5774 47.2874 57.8401 47.0677 57.7526 46.8041L56.5266 43.5969" fill="#379956"></path><path d="M52.0608 47.2435C55.543 47.2435 58.3658 44.411 58.3658 40.917C58.3658 37.423 55.543 34.5906 52.0608 34.5906C48.5787 34.5906 45.7559 37.423 45.7559 40.917C45.7559 44.411 48.5787 47.2435 52.0608 47.2435Z" fill="#379956"></path><path d="M49.2144 40.0384C49.696 40.0384 50.0463 40.4338 50.0901 40.9171C50.0901 41.4443 49.696 41.8397 49.1706 41.8397C48.689 41.8397 48.3387 41.4443 48.2949 40.961C48.2949 40.4338 48.689 39.9945 49.2144 40.0384Z" fill="white"></path><path d="M52.2359 40.0384C52.7175 40.0384 53.0678 40.4338 53.1116 40.9171C53.1116 41.4443 52.7175 41.8397 52.1921 41.8397C51.7105 41.8397 51.3602 41.4443 51.3164 40.961C51.3164 40.4338 51.7543 39.9945 52.2359 40.0384Z" fill="white"></path><path d="M55.3014 40.0384C55.783 40.0384 56.1333 40.4338 56.1771 40.9171C56.1771 41.4443 55.783 41.8397 55.2576 41.8397C54.776 41.8397 54.4257 41.4443 54.3819 40.961C54.3381 40.4338 54.776 39.9945 55.3014 40.0384Z" fill="white"></path><path d="M68.8737 54.8001C68.8737 54.8001 72.8143 53.8336 73.3835 53.7018C73.9527 53.526 75.8793 53.9214 75.8793 53.9214C75.8793 53.9214 76.8425 58.8859 75.1787 59.7207C73.7776 60.4236 71.5446 60.819 68.1294 58.0951C68.0856 58.1391 68.2608 56.3378 68.8737 54.8001Z" fill="white"></path><path d="M68.6556 57.9634L68.3929 58.3588C67.9112 58.0513 66.7291 57.0408 65.9847 56.3818C65.8972 55.8985 65.6782 55.5031 65.5469 55.3274C65.722 55.5031 67.9988 57.5241 68.6556 57.9634Z" fill="white"></path><path d="M69.5758 54.6244L69.4444 55.1077C69.4007 55.1077 69.3569 55.1077 69.3131 55.1077C68.5688 55.1077 67.7368 54.5805 67.2114 54.1851C67.1676 53.8776 67.1239 53.614 67.0801 53.4382C67.2552 53.614 68.6563 54.7123 69.5758 54.6244Z" fill="white"></path><path d="M204.868 238.048C204.868 238.048 207.451 238.575 209.465 237.257C209.465 237.257 210.516 239.146 210.56 240.113C210.604 240.728 210.604 241.299 210.516 241.782C210.429 242.266 209.991 242.617 209.465 242.617H198.344C198.344 242.617 196.899 242.266 197.862 241.167C198.081 240.904 199.22 240.113 201.715 239.586C202.066 239.498 202.46 239.366 202.766 239.234C203.729 238.795 204.43 238.355 204.868 238.048Z" fill="#161819"></path><path d="M227.766 236.115C227.766 236.115 230.218 235.719 231.532 234.533C231.532 234.533 233.589 235.983 233.984 237.257C233.984 237.257 234.334 237.828 233.984 238.268C233.633 238.707 229.167 242.309 227.766 242.617H222.862C222.293 242.617 221.811 242.134 221.899 241.563C221.899 241.475 221.943 241.343 221.987 241.211C222.337 240.42 225.446 239.19 225.927 238.883C226.453 238.575 227.766 236.115 227.766 236.115Z" fill="#161819"></path><path d="M197.906 198.376C197.906 198.332 197.906 198.332 197.906 198.376C199.001 189.062 202.635 176.541 203.161 174.915C204.08 175.179 206.707 175.354 210.473 175.486C210.91 175.486 212.224 175.969 212.706 175.969L213.932 188.842C212.793 192.532 207.408 205.932 207.408 205.932C207.408 205.932 208.152 210.501 208.459 212.478C209.334 218.366 209.86 237.565 209.86 237.565C207.67 239.014 204.605 238.268 204.605 238.268C204.605 238.268 197.644 205.669 197.644 203.033C197.6 202.33 197.688 200.616 197.906 198.376Z" fill="#0C2E41"></path><path d="M224.265 190.336C224.265 190.336 226.367 178.342 223.783 175.838C220.894 173.026 214.983 175.925 212.18 175.31C210.911 177.99 209.203 184.273 209.247 186.557C209.378 190.687 212.618 206.284 214.107 210.369L222.251 209.139C223.433 203.867 224.265 190.336 224.265 190.336Z" fill="#0C2E41"></path><path d="M231.709 234.445C231.709 234.445 227.462 217.707 222.164 207.382L213.889 209.008C213.976 209.886 214.02 210.633 214.633 211.995C218.355 220.167 227.331 236.51 227.331 236.51C230.439 236.115 231.709 234.445 231.709 234.445Z" fill="#0C2E41"></path><path d="M205.568 157.254C204.736 156.902 202.766 152.377 202.021 152.465C201.146 155.101 200.139 159.934 200.139 159.934C195.892 161.471 186.609 165.996 186.609 165.996C186.609 165.996 186.653 167.227 187.485 167.973C187.879 168.325 188.317 168.589 188.667 168.808C189.149 169.072 189.674 169.204 190.2 169.116C193.133 168.72 203.51 167.139 205.831 163.888C206.05 163.097 207.495 158.044 205.568 157.254Z" fill="#FFBE9D"></path><path d="M212.749 149.214C212.749 149.214 210.56 153.388 208.327 157.473C207.889 157.078 207.189 156.771 206.225 156.595C202.679 155.936 201.015 155.277 200.314 154.925C201.54 151.235 202.942 147.017 203.204 146.139C204.343 142.404 206.225 140.954 206.225 140.954L212.749 149.214Z" fill="#3DD1F9"></path><path d="M224.44 177.683C220.237 177.902 213.056 176.584 207.846 176.365C203.161 176.145 202.504 174.344 202.504 174.344C203.204 167.666 204.255 165.601 204.299 160.637C204.387 152.201 204.387 142.712 206.182 140.954C209.641 138.714 216.296 138.186 222.907 140.866C227.899 142.843 229.388 144.469 228.775 148.291C228.599 149.389 224.571 165.425 224.615 173.597C224.615 174.212 224.834 174.783 225.097 175.354C225.535 176.233 224.922 177.419 224.44 177.683Z" fill="#379956"></path><path d="M229.78 158.396C226.453 158.616 223.081 158.264 221.593 158.044C221.549 156.99 221.505 155.892 221.505 154.618C221.461 152.728 221.199 150.224 221.593 148.379C222.118 145.875 223.388 141.877 226.409 142.624C231.795 143.942 229.78 158.264 229.78 158.396Z" fill="#379956"></path><path d="M204.737 147.544C204.781 149.653 204.693 151.718 204.606 153.783L204.474 156.858C204.43 157.913 204.387 158.923 204.255 159.978C204.08 158.923 203.993 157.913 203.949 156.858C203.905 155.804 203.905 154.794 203.949 153.739C203.993 152.685 204.08 151.674 204.212 150.62C204.299 149.565 204.474 148.555 204.737 147.544Z" fill="#119CBC"></path><path d="M209.991 124.611C209.991 124.611 208.415 127.203 209.86 128.565C209.86 128.565 209.115 129.883 210.735 130.498C212.356 131.113 211.961 125.402 211.961 125.402" fill="#362D70"></path><path d="M213.932 136.517C213.932 136.517 213.845 137.22 213.714 137.835C213.538 138.362 213.451 138.846 213.407 139.109C213.363 139.461 213.363 140.515 213.495 140.823C213.67 141.218 214.151 140.823 214.589 140.998C218.617 142.448 219.406 139.9 219.406 139.9C219.143 138.318 220.194 134.408 220.194 134.408" fill="#FFBE9D"></path><path d="M210.035 131.904C210.079 133.222 210.429 134.628 211.305 135.638C212.225 136.693 213.669 137.264 215.071 137.264C217.566 137.308 219.974 135.77 221.025 133.529C222.032 131.289 221.594 128.433 219.931 126.588C218.398 124.875 215.114 122.195 212.881 123.117C210.605 124.128 209.992 129.751 210.035 131.904Z" fill="#FFBE9D"></path><path d="M221.025 133.53C220.018 135.814 217.566 137.308 215.07 137.264C213.801 137.22 212.531 136.781 211.611 135.946C212.356 136.209 213.275 136.561 213.932 136.561C216.384 136.605 218.967 135.111 219.974 132.871C220.981 130.63 220.062 127.511 218.398 125.665C218.223 125.49 218.048 125.314 217.829 125.138C218.661 125.534 219.361 126.017 219.887 126.632C221.594 128.433 222.032 131.289 221.025 133.53Z" fill="#FCB392"></path><path d="M208.765 123.161C208.634 124.831 209.904 126.368 211.392 126.895C212.925 127.423 216.033 128.082 217.347 127.071C217.04 128.653 219.317 132.299 220.675 133.046C220.368 134.101 220.018 134.584 219.843 135.638C220.499 136.166 221.725 135.331 222.295 134.716C222.864 134.101 225.316 130.059 225.316 128.038C225.316 126.017 224.79 124.172 222.82 123.864C222.995 122.151 222.032 120.393 220.499 119.646C218.967 118.9 216.997 119.207 215.771 120.393C215.858 120.305 214.72 119.822 214.632 119.778C214.151 119.602 213.669 119.471 213.144 119.471C212.18 119.515 211.217 119.866 210.473 120.437C209.772 120.964 209.159 121.667 208.897 122.502C208.809 122.722 208.765 122.941 208.765 123.161Z" fill="#362D70"></path><path d="M216.558 132.255L216.383 131.816C216.383 131.816 217.915 131.157 219.01 130.322L219.316 130.718C218.134 131.552 216.602 132.211 216.558 132.255Z" fill="white"></path><path d="M218.004 135.331L217.697 134.979C217.697 134.979 219.055 133.749 220.105 132.299L220.499 132.607C219.361 134.057 218.048 135.287 218.004 135.331Z" fill="white"></path><path d="M218.924 129.795C218.968 129.619 219.099 129.488 219.23 129.4C219.581 129.224 220.544 128.96 220.982 129.971C221.376 130.85 220.544 134.013 219.406 132.739C218.486 131.728 218.749 130.322 218.924 129.795Z" fill="#FFBE9D"></path><path d="M210.036 131.421C210.036 131.421 213.758 132.168 216.691 131.728L218.399 134.935C218.399 134.935 216.428 137.352 213.407 137.044C210.386 136.737 209.861 132.475 210.036 131.421Z" fill="white"></path><path d="M219.405 138.099C219.405 138.099 220.018 138.889 220.587 140.076C220.587 140.076 219.317 140.998 218.442 141.438C216.471 142.404 214.238 143.195 214.238 143.195L213.494 140.823C213.494 140.779 217.566 139.021 219.405 138.099Z" fill="#379956"></path><path d="M213.493 140.779C212.792 141.262 212.354 141.745 211.61 142.492C211.61 142.492 211.303 140.91 211.916 139.373C211.916 139.373 212.967 137.967 213.711 137.791C213.711 137.835 213.274 139.9 213.493 140.779Z" fill="#379956"></path><path d="M187.136 162.394L186.829 165.865C186.741 167.095 193.09 168.588 201.015 169.291C208.94 169.95 215.464 169.511 215.595 168.325L215.902 164.854L187.136 162.394Z" fill="#FFB100"></path><mask id="mask0_720_2601" style="mask-type:luminance" maskUnits="userSpaceOnUse" x="186" y="162" width="30" height="8"><path d="M187.136 162.394L186.829 165.865C186.741 167.095 193.09 168.588 201.015 169.291C208.94 169.95 215.464 169.511 215.595 168.325L215.902 164.854L187.136 162.394Z" fill="white"></path></mask><g mask="url(#mask0_720_2601)"><path d="M187.583 160.964L186.908 168.976L187.606 169.035L188.281 161.023L187.583 160.964Z" fill="#FC8600"></path><path d="M189.333 161.083L188.658 169.094L189.356 169.154L190.031 161.142L189.333 161.083Z" fill="#FC8600"></path><path d="M191.354 161.255L190.68 169.267L191.378 169.326L192.052 161.315L191.354 161.255Z" fill="#FC8600"></path><path d="M193.874 161.489L193.199 169.5L193.897 169.56L194.572 161.548L193.874 161.489Z" fill="#FC8600"></path><path d="M196.624 161.728L195.949 169.74L196.647 169.799L197.322 161.788L196.624 161.728Z" fill="#FC8600"></path><path d="M199.647 161.978L198.973 169.99L199.671 170.049L200.345 162.037L199.647 161.978Z" fill="#FC8600"></path><path d="M214.997 163.291L214.322 171.302L215.02 171.362L215.695 163.35L214.997 163.291Z" fill="#FC8600"></path><path d="M213.251 163.128L212.576 171.14L213.274 171.199L213.949 163.188L213.251 163.128Z" fill="#FC8600"></path><path d="M211.229 162.956L210.555 170.967L211.253 171.026L211.927 163.015L211.229 162.956Z" fill="#FC8600"></path><path d="M208.71 162.722L208.035 170.734L208.733 170.793L209.408 162.782L208.71 162.722Z" fill="#FC8600"></path><path d="M205.956 162.526L205.281 170.538L205.979 170.597L206.654 162.586L205.956 162.526Z" fill="#FC8600"></path><path d="M202.936 162.233L202.262 170.244L202.96 170.304L203.634 162.292L202.936 162.233Z" fill="#FC8600"></path></g><path d="M215.901 164.766C215.814 165.996 209.29 166.392 201.321 165.733C193.396 165.074 187.003 163.536 187.135 162.306C187.222 161.076 193.746 160.68 201.715 161.339C209.64 162.042 215.989 163.536 215.901 164.766Z" fill="#FFC600"></path><path d="M212.967 164.261C213.014 163.705 207.934 162.82 201.62 162.285C195.307 161.75 190.151 161.767 190.104 162.323C190.057 162.879 195.138 163.764 201.451 164.299C207.764 164.834 212.92 164.817 212.967 164.261Z" fill="#FF9F00"></path><path d="M190.55 162.701C191.995 162.394 196.373 162.482 201.54 162.921C206.706 163.36 211.041 164.019 212.442 164.59C212.749 164.503 212.968 164.459 212.968 164.327C213.011 163.756 207.932 162.877 201.627 162.35C195.322 161.823 190.156 161.823 190.112 162.394C190.068 162.438 190.243 162.569 190.55 162.701Z" fill="#FC8600"></path><path d="M185.384 158.264L185.077 161.735C184.989 162.965 191.338 164.459 199.263 165.162C207.188 165.821 213.712 165.381 213.843 164.195L214.15 160.724L185.384 158.264Z" fill="#FFB100"></path><mask id="mask1_720_2601" style="mask-type:luminance" maskUnits="userSpaceOnUse" x="185" y="158" width="30" height="8"><path d="M185.384 158.264L185.077 161.735C184.989 162.965 191.338 164.459 199.263 165.162C207.188 165.821 213.712 165.381 213.843 164.195L214.15 160.724L185.384 158.264Z" fill="white"></path></mask><g mask="url(#mask1_720_2601)"><path d="M185.821 156.844L185.146 164.855L185.845 164.915L186.519 156.903L185.821 156.844Z" fill="#FC8600"></path><path d="M187.571 156.963L186.896 164.974L187.595 165.034L188.269 157.022L187.571 156.963Z" fill="#FC8600"></path><path d="M189.592 157.135L188.918 165.147L189.616 165.206L190.291 157.194L189.592 157.135Z" fill="#FC8600"></path><path d="M192.112 157.368L191.438 165.38L192.136 165.439L192.81 157.428L192.112 157.368Z" fill="#FC8600"></path><path d="M194.862 157.608L194.188 165.62L194.886 165.679L195.56 157.667L194.862 157.608Z" fill="#FC8600"></path><path d="M197.885 157.858L197.211 165.87L197.909 165.929L198.584 157.917L197.885 157.858Z" fill="#FC8600"></path><path d="M213.28 159.174L212.605 167.186L213.304 167.245L213.978 159.233L213.28 159.174Z" fill="#FC8600"></path><path d="M211.489 159.008L210.814 167.02L211.513 167.079L212.187 159.067L211.489 159.008Z" fill="#FC8600"></path><path d="M209.467 158.835L208.793 166.847L209.491 166.906L210.166 158.894L209.467 158.835Z" fill="#FC8600"></path><path d="M206.991 158.606L206.316 166.618L207.015 166.677L207.689 158.665L206.991 158.606Z" fill="#FC8600"></path><path d="M204.194 158.406L203.52 166.418L204.218 166.477L204.892 158.465L204.194 158.406Z" fill="#FC8600"></path><path d="M201.174 158.113L200.5 166.124L201.198 166.183L201.873 158.172L201.174 158.113Z" fill="#FC8600"></path></g><path d="M214.149 160.637C214.062 161.867 207.538 162.262 199.569 161.603C191.644 160.944 185.251 159.406 185.383 158.176C185.47 156.946 191.994 156.551 199.963 157.21C207.888 157.913 214.237 159.45 214.149 160.637Z" fill="#FFC600"></path><path d="M211.217 160.153C211.173 160.724 206.007 160.724 199.702 160.197C193.397 159.67 188.318 158.791 188.362 158.22C188.405 157.649 193.572 157.649 199.877 158.176C206.182 158.703 211.261 159.626 211.217 160.153Z" fill="#FF9F00"></path><path d="M188.798 158.572C190.243 158.264 194.621 158.352 199.788 158.791C204.954 159.231 209.289 159.89 210.69 160.461C210.997 160.373 211.216 160.329 211.216 160.197C211.259 159.626 206.18 158.747 199.875 158.22C193.571 157.693 188.404 157.693 188.36 158.264C188.316 158.352 188.492 158.44 188.798 158.572Z" fill="#FC8600"></path><path d="M188.053 154.486L187.747 157.957C187.659 159.187 194.008 160.68 201.933 161.383C209.858 162.042 216.382 161.603 216.513 160.417L216.82 156.946L188.053 154.486Z" fill="#FFB100"></path><mask id="mask2_720_2601" style="mask-type:luminance" maskUnits="userSpaceOnUse" x="187" y="154" width="30" height="8"><path d="M188.053 154.486L187.747 157.957C187.659 159.187 194.008 160.68 201.933 161.383C209.858 162.042 216.382 161.603 216.513 160.417L216.82 156.946L188.053 154.486Z" fill="white"></path></mask><g mask="url(#mask2_720_2601)"><path d="M188.485 153.072L187.811 161.084L188.509 161.143L189.183 153.131L188.485 153.072Z" fill="#FC8600"></path><path d="M190.235 153.191L189.561 161.203L190.259 161.262L190.933 153.25L190.235 153.191Z" fill="#FC8600"></path><path d="M192.257 153.364L191.582 161.375L192.28 161.435L192.955 153.423L192.257 153.364Z" fill="#FC8600"></path><path d="M194.776 153.597L194.102 161.609L194.8 161.668L195.474 153.656L194.776 153.597Z" fill="#FC8600"></path><path d="M197.526 153.837L196.852 161.848L197.55 161.908L198.224 153.896L197.526 153.837Z" fill="#FC8600"></path><path d="M200.549 154.086L199.875 162.098L200.573 162.157L201.248 154.146L200.549 154.086Z" fill="#FC8600"></path><path d="M215.942 155.403L215.268 163.415L215.966 163.474L216.64 155.462L215.942 155.403Z" fill="#FC8600"></path><path d="M214.153 155.237L213.479 163.248L214.177 163.307L214.851 155.296L214.153 155.237Z" fill="#FC8600"></path><path d="M212.176 155.067L211.502 163.079L212.2 163.138L212.875 155.127L212.176 155.067Z" fill="#FC8600"></path><path d="M209.655 154.834L208.98 162.846L209.679 162.905L210.353 154.893L209.655 154.834Z" fill="#FC8600"></path><path d="M206.858 154.634L206.184 162.646L206.882 162.705L207.556 154.694L206.858 154.634Z" fill="#FC8600"></path><path d="M203.882 154.345L203.207 162.356L203.905 162.416L204.58 154.404L203.882 154.345Z" fill="#FC8600"></path></g><path d="M216.819 156.858C216.732 158.088 210.208 158.484 202.239 157.825C194.314 157.166 187.921 155.628 188.053 154.398C188.14 153.168 194.664 152.772 202.633 153.431C210.558 154.134 216.907 155.672 216.819 156.858Z" fill="#FFC600"></path><path d="M213.887 156.375C213.843 156.946 208.677 156.946 202.372 156.419C196.067 155.892 190.988 155.013 191.032 154.442C191.075 153.871 196.242 153.871 202.547 154.398C208.852 154.925 213.931 155.848 213.887 156.375Z" fill="#FF9F00"></path><path d="M191.468 154.793C192.913 154.486 197.291 154.574 202.458 155.013C207.624 155.452 211.959 156.111 213.36 156.682C213.667 156.595 213.886 156.551 213.886 156.419C213.929 155.848 208.85 154.969 202.545 154.442C196.24 153.915 191.074 153.915 191.03 154.486C190.986 154.574 191.161 154.661 191.468 154.793Z" fill="#FC8600"></path><path d="M189.368 150.576L189.061 154.046C188.974 155.277 195.323 156.77 203.248 157.473C211.173 158.132 217.696 157.693 217.828 156.507L218.134 153.036L189.368 150.576Z" fill="#FFB100"></path><mask id="mask3_720_2601" style="mask-type:luminance" maskUnits="userSpaceOnUse" x="189" y="150" width="30" height="8"><path d="M189.368 150.576L189.061 154.046C188.974 155.277 195.323 156.77 203.248 157.473C211.173 158.132 217.696 157.693 217.828 156.507L218.134 153.036L189.368 150.576Z" fill="white"></path></mask><g mask="url(#mask3_720_2601)"><path d="M189.817 149.13L189.143 157.141L189.841 157.201L190.515 149.189L189.817 149.13Z" fill="#FC8600"></path><path d="M191.608 149.296L190.934 157.308L191.632 157.367L192.306 149.355L191.608 149.296Z" fill="#FC8600"></path><path d="M193.628 149.469L192.953 157.48L193.651 157.54L194.326 149.528L193.628 149.469Z" fill="#FC8600"></path><path d="M196.151 149.658L195.477 157.67L196.175 157.729L196.849 149.717L196.151 149.658Z" fill="#FC8600"></path><path d="M198.901 149.898L198.227 157.91L198.925 157.969L199.599 149.957L198.901 149.898Z" fill="#FC8600"></path><path d="M201.924 150.148L201.25 158.159L201.948 158.219L202.623 150.207L201.924 150.148Z" fill="#FC8600"></path><path d="M217.276 151.46L216.602 159.472L217.3 159.531L217.974 151.519L217.276 151.46Z" fill="#FC8600"></path><path d="M215.528 151.298L214.854 159.31L215.552 159.369L216.226 151.357L215.528 151.298Z" fill="#FC8600"></path><path d="M213.508 151.125L212.834 159.136L213.532 159.196L214.207 151.184L213.508 151.125Z" fill="#FC8600"></path><path d="M210.985 150.936L210.311 158.947L211.009 159.006L211.683 150.995L210.985 150.936Z" fill="#FC8600"></path><path d="M208.235 150.696L207.561 158.708L208.259 158.767L208.933 150.755L208.235 150.696Z" fill="#FC8600"></path><path d="M205.212 150.446L204.537 158.458L205.235 158.517L205.91 150.505L205.212 150.446Z" fill="#FC8600"></path></g><path d="M218.179 152.948C218.091 154.178 211.567 154.574 203.598 153.915C195.63 153.256 189.281 151.718 189.412 150.488C189.5 149.258 196.024 148.862 203.992 149.521C211.917 150.224 218.266 151.718 218.179 152.948Z" fill="#FFC600"></path><path d="M215.244 152.465C215.201 153.036 210.034 153.036 203.729 152.509C197.424 151.981 192.345 151.103 192.389 150.532C192.433 149.961 197.599 149.961 203.904 150.488C210.209 151.015 215.288 151.894 215.244 152.465Z" fill="#FF9F00"></path><path d="M192.827 150.839C194.272 150.532 198.651 150.62 203.817 151.059C208.984 151.498 213.318 152.157 214.72 152.728C215.026 152.64 215.245 152.597 215.245 152.465C215.289 151.894 210.21 151.015 203.905 150.488C197.6 149.961 192.433 149.961 192.389 150.532C192.346 150.62 192.521 150.751 192.827 150.839Z" fill="#FC8600"></path><path d="M186.303 146.314L185.997 149.785C185.909 151.015 192.258 152.509 200.183 153.212C208.108 153.871 214.632 153.431 214.763 152.245L215.07 148.774L186.303 146.314Z" fill="#FFB100"></path><mask id="mask4_720_2601" style="mask-type:luminance" maskUnits="userSpaceOnUse" x="185" y="146" width="31" height="8"><path d="M186.303 146.314L185.997 149.785C185.909 151.015 192.258 152.509 200.183 153.212C208.108 153.871 214.632 153.431 214.763 152.245L215.07 148.774L186.303 146.314Z" fill="white"></path></mask><g mask="url(#mask4_720_2601)"><path d="M186.714 144.881L186.039 152.892L186.737 152.952L187.412 144.94L186.714 144.881Z" fill="#FC8600"></path><path d="M188.508 145.003L187.834 153.015L188.532 153.074L189.207 145.062L188.508 145.003Z" fill="#FC8600"></path><path d="M190.528 145.176L189.854 153.188L190.552 153.247L191.226 145.235L190.528 145.176Z" fill="#FC8600"></path><path d="M193.048 145.409L192.373 153.421L193.071 153.48L193.746 145.468L193.048 145.409Z" fill="#FC8600"></path><path d="M195.798 145.649L195.123 153.661L195.821 153.72L196.496 145.708L195.798 145.649Z" fill="#FC8600"></path><path d="M198.821 145.899L198.146 153.91L198.845 153.97L199.519 145.958L198.821 145.899Z" fill="#FC8600"></path><path d="M214.171 147.211L213.496 155.223L214.194 155.282L214.869 147.27L214.171 147.211Z" fill="#FC8600"></path><path d="M212.424 147.049L211.75 155.061L212.448 155.12L213.123 147.108L212.424 147.049Z" fill="#FC8600"></path><path d="M210.405 146.876L209.73 154.888L210.429 154.947L211.103 146.935L210.405 146.876Z" fill="#FC8600"></path><path d="M207.883 146.643L207.209 154.655L207.907 154.714L208.582 146.702L207.883 146.643Z" fill="#FC8600"></path><path d="M205.132 146.447L204.457 154.458L205.155 154.518L205.83 146.506L205.132 146.447Z" fill="#FC8600"></path><path d="M202.11 146.153L201.436 154.165L202.134 154.224L202.808 146.212L202.11 146.153Z" fill="#FC8600"></path></g><path d="M215.069 148.686C214.982 149.917 208.458 150.312 200.489 149.653C192.564 148.994 186.171 147.456 186.303 146.226C186.39 144.996 192.914 144.601 200.883 145.26C208.808 145.963 215.157 147.456 215.069 148.686Z" fill="#FFC600"></path><path d="M212.137 148.203C212.093 148.774 206.927 148.774 200.622 148.247C194.317 147.72 189.238 146.841 189.282 146.27C189.325 145.699 194.492 145.699 200.797 146.226C207.102 146.753 212.181 147.632 212.137 148.203Z" fill="#FF9F00"></path><path d="M189.718 146.621C191.163 146.314 195.541 146.402 200.708 146.841C205.874 147.28 210.209 147.939 211.61 148.511C211.917 148.423 212.136 148.379 212.136 148.247C212.179 147.676 207.1 146.797 200.795 146.27C194.49 145.743 189.324 145.743 189.28 146.314C189.236 146.358 189.411 146.49 189.718 146.621Z" fill="#FC8600"></path><path d="M189.411 142.58L189.104 146.051C189.017 147.281 195.366 148.774 203.291 149.477C211.216 150.136 217.739 149.697 217.871 148.511L218.177 145.04L189.411 142.58Z" fill="#FFB100"></path><mask id="mask5_720_2601" style="mask-type:luminance" maskUnits="userSpaceOnUse" x="189" y="142" width="30" height="8"><path d="M189.411 142.58L189.104 146.051C189.017 147.281 195.366 148.774 203.291 149.477C211.216 150.136 217.739 149.697 217.871 148.511L218.177 145.04L189.411 142.58Z" fill="white"></path></mask><g mask="url(#mask5_720_2601)"><path d="M189.823 141.148L189.148 149.16L189.847 149.219L190.521 141.207L189.823 141.148Z" fill="#FC8600"></path><path d="M191.618 141.27L190.943 149.282L191.641 149.341L192.316 141.33L191.618 141.27Z" fill="#FC8600"></path><path d="M193.637 141.443L192.963 149.455L193.661 149.514L194.335 141.503L193.637 141.443Z" fill="#FC8600"></path><path d="M196.157 141.676L195.482 149.688L196.181 149.747L196.855 141.736L196.157 141.676Z" fill="#FC8600"></path><path d="M198.907 141.916L198.232 149.928L198.931 149.987L199.605 141.975L198.907 141.916Z" fill="#FC8600"></path><path d="M201.93 142.166L201.256 150.178L201.954 150.237L202.628 142.225L201.93 142.166Z" fill="#FC8600"></path><path d="M217.28 143.479L216.605 151.49L217.304 151.549L217.978 143.538L217.28 143.479Z" fill="#FC8600"></path><path d="M215.534 143.316L214.859 151.328L215.557 151.387L216.232 143.375L215.534 143.316Z" fill="#FC8600"></path><path d="M213.514 143.143L212.84 151.155L213.538 151.214L214.212 143.202L213.514 143.143Z" fill="#FC8600"></path><path d="M210.993 142.91L210.318 150.922L211.016 150.981L211.691 142.969L210.993 142.91Z" fill="#FC8600"></path><path d="M208.239 142.714L207.564 150.726L208.263 150.785L208.937 142.773L208.239 142.714Z" fill="#FC8600"></path><path d="M205.219 142.42L204.545 150.432L205.243 150.491L205.918 142.48L205.219 142.42Z" fill="#FC8600"></path></g><path d="M218.177 144.952C218.089 146.182 211.565 146.578 203.596 145.919C195.671 145.26 189.279 143.722 189.41 142.492C189.498 141.262 196.022 140.866 203.99 141.525C211.915 142.228 218.264 143.722 218.177 144.952Z" fill="#FFC600"></path><path d="M215.248 144.449C215.295 143.892 210.215 143.008 203.902 142.473C197.588 141.938 192.432 141.955 192.386 142.511C192.339 143.067 197.419 143.951 203.732 144.487C210.046 145.022 215.201 145.005 215.248 144.449Z" fill="#FF9F00"></path><path d="M192.825 142.887C194.27 142.58 198.649 142.668 203.815 143.107C208.982 143.546 213.316 144.205 214.718 144.776C215.024 144.689 215.243 144.645 215.243 144.513C215.287 143.942 210.208 143.063 203.903 142.536C197.598 142.009 192.431 142.009 192.388 142.58C192.344 142.624 192.519 142.756 192.825 142.887Z" fill="#FC8600"></path><path d="M187.223 138.406L186.917 141.877C186.829 143.107 193.178 144.601 201.103 145.304C209.028 145.963 215.552 145.523 215.683 144.337L215.99 140.866L187.223 138.406Z" fill="#FFB100"></path><mask id="mask6_720_2601" style="mask-type:luminance" maskUnits="userSpaceOnUse" x="186" y="138" width="30" height="8"><path d="M187.223 138.406L186.917 141.877C186.829 143.107 193.178 144.601 201.103 145.304C209.028 145.963 215.552 145.523 215.683 144.337L215.99 140.866L187.223 138.406Z" fill="white"></path></mask><g mask="url(#mask6_720_2601)"><path d="M187.674 136.956L187 144.968L187.698 145.027L188.373 137.015L187.674 136.956Z" fill="#FC8600"></path><path d="M189.466 137.122L188.791 145.134L189.489 145.193L190.164 137.181L189.466 137.122Z" fill="#FC8600"></path><path d="M191.485 137.295L190.811 145.307L191.509 145.366L192.183 137.354L191.485 137.295Z" fill="#FC8600"></path><path d="M193.966 137.481L193.291 145.492L193.989 145.552L194.664 137.54L193.966 137.481Z" fill="#FC8600"></path><path d="M196.758 137.724L196.084 145.736L196.782 145.795L197.457 137.783L196.758 137.724Z" fill="#FC8600"></path><path d="M199.782 137.974L199.107 145.986L199.806 146.045L200.48 138.033L199.782 137.974Z" fill="#FC8600"></path><path d="M215.132 139.287L214.457 147.298L215.155 147.358L215.83 139.346L215.132 139.287Z" fill="#FC8600"></path><path d="M213.385 139.124L212.711 147.136L213.409 147.195L214.084 139.183L213.385 139.124Z" fill="#FC8600"></path><path d="M211.366 138.951L210.691 146.963L211.389 147.022L212.064 139.011L211.366 138.951Z" fill="#FC8600"></path><path d="M208.842 138.762L208.168 146.774L208.866 146.833L209.541 138.821L208.842 138.762Z" fill="#FC8600"></path><path d="M206.092 138.522L205.418 146.534L206.116 146.593L206.791 138.581L206.092 138.522Z" fill="#FC8600"></path><path d="M203.069 138.272L202.395 146.284L203.093 146.343L203.767 138.332L203.069 138.272Z" fill="#FC8600"></path></g><path d="M216.034 140.778C215.946 142.009 209.423 142.404 201.454 141.745C193.529 141.086 187.136 139.548 187.268 138.318C187.355 137.088 193.879 136.693 201.848 137.352C209.773 138.011 216.122 139.548 216.034 140.778Z" fill="#FFC600"></path><path d="M213.1 140.295C213.056 140.866 207.89 140.866 201.585 140.339C195.28 139.812 190.201 138.933 190.244 138.362C190.288 137.791 195.455 137.791 201.76 138.318C208.065 138.845 213.144 139.724 213.1 140.295Z" fill="#FFB100"></path><path d="M190.683 138.67C192.128 138.362 196.506 138.45 201.673 138.889C206.839 139.329 211.174 139.988 212.575 140.559C212.881 140.471 213.1 140.427 213.1 140.295C213.144 139.724 208.065 138.845 201.76 138.318C195.455 137.791 190.289 137.791 190.245 138.362C190.201 138.45 190.376 138.582 190.683 138.67Z" fill="#FC8600"></path><path d="M228.206 158.484C227.855 161.383 227.987 166.172 226.06 168.369C223.083 171.84 204.693 171.181 204.693 171.181C204.693 171.181 203.905 170.697 203.643 168.808C204.825 169.204 206.138 169.072 206.138 169.072C206.138 169.072 209.291 168.764 212.706 166.743C215.202 165.293 218.179 164.063 220.368 163.273C220.324 160.988 220.719 159.714 220.675 157.869C222.12 158.176 224.878 158.703 228.206 158.484Z" fill="#FFBE9D"></path><path d="M204.254 169.643C204.254 169.643 204.035 168.852 202.94 168.545C201.846 168.237 200.576 167.798 200.182 167.842C199.788 167.886 199.832 168.237 200.226 168.589C200.664 168.984 201.364 169.16 201.583 169.335C200.532 169.204 198.168 168.984 198.168 168.984C198.168 168.984 199 170.302 200.094 170.741C201.189 171.181 204.473 171.137 204.911 171.181C205.349 171.225 204.254 169.643 204.254 169.643Z" fill="#FFBE9D"></path><path d="M220.674 149.697C220.674 150.4 220.674 151.059 220.674 151.762L220.63 153.827L220.586 155.892C220.586 156.551 220.586 157.254 220.586 157.913L220.323 157.605C221.812 157.869 223.301 158.044 224.789 158.22C225.534 158.308 226.278 158.352 227.022 158.396C227.767 158.44 228.511 158.44 229.299 158.44C228.555 158.572 227.811 158.66 227.022 158.703C226.278 158.747 225.49 158.747 224.746 158.747C224.001 158.703 223.213 158.66 222.469 158.572C221.725 158.484 220.98 158.396 220.192 158.264L219.929 158.22V157.957C219.886 156.551 219.973 155.189 220.105 153.827C220.148 153.124 220.236 152.465 220.323 151.762C220.455 151.059 220.542 150.4 220.674 149.697Z" fill="#157731"></path><path d="M187.44 167.051C187.44 167.051 186.652 165.645 186.564 164.766C186.477 163.844 186.914 163.976 187.221 164.283C187.527 164.591 188.753 167.402 188.753 167.402" fill="#FFBE9D"></path><path d="M188.579 167.49C188.579 167.49 187.966 166.172 187.703 165.162C187.484 164.283 188.053 164.415 188.36 164.678C188.666 164.942 189.892 167.798 189.892 167.798" fill="#FFBE9D"></path><path d="M189.585 168.018C189.585 168.018 189.323 166.875 189.104 165.997C188.929 165.25 189.41 165.338 189.673 165.601C189.936 165.865 191.162 168.193 191.162 168.193" fill="#FFBE9D"></path><path d="M190.111 169.116C190.111 169.116 188.01 169.204 187.134 168.501C186.258 167.842 185.558 165.074 185.864 164.547C186.171 164.02 187.44 166.612 187.44 166.612L189.236 167.271L188.36 167.886" fill="#FFBE9D"></path><path d="M229.387 123.776L227.023 125.05C226.804 125.182 226.541 124.962 226.629 124.699L227.855 121.491" fill="#379956"></path><path d="M232.321 125.138C235.803 125.138 238.626 122.306 238.626 118.812C238.626 115.318 235.803 112.485 232.321 112.485C228.838 112.485 226.016 115.318 226.016 118.812C226.016 122.306 228.838 125.138 232.321 125.138Z" fill="#379956"></path><path d="M236.086 118.856C236.086 119.339 235.692 119.69 235.211 119.734C234.685 119.734 234.291 119.339 234.291 118.812C234.291 118.328 234.685 117.977 235.167 117.933C235.692 117.889 236.086 118.328 236.086 118.856Z" fill="white"></path><path d="M233.065 118.856C233.065 119.339 232.671 119.69 232.189 119.734C231.664 119.734 231.27 119.339 231.27 118.812C231.27 118.328 231.664 117.977 232.145 117.933C232.627 117.889 233.065 118.328 233.065 118.856Z" fill="white"></path><path d="M230 118.856C230 119.339 229.606 119.69 229.125 119.734C228.599 119.734 228.205 119.339 228.205 118.812C228.205 118.328 228.599 117.977 229.081 117.933C229.606 117.889 230.044 118.328 230 118.856Z" fill="white"></path><path d="M167.213 237.257V241.079C167.213 242.397 174.262 243.495 183.019 243.495C191.732 243.495 198.825 242.397 198.825 241.079V237.257H167.213Z" fill="#FFB100"></path><mask id="mask7_720_2601" style="mask-type:luminance" maskUnits="userSpaceOnUse" x="167" y="237" width="32" height="7"><path d="M167.213 237.257V241.079C167.213 242.397 174.262 243.495 183.019 243.495C191.732 243.495 198.825 242.397 198.825 241.079V237.257H167.213Z" fill="white"></path></mask><g mask="url(#mask7_720_2601)"><path d="M168.307 235.675H167.562V244.462H168.307V235.675Z" fill="#FC8600"></path><path d="M170.233 235.675H169.488V244.462H170.233V235.675Z" fill="#FC8600"></path><path d="M172.467 235.675H171.723V244.462H172.467V235.675Z" fill="#FC8600"></path><path d="M175.225 235.675H174.48V244.462H175.225V235.675Z" fill="#FC8600"></path><path d="M178.246 235.675H177.502V244.462H178.246V235.675Z" fill="#FC8600"></path><path d="M181.574 235.675H180.83V244.462H181.574V235.675Z" fill="#FC8600"></path><path d="M198.43 235.675H197.686V244.462H198.43V235.675Z" fill="#FC8600"></path><path d="M196.504 235.675H195.76V244.462H196.504V235.675Z" fill="#FC8600"></path><path d="M194.272 235.675H193.527V244.462H194.272V235.675Z" fill="#FC8600"></path><path d="M191.512 235.675H190.768V244.462H191.512V235.675Z" fill="#FC8600"></path><path d="M188.492 235.675H187.748V244.462H188.492V235.675Z" fill="#FC8600"></path><path d="M185.164 235.675H184.42V244.462H185.164V235.675Z" fill="#FC8600"></path></g><path d="M198.782 237.213C198.782 238.531 191.733 239.629 182.976 239.629C174.263 239.629 167.17 238.531 167.17 237.213C167.17 235.895 174.219 234.797 182.976 234.797C191.733 234.797 198.782 235.851 198.782 237.213Z" fill="#FFC600"></path><path d="M183.019 238.048C189.959 238.048 195.585 237.556 195.585 236.949C195.585 236.343 189.959 235.851 183.019 235.851C176.079 235.851 170.453 236.343 170.453 236.949C170.453 237.556 176.079 238.048 183.019 238.048Z" fill="#FF9F00"></path><path d="M170.978 237.257C172.554 236.818 177.327 236.466 182.975 236.466C188.623 236.466 193.44 236.818 194.972 237.257C195.322 237.169 195.498 237.037 195.498 236.949C195.498 236.334 189.893 235.851 182.931 235.851C176.013 235.851 170.365 236.334 170.365 236.949C170.453 237.037 170.628 237.169 170.978 237.257Z" fill="#FC8600"></path><path d="M164.936 232.951V236.774C164.936 238.092 171.985 239.19 180.742 239.19C189.455 239.19 196.548 238.092 196.548 236.774V232.951H164.936Z" fill="#FFB100"></path><mask id="mask8_720_2601" style="mask-type:luminance" maskUnits="userSpaceOnUse" x="164" y="232" width="33" height="8"><path d="M164.936 232.951V236.774C164.936 238.092 171.985 239.19 180.742 239.19C189.455 239.19 196.548 238.092 196.548 236.774V232.951H164.936Z" fill="white"></path></mask><g mask="url(#mask8_720_2601)"><path d="M166.029 231.326H165.285V240.113H166.029V231.326Z" fill="#FC8600"></path><path d="M167.955 231.326H167.211V240.113H167.955V231.326Z" fill="#FC8600"></path><path d="M170.19 231.326H169.445V240.113H170.19V231.326Z" fill="#FC8600"></path><path d="M172.947 231.326H172.203V240.113H172.947V231.326Z" fill="#FC8600"></path><path d="M175.969 231.326H175.225V240.113H175.969V231.326Z" fill="#FC8600"></path><path d="M179.252 231.326H178.508V240.113H179.252V231.326Z" fill="#FC8600"></path><path d="M196.153 231.326H195.408V240.113H196.153V231.326Z" fill="#FC8600"></path><path d="M194.227 231.326H193.482V240.113H194.227V231.326Z" fill="#FC8600"></path><path d="M191.994 231.326H191.25V240.113H191.994V231.326Z" fill="#FC8600"></path><path d="M189.235 231.326H188.49V240.113H189.235V231.326Z" fill="#FC8600"></path><path d="M186.215 231.326H185.471V240.113H186.215V231.326Z" fill="#FC8600"></path><path d="M182.887 231.326H182.143V240.113H182.887V231.326Z" fill="#FC8600"></path></g><path d="M196.505 232.864C196.505 234.182 189.456 235.28 180.699 235.28C171.986 235.28 164.893 234.182 164.893 232.864C164.893 231.546 171.942 230.447 180.699 230.447C189.412 230.447 196.505 231.546 196.505 232.864Z" fill="#FFC600"></path><path d="M193.265 232.6C193.265 233.215 187.661 233.698 180.699 233.698C173.781 233.698 168.133 233.215 168.133 232.6C168.133 231.985 173.737 231.502 180.699 231.502C187.661 231.502 193.265 231.985 193.265 232.6Z" fill="#FF9F00"></path><path d="M168.701 232.952C170.277 232.512 175.05 232.161 180.698 232.161C186.346 232.161 191.162 232.512 192.695 232.952C193.045 232.864 193.22 232.732 193.22 232.644C193.22 232.029 187.616 231.546 180.654 231.546C173.736 231.546 168.088 232.029 168.088 232.644C168.175 232.732 168.351 232.82 168.701 232.952Z" fill="#FC8600"></path><path d="M167.475 228.602V232.424C167.475 233.742 174.524 234.84 183.281 234.84C191.994 234.84 199.087 233.742 199.087 232.424V228.602H167.475Z" fill="#FFB100"></path><mask id="mask9_720_2601" style="mask-type:luminance" maskUnits="userSpaceOnUse" x="167" y="228" width="33" height="7"><path d="M167.475 228.602V232.424C167.475 233.742 174.524 234.84 183.281 234.84C191.994 234.84 199.087 233.742 199.087 232.424V228.602H167.475Z" fill="white"></path></mask><g mask="url(#mask9_720_2601)"><path d="M168.569 226.976H167.824V235.763H168.569V226.976Z" fill="#FC8600"></path><path d="M170.539 226.976H169.795V235.763H170.539V226.976Z" fill="#FC8600"></path><path d="M172.729 226.976H171.984V235.763H172.729V226.976Z" fill="#FC8600"></path><path d="M175.487 226.976H174.742V235.763H175.487V226.976Z" fill="#FC8600"></path><path d="M178.508 226.976H177.764V235.763H178.508V226.976Z" fill="#FC8600"></path><path d="M181.836 226.976H181.092V235.763H181.836V226.976Z" fill="#FC8600"></path><path d="M198.692 226.976H197.947V235.763H198.692V226.976Z" fill="#FC8600"></path><path d="M196.766 226.976H196.021V235.763H196.766V226.976Z" fill="#FC8600"></path><path d="M194.576 226.976H193.832V235.763H194.576V226.976Z" fill="#FC8600"></path><path d="M191.819 226.976H191.074V235.763H191.819V226.976Z" fill="#FC8600"></path><path d="M188.754 226.976H188.01V235.763H188.754V226.976Z" fill="#FC8600"></path><path d="M185.469 226.976H184.725V235.763H185.469V226.976Z" fill="#FC8600"></path></g><path d="M199.044 228.514C199.044 229.832 191.995 230.93 183.238 230.93C174.525 230.93 167.432 229.832 167.432 228.514C167.432 227.196 174.481 226.098 183.238 226.098C191.995 226.098 199.044 227.196 199.044 228.514Z" fill="#FFC600"></path><path d="M195.847 228.25C195.847 228.866 190.243 229.349 183.281 229.349C176.363 229.349 170.715 228.866 170.715 228.25C170.715 227.635 176.319 227.152 183.281 227.152C190.199 227.152 195.847 227.635 195.847 228.25Z" fill="#FF9F00"></path><path d="M171.285 228.602C172.861 228.163 177.634 227.811 183.282 227.811C188.93 227.811 193.746 228.163 195.279 228.602C195.629 228.514 195.804 228.382 195.804 228.294C195.804 227.679 190.2 227.196 183.238 227.196C176.32 227.196 170.672 227.679 170.672 228.294C170.716 228.382 170.935 228.47 171.285 228.602Z" fill="#FC8600"></path><path d="M168.613 224.165V227.987C168.613 229.305 175.663 230.403 184.419 230.403C193.133 230.403 200.226 229.305 200.226 227.987V224.165H168.613Z" fill="#FFB100"></path><mask id="mask10_720_2601" style="mask-type:luminance" maskUnits="userSpaceOnUse" x="168" y="224" width="33" height="7"><path d="M168.613 224.165V227.987C168.613 229.305 175.663 230.403 184.419 230.403C193.133 230.403 200.226 229.305 200.226 227.987V224.165H168.613Z" fill="white"></path></mask><g mask="url(#mask10_720_2601)"><path d="M169.707 222.583H168.963V231.37H169.707V222.583Z" fill="#FC8600"></path><path d="M171.633 222.583H170.889V231.37H171.633V222.583Z" fill="#FC8600"></path><path d="M173.822 222.583H173.078V231.37H173.822V222.583Z" fill="#FC8600"></path><path d="M176.582 222.583H175.838V231.37H176.582V222.583Z" fill="#FC8600"></path><path d="M179.647 222.583H178.902V231.37H179.647V222.583Z" fill="#FC8600"></path><path d="M182.93 222.583H182.186V231.37H182.93V222.583Z" fill="#FC8600"></path><path d="M199.83 222.583H199.086V231.37H199.83V222.583Z" fill="#FC8600"></path><path d="M197.904 222.583H197.16V231.37H197.904V222.583Z" fill="#FC8600"></path><path d="M195.672 222.583H194.928V231.37H195.672V222.583Z" fill="#FC8600"></path><path d="M192.912 222.583H192.168V231.37H192.912V222.583Z" fill="#FC8600"></path><path d="M189.893 222.583H189.148V231.37H189.893V222.583Z" fill="#FC8600"></path><path d="M186.565 222.583H185.82V231.37H186.565V222.583Z" fill="#FC8600"></path></g><path d="M200.183 224.121C200.183 225.439 193.133 226.537 184.376 226.537C175.62 226.537 168.57 225.439 168.57 224.121C168.57 222.803 175.62 221.704 184.376 221.704C193.133 221.704 200.183 222.759 200.183 224.121Z" fill="#FFC600"></path><path d="M196.943 223.857C196.943 224.472 191.338 224.955 184.377 224.955C177.459 224.955 171.811 224.472 171.811 223.857C171.811 223.242 177.415 222.759 184.377 222.759C191.338 222.715 196.943 223.242 196.943 223.857Z" fill="#FF9F00"></path><path d="M172.379 224.165C173.955 223.725 178.727 223.374 184.376 223.374C190.024 223.374 194.84 223.725 196.372 224.165C196.723 224.077 196.898 223.945 196.898 223.857C196.898 223.242 191.293 222.759 184.332 222.759C177.414 222.759 171.766 223.242 171.766 223.857C171.853 223.945 172.028 224.077 172.379 224.165Z" fill="#FC8600"></path><path d="M164.848 219.815V223.637C164.848 224.955 171.897 226.054 180.654 226.054C189.367 226.054 196.46 224.955 196.46 223.637V219.815H164.848Z" fill="#FFB100"></path><mask id="mask11_720_2601" style="mask-type:luminance" maskUnits="userSpaceOnUse" x="164" y="219" width="33" height="8"><path d="M164.848 219.815V223.637C164.848 224.955 171.897 226.054 180.654 226.054C189.367 226.054 196.46 224.955 196.46 223.637V219.815H164.848Z" fill="white"></path></mask><g mask="url(#mask11_720_2601)"><path d="M165.942 218.234H165.197V227.02H165.942V218.234Z" fill="#FC8600"></path><path d="M167.867 218.234H167.123V227.02H167.867V218.234Z" fill="#FC8600"></path><path d="M170.057 218.234H169.312V227.02H170.057V218.234Z" fill="#FC8600"></path><path d="M172.817 218.234H172.072V227.02H172.817V218.234Z" fill="#FC8600"></path><path d="M175.881 218.234H175.137V227.02H175.881V218.234Z" fill="#FC8600"></path><path d="M179.164 218.234H178.42V227.02H179.164V218.234Z" fill="#FC8600"></path><path d="M196.065 218.234H195.32V227.02H196.065V218.234Z" fill="#FC8600"></path><path d="M194.139 218.234H193.395V227.02H194.139V218.234Z" fill="#FC8600"></path><path d="M191.906 218.234H191.162V227.02H191.906V218.234Z" fill="#FC8600"></path><path d="M189.147 218.234H188.402V227.02H189.147V218.234Z" fill="#FC8600"></path><path d="M186.127 218.234H185.383V227.02H186.127V218.234Z" fill="#FC8600"></path><path d="M182.799 218.234H182.055V227.02H182.799V218.234Z" fill="#FC8600"></path></g><path d="M196.417 219.727C196.417 221.045 189.368 222.144 180.611 222.144C171.898 222.144 164.805 221.045 164.805 219.727C164.805 218.409 171.854 217.311 180.611 217.311C189.324 217.355 196.417 218.409 196.417 219.727Z" fill="#FFC600"></path><path d="M193.177 219.508C193.177 220.123 187.573 220.606 180.611 220.606C173.649 220.606 168.045 220.123 168.045 219.508C168.045 218.893 173.649 218.409 180.611 218.409C187.573 218.409 193.177 218.893 193.177 219.508Z" fill="#FF9F00"></path><path d="M168.613 219.815C170.189 219.376 174.962 219.024 180.61 219.024C186.258 219.024 191.074 219.376 192.607 219.815C192.957 219.727 193.132 219.596 193.132 219.508C193.132 218.893 187.528 218.409 180.566 218.409C173.604 218.409 168 218.893 168 219.508C168.088 219.596 168.263 219.727 168.613 219.815Z" fill="#FC8600"></path><path d="M167.869 215.466V219.288C167.869 220.606 174.918 221.704 183.675 221.704C192.388 221.704 199.482 220.606 199.482 219.288V215.466H167.869Z" fill="#FFB100"></path><mask id="mask12_720_2601" style="mask-type:luminance" maskUnits="userSpaceOnUse" x="167" y="215" width="33" height="7"><path d="M167.869 215.466V219.288C167.869 220.606 174.918 221.704 183.675 221.704C192.388 221.704 199.482 220.606 199.482 219.288V215.466H167.869Z" fill="white"></path></mask><g mask="url(#mask12_720_2601)"><path d="M168.963 213.884H168.219V222.671H168.963V213.884Z" fill="#FC8600"></path><path d="M170.889 213.884H170.145V222.671H170.889V213.884Z" fill="#FC8600"></path><path d="M173.123 213.884H172.379V222.671H173.123V213.884Z" fill="#FC8600"></path><path d="M175.881 213.884H175.137V222.671H175.881V213.884Z" fill="#FC8600"></path><path d="M178.903 213.884H178.158V222.671H178.903V213.884Z" fill="#FC8600"></path><path d="M182.231 213.884H181.486V222.671H182.231V213.884Z" fill="#FC8600"></path><path d="M199.086 213.884H198.342V222.671H199.086V213.884Z" fill="#FC8600"></path><path d="M197.16 213.884H196.416V222.671H197.16V213.884Z" fill="#FC8600"></path><path d="M194.971 213.884H194.227V222.671H194.971V213.884Z" fill="#FC8600"></path><path d="M192.213 213.884H191.469V222.671H192.213V213.884Z" fill="#FC8600"></path><path d="M189.149 213.884H188.404V222.671H189.149V213.884Z" fill="#FC8600"></path><path d="M185.863 213.884H185.119V222.671H185.863V213.884Z" fill="#FC8600"></path></g><path d="M199.439 215.378C199.439 216.696 192.389 217.794 183.632 217.794C174.919 217.794 167.826 216.696 167.826 215.378C167.826 214.06 174.875 212.961 183.632 212.961C192.389 213.005 199.439 214.06 199.439 215.378Z" fill="#FFC600"></path><path d="M183.676 216.257C190.616 216.257 196.242 215.765 196.242 215.158C196.242 214.552 190.616 214.06 183.676 214.06C176.735 214.06 171.109 214.552 171.109 215.158C171.109 215.765 176.735 216.257 183.676 216.257Z" fill="#FF9F00"></path><path d="M171.679 215.466C173.256 215.026 178.028 214.675 183.676 214.675C189.325 214.675 194.141 215.026 195.673 215.466C196.024 215.378 196.199 215.246 196.199 215.158C196.199 214.543 190.594 214.06 183.633 214.06C176.715 214.06 171.066 214.543 171.066 215.158C171.11 215.246 171.329 215.378 171.679 215.466Z" fill="#FC8600"></path><path d="M165.154 211.116V214.938C165.154 216.256 172.204 217.355 180.96 217.355C189.674 217.355 196.767 216.256 196.767 214.938V211.116H165.154Z" fill="#FFB100"></path><mask id="mask13_720_2601" style="mask-type:luminance" maskUnits="userSpaceOnUse" x="165" y="211" width="32" height="7"><path d="M165.154 211.116V214.938C165.154 216.256 172.204 217.355 180.96 217.355C189.674 217.355 196.767 216.256 196.767 214.938V211.116H165.154Z" fill="white"></path></mask><g mask="url(#mask13_720_2601)"><path d="M166.248 209.535H165.504V218.321H166.248V209.535Z" fill="#FC8600"></path><path d="M168.174 209.535H167.43V218.321H168.174V209.535Z" fill="#FC8600"></path><path d="M170.408 209.535H169.664V218.321H170.408V209.535Z" fill="#FC8600"></path><path d="M173.166 209.535H172.422V218.321H173.166V209.535Z" fill="#FC8600"></path><path d="M176.188 209.535H175.443V218.321H176.188V209.535Z" fill="#FC8600"></path><path d="M179.471 209.535H178.727V218.321H179.471V209.535Z" fill="#FC8600"></path><path d="M196.371 209.535H195.627V218.321H196.371V209.535Z" fill="#FC8600"></path><path d="M194.446 209.535H193.701V218.321H194.446V209.535Z" fill="#FC8600"></path><path d="M192.213 209.535H191.469V218.321H192.213V209.535Z" fill="#FC8600"></path><path d="M189.453 209.535H188.709V218.321H189.453V209.535Z" fill="#FC8600"></path><path d="M186.434 209.535H185.689V218.321H186.434V209.535Z" fill="#FC8600"></path><path d="M183.106 209.535H182.361V218.321H183.106V209.535Z" fill="#FC8600"></path></g><path d="M196.724 211.028C196.724 212.346 189.674 213.445 180.918 213.445C172.204 213.445 165.111 212.346 165.111 211.028C165.111 209.71 172.161 208.612 180.918 208.612C189.631 208.612 196.724 209.71 196.724 211.028Z" fill="#FFC600"></path><path d="M193.484 210.765C193.484 211.38 187.879 211.863 180.918 211.863C174 211.863 168.352 211.38 168.352 210.765C168.352 210.15 173.956 209.667 180.918 209.667C187.879 209.667 193.484 210.15 193.484 210.765Z" fill="#FFB100"></path><path d="M168.92 211.116C170.496 210.677 175.268 210.326 180.917 210.326C186.565 210.326 191.381 210.677 192.914 211.116C193.264 211.028 193.439 210.897 193.439 210.809C193.439 210.194 187.835 209.71 180.873 209.71C173.955 209.71 168.307 210.194 168.307 210.809C168.394 210.897 168.569 210.985 168.92 211.116Z" fill="#FC8600"></path><path opacity="0.5" d="M176.32 243.276C174.787 241.211 173.868 237.301 173.736 234.533C173.298 224.296 178.159 217.487 186.302 215.597L189.367 214.895L195.716 242.529C192.826 243.1 192.345 248.987 190.331 248.548C188.316 248.152 176.32 243.276 176.32 243.276Z" fill="#C29058"></path><path d="M189.018 214.895L192.083 214.192L199.833 247.933L196.768 248.68C188.624 250.569 180.305 244.506 178.159 235.192C176.058 225.878 180.918 216.784 189.018 214.895Z" fill="#FF9F00"></path><mask id="mask14_720_2601" style="mask-type:luminance" maskUnits="userSpaceOnUse" x="177" y="214" width="23" height="36"><path d="M189.018 214.895L192.083 214.192L199.833 247.933L196.768 248.68C188.624 250.569 180.305 244.506 178.159 235.192C176.058 225.878 180.918 216.784 189.018 214.895Z" fill="white"></path></mask><g mask="url(#mask14_720_2601)"><path d="M199.441 247.664L179.428 252.281L179.624 253.138L199.637 248.52L199.441 247.664Z" fill="#FC8600"></path><path d="M198.91 245.477L178.896 250.094L179.093 250.951L199.106 246.333L198.91 245.477Z" fill="#FC8600"></path><path d="M198.349 243.01L178.336 247.628L178.532 248.484L198.545 243.866L198.349 243.01Z" fill="#FC8600"></path><path d="M197.638 239.895L177.625 244.513L177.821 245.369L197.835 240.751L197.638 239.895Z" fill="#FC8600"></path><path d="M196.861 236.507L176.848 241.125L177.044 241.981L197.057 237.364L196.861 236.507Z" fill="#FC8600"></path><path d="M196.017 232.775L176.004 237.393L176.2 238.249L196.213 233.632L196.017 232.775Z" fill="#FC8600"></path><path d="M191.681 213.839L171.668 218.457L171.864 219.313L191.878 214.696L191.681 213.839Z" fill="#FC8600"></path><path d="M192.17 216.038L172.156 220.656L172.352 221.512L192.366 216.894L192.17 216.038Z" fill="#FC8600"></path><path d="M192.734 218.499L172.721 223.116L172.917 223.973L192.93 219.355L192.734 218.499Z" fill="#FC8600"></path><path d="M193.439 221.62L173.426 226.237L173.622 227.094L193.635 222.476L193.439 221.62Z" fill="#FC8600"></path><path d="M194.23 224.993L174.217 229.611L174.413 230.467L194.426 225.85L194.23 224.993Z" fill="#FC8600"></path><path d="M195.107 228.724L175.094 233.342L175.29 234.198L195.303 229.58L195.107 228.724Z" fill="#FC8600"></path></g><path d="M200.503 247.811C208.633 245.935 213.494 236.861 211.359 227.544C209.224 218.227 200.901 212.195 192.771 214.071C184.64 215.947 179.78 225.02 181.915 234.338C184.05 243.655 192.372 249.687 200.503 247.811Z" fill="#FFD447"></path><path d="M210.866 228.206C208.721 218.892 200.402 212.83 192.258 214.719C188.887 215.51 186.041 217.531 184.07 220.298C186.084 217.179 189.062 214.851 192.696 214.016C200.84 212.127 209.159 218.19 211.304 227.503C212.53 232.951 211.436 238.267 208.633 242.177C211.129 238.399 212.049 233.347 210.866 228.206Z" fill="#FFE569"></path><path d="M199.57 244.418C205.613 243.012 209.203 235.983 207.539 228.778C205.875 221.529 199.614 216.784 193.528 218.19C187.486 219.595 183.896 226.625 185.559 233.83C187.223 241.079 193.484 245.824 199.57 244.418Z" fill="#FFE569"></path><path d="M199.613 244.067C205.656 242.661 209.246 235.631 207.582 228.426C205.918 221.177 199.657 216.432 193.571 217.838C187.529 219.244 183.939 226.273 185.602 233.478C187.31 240.684 193.571 245.472 199.613 244.067Z" fill="#FFB100"></path><path d="M198.299 243.627C204.341 242.221 207.931 235.192 206.268 227.987C205.129 223.11 201.933 219.376 198.08 217.882C202.502 218.98 206.355 222.978 207.581 228.426C209.245 235.675 205.655 242.705 199.612 244.067C197.642 244.506 195.628 244.33 193.789 243.583C195.278 243.935 196.81 243.979 198.299 243.627Z" fill="#FC8600"></path><path d="M196.198 224.033C196.768 223.989 197.293 224.033 197.775 224.165C198.256 224.253 198.694 224.428 199.088 224.648C199.482 224.868 199.789 225.087 200.095 225.351C200.358 225.614 200.533 225.922 200.664 226.186C200.708 226.273 200.664 226.405 200.621 226.493C200.577 226.581 200.489 226.669 200.402 226.669L198.125 227.372C197.95 227.416 197.818 227.46 197.731 227.416C197.6 227.416 197.512 227.372 197.381 227.284C197.337 227.24 197.249 227.24 197.162 227.152C197.074 227.108 196.943 227.064 196.768 227.02C196.593 226.976 196.417 226.932 196.198 226.976C195.98 226.976 195.717 227.02 195.41 227.108C195.191 227.196 194.972 227.24 194.797 227.328C194.622 227.416 194.447 227.504 194.316 227.635C194.184 227.767 194.097 227.855 194.009 228.031C193.965 228.163 193.922 228.338 194.009 228.514C194.053 228.69 194.141 228.822 194.316 228.909C194.447 228.997 194.666 229.041 194.972 229.041C195.279 229.041 195.629 229.041 196.067 228.997C196.505 228.953 197.074 228.909 197.775 228.822C198.431 228.734 199.044 228.734 199.57 228.778C200.095 228.822 200.577 228.953 200.971 229.129C201.365 229.305 201.715 229.612 201.978 229.964C202.241 230.315 202.46 230.755 202.635 231.282C202.766 231.765 202.81 232.248 202.766 232.688C202.722 233.171 202.547 233.566 202.328 234.006C202.109 234.401 201.759 234.797 201.365 235.148C200.971 235.5 200.489 235.807 199.964 236.071L200.358 237.301C200.402 237.433 200.402 237.564 200.314 237.652C200.227 237.784 200.139 237.872 200.008 237.872L197.731 238.575C197.6 238.619 197.468 238.619 197.381 238.531C197.249 238.487 197.162 238.355 197.162 238.267L196.768 236.993C196.155 237.037 195.629 236.993 195.104 236.905C194.578 236.818 194.141 236.642 193.703 236.466C193.309 236.246 192.958 236.027 192.652 235.719C192.389 235.412 192.17 235.104 192.039 234.753C191.995 234.665 191.995 234.533 192.083 234.445C192.127 234.357 192.214 234.269 192.302 234.269L194.578 233.566C194.754 233.523 194.885 233.479 194.972 233.523C195.06 233.523 195.191 233.566 195.323 233.61C195.367 233.654 195.454 233.698 195.585 233.786C195.717 233.874 195.848 233.918 196.067 234.006C196.242 234.05 196.461 234.094 196.724 234.094C196.987 234.094 197.293 234.05 197.643 233.962C198.256 233.786 198.738 233.566 199.088 233.303C199.439 233.039 199.57 232.732 199.482 232.38C199.439 232.205 199.307 232.073 199.132 232.029C198.957 231.941 198.694 231.941 198.344 231.897C197.994 231.897 197.6 231.897 197.118 231.985C196.636 232.029 196.023 232.073 195.367 232.161C194.097 232.292 193.09 232.117 192.389 231.677C191.645 231.238 191.163 230.535 190.857 229.568C190.725 229.173 190.682 228.734 190.725 228.338C190.769 227.899 190.857 227.504 191.076 227.108C191.251 226.713 191.514 226.317 191.864 225.966C192.214 225.614 192.608 225.307 193.09 224.999L192.696 223.725C192.652 223.594 192.652 223.462 192.739 223.374C192.783 223.242 192.915 223.154 193.046 223.154L195.323 222.451C195.454 222.407 195.585 222.407 195.673 222.495C195.804 222.539 195.892 222.671 195.892 222.759L196.198 224.033Z" fill="#FC8600"></path><path d="M196.548 223.681C197.117 223.637 197.643 223.681 198.124 223.813C198.606 223.901 199.044 224.077 199.438 224.296C199.832 224.516 200.138 224.736 200.445 224.999C200.708 225.263 200.883 225.57 201.014 225.834C201.058 225.922 201.014 226.054 200.97 226.142C200.927 226.229 200.839 226.317 200.751 226.317L198.475 227.02C198.299 227.064 198.168 227.108 198.081 227.064C197.949 227.064 197.862 227.02 197.73 226.932C197.686 226.888 197.599 226.888 197.511 226.801C197.424 226.757 197.292 226.713 197.117 226.669C196.942 226.625 196.767 226.581 196.548 226.625C196.329 226.625 196.066 226.669 195.76 226.757C195.541 226.844 195.322 226.888 195.147 226.976C194.972 227.064 194.797 227.152 194.665 227.284C194.534 227.416 194.446 227.504 194.359 227.679C194.315 227.811 194.271 227.987 194.359 228.163C194.403 228.338 194.49 228.47 194.665 228.558C194.797 228.646 195.016 228.69 195.322 228.69C195.629 228.69 195.979 228.69 196.417 228.646C196.855 228.602 197.424 228.558 198.124 228.47C198.781 228.382 199.394 228.382 199.919 228.426C200.445 228.47 200.927 228.602 201.321 228.778C201.715 228.953 202.065 229.261 202.328 229.612C202.59 229.964 202.809 230.403 202.984 230.93C203.116 231.414 203.16 231.897 203.116 232.336C203.072 232.819 202.897 233.215 202.678 233.654C202.459 234.05 202.109 234.445 201.715 234.797C201.321 235.148 200.839 235.456 200.314 235.719L200.708 236.949C200.751 237.081 200.751 237.213 200.664 237.301C200.576 237.433 200.489 237.52 200.357 237.52L198.081 238.223C197.949 238.267 197.818 238.267 197.73 238.179C197.599 238.135 197.511 238.004 197.511 237.916L197.117 236.642C196.504 236.686 195.979 236.642 195.453 236.554C194.928 236.466 194.49 236.29 194.052 236.115C193.658 235.895 193.308 235.675 193.002 235.368C192.739 235.06 192.52 234.753 192.389 234.401C192.345 234.313 192.345 234.181 192.432 234.094C192.476 234.006 192.564 233.918 192.651 233.918L194.928 233.215C195.103 233.171 195.235 233.127 195.322 233.171C195.41 233.171 195.541 233.215 195.672 233.259C195.716 233.303 195.804 233.347 195.935 233.435C196.066 233.522 196.198 233.566 196.417 233.654C196.592 233.698 196.811 233.742 197.073 233.742C197.336 233.742 197.643 233.698 197.993 233.61C198.606 233.435 199.088 233.215 199.438 232.951C199.788 232.688 199.919 232.38 199.832 232.029C199.788 231.853 199.657 231.721 199.482 231.677C199.306 231.589 199.044 231.589 198.694 231.545C198.343 231.545 197.949 231.545 197.468 231.633C196.986 231.677 196.373 231.721 195.716 231.809C194.446 231.941 193.439 231.765 192.739 231.326C191.994 230.886 191.513 230.183 191.206 229.217C191.075 228.822 191.031 228.382 191.075 227.987C191.119 227.547 191.206 227.152 191.425 226.757C191.6 226.361 191.863 225.966 192.213 225.614C192.564 225.263 192.958 224.955 193.439 224.648L193.045 223.374C193.002 223.242 193.002 223.11 193.089 223.022C193.133 222.89 193.264 222.803 193.396 222.803L195.672 222.1C195.804 222.056 195.935 222.056 196.023 222.144C196.154 222.188 196.242 222.319 196.242 222.407L196.548 223.681Z" fill="#FFD447"></path><path d="M39.932 188.842C39.4504 189.194 38.925 189.545 38.4871 189.94H38.4434V189.896C38.925 189.501 39.4504 189.15 39.932 188.842Z" fill="#379956"></path><path d="M37.086 191.083L35.7286 192.269C35.6849 192.313 35.6411 192.313 35.5973 192.269C35.5535 192.225 35.5535 192.181 35.5973 192.137L36.9984 190.951C37.0422 190.951 37.0422 190.951 37.086 190.951C37.086 190.995 37.086 191.039 37.086 191.083Z" fill="#379956"></path><path d="M34.3723 193.543L33.1025 194.861C33.0587 194.905 32.9712 194.905 32.9274 194.861C32.8836 194.817 32.8836 194.729 32.9274 194.685L34.2409 193.411C34.2847 193.367 34.3285 193.367 34.3723 193.411C34.416 193.411 34.416 193.499 34.3723 193.543Z" fill="#379956"></path><path d="M31.8769 196.179L30.6948 197.585C30.651 197.673 30.5196 197.673 30.4758 197.585C30.3883 197.541 30.3883 197.409 30.4758 197.365L31.7018 196.003C31.7456 195.959 31.8332 195.915 31.9207 196.003C31.9207 196.003 31.9645 196.091 31.8769 196.179Z" fill="#379956"></path><path d="M29.5984 199.035L28.5476 200.528C28.5038 200.616 28.3724 200.66 28.2849 200.572C28.1973 200.528 28.1535 200.397 28.2411 200.309L29.3357 198.815C29.3795 198.727 29.5108 198.727 29.5984 198.771C29.6422 198.815 29.686 198.903 29.5984 199.035Z" fill="#379956"></path><path d="M27.5858 202.022L26.7101 203.604C26.6663 203.692 26.4911 203.736 26.4036 203.692C26.316 203.648 26.2722 203.472 26.316 203.384L27.2355 201.803C27.2793 201.715 27.4106 201.671 27.542 201.715C27.6295 201.803 27.6733 201.934 27.5858 202.022Z" fill="#379956"></path><path d="M25.9213 205.229C25.6585 205.756 25.4396 206.328 25.2207 206.899C25.1769 207.031 25.0018 207.075 24.8704 207.031C24.7391 206.987 24.6953 206.811 24.7391 206.679C24.958 206.108 25.2207 205.537 25.4834 205.01C25.5272 204.878 25.7023 204.834 25.7899 204.878C25.9213 204.966 25.965 205.097 25.9213 205.229Z" fill="#379956"></path><path d="M24.5641 208.612C24.389 209.183 24.2139 209.754 24.0387 210.37C23.9949 210.501 23.8636 210.633 23.6884 210.589C23.5571 210.545 23.4257 210.413 23.4695 210.238C23.6447 209.623 23.8198 209.052 23.9949 208.48C24.0387 208.349 24.2139 208.261 24.3452 208.305C24.5204 208.305 24.6079 208.48 24.5641 208.612Z" fill="#379956"></path><path d="M23.6889 212.083C23.5575 212.654 23.4699 213.269 23.4262 213.884C23.4262 214.06 23.251 214.192 23.0759 214.148C22.9007 214.148 22.7694 213.972 22.8132 213.796C22.9007 213.181 22.9883 212.566 23.1197 211.995C23.1634 211.819 23.2948 211.731 23.4699 211.775C23.6013 211.775 23.6889 211.951 23.6889 212.083Z" fill="#379956"></path><path d="M23.2505 215.686C23.2067 216.301 23.2067 216.872 23.2067 217.487C23.2067 217.663 23.0754 217.795 22.9002 217.795C22.7251 217.795 22.5938 217.663 22.5938 217.487C22.5938 216.872 22.5938 216.257 22.6375 215.642C22.6375 215.466 22.8127 215.334 22.9878 215.334C23.1629 215.334 23.2505 215.51 23.2505 215.686Z" fill="#379956"></path><path d="M23.2946 219.288C23.3384 219.903 23.426 220.474 23.5135 221.09C23.5573 221.265 23.426 221.441 23.2508 221.441C23.0757 221.485 22.9006 221.353 22.9006 221.177C22.813 220.562 22.7254 219.947 22.6816 219.332C22.6816 219.156 22.813 218.981 22.9881 218.981C23.1633 218.981 23.2946 219.113 23.2946 219.288Z" fill="#379956"></path><path d="M23.8207 222.847C23.952 223.418 24.0834 224.033 24.2585 224.604C24.3023 224.78 24.2147 224.956 24.0396 225C23.8645 225.044 23.6893 224.956 23.6455 224.78C23.4704 224.209 23.3391 223.594 23.2077 222.979C23.1639 222.803 23.2953 222.627 23.4704 222.583C23.6455 222.583 23.8207 222.671 23.8207 222.847Z" fill="#379956"></path><path d="M24.8273 226.317C25.0462 226.889 25.2651 227.46 25.5278 227.987C25.6154 228.163 25.5278 228.382 25.3527 228.426C25.1775 228.514 24.9586 228.426 24.9148 228.251C24.6521 227.679 24.4332 227.108 24.2143 226.537C24.1705 226.361 24.2581 226.186 24.4332 226.098C24.6083 226.01 24.7835 226.142 24.8273 226.317Z" fill="#379956"></path><path d="M26.3161 229.612C26.6226 230.14 26.8853 230.667 27.2356 231.15C27.3232 231.326 27.2794 231.546 27.148 231.633C27.0167 231.721 26.754 231.677 26.6664 231.546C26.3161 231.018 26.0096 230.491 25.7469 229.964C25.6593 229.788 25.7031 229.569 25.8783 229.481C26.0096 229.349 26.2285 229.437 26.3161 229.612Z" fill="#379956"></path><path d="M28.2413 232.644C28.5916 233.127 28.9856 233.611 29.3797 234.05C29.511 234.182 29.511 234.445 29.3359 234.577C29.2045 234.709 28.9418 234.709 28.8105 234.533C28.4164 234.05 28.0224 233.567 27.6721 233.083C27.5407 232.908 27.5845 232.688 27.7596 232.6C27.9348 232.424 28.1537 232.468 28.2413 232.644Z" fill="#379956"></path><path d="M30.6064 235.368C31.0004 235.807 31.4383 236.203 31.8761 236.642C32.0075 236.774 32.0512 236.993 31.9199 237.169C31.7885 237.301 31.5696 237.345 31.3945 237.213C30.9566 236.818 30.5188 236.378 30.0809 235.939C29.9496 235.807 29.9496 235.544 30.0809 235.412C30.2123 235.28 30.4312 235.236 30.6064 235.368Z" fill="#379956"></path><path d="M33.234 237.828C33.7156 238.224 34.1972 238.575 34.6788 238.926C34.854 239.058 34.854 239.278 34.7664 239.41C34.6351 239.585 34.4161 239.585 34.2848 239.498C33.8032 239.146 33.2777 238.751 32.8399 238.399C32.7085 238.267 32.6648 238.048 32.7961 237.916C32.8399 237.74 33.1026 237.696 33.234 237.828Z" fill="#379956"></path><path d="M36.1669 239.937L37.6993 240.904C37.8744 240.991 37.9182 241.211 37.8307 241.387C37.7431 241.563 37.5242 241.606 37.349 241.519L35.7728 240.552C35.5977 240.464 35.5539 240.245 35.6414 240.069C35.7728 239.893 35.9917 239.849 36.1669 239.937Z" fill="#379956"></path><path d="M39.2756 241.782L40.8956 242.573C41.0707 242.661 41.1145 242.837 41.027 243.012C40.9394 243.188 40.7643 243.232 40.5891 243.144L38.9253 242.353C38.7502 242.265 38.7064 242.09 38.7502 241.914C38.8815 241.738 39.1004 241.694 39.2756 241.782Z" fill="#379956"></path><path d="M42.559 243.276L44.2228 243.935C44.3979 243.979 44.4855 244.199 44.3979 244.374C44.3541 244.55 44.1352 244.638 43.9601 244.55L42.2525 243.891C42.0773 243.847 41.9898 243.628 42.0773 243.452C42.1649 243.32 42.3838 243.232 42.559 243.276Z" fill="#379956"></path><path d="M45.9306 244.55L47.682 245.077C47.8571 245.121 47.9447 245.297 47.9009 245.473C47.8571 245.648 47.682 245.736 47.5068 245.692L45.7555 245.165C45.5803 245.121 45.4928 244.945 45.5365 244.77C45.5803 244.594 45.7555 244.506 45.9306 244.55Z" fill="#379956"></path><path d="M49.4345 245.561L51.1859 245.956C51.361 246 51.4486 246.132 51.4048 246.307C51.361 246.483 51.2297 246.571 51.0545 246.527L49.2594 246.132C49.0842 246.088 48.9967 245.912 49.0405 245.78C49.0842 245.648 49.2156 245.517 49.4345 245.561Z" fill="#379956"></path><path d="M52.9362 246.264L54.7314 246.527C54.8627 246.571 54.9941 246.703 54.9503 246.835C54.9065 246.966 54.7752 247.098 54.6438 247.054L52.8486 246.791C52.6735 246.791 52.5859 246.615 52.5859 246.483C52.5859 246.351 52.8049 246.22 52.9362 246.264Z" fill="#379956"></path><path d="M56.571 246.879L58.3661 247.274C58.4975 247.318 58.5851 247.45 58.5413 247.582C58.4975 247.713 58.3661 247.801 58.2348 247.757L56.4396 247.406C56.3083 247.362 56.2207 247.23 56.2207 247.098C56.2645 246.923 56.3958 246.835 56.571 246.879Z" fill="#379956"></path><path d="M60.1167 247.713L61.8681 248.197C61.9994 248.241 62.0432 248.372 61.9994 248.46C61.9557 248.592 61.8243 248.636 61.7367 248.636L59.9854 248.153C59.854 248.109 59.7664 247.977 59.8102 247.845C59.854 247.757 59.9854 247.669 60.1167 247.713Z" fill="#379956"></path><path d="M63.6201 248.768L65.3276 249.383C65.4152 249.427 65.5028 249.515 65.459 249.646C65.4152 249.734 65.3276 249.778 65.1963 249.778L63.4887 249.163C63.4011 249.119 63.3136 248.987 63.3573 248.9C63.4011 248.812 63.4887 248.724 63.6201 248.768Z" fill="#379956"></path><path d="M67.0349 250.13C67.6041 250.393 68.1295 250.657 68.6987 250.92C68.7863 250.964 68.8301 251.052 68.7863 251.14C68.7425 251.228 68.655 251.272 68.5674 251.228C68.042 250.964 67.4728 250.701 66.9036 250.481C66.816 250.437 66.7722 250.349 66.816 250.261C66.8598 250.174 66.9474 250.086 67.0349 250.13Z" fill="#379956"></path><path d="M70.2742 251.799C70.7996 252.107 71.325 252.458 71.8067 252.81C71.8504 252.854 71.8942 252.942 71.8505 252.985C71.8067 253.029 71.7191 253.073 71.6753 253.029C71.1937 252.678 70.6683 252.37 70.1429 252.063C70.0553 252.019 70.0553 251.931 70.0991 251.887C70.0991 251.799 70.1866 251.755 70.2742 251.799Z" fill="#379956"></path><path d="M73.2521 253.952C73.7337 254.347 74.1716 254.787 74.5656 255.226C74.6094 255.27 74.6094 255.314 74.5656 255.358C74.5218 255.402 74.478 255.402 74.4343 255.358C73.9964 254.919 73.5586 254.523 73.1207 254.128C73.0769 254.084 73.0769 254.04 73.1207 253.996C73.1207 253.908 73.2083 253.908 73.2521 253.952Z" fill="#379956"></path><path d="M75.7048 256.676C76.055 257.159 76.3615 257.73 76.6242 258.257V258.301H76.5804C76.3177 257.774 75.9675 257.247 75.6172 256.764C75.6172 256.72 75.6172 256.72 75.6172 256.676C75.661 256.632 75.7048 256.632 75.7048 256.676Z" fill="#379956"></path><path d="M77.2363 259.971L77.2798 260.014L77.2363 259.971Z" fill="#379956"></path><path d="M44.1779 179.616C44.2217 179.528 40.5 181.856 40.5 181.856L41.4633 188.095L43.2584 183.438L48.0309 182.515L54.8175 176.101L44.1779 179.616Z" fill="#55B570"></path><path d="M54.8609 176.057L41.4629 188.095L43.2581 183.438L54.8609 176.057Z" fill="#207A39"></path><path d="M54.8616 176.057L37.1289 179.835L40.5003 181.856L54.8616 176.057L43.2587 183.438L48.9945 186.953L54.8616 176.057Z" fill="#379956"></path><path d="M210.91 13.8099C210.647 15.699 208.94 17.0171 207.057 16.7534C205.174 16.4898 203.861 14.7764 204.123 12.8873C204.386 10.9981 206.094 9.68011 207.976 9.94372C209.859 10.1634 211.173 11.9207 210.91 13.8099Z" fill="#234C63"></path><path d="M206.006 13.2828L207.144 14.7765L209.29 12.5798" stroke="white" stroke-width="1.6636" stroke-miterlimit="10" stroke-linecap="round" stroke-linejoin="round"></path><path d="M121.589 26.9461C121.589 28.8353 120.013 30.3729 118.13 30.3729C116.247 30.3729 114.715 28.7913 114.715 26.9022C114.715 25.013 116.291 23.4753 118.174 23.4753C120.1 23.5193 121.633 25.057 121.589 26.9461Z" fill="#234C63"></path><path d="M116.641 27.0778L117.998 28.3958L119.837 25.9795" stroke="white" stroke-width="1.6636" stroke-miterlimit="10" stroke-linecap="round" stroke-linejoin="round"></path><path d="M69.2231 21.015C69.2231 21.718 68.6539 22.2891 67.9533 22.2891C67.2528 22.2891 66.6836 21.718 66.6836 21.015C66.6836 20.3121 67.2528 19.741 67.9533 19.741C68.6539 19.741 69.2231 20.3121 69.2231 21.015Z" fill="#234C63"></path><path d="M14.4044 99.6126C14.4044 100.052 14.0541 100.403 13.6162 100.403C13.1784 100.403 12.8281 100.052 12.8281 99.6126C12.8281 99.1732 13.1784 98.8218 13.6162 98.8218C14.0541 98.8218 14.4044 99.1732 14.4044 99.6126Z" fill="#234C63"></path><path d="M32.6622 114.77C32.6622 115.209 32.3119 115.561 31.8741 115.561C31.4362 115.561 31.0859 115.209 31.0859 114.77C31.0859 114.33 31.4362 113.979 31.8741 113.979C32.3557 113.979 32.6622 114.33 32.6622 114.77Z" fill="#234C63"></path><path d="M190.856 5.76993C190.856 6.47287 190.287 7.04401 189.586 7.04401C188.886 7.04401 188.316 6.47287 188.316 5.76993C188.316 5.06699 188.886 4.49585 189.586 4.49585C190.287 4.53978 190.856 5.06699 190.856 5.76993Z" fill="#234C63"></path><path d="M23.0308 29.626C22.8119 29.626 22.6367 29.4503 22.6367 29.2306V26.3749C22.6367 26.1552 22.8119 25.9795 23.0308 25.9795C23.2497 25.9795 23.4248 26.1552 23.4248 26.3749V29.2306C23.4248 29.4503 23.2497 29.626 23.0308 29.626Z" fill="#234C63"></path><path d="M24.4315 28.22H21.5855C21.3665 28.22 21.1914 28.0443 21.1914 27.8246C21.1914 27.6049 21.3665 27.4292 21.5855 27.4292H24.4315C24.6504 27.4292 24.8255 27.6049 24.8255 27.8246C24.8693 28.0443 24.6504 28.22 24.4315 28.22Z" fill="#234C63"></path><path d="M248.521 106.818C248.302 106.818 248.127 106.642 248.127 106.422V103.567C248.127 103.347 248.302 103.171 248.521 103.171C248.74 103.171 248.915 103.347 248.915 103.567V106.422C248.915 106.642 248.74 106.818 248.521 106.818Z" fill="#FF7E91"></path><path d="M249.922 105.412H247.076C246.857 105.412 246.682 105.236 246.682 105.016C246.682 104.797 246.857 104.621 247.076 104.621H249.922C250.141 104.621 250.316 104.797 250.316 105.016C250.316 105.192 250.141 105.412 249.922 105.412Z" fill="#FF7E91"></path><path d="M34.9839 81.0286C34.765 81.0286 34.5898 80.8528 34.5898 80.6332V77.7775C34.5898 77.5578 34.765 77.3821 34.9839 77.3821C35.2028 77.3821 35.378 77.5578 35.378 77.7775V80.6332C35.378 80.8528 35.2028 81.0286 34.9839 81.0286Z" fill="#234C63"></path><path d="M36.3846 79.6226H33.5386C33.3197 79.6226 33.1445 79.4469 33.1445 79.2272C33.1445 79.0075 33.3197 78.8318 33.5386 78.8318H36.3846C36.6035 78.8318 36.7786 79.0075 36.7786 79.2272C36.7786 79.4469 36.6035 79.6226 36.3846 79.6226Z" fill="#234C63"></path><path d="M118.173 5.77004C117.954 5.77004 117.779 5.5943 117.779 5.37463V2.51894C117.779 2.29927 117.954 2.12354 118.173 2.12354C118.392 2.12354 118.567 2.29927 118.567 2.51894V5.37463C118.567 5.5943 118.392 5.77004 118.173 5.77004Z" fill="#234C63"></path><path d="M119.574 4.36405H116.728C116.509 4.36405 116.334 4.18831 116.334 3.96865C116.334 3.74898 116.509 3.57324 116.728 3.57324H119.574C119.793 3.57324 119.968 3.74898 119.968 3.96865C120.012 4.18831 119.793 4.36405 119.574 4.36405Z" fill="#234C63"></path><path d="M166.511 108.531H165.504V107.521C165.504 107.301 165.329 107.125 165.11 107.125C164.891 107.125 164.716 107.301 164.716 107.521V108.531H163.709C163.49 108.531 163.314 108.707 163.314 108.927C163.314 109.146 163.49 109.322 163.709 109.322H164.716V110.332C164.716 110.552 164.891 110.728 165.11 110.728C165.329 110.728 165.504 110.552 165.504 110.332V109.322H166.511C166.73 109.322 166.905 109.146 166.905 108.927C166.905 108.707 166.73 108.531 166.511 108.531Z" fill="#FF7E91"></path><path opacity="0.3" d="M266.603 131.465C266.603 132.431 266.472 133.398 266.209 134.32C264.983 138.67 260.999 141.833 256.27 141.833C252.723 141.833 249.615 140.032 247.776 137.308C246.637 135.638 245.98 133.617 245.98 131.465C245.98 125.753 250.622 121.096 256.314 121.096V131.465L265.202 126.236C266.078 127.774 266.603 129.531 266.603 131.465Z" fill="#90E2F9"></path><path opacity="0.7" d="M266.121 124.435C264.325 121.36 260.998 119.295 257.232 119.295V129.619L266.121 124.435Z" fill="#90E2F9"></path><path opacity="0.3" d="M266.603 131.465C266.603 132.431 266.471 133.398 266.209 134.32L256.27 131.465L265.158 126.237C266.077 127.774 266.603 129.532 266.603 131.465Z" fill="#90E2F9"></path><path opacity="0.2" d="M256.27 121.096V131.465L247.776 137.308C246.638 135.638 245.981 133.617 245.981 131.465C245.937 125.753 250.578 121.096 256.27 121.096Z" fill="#90E2F9"></path><path d="M39.4942 144.381C39.4942 144.293 39.4504 144.161 39.4066 144.074C39.319 143.678 39.1877 143.239 39.0563 142.887C38.7498 142.009 38.312 141.174 37.8303 140.383L39.0563 139.153L36.1665 136.253L36.1227 136.297L34.9844 137.44C33.8022 136.649 32.4449 136.078 31 135.77V134.057H26.8842V135.77C25.4393 136.034 24.082 136.605 22.8998 137.44L21.6739 136.209L18.7841 139.109L20.0101 140.339C19.222 141.525 18.6528 142.887 18.3463 144.337H16.6387V148.467H18.3463C18.609 149.917 19.1782 151.279 20.0101 152.465L18.7841 153.695L21.6739 156.595L22.8998 155.365C24.082 156.155 25.4393 156.726 26.8842 157.034V158.747H31V157.034C32.4449 156.77 33.8022 156.199 34.9844 155.365L36.1227 156.507L36.1665 156.551L37.9179 154.793L39.0563 153.651L37.9179 152.509L37.8741 152.465C37.8741 152.421 37.9179 152.421 37.9179 152.377C38.706 151.191 39.2314 149.873 39.4942 148.467H41.2017V144.337H39.4942V144.381ZM28.8983 153.344C25.0891 153.344 22.0242 150.268 22.0242 146.446C22.0242 142.624 25.0891 139.548 28.8983 139.548C32.7076 139.548 35.7725 142.624 35.7725 146.446C35.7725 150.268 32.6638 153.344 28.8983 153.344Z" fill="#13323F"></path><path d="M24.8253 161.954C24.8253 161.911 24.7815 161.823 24.7815 161.779C24.7377 161.515 24.6502 161.295 24.5626 161.076C24.3875 160.549 24.1248 160.021 23.8183 159.582L24.5626 158.835L22.8112 157.078L22.7674 157.122L22.0669 157.825C21.3663 157.341 20.5344 156.99 19.6587 156.814V155.804H17.2068V156.814C16.3311 156.99 15.543 157.341 14.7987 157.825L14.0543 157.078L12.303 158.835L13.0473 159.582C12.5657 160.285 12.2154 161.12 12.0402 161.998H11.0332V164.459H12.084C12.2592 165.337 12.6094 166.128 13.0911 166.875L12.3467 167.622L14.0981 169.379L14.8425 168.632C15.543 169.116 16.3749 169.467 17.2506 169.643V170.697H19.7025V169.599C20.5782 169.423 21.3663 169.072 22.1107 168.588L22.8112 169.291L22.855 169.335L23.9058 168.281L24.6064 167.578L23.9058 166.875L23.862 166.831C23.862 166.831 23.862 166.787 23.9058 166.787C24.3875 166.084 24.6939 165.293 24.8691 164.415H25.9199V161.954H24.8253ZM18.4766 167.358C16.1998 167.358 14.3608 165.513 14.3608 163.229C14.3608 160.944 16.1998 159.099 18.4766 159.099C20.7534 159.099 22.5923 160.944 22.5923 163.229C22.5923 165.469 20.7534 167.358 18.4766 167.358Z" fill="#13323F"></path><path d="M286.001 59.0615H245.5V89.5076H286.001V59.0615Z" fill="#DCECF8"></path><path d="M284.643 60.072H246.9V88.4532H284.643V60.072Z" fill="white"></path><path d="M279.697 61.8293H251.85V64.026H279.697V61.8293Z" fill="#DCECF8"></path><path d="M252.943 79.4468H250.754V84.8946H252.943V79.4468Z" fill="#DCECF8"></path><path d="M257.847 74.658H255.658V84.8945H257.847V74.658Z" fill="#DCECF8"></path><path d="M262.707 75.7124H260.518V84.8946H262.707V75.7124Z" fill="#DCECF8"></path><path d="M267.611 70.5281H265.422V84.9384H267.611V70.5281Z" fill="#DCECF8"></path><path d="M276.018 86.3884H249.354V66.6182H249.616V86.1248H276.018V86.3884Z" fill="#CED2E2"></path><path d="M251.718 76.5031L251.543 76.2395L256.622 71.6704L261.307 72.7248L266.386 67.0134L266.605 67.2331L261.394 73.0324L256.71 72.0219L251.718 76.5031Z" fill="#CED2E2"></path><path d="M266.999 68.0679L265.598 66.662L267.437 66.1787L266.999 68.0679Z" fill="#CED2E2"></path><path d="M282.018 66.9255H272.123V67.3209H282.018V66.9255Z" fill="#EEEEEE"></path><path d="M282.061 67.8481H270.809V68.2436H282.061V67.8481Z" fill="#EEEEEE"></path><path d="M282.061 68.8147H270.809V69.2101H282.061V68.8147Z" fill="#EEEEEE"></path><path d="M282.061 69.7373H270.809V70.1327H282.061V69.7373Z" fill="#EEEEEE"></path><path d="M282.061 70.7039H270.809V71.0993H282.061V70.7039Z" fill="#EEEEEE"></path><path d="M282.061 71.6265H270.809V72.0219H282.061V71.6265Z" fill="#EEEEEE"></path><path d="M282.061 72.593H270.809V72.9884H282.061V72.593Z" fill="#EEEEEE"></path><path d="M282.061 73.5156H270.809V73.911H282.061V73.5156Z" fill="#EEEEEE"></path><path d="M282.061 74.4822H270.809V74.8776H282.061V74.4822Z" fill="#EEEEEE"></path><path d="M282.061 75.4048H270.809V75.8002H282.061V75.4048Z" fill="#EEEEEE"></path><path d="M282.061 76.3713H270.809V76.7667H282.061V76.3713Z" fill="#EEEEEE"></path><path d="M282.061 77.2939H270.809V77.6894H282.061V77.2939Z" fill="#EEEEEE"></path><path d="M282.061 78.2605H270.809V78.6559H282.061V78.2605Z" fill="#EEEEEE"></path><path d="M282.061 79.1831H270.809V79.5785H282.061V79.1831Z" fill="#EEEEEE"></path><path d="M282.061 80.1497H270.809V80.5451H282.061V80.1497Z" fill="#EEEEEE"></path><path d="M282.061 81.0723H270.809V81.4677H282.061V81.0723Z" fill="#EEEEEE"></path><path d="M282.061 82.0388H270.809V82.4342H282.061V82.0388Z" fill="#EEEEEE"></path><path d="M282.061 82.9614H270.809V83.3568H282.061V82.9614Z" fill="#EEEEEE"></path><path d="M282.018 83.928H277.07V84.3234H282.018V83.928Z" fill="#EEEEEE"></path><g opacity="0.3"><path d="M222.598 83.5769C220.935 83.5769 219.621 84.9389 219.621 86.5644C219.621 88.2339 220.978 89.5519 222.598 89.5519C224.262 89.5519 225.576 88.19 225.576 86.5644C225.576 84.8949 224.218 83.5769 222.598 83.5769ZM222.598 87.9264C221.854 87.9264 221.241 87.3113 221.241 86.5644C221.241 85.8175 221.854 85.2025 222.598 85.2025C223.343 85.2025 223.956 85.8175 223.956 86.5644C223.956 87.3113 223.343 87.9264 222.598 87.9264Z" fill="#00A5FF"></path><path d="M222.599 80.3696C219.184 80.3696 216.426 83.1375 216.426 86.5643C216.426 89.9911 219.184 92.759 222.599 92.759C226.015 92.759 228.773 89.9911 228.773 86.5643C228.729 83.1375 225.971 80.3696 222.599 80.3696ZM222.599 91.1334C220.06 91.1334 218.046 89.0685 218.046 86.5643C218.046 84.0601 220.104 81.9952 222.599 81.9952C225.139 81.9952 227.153 84.0601 227.153 86.5643C227.153 89.0685 225.095 91.1334 222.599 91.1334Z" fill="#00A5FF"></path><path d="M222.598 83.5769C220.935 83.5769 219.621 84.9389 219.621 86.5644C219.621 88.2339 220.978 89.5519 222.598 89.5519C224.262 89.5519 225.576 88.19 225.576 86.5644C225.576 84.8949 224.218 83.5769 222.598 83.5769ZM222.598 87.9264C221.854 87.9264 221.241 87.3113 221.241 86.5644C221.241 85.8175 221.854 85.2025 222.598 85.2025C223.343 85.2025 223.956 85.8175 223.956 86.5644C223.956 87.3113 223.343 87.9264 222.598 87.9264Z" fill="#00A5FF"></path><path d="M222.598 83.5769C220.935 83.5769 219.621 84.9389 219.621 86.5644C219.621 88.2339 220.978 89.5519 222.598 89.5519C224.262 89.5519 225.576 88.19 225.576 86.5644C225.576 84.8949 224.218 83.5769 222.598 83.5769ZM222.598 87.9264C221.854 87.9264 221.241 87.3113 221.241 86.5644C221.241 85.8175 221.854 85.2025 222.598 85.2025C223.343 85.2025 223.956 85.8175 223.956 86.5644C223.956 87.3113 223.343 87.9264 222.598 87.9264Z" fill="#00A5FF"></path><path d="M228.472 80.1671L222.479 86.4529L222.668 86.6351L228.661 80.3493L228.472 80.1671Z" fill="#00A5FF"></path><path d="M222.293 86.2268L222.205 86.3245L222.822 86.8847L222.91 86.7871L222.293 86.2268Z" fill="#00A5FF"></path><path d="M222.789 86.1983L222.23 86.8171L222.328 86.9056L222.886 86.2867L222.789 86.1983Z" fill="#00A5FF"></path><path d="M229.516 80.4135H228.553C228.509 80.4135 228.466 80.4135 228.466 80.3695C228.422 80.3256 228.422 80.2817 228.422 80.2817L228.509 79.2273C228.509 79.1394 228.597 79.0955 228.641 79.0955C228.728 79.0955 228.772 79.1833 228.772 79.2273L228.685 80.1059H229.473C229.56 80.1059 229.604 80.1499 229.604 80.2377C229.648 80.3695 229.604 80.4135 229.516 80.4135Z" fill="#00A5FF"></path><path d="M228.991 80.9406H228.028C227.984 80.9406 227.94 80.9406 227.94 80.8966C227.896 80.8527 227.896 80.8088 227.896 80.8088L227.984 79.7544C227.984 79.6665 228.072 79.6226 228.115 79.6226C228.203 79.6226 228.247 79.7104 228.247 79.7544L228.159 80.633H228.947C229.035 80.633 229.079 80.677 229.079 80.7648C229.122 80.8966 229.079 80.9406 228.991 80.9406Z" fill="#00A5FF"></path></g></g><defs><clipPath id="clip0_720_2601"><rect width="286" height="260" fill="white" transform="translate(0 0.0146484)"></rect></clipPath></defs></svg>