<svg xmlns="http://www.w3.org/2000/svg" width="125" height="126" viewBox="0 0 125 126" fill="none"><rect y="0.0146484" width="125" height="125" rx="10" fill="#234C63"></rect><path d="M97.9309 72.927C97.4262 71.4405 96.2229 70.3615 94.5425 69.8891C92.7369 69.3816 90.3909 69.5449 87.5688 70.3753L74.7525 74.1457C74.0906 72.8054 72.8773 71.7456 71.323 71.3303L62.2051 68.8944C55.5406 64.2325 51.9714 65.5763 46.7244 68.147C43.8187 69.5704 40.8807 70.9655 37.888 72.3792L37.6524 71.8436C36.9619 70.2735 35.1217 69.5568 33.5511 70.2456L28.6666 72.3882C27.9011 72.724 27.3135 73.3348 27.0123 74.1079C26.7111 74.881 26.7306 75.7284 27.0673 76.4937L35.8033 96.3538C36.3155 97.5188 37.4602 98.2139 38.6585 98.2139C39.0755 98.2139 39.4991 98.1296 39.9045 97.9518L44.7888 95.8093C45.5544 95.4734 46.1421 94.8626 46.4433 94.0895C46.7445 93.3164 46.725 92.469 46.3883 91.7037L45.5359 89.7657L49.8947 87.6426C51.0626 87.0734 52.2375 86.9725 53.4856 87.3338L63.7335 90.3011C64.4876 90.5195 65.2661 90.6128 66.0563 90.6128C68.7846 90.6127 71.644 89.4976 74.0473 88.5603C74.2587 88.478 74.4661 88.397 74.6691 88.3187L93.8924 80.8945C97.0127 79.6894 98.9376 75.8917 97.9309 72.927ZM44.5579 93.3549C44.4529 93.624 44.2464 93.8376 43.976 93.9563L39.0918 96.0988C38.5412 96.3397 37.8973 96.0891 37.6553 95.5392L28.9193 75.6791C28.8005 75.409 28.7928 75.1118 28.8977 74.8426C29.0027 74.5735 29.2092 74.3597 29.4795 74.2412L34.3638 72.0987C34.5059 72.0364 34.6541 72.0069 34.8003 72.0069C35.2198 72.0069 35.6209 72.2504 35.8004 72.6583L44.5365 92.5183C44.6551 92.7885 44.6628 93.0856 44.5579 93.3549ZM93.1636 79.0068L73.9402 86.431C73.7351 86.5102 73.5257 86.5918 73.3121 86.6751C70.4975 87.7728 66.9949 89.1387 64.2963 88.3574L54.0484 85.3902C52.3206 84.89 50.625 85.0357 49.0084 85.8233L44.7206 87.9121L38.703 74.2321C41.7197 72.8072 44.6813 71.401 47.6145 69.9641C52.5082 67.5664 55.3344 66.5086 61.1855 70.651C61.2834 70.7204 61.393 70.7719 61.5089 70.8028L70.8007 73.2853C72.5843 73.7618 73.6477 75.6005 73.1713 77.384C72.6946 79.1677 70.8555 80.231 69.0722 79.7545L56.7238 76.4556C56.1847 76.3113 55.6295 76.632 55.4853 77.1718C55.341 77.7117 55.6618 78.2661 56.2016 78.4103L68.55 81.7093C71.4122 82.4744 74.3616 80.7675 75.1262 77.9062C75.2882 77.2996 75.3393 76.689 75.2918 76.0962L88.1398 72.3168C92.3793 71.0696 95.3234 71.5408 96.015 73.5778C96.6706 75.5086 95.2581 78.1979 93.1636 79.0068ZM62.4968 37.0821C65.3276 37.0821 67.6305 34.7791 67.6305 31.9483C67.6305 29.118 65.3276 26.8154 62.4968 26.8154C59.666 26.8154 57.363 29.1181 57.363 31.9485C57.3632 34.7791 59.6661 37.0821 62.4968 37.0821ZM62.4968 28.8389C64.2118 28.8389 65.6071 30.2337 65.6071 31.9485C65.6071 33.6635 64.2119 35.0588 62.4968 35.0588C60.7816 35.0588 59.3865 33.6636 59.3865 31.9485C59.3866 30.2337 60.7818 28.8389 62.4968 28.8389ZM60.1902 51.9611L59.6222 53.4035L54.3608 53.7248C53.9459 53.7503 53.5887 54.0268 53.4604 54.4221C53.3321 54.8173 53.4582 55.2509 53.7791 55.5153L57.8468 58.8678L56.5265 63.9711C56.4224 64.3735 56.5751 64.7987 56.9114 65.0429C57.0883 65.1714 57.297 65.2362 57.506 65.2362C57.6946 65.2362 57.8835 65.1836 58.0497 65.0776L62.4951 62.245L66.9405 65.0776C67.291 65.3008 67.7424 65.287 68.0789 65.0429C68.4152 64.7987 68.5678 64.3735 68.4638 63.9711L67.1435 58.8678L71.2112 55.5153C71.532 55.2509 71.6583 54.8173 71.5298 54.4221C71.4014 54.0268 71.0444 53.7503 70.6294 53.7248L65.368 53.4035L64.8 51.9614C68.7069 51.5931 72.4269 50.2389 72.4269 47.3636C72.4269 41.8883 67.9725 37.4339 62.4972 37.4339C57.0217 37.4339 52.5669 41.8883 52.5669 47.3636C52.5665 50.238 56.285 51.5924 60.1902 51.9611ZM67.9414 55.588L65.3588 57.7166C65.0553 57.9667 64.9243 58.3701 65.0228 58.7506L65.8612 61.9909L63.0386 60.1923C62.8729 60.0867 62.684 60.0338 62.4949 60.0338C62.3059 60.0338 62.1171 60.0865 61.9512 60.1923L59.1289 61.9907L59.9672 58.7506C60.0656 58.3699 59.9345 57.9667 59.6312 57.7166L57.0485 55.588L60.3891 55.3841C60.7816 55.3601 61.1247 55.1107 61.2688 54.7448L62.4949 51.631L63.7213 54.7449C63.8652 55.1107 64.2083 55.3601 64.6009 55.3841L67.9414 55.588ZM62.4968 39.4573C66.8563 39.4573 70.4031 43.0041 70.4031 47.3636C70.4031 48.6366 67.6542 49.7479 64.0251 49.9945L63.4361 48.4989C63.2838 48.1121 62.9104 47.8579 62.4948 47.8579C62.0791 47.8579 61.7058 48.1121 61.5533 48.499L60.9645 49.9942C57.3372 49.7472 54.5898 48.636 54.5898 47.3636C54.5899 43.0041 58.1369 39.4573 62.4968 39.4573ZM35.33 50.0225C36.7822 50.5571 38.7145 50.8516 40.771 50.8516C44.6538 50.8516 49.1882 49.7832 49.1882 46.7724C49.1882 42.3148 45.7046 38.6556 41.3172 38.373C43.5057 38.103 45.2055 36.2322 45.2055 33.972C45.2055 31.5271 43.2162 29.538 40.771 29.538C38.3258 29.538 36.3365 31.5271 36.3365 33.972C36.3365 36.2324 38.0365 38.103 40.2248 38.373C35.8367 38.6551 32.3533 42.3145 32.3533 46.7724C32.3535 47.7551 32.8699 49.1167 35.33 50.0225ZM38.3599 33.972C38.3599 32.6429 39.4414 31.5614 40.771 31.5614C42.1005 31.5614 43.1821 32.6428 43.1821 33.972C43.1821 35.3014 42.1005 36.3831 40.771 36.3831C39.4414 36.3831 38.3599 35.3014 38.3599 33.972ZM40.771 40.379C44.2965 40.379 47.1646 43.2472 47.1646 46.7724C47.1646 47.7449 44.5388 48.8281 40.7708 48.8281C37.0028 48.8281 34.3769 47.7449 34.3769 46.7724C34.3769 43.2472 37.2453 40.379 40.771 40.379ZM91.5379 56.4393C91.4094 56.044 91.0524 55.7675 90.6375 55.7421L86.6311 55.4975L85.1603 51.763C85.008 51.3761 84.6346 51.1218 84.219 51.1218C83.8033 51.1218 83.43 51.3761 83.2776 51.763L81.8069 55.4975L77.8006 55.7421C77.3857 55.7675 77.0285 56.044 76.9002 56.4393C76.7718 56.8346 76.8982 57.2683 77.2189 57.5327L80.3163 60.0852L79.311 63.9711C79.2069 64.3735 79.3595 64.7987 79.6959 65.0429C79.8728 65.1716 80.0815 65.2362 80.2905 65.2362C80.4791 65.2362 80.668 65.1836 80.8342 65.0776L84.219 62.9208L87.6039 65.0776C87.9545 65.3008 88.4057 65.287 88.7422 65.0429C89.0785 64.7987 89.2312 64.3735 89.1271 63.9711L88.1217 60.0852L91.2192 57.5327C91.5399 57.2685 91.6664 56.8347 91.5379 56.4393ZM86.3375 58.9337C86.034 59.1838 85.903 59.5872 86.0015 59.9679L86.5248 61.9907L84.7628 60.8679C84.5971 60.7622 84.4082 60.7093 84.2191 60.7093C84.0301 60.7093 83.8413 60.7621 83.6754 60.8679L81.9135 61.9906L82.4369 59.9679C82.5353 59.5872 82.4042 59.1838 82.1009 58.9337L80.4888 57.6052L82.5741 57.4779C82.9666 57.4539 83.3097 57.2046 83.4537 56.8386L84.2193 54.8948L84.9848 56.8386C85.1288 57.2046 85.4719 57.4539 85.8645 57.4779L87.9499 57.6052L86.3375 58.9337ZM48.0895 56.4393C47.961 56.044 47.604 55.7675 47.189 55.7421L43.1828 55.4975L41.7122 51.763C41.5597 51.3761 41.1864 51.1218 40.7707 51.1218C40.355 51.1218 39.9817 51.3761 39.8292 51.763L38.3586 55.4975L34.3524 55.7421C33.9374 55.7675 33.5803 56.044 33.4519 56.4393C33.3236 56.8346 33.4499 57.2683 33.7706 57.5327L36.8681 60.0852L35.8627 63.9711C35.7586 64.3735 35.9113 64.7987 36.2476 65.0429C36.4245 65.1716 36.6332 65.2362 36.8422 65.2362C37.0308 65.2362 37.2197 65.1836 37.3859 65.0776L40.7707 62.9208L44.1556 65.0776C44.5063 65.3008 44.9575 65.287 45.294 65.0429C45.6303 64.7987 45.7829 64.3735 45.6788 63.9711L44.6735 60.0852L47.7708 57.5325C48.0916 57.2683 48.218 56.8347 48.0895 56.4393ZM42.8891 58.9339C42.5856 59.1839 42.4546 59.5873 42.5531 59.9679L43.0764 61.9907L41.3144 60.8679C41.1487 60.7622 40.9597 60.7093 40.7707 60.7093C40.5817 60.7093 40.3929 60.7621 40.227 60.8679L38.4651 61.9906L38.9885 59.9679C39.0869 59.5872 38.9558 59.1838 38.6525 58.9337L37.0404 57.6052L39.1256 57.4779C39.5182 57.4539 39.8613 57.2046 40.0054 56.8386L40.7708 54.8948L41.5363 56.8386C41.6804 57.2046 42.0235 57.4539 42.416 57.4779L44.5015 57.6052L42.8891 58.9339ZM78.7782 50.0225C80.2305 50.5571 82.1627 50.8516 84.2193 50.8516C88.1021 50.8516 92.6365 49.7832 92.6365 46.7724C92.6365 42.3148 89.1528 38.6556 84.7654 38.373C86.9539 38.103 88.6538 36.2322 88.6538 33.972C88.6538 31.5271 86.6644 29.538 84.2193 29.538C81.7741 29.538 79.7849 31.5271 79.7849 33.972C79.7849 36.2324 81.4849 38.103 83.6732 38.373C79.2851 38.6551 75.8018 42.3145 75.8018 46.7724C75.8018 47.7551 76.3182 49.1167 78.7782 50.0225ZM81.8083 33.972C81.8083 32.6429 82.8899 31.5614 84.2194 31.5614C85.5489 31.5614 86.6305 32.6428 86.6305 33.972C86.6305 35.3014 85.5489 36.3831 84.2194 36.3831C82.8899 36.3831 81.8083 35.3014 81.8083 33.972ZM84.2193 40.379C87.7448 40.379 90.6129 43.2472 90.6129 46.7724C90.6129 47.7449 87.987 48.8281 84.2191 48.8281C80.451 48.8281 77.8252 47.7449 77.8252 46.7724C77.8252 43.2472 80.6936 40.379 84.2193 40.379Z" fill="white"></path></svg>