<svg xmlns="http://www.w3.org/2000/svg" width="125" height="125" viewBox="0 0 125 125" fill="none"><rect width="125" height="125" rx="10" fill="#D7EBDD"></rect><path d="M46.894 91.4364H35.553C33.6916 91.4364 32.1771 89.922 32.1771 88.0606V30.553C32.1771 28.6916 33.6916 27.1771 35.553 27.1771H68.2252C68.3307 27.1771 68.4346 27.1868 68.5374 27.2006V33.9898C68.5374 37.0519 71.0285 39.5429 74.0904 39.5429H80.8795C80.8935 39.6458 80.903 39.7497 80.903 39.8552V58.3929C80.903 58.9942 81.3904 59.4815 81.9917 59.4815C82.5929 59.4815 83.0803 58.9942 83.0803 58.3929V39.8554C83.0803 38.6612 82.6152 37.5385 81.7708 36.694L71.3862 26.3095C70.5419 25.4651 69.4193 25 68.2252 25H35.553C32.491 25 30 27.4911 30 30.553V88.0606C30 91.1225 32.4911 93.6135 35.553 93.6135H46.894C47.4952 93.6135 47.9826 93.1261 47.9826 92.5249C47.9826 91.9236 47.4952 91.4364 46.894 91.4364ZM79.3636 37.3658H74.0906C72.2291 37.3658 70.7146 35.8513 70.7146 33.9898V28.7168L79.3636 37.3658Z" fill="#379956"></path><path d="M95.3615 78.2929L86.1378 62.724C85.4656 61.5888 84.0027 61.2136 82.867 61.8864L80.6234 63.2157C78.8819 64.2473 78.1458 66.3351 78.7438 68.1852C77.9879 68.4591 77.1591 68.4548 76.396 68.1598C74.6246 67.6025 73.2779 66.4813 71.0537 67.0439C67.2771 68.0054 67.3918 67.9573 67.0502 68.0744C64.8388 66.8154 63.5096 66.4407 61.1621 67.3488L59.0696 68.1578C58.1008 68.5321 57.0333 68.4434 56.1381 67.9129L55.567 67.5763C55.8457 65.9067 55.1052 64.1447 53.5374 63.2159C53.5374 63.2159 53.5374 63.2159 53.5372 63.2158L51.2938 61.8867C50.1613 61.2159 48.694 61.5914 48.0231 62.724L38.7991 78.293C38.1269 79.4279 38.5009 80.8913 39.6363 81.5638L41.8798 82.8929C42.5586 83.2951 43.3047 83.4863 44.0418 83.4863C44.8637 83.4863 45.6741 83.2481 46.367 82.7995L46.8346 83.0754L45.8474 84.4503C44.6711 86.089 45.0448 88.3677 46.6838 89.5442C47.4418 90.0882 48.3939 90.3367 49.3786 90.182C49.5349 91.0953 50.0352 91.9501 50.8455 92.532C51.6064 93.0783 52.5543 93.327 53.5407 93.1717C53.6974 94.0842 54.1974 94.9383 55.0072 95.5197C56.0956 96.3009 57.4487 96.3912 58.5762 95.9097C58.8229 96.5505 59.2517 97.1292 59.8499 97.5588C61.412 98.6799 63.5638 98.3875 64.7776 96.935L67.4008 98.489C69.1356 99.517 71.374 98.9457 72.4026 97.2088C72.6656 96.7648 72.8288 96.281 72.8885 95.7836L72.8944 95.7872C74.6266 96.8131 76.8701 96.2387 77.8962 94.507C78.1934 94.0053 78.3563 93.4611 78.3959 92.9158C79.9227 93.2997 81.5867 92.6584 82.4293 91.2362C82.7058 90.7697 82.8661 90.2657 82.9188 89.7585C84.5552 90.4007 86.4678 89.7801 87.3919 88.2203C87.889 87.3813 88.0296 86.3991 87.7878 85.4543C87.6495 84.9137 87.3951 84.423 87.0459 84.0087L88.4918 83.1639C89.715 83.666 91.1109 83.5856 92.2807 82.8927L94.5238 81.5636C95.6593 80.8916 96.0343 79.4285 95.3615 78.2929ZM42.9895 81.0199L40.7461 79.6906C40.6463 79.6315 40.6132 79.5023 40.6722 79.4026L49.8962 63.8332C49.9556 63.7331 50.0852 63.7006 50.1844 63.7595L52.4276 65.0885C53.4245 65.6792 53.7364 66.9577 53.1565 67.9363L45.8373 80.2909C45.2531 81.2772 43.9757 81.6039 42.9895 81.0199ZM47.9534 87.7756C47.2923 87.3009 47.1411 86.3814 47.6161 85.7201L49.067 83.6989C49.5292 83.055 50.4503 82.8789 51.1225 83.3614C51.7823 83.8351 51.9336 84.757 51.4602 85.4168L50.0091 87.4379C49.5354 88.098 48.6129 88.2489 47.9534 87.7756ZM52.1152 90.7635C51.4554 90.2897 51.3041 89.3674 51.7777 88.7078L53.2286 86.6868C53.2286 86.6868 53.2286 86.6868 53.2286 86.6867C53.2286 86.6867 53.2286 86.6865 53.2288 86.6865L54.83 84.4561C55.0596 84.1366 55.3996 83.9253 55.7879 83.8617C55.8685 83.8484 55.9493 83.8419 56.0295 83.8419C56.3351 83.8419 56.6324 83.937 56.8856 84.1186C57.205 84.3482 57.4163 84.6881 57.4799 85.0763C57.5436 85.4647 57.4524 85.8545 57.2229 86.174L54.1706 90.4258C53.6962 91.0871 52.7765 91.2384 52.1152 90.7635ZM56.277 93.7511C55.6175 93.2776 55.466 92.3561 55.9387 91.6964C55.9389 91.6961 55.9392 91.6958 55.9393 91.6956L58.9917 87.4439C59.465 86.7842 60.3877 86.6328 61.0472 87.1063C61.707 87.5799 61.8583 88.502 61.3847 89.1618L60.0286 91.0509C60.0286 91.0509 60.0285 91.0509 60.0284 91.0511L58.3323 93.4136C57.8587 94.0734 56.9369 94.225 56.277 93.7511ZM61.1196 95.7901C60.4603 95.3166 60.3087 94.3955 60.7811 93.7358L61.797 92.3208C62.2705 91.6609 63.1931 91.51 63.8526 91.9833C64.5122 92.4568 64.6637 93.3791 64.19 94.0388L63.175 95.4525C62.7015 96.1124 61.7791 96.2639 61.1196 95.7901ZM85.5192 87.1107C85.105 87.8098 84.1997 88.0417 83.5004 87.6276C82.3164 86.9262 74.6788 82.4013 73.8645 81.9189C73.3471 81.6125 72.6795 81.7832 72.3731 82.3004C72.0667 82.8177 72.2374 83.4855 72.7547 83.7919L80.0395 88.1077L80.0396 88.1079C80.739 88.5221 80.9723 89.4247 80.5565 90.1268C80.1421 90.8262 79.2363 91.0576 78.5374 90.6438C75.843 89.0476 73.6552 87.7514 71.2487 86.3256C70.7311 86.0192 70.0636 86.1899 69.7572 86.7072C69.4508 87.2245 69.6215 87.8922 70.1388 88.1986L75.5064 91.3786L75.5076 91.3793C76.2074 91.7948 76.4383 92.697 76.0234 93.3977C75.609 94.0971 74.7035 94.3288 74.0041 93.9145L71.1235 92.2081C71.1232 92.2079 71.1228 92.2078 71.1225 92.2075C71.1222 92.2073 71.1219 92.2072 71.1216 92.207L69.0194 90.9615C68.502 90.6549 67.8344 90.8256 67.528 91.343C67.2216 91.8603 67.3923 92.5281 67.9096 92.8345L70.0122 94.0802C70.0125 94.0803 70.0128 94.0806 70.0131 94.0807C70.7124 94.495 70.9457 95.3974 70.5299 96.0996C70.1155 96.799 69.21 97.0306 68.5107 96.6164L66.0578 95.1634C67.1093 93.5409 66.7094 91.3545 65.1223 90.2153C64.6562 89.8808 64.1371 89.6725 63.6063 89.5831C64.1694 88.0775 63.6839 86.3197 62.3168 85.3383C61.5074 84.757 60.5383 84.5563 59.6237 84.6997C59.461 83.7479 58.9405 82.9143 58.1553 82.3507C56.6785 81.2909 54.6715 81.4945 53.4319 82.7486C53.1799 82.3062 52.8322 81.9093 52.3922 81.5935C51.165 80.7128 49.5717 80.7045 48.3568 81.4464L47.858 81.152L54.7044 69.5954L55.0304 69.7876C56.4699 70.6404 58.2265 70.8182 59.8545 70.1886L61.9471 69.3796C63.1445 68.9168 63.8049 68.8866 64.9893 69.4455C64.2143 70.3162 63.7543 71.4593 63.7543 72.6913V77.5179C63.7543 78.7999 64.7965 79.8435 66.0775 79.8444H66.0807C67.3655 79.8444 68.5738 79.3442 69.4828 78.4358C70.0126 77.9063 70.4037 77.2749 70.6382 76.5858C72.0437 77.4182 83.6564 84.2948 85.0027 85.0925C85.3413 85.2931 85.5815 85.6135 85.6791 85.9948C85.7767 86.3756 85.7199 86.7721 85.5192 87.1107ZM93.4147 79.6906L91.1711 81.0199C90.1849 81.6038 88.9075 81.2767 88.3236 80.291L84.893 74.5004C84.5864 73.9831 83.9184 73.8124 83.4016 74.1185C82.8843 74.4249 82.7135 75.0927 83.0197 75.6099L86.4503 81.4007C86.5149 81.5097 86.585 81.6133 86.6576 81.7144L85.7038 82.2715C85.511 82.3857 85.3256 82.5115 85.1482 82.648L70.3594 73.8902C69.6348 73.4613 68.7162 73.9841 68.7162 74.8267C68.7048 74.8918 68.8286 76.0107 67.9437 76.8954C67.4459 77.3927 66.7842 77.6668 66.0805 77.6668C66.0799 77.6668 66.0794 77.6668 66.0788 77.6668C65.9974 77.6668 65.9312 77.5997 65.9312 77.5173V72.6907C65.9312 71.4298 66.7987 70.3661 67.9718 70.069L71.5874 69.154C72.8994 68.8225 73.6409 69.523 75.6053 70.1878C76.9689 70.7154 78.4517 70.6829 79.7678 70.1208L80.4248 71.2299C80.7314 71.7475 81.3991 71.918 81.9162 71.6118C82.4335 71.3054 82.6043 70.6376 82.2981 70.1204L81.0039 67.9361C80.4184 66.9477 80.7447 65.6741 81.7328 65.0884L83.9762 63.7594C84.0742 63.7011 84.2039 63.7309 84.2646 63.8332L93.4883 79.4023C93.5478 79.5027 93.515 79.6312 93.4147 79.6906Z" fill="#379956"></path><path d="M39.0771 35.7913H64.0771" stroke="#379956" stroke-width="2.3" stroke-linecap="round"></path><path d="M39.0771 45.7913H70.0771" stroke="#379956" stroke-width="2.3" stroke-linecap="round"></path><path d="M39.0771 55.7913H74.0771" stroke="#379956" stroke-width="2.3" stroke-linecap="round"></path></svg>