<svg xmlns="http://www.w3.org/2000/svg" width="125" height="125" viewBox="0 0 125 125" fill="none"><rect width="125" height="125" rx="10" fill="#F5FEE6"></rect><g clip-path="url(#clip0_1_3)"><path d="M46.696 56.649L53.453 48.52C53.8357 48.0595 53.7727 47.3762 53.3122 46.9935C52.852 46.6109 52.1684 46.6739 51.7857 47.1342L45.9937 54.1022L44.7278 52.0459C44.414 51.5361 43.7464 51.377 43.2364 51.691C42.7266 52.005 42.5678 52.6727 42.8815 53.1823L44.9391 56.5243C45.3282 57.1559 46.2222 57.2191 46.696 56.649Z" fill="#7AA72F"></path><path d="M42.8818 67.4908L44.9394 70.8328C45.3282 71.4644 46.2222 71.5276 46.696 70.9574L53.453 62.8284C53.8357 62.3679 53.7727 61.6846 53.3122 61.3019C52.852 60.9193 52.1684 60.9822 51.7857 61.4426L45.9937 68.4106L44.7278 66.3543C44.414 65.8445 43.7464 65.6854 43.2364 65.9994C42.7267 66.3135 42.5679 66.9812 42.8818 67.4908Z" fill="#7AA72F"></path><path d="M42.8818 81.8959L44.9394 85.2379C45.3282 85.8695 46.2222 85.9326 46.696 85.3625L53.453 77.2334C53.8357 76.773 53.7727 76.0896 53.3122 75.7069C52.852 75.3243 52.1684 75.3872 51.7857 75.8477L45.9937 82.8157L44.7278 80.7593C44.414 80.2495 43.7464 80.0905 43.2364 80.4045C42.7267 80.7185 42.5679 81.3863 42.8818 81.8959Z" fill="#7AA72F"></path><path d="M90.8223 86.1953C90.2236 86.1953 89.7383 86.6805 89.7383 87.2793V95.1699C89.7383 96.0864 88.9926 96.832 88.0762 96.832H37.9238C37.0074 96.832 36.2617 96.0864 36.2617 95.1699V47.6638C36.2617 47.065 35.7764 46.5798 35.1777 46.5798C34.5791 46.5798 34.0938 47.065 34.0938 47.6638V95.1699C34.0938 97.2818 35.8119 99 37.9238 99H88.0762C90.1881 99 91.9062 97.2818 91.9062 95.1699V87.2793C91.9062 86.6806 91.4209 86.1953 90.8223 86.1953Z" fill="#7AA72F"></path><path d="M88.0762 33.3526H82.7736V28.8734C82.7736 26.7377 81.0361 25 78.9002 25C76.7643 25 75.0267 26.7376 75.0267 28.8734V33.3526H66.8734V28.8734C66.8734 26.7376 65.1357 25 63 25C60.8643 25 59.1266 26.7376 59.1266 28.8734V33.3526H50.9731V28.8734C50.9731 26.7377 49.2356 25 47.0997 25C44.9639 25 43.2262 26.7376 43.2262 28.8734V33.3526H37.9238C35.8119 33.3526 34.0938 35.0708 34.0938 37.1827V42.6052C34.0938 43.204 34.5791 43.6892 35.1777 43.6892C35.7764 43.6892 36.2617 43.204 36.2617 42.6052V37.1827C36.2617 36.2662 37.0074 35.5206 37.9238 35.5206H43.2262V37.2418C43.2262 39.3775 44.9638 41.1152 47.0997 41.1152C49.2356 41.1152 50.9731 39.3777 50.9731 37.2418V35.5206H59.1266V37.2418C59.1266 39.3775 60.8641 41.1152 63 41.1152C65.1359 41.1152 66.8734 39.3777 66.8734 37.2418V35.5206H75.0269V37.2418C75.0269 39.3775 76.7644 41.1152 78.9003 41.1152C81.0361 41.1152 82.7738 39.3777 82.7738 37.2418V35.5206H88.0762C88.9926 35.5206 89.7383 36.2662 89.7383 37.1827V82.2206C89.7383 82.8194 90.2236 83.3046 90.8223 83.3046C91.4209 83.3046 91.9062 82.8194 91.9062 82.2206V37.1827C91.9062 35.0708 90.1881 33.3526 88.0762 33.3526ZM48.8053 37.2418C48.8053 38.1823 48.0403 38.9473 47.0998 38.9473C46.1595 38.9473 45.3944 38.1823 45.3944 37.2418C45.3944 34.9312 45.3944 29.5967 45.3944 28.8734C45.3944 27.933 46.1594 27.168 47.0998 27.168C48.0403 27.168 48.8053 27.933 48.8053 28.8734V37.2418ZM64.7055 37.2418C64.7055 38.1823 63.9405 38.9473 63 38.9473C62.0595 38.9473 61.2945 38.1823 61.2945 37.2418C61.2945 34.9312 61.2945 29.5967 61.2945 28.8734C61.2945 27.933 62.0595 27.168 63 27.168C63.9405 27.168 64.7055 27.933 64.7055 28.8734V37.2418ZM80.6058 37.2418C80.6058 38.1823 79.8408 38.9473 78.9003 38.9473C77.9599 38.9473 77.1949 38.1823 77.1949 37.2418C77.1949 34.9312 77.1949 29.5967 77.1949 28.8734C77.1949 27.933 77.9599 27.168 78.9003 27.168C79.8406 27.168 80.6058 27.933 80.6058 28.8734V37.2418Z" fill="#7AA72F"></path><path d="M58.0479 57.5459H80.8838C82.7566 57.5459 84.2803 56.0223 84.2803 54.1494C84.2803 52.2766 82.7566 50.7529 80.8838 50.7529H58.0479C56.175 50.7529 54.6514 52.2766 54.6514 54.1494C54.6514 56.0223 56.175 57.5459 58.0479 57.5459ZM58.0479 52.9209H80.8838C81.5612 52.9209 82.1123 53.472 82.1123 54.1494C82.1123 54.8268 81.5612 55.3779 80.8838 55.3779H58.0479C57.3704 55.3779 56.8193 54.8268 56.8193 54.1494C56.8193 53.472 57.3704 52.9209 58.0479 52.9209Z" fill="#7AA72F"></path><path d="M58.0479 71.8853H80.8838C82.7566 71.8853 84.2803 70.3616 84.2803 68.4888C84.2803 66.6159 82.7566 65.0923 80.8838 65.0923H58.0479C56.175 65.0923 54.6514 66.6159 54.6514 68.4888C54.6514 70.3616 56.175 71.8853 58.0479 71.8853ZM58.0479 67.2603H80.8838C81.5612 67.2603 82.1123 67.8114 82.1123 68.4888C82.1123 69.1662 81.5612 69.7173 80.8838 69.7173H58.0479C57.3704 69.7173 56.8193 69.1662 56.8193 68.4888C56.8193 67.8114 57.3704 67.2603 58.0479 67.2603Z" fill="#7AA72F"></path><path d="M58.0479 86.2246H80.8838C82.7566 86.2246 84.2803 84.701 84.2803 82.8281C84.2803 80.9553 82.7566 79.4316 80.8838 79.4316H58.0479C56.175 79.4316 54.6514 80.9553 54.6514 82.8281C54.6514 84.701 56.175 86.2246 58.0479 86.2246ZM58.0479 81.5996H80.8838C81.5612 81.5996 82.1123 82.1507 82.1123 82.8281C82.1123 83.5055 81.5612 84.0566 80.8838 84.0566H58.0479C57.3704 84.0566 56.8193 83.5055 56.8193 82.8281C56.8193 82.1507 57.3704 81.5996 58.0479 81.5996Z" fill="#7AA72F"></path></g><defs><clipPath id="clip0_1_3"><rect width="74" height="74" fill="white" transform="translate(26 25)"></rect></clipPath></defs></svg>