<svg xmlns="http://www.w3.org/2000/svg" width="125" height="125" viewBox="0 0 125 125" fill="none"><rect width="125" height="125" rx="10" fill="#FFE9EF"></rect><g clip-path="url(#clip0_0_265)"><path d="M96.2126 82.4141L84.5797 57.5756C84.3259 57.0334 83.6804 56.8 83.1381 57.0537C82.596 57.3076 82.3623 57.9531 82.6162 58.4952L94.249 83.3332C94.7693 84.446 94.2878 85.7752 93.1754 86.2964L70.8718 96.7415C69.7596 97.2625 68.4307 96.7813 67.9093 95.669L63.7394 86.7628L74.5928 60.5765C75.0618 59.4447 75.0355 58.1582 74.521 57.0466L68.5843 44.2227L76.2796 46.6572C76.8718 46.8442 77.362 47.2738 77.6251 47.8369L80.4755 53.9208C80.6598 54.3142 81.0503 54.5452 81.4579 54.5452C81.6118 54.5452 81.7684 54.5121 81.9171 54.4425C82.4592 54.1886 82.6928 53.543 82.4387 53.0008L79.5887 46.9179C79.0701 45.8076 78.1019 44.9591 76.9329 44.5899L67.6525 41.6539C69.5658 38.859 71.5813 35.1215 72.2748 33.4482C74.0933 29.0608 72.6256 26.6208 70.6458 25.8002C68.6658 24.9798 65.9025 25.6662 64.084 30.0536C63.3019 31.9406 62.5843 36.0503 62.074 39.5758C61.4667 39.6136 60.8562 39.7407 60.2616 39.9681L46.2207 45.3328C45.0974 45.7621 44.189 46.6455 43.7285 47.7562L28.7109 83.9911C28.2613 85.076 28.261 86.2708 28.7102 87.3558C29.1593 88.4408 30.0041 89.2859 31.0888 89.7354L35.4811 91.5558C36.0342 91.785 36.6686 91.5226 36.8977 90.9694C37.1269 90.4163 36.8644 89.7821 36.3113 89.5529L31.919 87.7323C31.3693 87.5046 30.9411 87.0763 30.7134 86.5264C30.4858 85.9764 30.4859 85.371 30.7139 84.8212L45.7319 48.5858C45.9653 48.0229 46.4257 47.5751 46.995 47.3576L61.0358 41.9928C61.2771 41.9006 61.5223 41.8339 61.7687 41.7904C61.6348 42.8086 61.5261 43.699 61.4475 44.3665C60.9877 44.3928 60.5323 44.5063 60.1026 44.7074C59.2166 45.1222 58.5452 45.8573 58.2122 46.7771C57.8791 47.6971 57.9242 48.6915 58.339 49.5775C58.9609 50.9057 60.2834 51.6865 61.6615 51.6865C62.1808 51.6865 62.7084 51.5755 63.209 51.341C64.095 50.9262 64.7663 50.191 65.0995 49.2713C65.4325 48.3514 65.3875 47.357 64.9727 46.471C64.6637 45.8114 64.1769 45.2711 63.5688 44.9004C63.6494 44.2101 63.7724 43.1922 63.9285 42.0072C64.8668 42.3728 65.6689 43.0855 66.1199 44.0598L72.5533 57.957C72.8142 58.5202 72.8273 59.1725 72.5896 59.746L57.5817 95.9569C57.3539 96.5066 56.9256 96.9348 56.3757 97.1625C55.8259 97.3903 55.2203 97.39 54.6705 97.1622L41.2581 91.6033C40.7052 91.3738 40.0707 91.6366 39.8415 92.1897C39.6124 92.7428 39.8747 93.377 40.4279 93.6063L53.8403 99.1651C54.3888 99.3925 54.9578 99.5 55.5177 99.5C57.2433 99.5 58.8839 98.4777 59.5844 96.787L62.6151 89.475L65.9457 96.5885C66.6925 98.1824 68.2799 99.1196 69.9335 99.1196C70.557 99.1196 71.1904 98.9863 71.7913 98.7046L94.0949 88.2597C96.2894 87.2315 97.2394 84.6096 96.2126 82.4141ZM63.0609 48.5331C62.925 48.9083 62.6511 49.2082 62.2895 49.3776C61.5434 49.727 60.652 49.4042 60.3025 48.6581C60.1332 48.2968 60.1149 47.8909 60.2507 47.5156C60.3866 47.1404 60.6605 46.8404 61.0219 46.6711C61.2234 46.5767 61.4386 46.5293 61.6547 46.5293C61.8263 46.5293 61.9983 46.5592 62.1643 46.6193C62.5395 46.7552 62.8394 47.0291 63.0088 47.3905C63.1784 47.7522 63.1969 48.1577 63.0609 48.5331ZM65.7924 40.5336C65.3065 40.2256 64.7801 39.9864 64.2298 39.8224C64.7187 36.4393 65.3891 32.5689 66.0875 30.8835C66.5794 29.6965 67.9274 27.0206 69.816 27.803C71.7045 28.5858 70.7643 31.431 70.2722 32.6179C69.6056 34.2263 67.6401 37.861 65.7924 40.5336Z" fill="#C54F73"></path><path d="M47.8175 62.0511C50.1661 60.8011 52.8611 60.5402 55.406 61.3174C59.6301 62.6069 62.4654 66.4375 62.4613 70.8495C62.4608 71.4482 62.9457 71.9341 63.5445 71.9347C63.5448 71.9347 63.545 71.9347 63.5455 71.9347C64.1437 71.9347 64.629 71.4499 64.6296 70.8516C64.6319 68.3059 63.8039 65.7652 62.2982 63.6972C60.7405 61.5583 58.5762 60.0182 56.0389 59.2435C49.6421 57.2908 42.8495 60.9062 40.897 67.3027C39.951 70.4015 40.2684 73.6829 41.7908 76.5429C43.313 79.4029 45.8576 81.4989 48.9563 82.4449C50.1144 82.7984 51.3081 82.9739 52.4996 82.9739C54.194 82.9739 55.8827 82.6186 57.4526 81.9153C60.1 80.7293 62.2354 78.6379 63.4657 76.0264C63.7209 75.4848 63.4887 74.8388 62.9471 74.5837C62.4056 74.3283 61.7595 74.5607 61.5044 75.1022C59.4133 79.5413 54.2914 81.8067 49.5896 80.371C47.0448 79.5943 44.955 77.8729 43.7048 75.5243C42.4548 73.1756 42.194 70.4805 42.971 67.9358C43.7475 65.3911 45.469 63.3012 47.8175 62.0511Z" fill="#C54F73"></path><path d="M56.6673 67.8936C56.4079 67.4059 55.974 67.0483 55.4455 66.8872L54.953 66.7369L55.2876 65.6408C55.4624 65.0681 55.1399 64.4621 54.5674 64.2874C53.9945 64.1129 53.3889 64.4351 53.214 65.0076L52.8719 66.1285C51.4276 65.8792 49.9852 66.7372 49.5465 68.1747C49.3161 68.9293 49.3935 69.7285 49.7642 70.4249C50.1348 71.1213 50.7547 71.6319 51.5091 71.8621L52.8738 72.2787C53.0745 72.34 53.2393 72.4757 53.3379 72.661C53.4365 72.8461 53.457 73.0587 53.3957 73.2595C53.3344 73.4601 53.1987 73.6248 53.0134 73.7234C52.8283 73.8221 52.6158 73.8427 52.415 73.7812L51.7329 73.573L50.2948 73.134C50.4076 72.5916 50.09 72.0425 49.5496 71.8776C48.9766 71.7032 48.3709 72.0253 48.1962 72.5979C47.8633 73.6886 48.4796 74.8467 49.5704 75.1799L50.0629 75.3302L49.7283 76.4263C49.5536 76.9989 49.8761 77.605 50.4485 77.7797C50.5541 77.8119 50.6606 77.8273 50.7654 77.8273C51.2296 77.8273 51.6593 77.5266 51.8019 77.0594L52.1438 75.9395C52.3114 75.9687 52.4799 75.9851 52.6482 75.9851C53.1256 75.9851 53.5989 75.868 54.0322 75.6373C54.7286 75.2667 55.2392 74.6468 55.4694 73.8924C55.945 72.3346 55.0646 70.6804 53.5068 70.2049L52.1422 69.7884C51.9416 69.7271 51.7768 69.5914 51.6782 69.4061C51.5797 69.221 51.559 69.0083 51.6204 68.8076C51.7467 68.3934 52.1864 68.1589 52.6012 68.2857L53.283 68.4938L53.2834 68.494H53.2837L54.7213 68.9329C54.6085 69.4752 54.9262 70.0243 55.4666 70.1892C56.0392 70.3639 56.6452 70.0415 56.82 69.4688C56.9811 68.9407 56.9269 68.3812 56.6673 67.8936Z" fill="#C54F73"></path><path d="M89.033 82.3572L82.0949 67.6136C81.8398 67.0718 81.1937 66.8392 80.6524 67.0943C80.1107 67.3493 79.8783 67.9952 80.1331 68.5367L87.0713 83.2803C87.2561 83.6729 87.6459 83.9031 88.0529 83.9031C88.2076 83.9031 88.3647 83.8699 88.5137 83.7996C89.0554 83.5447 89.2878 82.8989 89.033 82.3572Z" fill="#C54F73"></path><path d="M84.1859 84.9494L77.2478 70.2058C76.9929 69.664 76.3467 69.4316 75.8054 69.6865C75.2637 69.9415 75.0311 70.5874 75.2861 71.1289L82.2242 85.8725C82.4089 86.2651 82.7989 86.4953 83.2059 86.4953C83.3605 86.4953 83.5176 86.4621 83.6666 86.3918C84.2083 86.1369 84.4408 85.4909 84.1859 84.9494Z" fill="#C54F73"></path></g><defs><clipPath id="clip0_0_265"><rect width="74" height="74" fill="white" transform="translate(25.5 25.5)"></rect></clipPath></defs></svg>