<svg xmlns="http://www.w3.org/2000/svg" width="60" height="60" viewBox="0 0 60 60" fill="none"><path d="M46.0214 21H32.3215L45.0214 1H29.0215L14.0215 31H25.8214L14.0215 59.0001L46.0214 21Z" fill="#FFDD09"></path><path d="M33.0214 1H29.0215L14.0215 31H18.0214L33.0214 1Z" fill="white"></path><path d="M41.0214 21L17.0214 49.5L13.0215 59L45.0214 21H41.0214Z" fill="#FD9808"></path><path d="M14.0207 60C13.8207 60 13.6208 60 13.5207 59.9C13.1207 59.6 12.9207 59.1 13.1207 58.7L24.3207 32H14.0207C13.7207 32 13.3208 31.8 13.1207 31.5C12.9207 31.2 12.9207 30.8 13.1207 30.5L28.1207 0.500039C28.3208 0.200039 28.6208 0 29.0207 0H45.0207C45.4207 0 45.7207 0.200039 45.9207 0.500039C46.1207 0.800039 46.1207 1.2 45.9207 1.5L34.2207 20H46.0207C46.4206 20 46.7206 20.2001 46.9207 20.6C47.1207 21 47.0206 21.4001 46.8207 21.7001L14.8207 59.7C14.6207 59.9 14.3207 60 14.0207 60ZM15.6207 30H25.8207C26.1207 30 26.4207 30.2 26.6207 30.4C26.8208 30.7 26.8208 31 26.7207 31.3L17.5207 53.2999L43.9207 22H32.3206C31.9207 22 31.6207 21.7999 31.4206 21.4999C31.2206 21.1999 31.2206 20.8 31.4206 20.5L43.2207 2.00004H29.6207L15.6207 30Z" fill="black"></path></svg>