<svg xmlns="http://www.w3.org/2000/svg" width="60" height="60" viewBox="0 0 60 60" fill="none"><g clip-path="url(#clip0_2363_2287)"><path d="M1.28516 44.2273H15.7714V58.7135H1.28516V44.2273Z" fill="#78DDFD"></path><path d="M1.28711 44.2288H15.7734V58.715H11.8485V54.1658C11.8485 51.5755 9.74688 49.4738 7.15656 49.4738H2.05422C1.79371 49.4738 1.53684 49.4953 1.28711 49.5381V44.2288Z" fill="#64D4ED"></path><path d="M1.28516 29.9138H15.7714V44.4001H1.28516V29.9138Z" fill="#F1777A"></path><path d="M1.28711 29.915H15.7734V44.4013H11.8485V39.8521C11.8485 37.2618 9.74688 35.1601 7.15656 35.1601H2.05422C1.79371 35.1601 1.53684 35.1816 1.28711 35.2243V29.915Z" fill="#F4605B"></path><path d="M1.28516 15.6001H15.7714V30.0863H1.28516V15.6001Z" fill="#F1777A"></path><path d="M1.28711 15.6011H15.7734V30.0873H11.8485V25.5381C11.8485 22.9478 9.74688 20.8462 7.15656 20.8462H2.05422C1.79371 20.8462 1.53684 20.8676 1.28711 20.9104V15.6011Z" fill="#F4605B"></path><path d="M1.28516 1.28613H15.7714V15.7724H1.28516V1.28613Z" fill="#F1777A"></path><path d="M1.28711 1.2876H15.7734V15.7738H11.8485V11.2246C11.8485 8.63432 9.74688 6.53268 7.15656 6.53268H2.05422C1.79371 6.53268 1.53684 6.55412 1.28711 6.59689V1.2876Z" fill="#F4605B"></path><path d="M11.2137 58.6542L18.4819 48.7307L6.79516 40.1709L2.93945 45.4352V55.3032L7.51457 58.6542H11.2137Z" fill="#78DDFD"></path><path d="M8.43125 47.872C10.5211 49.4026 10.9747 52.3399 9.44398 54.4297L6.75582 58.0998L7.5125 58.654H11.215L18.4822 48.7322L6.79543 40.1724L3.6582 44.4556C3.88508 44.5687 4.10492 44.7031 4.31504 44.857L8.43125 47.872Z" fill="#5B6C76"></path><path d="M6.70117 40.311L15.2625 28.6206L26.9529 37.182L18.3916 48.8724L6.70117 40.311Z" fill="#F4ECBB"></path><path d="M15.2525 28.625L26.9392 37.1848L18.3794 48.8716L15.213 46.5525L17.9011 42.8824C19.4317 40.7926 18.9782 37.8553 16.8884 36.3247L12.7721 33.3098C12.562 33.1559 12.342 33.0214 12.1152 32.9083L15.2525 28.625Z" fill="#F8CF6D"></path><path d="M15.1582 28.76L23.7196 17.0696L35.41 25.631L26.8486 37.3214L15.1582 28.76Z" fill="#F4ECBB"></path><path d="M23.7114 17.0771L35.3982 25.637L26.8384 37.3237L23.672 35.0046L26.3601 31.3345C27.8907 29.2447 27.4372 26.3074 25.3474 24.7768L21.2311 21.762C21.0209 21.6081 20.801 21.4736 20.5742 21.3605L23.7114 17.0771Z" fill="#F8CF6D"></path><path d="M23.6133 17.2092L32.1747 5.51883L43.8651 14.0802L35.3037 25.7706L23.6133 17.2092Z" fill="#F4ECBB"></path><path d="M32.1685 5.52979L43.8552 14.0896L35.2954 25.7764L32.129 23.4572L34.8172 19.7872C36.3477 17.6974 35.8942 14.7601 33.8044 13.2295L29.6881 10.2146C29.478 10.0607 29.258 9.92619 29.0312 9.81311L32.1685 5.52979Z" fill="#F8CF6D"></path><path d="M12.2536 57.1335L18.3198 53.9424L11.5757 41.1218L4.45898 44.8655V57.1335H12.2536Z" fill="#78DDFD"></path><path d="M7.69746 55.0967L4.45898 56.8003V57.1336H12.2557L18.3191 53.944L11.5748 41.1235L6.87609 43.5953C7.03031 43.7963 7.16883 44.0137 7.29012 44.2442L9.66551 48.7599C10.8715 51.0525 9.98988 53.8908 7.69746 55.0967Z" fill="#5B6C76"></path><path d="M11.4395 41.1956L24.2598 34.445L31.0104 47.2653L18.19 54.0159L11.4395 41.1956Z" fill="#BFDB9A"></path><path d="M24.2434 34.4595L30.9876 47.28L18.167 54.0242L16.3398 50.5506L20.3661 48.4327C22.6586 47.2267 23.5401 44.3883 22.3342 42.0958L19.9588 37.5802C19.8375 37.3497 19.699 37.1323 19.5448 36.9312L24.2434 34.4595Z" fill="#A4C574"></path><path d="M24.1035 34.5261L36.9238 27.7755L43.6744 40.5959L30.8541 47.3465L24.1035 34.5261Z" fill="#BFDB9A"></path><path d="M36.9114 27.7957L43.6555 40.6162L30.835 47.3603L29.0078 43.8868L33.034 41.7689C35.3266 40.5629 36.2082 37.7245 35.0022 35.4319L32.6268 30.9164C32.5055 30.6859 32.367 30.4685 32.2128 30.2674L36.9114 27.7957Z" fill="#A4C574"></path><path d="M36.7695 27.8569L49.5899 21.1063L56.3405 33.9267L43.5201 40.6773L36.7695 27.8569Z" fill="#BFDB9A"></path><path d="M49.5794 21.1318L56.3235 33.9524L43.503 40.6965L41.6758 37.223L45.702 35.105C47.9945 33.8991 48.8761 31.0607 47.6702 28.7681L45.2948 24.2525C45.1735 24.022 45.035 23.8046 44.8807 23.6036L49.5794 21.1318Z" fill="#A4C574"></path><path d="M1.28516 44.2273H15.7714V58.7135H1.28516V44.2273Z" fill="#7C8C98"></path><path d="M15.7714 44.2288V58.715H1.28516V54.7902H5.83437C8.42469 54.7902 10.5263 52.6885 10.5263 50.0982V44.9959C10.5263 44.7354 10.5049 44.4785 10.4621 44.2288H15.7714Z" fill="#5B6C76"></path><path d="M15.5996 44.2275H30.0859V58.7138H15.5996V44.2275Z" fill="#78DDFD"></path><path d="M30.0859 44.2288V58.715H15.5996V54.7902H20.1488C22.7391 54.7902 24.8408 52.6885 24.8408 50.0982V44.9959C24.8408 44.7354 24.8193 44.4785 24.7766 44.2288H30.0859Z" fill="#64D4ED"></path><path d="M29.9141 44.2275H44.4003V58.7138H29.9141V44.2275Z" fill="#78DDFD"></path><path d="M44.3982 44.2288V58.715H29.9121V54.7902H34.4613C37.0516 54.7902 39.1533 52.6885 39.1533 50.0982V44.9959C39.1533 44.7354 39.1318 44.4785 39.0891 44.2288H44.3982Z" fill="#64D4ED"></path><path d="M44.2285 44.2275H58.7148V58.7138H44.2285V44.2275Z" fill="#78DDFD"></path><path d="M58.7128 44.2288V58.715H44.2266V54.7902H48.7758C51.3661 54.7902 53.4677 52.6885 53.4677 50.0982V44.9959C53.4677 44.7354 53.4463 44.4785 53.4035 44.2288H58.7128Z" fill="#64D4ED"></path><path d="M58.7139 43.6534C52.4575 43.6534 46.1693 43.6534 39.1129 43.6534L43.9234 41.123C43.9235 41.123 43.9235 41.1229 43.9236 41.1229L56.5913 34.4589C56.7263 34.3882 56.8272 34.2667 56.8725 34.1213C56.9177 33.9758 56.9032 33.8181 56.832 33.6834L50.0875 20.8629C49.9399 20.5818 49.5922 20.4741 49.3121 20.6221C49.2732 20.6426 36.0932 27.5761 33.8063 28.7791C34.9 27.2858 43.2348 15.9063 44.3182 14.4272C44.5054 14.1711 44.4501 13.8117 44.1944 13.6245L32.5075 5.06473C32.2507 4.87664 31.8921 4.93277 31.7048 5.18848C29.4226 8.30449 16.3767 26.1161 16.3456 26.1585C16.3456 20.7151 16.3456 6.90363 16.3456 1.28625C16.3456 0.969141 16.0884 0.711914 15.7713 0.711914H1.28527C0.968164 0.711914 0.710938 0.969141 0.710938 1.28625V58.7137C0.710938 59.0309 0.968164 59.2881 1.28527 59.2881H1.28645H58.7139C59.0311 59.2881 59.2883 59.0309 59.2883 58.7137V44.2277C59.2882 43.9106 59.0309 43.6534 58.7139 43.6534ZM30.6607 44.802H43.6535V58.1395H30.6607V44.802ZM49.3388 21.9057L55.5482 33.71L43.8968 39.8392L37.6872 28.0349L49.3388 21.9057ZM23.6976 34.0968L16.055 28.4992L23.7327 18.0178L34.4926 25.8986L31.4902 29.9977C29.9074 30.8303 35.2784 28.0049 23.6976 34.0968ZM13.0484 30.6606C12.7284 31.0976 3.97086 43.0542 3.53211 43.653H1.85961V30.6606H13.0484ZM11.1823 41.9777L12.0637 43.653H7.99801L11.1823 41.9777ZM5.53121 43.653H4.95582L6.81652 41.1127L8.29777 42.1976L5.53121 43.653ZM9.42934 41.6025L7.49551 40.1861L15.2746 29.5652L22.3961 34.7814C9.2041 41.7209 12.3008 40.0919 9.42934 41.6025ZM12.3515 41.3627L23.8503 35.314L28.2372 43.6534C28.1653 43.6534 15.6199 43.653 13.5563 43.653L12.3515 41.3627ZM16.3473 44.802H29.3397V58.1395H16.3473V44.802ZM32.2923 6.33082L43.0523 14.2119L35.273 24.8329L24.513 16.9518L32.2923 6.33082ZM14.0162 29.3393H1.85961V16.3468H15.1972V27.7267C15.1691 27.765 13.9382 29.4457 14.0162 29.3393ZM15.1972 1.8607V15.0259H1.85961V1.8607H15.1972ZM1.86066 44.802H15.0259V58.1395H1.86066V44.802ZM29.73 43.6534L25.0195 34.6989L36.5185 28.6501L42.7279 40.4544L36.6465 43.6534C33.2151 43.6534 31.751 43.6534 29.73 43.6534ZM58.1396 58.1395H44.9744V44.802H58.1396V58.1395Z" fill="#000013"></path></g><defs><clipPath id="clip0_2363_2287"><rect width="60" height="60" fill="white"></rect></clipPath></defs></svg>