<svg xmlns="http://www.w3.org/2000/svg" width="60" height="60" viewBox="0 0 60 60" fill="none"><path d="M18.7871 18.5278L22.6014 14.7135L27.3457 19.4578L23.5314 23.2721L18.7871 18.5278Z" fill="#FCA62F"></path><path d="M24.5069 14.8271L18.905 20.429C18.4516 20.8824 17.7163 20.8824 17.2629 20.429L14.926 18.092C14.4726 17.6387 14.4726 16.9034 14.926 16.45L20.5279 10.8481C20.9813 10.3947 21.7165 10.3947 22.1699 10.8481L24.5069 13.1851C24.9603 13.6385 24.9603 14.3737 24.5069 14.8271Z" fill="#FDDD45"></path><path d="M22.1688 10.8485L24.5055 13.1852C24.9595 13.6392 24.9595 14.3732 24.5055 14.8272L21.5998 17.7329C22.053 17.2797 22.0538 16.5448 21.5998 16.0909L19.2631 13.7541C18.81 13.301 18.0743 13.301 17.6211 13.7541L20.5268 10.8485C20.9807 10.3945 21.7155 10.3953 22.1688 10.8485Z" fill="#F8C52D"></path><path d="M36.0137 9.15869H41.4087V15.8691H36.0137V9.15869Z" fill="#FCA62F"></path><path d="M38.7104 55.0424C49.9823 55.0424 59.12 45.9047 59.12 34.6328C59.12 23.3608 49.9823 14.2231 38.7104 14.2231C27.4385 14.2231 18.3008 23.3608 18.3008 34.6328C18.3008 45.9047 27.4385 55.0424 38.7104 55.0424Z" fill="#FDDD45"></path><path d="M59.1196 34.6331C59.1196 45.9052 49.9828 55.0422 38.7105 55.0422C37.9511 55.0422 37.2022 55.0004 36.4648 54.9192C46.6804 53.801 54.6283 45.146 54.6283 34.6332C54.6283 24.1204 46.6805 15.464 36.465 14.3459C37.2023 14.2646 37.9513 14.2229 38.7106 14.2229C49.9828 14.2228 59.1196 23.3608 59.1196 34.6331Z" fill="#F8C52D"></path><path d="M38.7108 50.5507C47.5019 50.5507 54.6286 43.4241 54.6286 34.6329C54.6286 25.8417 47.5019 18.7151 38.7108 18.7151C29.9196 18.7151 22.793 25.8417 22.793 34.6329C22.793 43.4241 29.9196 50.5507 38.7108 50.5507Z" fill="#C9F0FD"></path><path d="M54.628 34.6331C54.628 43.4244 47.5025 50.5514 38.7111 50.5514C37.7331 50.5514 36.7766 50.4633 35.8477 50.2943C43.2722 48.9463 48.9025 42.4479 48.9025 34.6333C48.9025 26.8186 43.2723 20.3201 35.8477 18.9722C36.7766 18.8032 37.7331 18.7151 38.7111 18.7151C47.5025 18.7149 54.628 25.8418 54.628 34.6331Z" fill="#68DBF9"></path><path d="M42.6712 10.5846H34.749C34.1077 10.5846 33.5879 10.0648 33.5879 9.42354V6.11861C33.5879 5.47736 34.1077 4.95752 34.749 4.95752H42.6712C43.3125 4.95752 43.8323 5.47736 43.8323 6.11861V9.42354C43.8323 10.0648 43.3125 10.5846 42.6712 10.5846Z" fill="#FDDD45"></path><path d="M43.8328 6.11861V9.42318C43.8328 10.0653 43.3137 10.5843 42.6717 10.5843H38.5625C39.2034 10.5843 39.7236 10.0653 39.7236 9.42318V6.11861C39.7236 5.47771 39.2034 4.95752 38.5625 4.95752H42.6717C43.3137 4.95752 43.8328 5.47771 43.8328 6.11861Z" fill="#F8C52D"></path><path d="M54.615 33.5329C55.0968 33.4733 55.4389 33.0346 55.3794 32.5528C54.3424 24.1629 47.1765 17.8362 38.7109 17.8362C29.4491 17.8362 21.9141 25.3712 21.9141 34.633C21.9141 43.8948 29.449 51.4297 38.7108 51.4297C47.2286 51.4297 54.3995 45.0588 55.391 36.6104C55.4476 36.1283 55.1027 35.6917 54.6205 35.6351C54.1392 35.5778 53.7018 35.9234 53.6452 36.4056C52.7575 43.9686 46.3371 49.6719 38.7107 49.6719C30.4181 49.6719 23.6718 42.9256 23.6718 34.633C23.6718 26.3405 30.4182 19.594 38.7108 19.594C46.2906 19.594 52.7065 25.2578 53.6347 32.7684C53.6944 33.2501 54.1334 33.5924 54.615 33.5329Z" fill="black"></path><path d="M42.2878 13.6462V11.4635H42.6725C43.7974 11.4635 44.7125 10.5484 44.7125 9.42354V6.11861C44.7125 4.99373 43.7974 4.07861 42.6725 4.07861H34.7503C33.6254 4.07861 32.7102 4.99373 32.7102 6.11861V9.42354C32.7102 10.5484 33.6254 11.4635 34.7503 11.4635H35.135V13.6462C31.9257 14.1914 28.9582 15.456 26.4063 17.2698L24.8572 15.7207L25.1292 15.4487C25.5146 15.0634 25.7269 14.5511 25.7269 14.0062C25.7269 13.4612 25.5146 12.9489 25.1293 12.5636L22.7924 10.2266C22.4071 9.84131 21.8947 9.62908 21.3498 9.62908C20.8049 9.62908 20.2927 9.84131 19.9073 10.2266L18.6193 11.5145C18.2761 11.8578 18.2761 12.4142 18.6193 12.7574C18.9625 13.1008 19.519 13.1006 19.8622 12.7574L21.1502 11.4694C21.2221 11.3976 21.3061 11.3868 21.3497 11.3868C21.3933 11.3868 21.4773 11.3976 21.5493 11.4695L23.8862 13.8065C23.958 13.8783 23.9688 13.9623 23.9688 14.006C23.9688 14.0496 23.958 14.1337 23.8861 14.2056L18.2842 19.8075C18.2123 19.8794 18.1283 19.8901 18.0847 19.8901C18.0411 19.8901 17.9571 19.8794 17.8852 19.8074L15.5482 17.4704C15.4762 17.3985 15.4655 17.3145 15.4655 17.2709C15.4655 17.2273 15.4762 17.1433 15.5482 17.0713L17.1416 15.4778C17.4848 15.1346 17.4848 14.578 17.1416 14.2349C16.7984 13.8915 16.2418 13.8917 15.8987 14.2349L14.3053 15.8283C13.9199 16.2136 13.7077 16.726 13.7077 17.2709C13.7077 17.8158 13.9199 18.328 14.3052 18.7135L16.6421 21.0504C17.0275 21.4357 17.5398 21.6479 18.0847 21.6479C18.6296 21.6479 19.1419 21.4357 19.5272 21.0504L19.7992 20.7784L21.3483 22.3275C20.4506 23.5904 19.6876 24.9552 19.0793 26.4005H0.878906C0.393516 26.4005 0 26.794 0 27.2794C0 27.7648 0.393516 28.1583 0.878906 28.1583H18.4307C18.2299 28.7858 18.0578 29.4259 17.9153 30.0771H3.20262C2.71723 30.0771 2.32371 30.4706 2.32371 30.956C2.32371 31.4414 2.71723 31.8349 3.20262 31.8349H17.6068C17.5236 32.4663 17.4688 33.1064 17.4424 33.7538H5.52633C5.04094 33.7538 4.64742 34.1473 4.64742 34.6327C4.64742 35.1181 5.04094 35.5116 5.52633 35.5116H17.4416C17.4683 36.1552 17.5241 36.7956 17.6086 37.431H7.85004C7.36465 37.431 6.97113 37.8245 6.97113 38.3099C6.97113 38.7953 7.36465 39.1888 7.85004 39.1888H17.918C18.0601 39.8367 18.233 40.4771 18.4344 41.1079H10.1737C9.68836 41.1079 9.29484 41.5014 9.29484 41.9868C9.29484 42.4722 9.68836 42.8657 10.1737 42.8657H19.0822C19.3563 43.5196 19.6622 44.1604 20.0006 44.7847H12.4975C12.0121 44.7847 11.6186 45.1783 11.6186 45.6637C11.6186 46.149 12.0121 46.5426 12.4975 46.5426H21.0677C21.4632 47.1286 21.8878 47.697 22.3429 48.2437C22.6533 48.6167 23.2075 48.6673 23.5806 48.3569C23.9537 48.0463 24.0043 47.4921 23.6938 47.1191C20.7834 43.6228 19.1807 39.1885 19.1807 34.6328C19.1807 23.8635 27.9421 15.102 38.7114 15.102C49.4807 15.102 58.2422 23.8634 58.2422 34.6327C58.2422 45.402 49.4807 54.1634 38.7114 54.1634C34.1925 54.1634 29.7862 52.5842 26.3043 49.7166C25.9294 49.4079 25.3757 49.4617 25.067 49.8362C24.7584 50.211 24.812 50.7648 25.1866 51.0735C28.9826 54.1996 33.7856 55.9212 38.7113 55.9212C50.4499 55.9212 60 46.3712 60 34.6327C60 24.1128 52.3295 15.3521 42.2878 13.6462ZM34.468 9.42354V6.11861C34.468 5.96299 34.5947 5.83643 34.7503 5.83643H42.6725C42.8282 5.83643 42.9547 5.96299 42.9547 6.11861V9.42354C42.9547 9.57916 42.8282 9.70572 42.6725 9.70572H34.7503C34.5947 9.70572 34.468 9.57916 34.468 9.42354ZM22.4348 20.9281L21.0424 19.5355L23.6143 16.9636L25.0068 18.356C24.0783 19.1391 23.2178 19.9997 22.4348 20.9281ZM36.8929 13.4226V11.4635H40.5301V13.4226C39.9305 13.3716 39.3241 13.344 38.7115 13.344C38.0987 13.3442 37.4925 13.3716 36.8929 13.4226Z" fill="black"></path><path d="M39.5898 23.5452V22.3245C39.5898 21.8391 39.1963 21.4456 38.7109 21.4456C38.2255 21.4456 37.832 21.8391 37.832 22.3245V23.5452C37.832 24.0306 38.2255 24.4241 38.7109 24.4241C39.1963 24.4241 39.5898 24.0306 39.5898 23.5452Z" fill="black"></path><path d="M37.832 45.7207V46.9414C37.832 47.4268 38.2255 47.8204 38.7109 47.8204C39.1963 47.8204 39.5898 47.4268 39.5898 46.9414V45.7207C39.5898 45.2353 39.1963 44.8418 38.7109 44.8418C38.2255 44.8418 37.832 45.2353 37.832 45.7207Z" fill="black"></path><path d="M49.7988 33.7542C49.3134 33.7542 48.9199 34.1477 48.9199 34.6331C48.9199 35.1184 49.3134 35.512 49.7988 35.512H51.0196C51.505 35.512 51.8985 35.1184 51.8985 34.6331C51.8985 34.1477 51.505 33.7542 51.0196 33.7542H49.7988Z" fill="black"></path><path d="M26.4023 33.7542C25.917 33.7542 25.5234 34.1477 25.5234 34.6331C25.5234 35.1184 25.917 35.512 26.4023 35.512H27.6231C28.1085 35.512 28.502 35.1184 28.502 34.6331C28.502 34.1477 28.1085 33.7542 27.6231 33.7542H26.4023Z" fill="black"></path><path d="M40.6878 36.6094C41.7775 35.5196 41.7775 33.746 40.6878 32.6562C39.5978 31.5664 37.8244 31.5665 36.7347 32.6562C35.8621 33.5288 35.6901 34.8389 36.2147 35.8864L31.1031 40.998C30.7599 41.3412 30.7599 41.8977 31.1031 42.2409C31.2747 42.4124 31.4997 42.4983 31.7246 42.4983C31.9495 42.4983 32.1745 42.4125 32.346 42.2409L37.4576 37.1293C37.8509 37.3264 38.2806 37.4268 38.7111 37.4268C39.4268 37.4268 40.1427 37.1543 40.6878 36.6094C40.6877 36.6094 40.6877 36.6094 40.6878 36.6094ZM39.4448 35.3664C39.0402 35.7708 38.382 35.7708 37.9775 35.3664C37.5729 34.9619 37.5729 34.3036 37.9775 33.8991C38.1797 33.6968 38.4454 33.5957 38.7111 33.5957C38.9767 33.5957 39.2424 33.6968 39.4447 33.8991C39.8492 34.3037 39.8492 34.9619 39.4448 35.3664Z" fill="black"></path></svg>