<svg xmlns="http://www.w3.org/2000/svg" width="60" height="60" viewBox="0 0 60 60" fill="none"><g clip-path="url(#clip0_2363_2405)"><path d="M38.3695 41.3122C38.1715 42.7243 37.8023 44.0825 37.2855 45.3657L39.9035 46.8763L37.459 51.1114L34.8375 49.5985C33.9715 50.7024 32.9742 51.6985 31.8703 52.5645L33.3844 55.1849L29.148 57.6306L27.6363 55.0126C26.3543 55.5294 24.9961 55.8974 23.5828 56.0966V59.1212H18.6914V56.0966C17.2781 55.8974 15.9199 55.5294 14.6379 55.0126L13.1262 57.6306L8.88984 55.1849L10.4039 52.5645C9.3 51.6985 8.30273 50.7024 7.43672 49.5985L4.81523 51.1114L2.3707 46.8763L4.98867 45.3657C4.47187 44.0825 4.10273 42.7243 3.90469 41.3122H0.878906V36.422H3.90469C4.10273 35.0087 4.47187 33.6505 4.98867 32.3685L2.3707 30.8567L4.81523 26.6216L7.43672 28.1356C8.30273 27.0317 9.3 26.0356 10.4039 25.1696L8.88984 22.5481L13.1262 20.1036L14.6379 22.7204C15.9199 22.2048 17.2781 21.8356 18.6914 21.6376V18.6118H23.5828V21.6376C24.9961 21.8356 26.3543 22.2048 27.6363 22.7204L29.148 20.1036L33.3844 22.5481L31.8703 25.1696C32.9742 26.0356 33.9715 27.0317 34.8375 28.1356L37.459 26.6216L39.9035 30.8567L37.2855 32.3685C37.8023 33.6505 38.1715 35.0087 38.3695 36.422H41.3953V41.3122H38.3695Z" fill="#B7D4E2"></path><path d="M38.3691 41.3122C38.1711 42.7243 37.802 44.0825 37.2852 45.3657L39.9031 46.8763L37.4586 51.1114L34.8371 49.5985C33.9711 50.7024 32.9738 51.6985 31.8699 52.5645L33.384 55.1849L29.1477 57.6306L27.6359 55.0126C26.3539 55.5294 24.9957 55.8974 23.5824 56.0966V59.1212H21.1367V55.3864C29.2859 54.3915 35.6 47.3743 35.6 38.8665C35.6 30.3587 29.2859 23.3415 21.1367 22.3478V18.6118H23.5824V21.6376C24.9957 21.8356 26.3539 22.2048 27.6359 22.7204L29.1477 20.1036L33.384 22.5481L31.8699 25.1696C32.9738 26.0356 33.9711 27.0317 34.8371 28.1356L37.4586 26.6216L39.9031 30.8567L37.2852 32.3685C37.802 33.6505 38.1711 35.0087 38.3691 36.422H41.3949V41.3122H38.3691Z" fill="#99BAC6"></path><path d="M32.8293 38.8664C32.8293 45.3246 27.5934 50.5593 21.1363 50.5593C20.6605 50.5593 20.1906 50.5312 19.7301 50.475C13.9363 49.7812 9.44336 44.8488 9.44336 38.8664C9.44336 32.8851 13.9363 27.9527 19.7301 27.2589C20.1906 27.2027 20.6605 27.1746 21.1363 27.1746C27.5934 27.1746 32.8293 32.4093 32.8293 38.8664Z" fill="#668FA3"></path><path d="M32.8297 38.8664C32.8297 45.3246 27.5938 50.5593 21.1367 50.5593C20.6609 50.5593 20.191 50.5312 19.7305 50.475C25.5242 49.7812 30.0172 44.8488 30.0172 38.8664C30.0172 32.8851 25.5242 27.9527 19.7305 27.2589C20.191 27.2027 20.6609 27.1746 21.1367 27.1746C27.5938 27.1746 32.8297 32.4093 32.8297 38.8664Z" fill="#4C7889"></path><path d="M29.0938 38.8665C29.0938 43.261 25.5312 46.8235 21.1367 46.8235C20.5953 46.8235 20.0656 46.7696 19.5547 46.6653C15.9184 45.9329 13.1797 42.7196 13.1797 38.8665C13.1797 35.0133 15.9184 31.8 19.5547 31.0676C20.0656 30.9633 20.5953 30.9094 21.1367 30.9094C25.5312 30.9094 29.0938 34.4719 29.0938 38.8665Z" fill="white"></path><path d="M29.0938 38.8665C29.0938 43.261 25.5312 46.8235 21.1367 46.8235C20.5953 46.8235 20.0656 46.7696 19.5547 46.6653C23.191 45.9329 25.9297 42.7196 25.9297 38.8665C25.9297 35.0133 23.191 31.8 19.5547 31.0676C20.0656 30.9633 20.5953 30.9094 21.1367 30.9094C25.5312 30.9094 29.0938 34.4719 29.0938 38.8665Z" fill="#D4EFFF"></path><path d="M56.8574 15.9434C56.6418 16.6887 56.3441 17.3988 55.975 18.0645L57.5758 19.6617L53.5059 23.7234L51.9051 22.1262C51.2371 22.4941 50.5258 22.7906 49.7781 23.0062V25.2633H44.0219V23.0062C43.2742 22.7906 42.5617 22.4941 41.8949 22.1262L40.2941 23.7234L36.223 19.6617L37.825 18.0645C37.4559 17.3988 37.1582 16.6887 36.9426 15.9434H34.6797V10.2H36.9426C37.1582 9.45469 37.4559 8.74336 37.825 8.07773L36.223 6.48047L40.2941 2.41992L41.8949 4.01719C42.5617 3.64922 43.2742 3.35273 44.0219 3.13711V0.878906H49.7781V3.13711C50.5258 3.35273 51.2371 3.64922 51.9051 4.01719L53.5059 2.41992L57.5758 6.48047L55.975 8.07773C56.3441 8.74336 56.6418 9.45469 56.8574 10.2H59.1203V15.9434H56.8574Z" fill="#668FA3"></path><path d="M56.8586 15.9434C56.643 16.6887 56.3453 17.3988 55.9762 18.0645L57.577 19.6617L53.507 23.7234L51.9063 22.1262C51.2383 22.4941 50.527 22.7906 49.7793 23.0062V25.2633H46.8555V21.859C51.6766 21.8215 55.573 17.9016 55.573 13.0711C55.573 8.24062 51.6766 4.3207 46.8555 4.2832V0.878906H49.7793V3.13711C50.527 3.35273 51.2383 3.64922 51.9063 4.01719L53.507 2.41992L57.577 6.48047L55.9762 8.07773C56.3453 8.74336 56.643 9.45469 56.8586 10.2H59.1215V15.9434H56.8586Z" fill="#4C7889"></path><path d="M52.2203 30.0222C51.6379 30.0222 51.0789 30.1148 50.5539 30.2871C48.407 30.9867 46.8555 33.0058 46.8555 35.3871C46.8555 37.7683 48.407 39.7874 50.5539 40.4871C51.0789 40.6593 51.6379 40.7519 52.2203 40.7519C55.184 40.7519 57.5863 38.3496 57.5863 35.3871C57.5863 32.4246 55.184 30.0222 52.2203 30.0222ZM52.2203 37.4203C51.0977 37.4203 50.1871 36.5097 50.1871 35.3871C50.1871 34.2644 51.0977 33.3539 52.2203 33.3539C53.3441 33.3539 54.2547 34.2644 54.2547 35.3871C54.2547 36.5097 53.3441 37.4203 52.2203 37.4203Z" fill="#668FA3"></path><path d="M57.5852 35.3871C57.5852 38.3496 55.1828 40.7519 52.2191 40.7519C51.6367 40.7519 51.0777 40.6593 50.5527 40.4871C52.7008 39.7874 54.2535 37.7683 54.2535 35.3871C54.2535 33.0058 52.7008 30.9867 50.5527 30.2871C51.0777 30.1148 51.6367 30.0222 52.2191 30.0222C55.1828 30.0222 57.5852 32.4246 57.5852 35.3871Z" fill="#4C7889"></path><path d="M53.0378 13.0714C53.0378 16.4613 50.2898 19.2095 46.8998 19.2095C46.4821 19.2095 46.0735 19.1679 45.6794 19.0875C42.8744 18.5225 40.7617 16.0437 40.7617 13.0715C40.7617 10.0993 42.8744 7.62055 45.6794 7.05559C46.0735 6.97508 46.4821 6.93359 46.8998 6.93359C50.2898 6.93336 53.0378 9.68152 53.0378 13.0714Z" fill="white"></path><path d="M53.0381 13.0714C53.0381 16.4613 50.2901 19.2095 46.9001 19.2095C46.4824 19.2095 46.0738 19.1679 45.6797 19.0875C48.4847 18.5225 50.5973 16.0437 50.5973 13.0715C50.5973 10.0993 48.4848 7.62055 45.6797 7.05559C46.0738 6.97508 46.4824 6.93359 46.9001 6.93359C50.2901 6.93336 53.0381 9.68152 53.0381 13.0714Z" fill="#D4EFFF"></path><path d="M41.3953 35.5425H39.1174C38.9432 34.595 38.6938 33.6626 38.3725 32.7559L40.3433 31.6181C40.5453 31.5016 40.6925 31.3096 40.7529 31.0844C40.8134 30.8592 40.7816 30.6193 40.6651 30.4175L38.2195 26.1823C37.9767 25.7619 37.4393 25.618 37.0191 25.8606L35.044 27.0007C34.419 26.2692 33.7368 25.5871 33.0053 24.9622L34.1454 22.9878C34.262 22.7859 34.2935 22.5459 34.2333 22.3208C34.1729 22.0957 34.0256 21.9036 33.8237 21.7871L29.5877 19.3419C29.1674 19.099 28.63 19.2431 28.3871 19.6635L27.2491 21.6343C26.342 21.3128 25.4092 21.0635 24.4617 20.8892V18.6121C24.4617 18.1266 24.0682 17.7332 23.5828 17.7332H18.6915C18.2061 17.7332 17.8126 18.1266 17.8126 18.6121V20.8892C16.8653 21.0635 15.9323 21.3128 15.0252 21.6343L13.8872 19.6635C13.6444 19.2432 13.1067 19.0994 12.6866 19.3419L8.45062 21.7871C8.24871 21.9036 8.10141 22.0957 8.04105 22.3208C7.9807 22.546 8.01234 22.786 8.12894 22.9878L9.26906 24.9622C8.53746 25.5871 7.85531 26.2691 7.23035 27.0007L5.25527 25.8606C4.83492 25.6176 4.29738 25.7618 4.05469 26.1821L1.60898 30.4174C1.49238 30.6194 1.46086 30.8593 1.52109 31.0844C1.58145 31.3096 1.72875 31.5016 1.93066 31.6181L3.90176 32.7559C3.58019 33.6628 3.33082 34.5953 3.15668 35.5425H0.878906C0.393516 35.5425 0 35.9359 0 36.4214V41.3118C0 41.7973 0.393516 42.1907 0.878906 42.1907H3.15668C3.33094 43.1379 3.58031 44.0703 3.90176 44.9773L1.93066 46.115C1.72875 46.2315 1.58145 46.4236 1.52109 46.6487C1.46074 46.8739 1.49238 47.1138 1.60898 47.3157L4.05469 51.551C4.2975 51.9712 4.8348 52.115 5.25527 51.8726L7.23035 50.7325C7.85531 51.4639 8.53758 52.1461 9.26906 52.7709L8.12894 54.7453C8.01234 54.9473 7.98082 55.1872 8.04105 55.4123C8.10141 55.6375 8.24871 55.8295 8.45062 55.946L12.6866 58.3912C13.1067 58.6337 13.6443 58.49 13.8872 58.0696L15.0252 56.0989C15.9322 56.4204 16.865 56.6696 17.8126 56.8439V59.1211C17.8126 59.6066 18.2061 60 18.6915 60H23.5828C24.0682 60 24.4617 59.6066 24.4617 59.1211V56.8439C25.4093 56.6696 26.3421 56.4204 27.2491 56.0989L28.3871 58.0696C28.63 58.49 29.1676 58.6338 29.5877 58.3912L33.8237 55.946C34.0256 55.8295 34.1729 55.6375 34.2333 55.4123C34.2936 55.1871 34.262 54.9472 34.1454 54.7453L33.0053 52.7709C33.7369 52.1461 34.419 51.4641 35.044 50.7325L37.0191 51.8726C37.4392 52.1153 37.9767 51.9712 38.2195 51.5509L40.6651 47.3156C40.7816 47.1137 40.8134 46.8738 40.7529 46.6487C40.6925 46.4236 40.5453 46.2315 40.3433 46.115L38.3725 44.9773C38.6938 44.0706 38.9432 43.1381 39.1174 42.1907H41.3953C41.8808 42.1907 42.2742 41.7973 42.2742 41.3118V36.4214C42.2742 35.9359 41.8808 35.5425 41.3953 35.5425ZM40.5164 40.4328H38.37C37.932 40.4328 37.5607 40.7555 37.4996 41.1893C37.3139 42.5089 36.9678 43.8034 36.471 45.0366C36.3073 45.4426 36.4676 45.9074 36.8468 46.1262L38.7034 47.198L37.1367 49.911L35.2765 48.8372C34.8975 48.6182 34.4156 48.7117 34.1457 49.0557C33.3238 50.1032 32.3759 51.0507 31.3283 51.8725C30.984 52.1426 30.8909 52.6247 31.1096 53.0035L32.1834 54.8631L29.4698 56.4295L28.3978 54.5729C28.1788 54.1939 27.7141 54.0337 27.3083 54.1972C26.0747 54.6941 24.78 55.0401 23.4604 55.2258C23.0265 55.2868 22.7038 55.658 22.7038 56.0961V58.2422H19.5703V56.0962C19.5703 55.6582 19.2477 55.2869 18.8137 55.2259C17.494 55.0403 16.1993 54.6942 14.9658 54.1973C14.5596 54.0337 14.0952 54.1942 13.8763 54.573L12.8043 56.4296L10.0907 54.8632L11.1646 53.0037C11.3834 52.6248 11.2901 52.1426 10.9459 51.8726C9.89848 51.0508 8.95055 50.1032 8.12848 49.0559C7.85848 48.7118 7.37648 48.6186 6.99773 48.8373L5.1375 49.9111L3.57082 47.1981L5.42742 46.1263C5.80664 45.9075 5.96695 45.4428 5.80324 45.0367C5.30625 43.803 4.96008 42.5086 4.77457 41.1894C4.71352 40.7556 4.34238 40.433 3.90422 40.433H1.75781V37.3004H3.90422C4.34227 37.3004 4.71352 36.9778 4.77457 36.544C4.96008 35.2248 5.30625 33.9303 5.80324 32.6967C5.96684 32.2905 5.80664 31.8259 5.42742 31.6071L3.57082 30.5353L5.1375 27.8223L6.99773 28.8961C7.37648 29.1149 7.85848 29.0216 8.12848 28.6775C8.95043 27.6301 9.89836 26.6825 10.9459 25.8608C11.2902 25.5907 11.3834 25.1086 11.1646 24.7297L10.0907 22.8702L12.8043 21.3037L13.8763 23.1602C14.0952 23.5394 14.5597 23.6996 14.9657 23.536C16.1998 23.0391 17.4945 22.693 18.8137 22.5075C19.2476 22.4464 19.5703 22.0753 19.5703 21.6371V19.4912H22.7038V21.6371C22.7038 22.0752 23.0264 22.4464 23.4604 22.5075C24.7796 22.693 26.0743 23.0391 27.3084 23.536C27.7144 23.6998 28.179 23.5394 28.3979 23.1602L29.47 21.3037L32.1836 22.8702L31.1098 24.7297C30.891 25.1086 30.9841 25.5908 31.3284 25.8608C32.3759 26.6825 33.3238 27.6302 34.1459 28.6775C34.4159 29.0217 34.8979 29.115 35.2766 28.8961L37.1368 27.8223L38.7034 30.5353L36.8468 31.6071C36.4676 31.8259 36.3073 32.2907 36.471 32.6967C36.9678 33.9299 37.3139 35.2243 37.4996 36.544C37.5607 36.9778 37.9318 37.3004 38.37 37.3004H40.5164V40.4328Z" fill="black"></path><path d="M59.1207 9.32074H57.4973C57.3674 8.95559 57.2182 8.59664 57.0509 8.2466L58.1973 7.10273C58.3626 6.93785 58.4555 6.71402 58.4555 6.48047C58.4555 6.24691 58.3626 6.0232 58.1973 5.8582L54.1268 1.79707C53.7837 1.45488 53.2285 1.45488 52.8853 1.79707L51.7369 2.94281C51.3851 2.77523 51.0245 2.62605 50.6574 2.49609V0.878906C50.6574 0.393398 50.264 0 49.7785 0H44.0219C43.5364 0 43.143 0.393398 43.143 0.878906V2.49633C42.7758 2.62617 42.4152 2.77547 42.0634 2.94305L40.915 1.7973C40.5721 1.45523 40.0166 1.45512 39.6735 1.7973L35.6029 5.85844C35.4377 6.02332 35.3447 6.24715 35.3447 6.4807C35.3447 6.71426 35.4375 6.93797 35.6029 7.10297L36.7495 8.24684C36.582 8.59699 36.4329 8.95582 36.3031 9.32098H34.6797C34.1943 9.32098 33.8008 9.71438 33.8008 10.1999V15.9431C33.8008 16.4286 34.1943 16.822 34.6797 16.822H36.3031C36.4328 17.1872 36.582 17.546 36.7495 17.8962L35.6029 19.04C35.4377 19.2049 35.3447 19.4288 35.3447 19.6623C35.3447 19.8959 35.4375 20.1196 35.6029 20.2846L39.6735 24.3457C40.0166 24.6879 40.5719 24.6879 40.915 24.3457L42.0634 23.2C42.4152 23.3675 42.7758 23.5167 43.143 23.6467V25.2641C43.143 25.7496 43.5364 26.143 44.0219 26.143H49.7785C50.264 26.143 50.6574 25.7496 50.6574 25.2641V23.6467C51.0245 23.5168 51.3851 23.3675 51.7369 23.2L52.8853 24.3457C53.2284 24.6879 53.7838 24.688 54.1268 24.3457L58.1973 20.2846C58.3626 20.1197 58.4555 19.8959 58.4555 19.6623C58.4555 19.4288 58.3626 19.205 58.1973 19.04L57.0509 17.8962C57.2182 17.5461 57.3673 17.1872 57.4973 16.822H59.1207C59.6062 16.822 59.9996 16.4286 59.9996 15.9431V10.1996C59.9996 9.71426 59.6061 9.32074 59.1207 9.32074ZM58.2418 15.064H56.8574C56.466 15.064 56.122 15.3227 56.0131 15.6987C55.8184 16.3716 55.5471 17.0244 55.2068 17.6389C55.0168 17.9822 55.0773 18.4098 55.3551 18.687L56.3323 19.662L53.5062 22.4816L52.5261 21.5037C52.2494 21.2275 51.8233 21.1673 51.481 21.3563C50.865 21.6957 50.2104 21.9666 49.5353 22.161C49.1589 22.2694 48.8997 22.6138 48.8997 23.0055V24.3847H44.9009V23.0055C44.9009 22.6138 44.6417 22.2694 44.2653 22.161C43.5902 21.9666 42.9355 21.6957 42.3196 21.3563C41.9772 21.1672 41.5512 21.2273 41.2745 21.5037L40.2944 22.4816L37.4683 19.662L38.4455 18.687C38.7232 18.4098 38.7838 17.9821 38.5937 17.6389C38.2532 17.0241 37.9819 16.3713 37.7875 15.6988C37.6787 15.3229 37.3346 15.064 36.9432 15.064H35.5588V11.0786H36.9432C37.3346 11.0786 37.6787 10.8198 37.7875 10.4438C37.9819 9.77133 38.2532 9.11848 38.5937 8.50359C38.7838 8.16035 38.7232 7.73273 38.4455 7.45559L37.4683 6.48059L40.2944 3.66094L41.2745 4.63887C41.5513 4.91508 41.9775 4.97531 42.3196 4.78629C42.9355 4.4468 43.5902 4.17598 44.2653 3.98156C44.6417 3.87316 44.9009 3.52875 44.9009 3.13699V1.75781H48.8997V3.13699C48.8997 3.52875 49.1589 3.87316 49.5353 3.98156C50.2104 4.17598 50.865 4.4468 51.481 4.78629C51.8235 4.97519 52.2494 4.91519 52.5261 4.63887L53.5062 3.66094L56.3323 6.48059L55.3551 7.45559C55.0773 7.73273 55.0168 8.16047 55.2068 8.50359C55.5471 9.11801 55.8184 9.77086 56.0131 10.4439C56.122 10.8198 56.466 11.0786 56.8574 11.0786H58.2418V15.064Z" fill="black"></path><path d="M46.8998 6.06836C45.7454 6.06836 44.6004 6.35441 43.5886 6.8957C43.1607 7.12457 42.9992 7.65719 43.2282 8.08516C43.4571 8.51313 43.9894 8.67484 44.4176 8.44562C45.1754 8.04039 46.0336 7.82617 46.8998 7.82617C49.7997 7.82617 52.1589 10.1791 52.1589 13.0711C52.1589 15.9633 49.7997 18.3162 46.8998 18.3162C43.9998 18.3162 41.6406 15.9633 41.6406 13.0711C41.6406 12.2488 41.8258 11.462 42.1909 10.7322C42.4082 10.2981 42.2324 9.77008 41.7982 9.55293C41.3639 9.3359 40.8361 9.51145 40.619 9.94563C40.1304 10.9218 39.8828 11.9734 39.8828 13.0712C39.8828 16.9326 43.0306 20.0741 46.8998 20.0741C50.7689 20.0741 53.9167 16.9326 53.9167 13.0712C53.9167 9.20992 50.7689 6.06836 46.8998 6.06836Z" fill="black"></path><path d="M21.138 26.2952C14.2049 26.2952 8.56445 31.9347 8.56445 38.8666C8.56445 40.5633 8.89703 42.2097 9.55293 43.7602C9.74195 44.2072 10.2577 44.4162 10.7048 44.2272C11.1518 44.0382 11.3609 43.5223 11.1718 43.0754C10.608 41.7427 10.3221 40.3267 10.3221 38.8666C10.3221 32.904 15.1741 28.053 21.1379 28.053C27.1016 28.053 31.9536 32.9041 31.9536 38.8666C31.9536 44.8291 27.1016 49.68 21.1379 49.68C17.9412 49.68 14.9252 48.2768 12.8632 45.8303C12.5505 45.4592 11.9961 45.4118 11.6248 45.7247C11.2537 46.0375 11.2063 46.5919 11.5192 46.9631C13.9159 49.8068 17.4218 51.4379 21.138 51.4379C28.0711 51.4379 33.7115 45.7983 33.7115 38.8666C33.7115 31.9347 28.071 26.2952 21.138 26.2952Z" fill="black"></path><path d="M21.1364 31.7902C21.8578 31.7902 22.5691 31.8981 23.2504 32.1109C23.7139 32.2557 24.2067 31.9973 24.3514 31.534C24.4961 31.0706 24.2379 30.5777 23.7746 30.4329C22.9234 30.167 22.0358 30.0322 21.1365 30.0322C16.2644 30.0322 12.3008 33.9953 12.3008 38.8666C12.3008 43.7378 16.2645 47.7009 21.1365 47.7009C26.0086 47.7009 29.9723 43.7379 29.9723 38.8666C29.9723 36.5719 29.0964 34.3975 27.5062 32.7438C27.1698 32.3943 26.6132 32.3831 26.2636 32.7197C25.9136 33.0561 25.9029 33.6125 26.2393 33.9623C27.5131 35.2868 28.2146 37.0284 28.2146 38.8666C28.2146 42.7686 25.0394 45.9431 21.1366 45.9431C17.2338 45.9431 14.0587 42.7686 14.0587 38.8666C14.0587 34.9647 17.2336 31.7902 21.1364 31.7902Z" fill="black"></path><path d="M59.1204 34.508H58.402C58.2512 33.4422 57.8301 32.4621 57.2107 31.6393L57.7205 31.1295C58.0639 30.7863 58.0639 30.2298 57.7207 29.8866C57.3774 29.5435 56.8209 29.5433 56.4778 29.8865L55.9678 30.3965C55.1449 29.7771 54.1645 29.356 53.0983 29.2052V28.4871C53.0983 28.0016 52.7049 27.6082 52.2194 27.6082C51.7339 27.6082 51.3405 28.0016 51.3405 28.4871V29.2052C50.2745 29.356 49.2939 29.7771 48.4711 30.3965L47.9609 29.8865C47.6175 29.5432 47.0609 29.5433 46.718 29.8866C46.3748 30.23 46.3748 30.7864 46.7182 31.1295L47.2282 31.6394C46.6087 32.4622 46.1877 33.4423 46.0368 34.508H45.3184C44.8329 34.508 44.4395 34.9014 44.4395 35.3869C44.4395 35.8725 44.8329 36.2658 45.3184 36.2658H46.0368C46.1877 37.3317 46.6087 38.3117 47.2282 39.1345L46.7183 39.6442C46.375 39.9874 46.3749 40.5439 46.7182 40.8871C46.8897 41.0588 47.1147 41.1446 47.3397 41.1446C47.5646 41.1446 47.7895 41.0588 47.9612 40.8873L48.4713 40.3773C49.2942 40.9967 50.2746 41.4178 51.3407 41.5686V42.2867C51.3407 42.7722 51.7341 43.1656 52.2197 43.1656C52.7052 43.1656 53.0986 42.7722 53.0986 42.2867V41.5686C54.1646 41.4178 55.145 40.9968 55.9679 40.3774L56.4779 40.8874C56.6496 41.0589 56.8745 41.1447 57.0993 41.1447C57.3243 41.1447 57.5493 41.0589 57.7209 40.8873C58.0641 40.5439 58.0641 39.9875 57.7208 39.6444L57.2109 39.1346C57.8304 38.3118 58.2514 37.3318 58.4022 36.266H59.1206C59.6061 36.266 59.9995 35.8726 59.9995 35.3871C59.9995 34.9016 59.6057 34.508 59.1204 34.508ZM52.2193 39.8724C49.7455 39.8724 47.7328 37.8602 47.7328 35.3869C47.7328 32.9136 49.7455 30.9014 52.2193 30.9014C54.6931 30.9014 56.7058 32.9136 56.7058 35.3869C56.7058 37.8602 54.6931 39.8724 52.2193 39.8724Z" fill="black"></path><path d="M52.2193 32.4746C50.6133 32.4746 49.3066 33.781 49.3066 35.3871C49.3066 36.9929 50.6133 38.2994 52.2193 38.2994C53.8254 38.2994 55.132 36.993 55.132 35.3871C55.1321 33.7811 53.8254 32.4746 52.2193 32.4746ZM52.2193 36.5415C51.5824 36.5415 51.0645 36.0236 51.0645 35.387C51.0645 34.7503 51.5825 34.2323 52.2193 34.2323C52.8561 34.2323 53.3742 34.7503 53.3742 35.387C53.3742 36.0236 52.8562 36.5415 52.2193 36.5415Z" fill="black"></path></g><defs><clipPath id="clip0_2363_2405"><rect width="60" height="60" fill="white"></rect></clipPath></defs></svg>