<svg xmlns="http://www.w3.org/2000/svg" width="60" height="60" viewBox="0 0 60 60" fill="none"><g clip-path="url(#clip0_2372_2)"><path d="M8.45215 59.1211H3.75984C2.16879 59.1211 0.878906 57.8312 0.878906 56.2401V26.441C0.878906 24.8499 2.16879 23.5601 3.75984 23.5601H8.45215C10.0432 23.5601 11.3331 24.8499 11.3331 26.441V56.2401C11.3331 57.8312 10.0433 59.1211 8.45215 59.1211Z" fill="#FA9084"></path><path d="M8.45215 23.5601H3.75984C3.72703 23.5601 3.69457 23.5615 3.66211 23.5625C5.20781 23.6141 6.44531 24.8826 6.44531 26.441V56.2401C6.44531 57.7985 5.20781 59.0669 3.66211 59.1186C3.69457 59.1197 3.72703 59.1211 3.75984 59.1211H8.45215C10.0432 59.1211 11.3331 57.8312 11.3331 56.2401V26.441C11.3331 24.8498 10.0433 23.5601 8.45215 23.5601Z" fill="#FF6CB5"></path><path d="M24.3818 59.1211H19.6895C18.0985 59.1211 16.8086 57.8312 16.8086 56.2402V40.252C16.8086 38.661 18.0985 37.3711 19.6895 37.3711H24.3818C25.9729 37.3711 27.2628 38.661 27.2628 40.252V56.2402C27.2628 57.8312 25.973 59.1211 24.3818 59.1211Z" fill="#FFD36C"></path><path d="M24.3816 37.3711H19.6893C19.6579 37.3711 19.6269 37.3725 19.5957 37.3734C21.1434 37.423 22.383 38.6924 22.383 40.252V56.2402C22.383 57.7998 21.1434 59.0692 19.5957 59.1188C19.6269 59.1198 19.6579 59.1211 19.6893 59.1211H24.3816C25.9727 59.1211 27.2626 57.8312 27.2626 56.2402V40.252C27.2626 38.661 25.9728 37.3711 24.3816 37.3711Z" fill="#FCC645"></path><path d="M40.3115 59.1212H35.6192C34.0282 59.1212 32.7383 57.8313 32.7383 56.2402V29.8653C32.7383 28.2743 34.0282 26.9844 35.6192 26.9844H40.3115C41.9026 26.9844 43.1925 28.2743 43.1925 29.8653V56.2402C43.1925 57.8313 41.9026 59.1212 40.3115 59.1212Z" fill="#4ED5EA"></path><path d="M40.3113 26.9844H35.6189C35.5889 26.9844 35.5592 26.9857 35.5294 26.9866C37.0789 27.0341 38.3207 28.3043 38.3207 29.8653V56.2402C38.3207 57.8013 37.0789 59.0715 35.5293 59.1189C35.5592 59.1199 35.5888 59.1212 35.6188 59.1212H40.3111C41.9022 59.1212 43.1921 57.8313 43.1921 56.2402V29.8653C43.1922 28.2741 41.9023 26.9844 40.3113 26.9844Z" fill="#62A6FD"></path><path d="M56.2393 59.121H51.547C49.9559 59.121 48.666 57.8312 48.666 56.2401V18.451C48.666 16.86 49.9559 15.5701 51.547 15.5701H56.2393C57.8303 15.5701 59.1202 16.86 59.1202 18.451V56.2401C59.1202 57.8312 57.8303 59.121 56.2393 59.121Z" fill="#72E4A0"></path><path d="M56.2406 15.5701H51.5483C51.5196 15.5701 51.4914 15.5714 51.4629 15.5722C53.0143 15.6176 54.2583 16.8887 54.2583 18.451V56.2401C54.2583 57.8026 53.0143 59.0736 51.4629 59.1189C51.4914 59.1198 51.5197 59.121 51.5483 59.121H56.2406C57.8317 59.121 59.1216 57.8312 59.1216 56.2401V18.451C59.1216 16.86 57.8317 15.5701 56.2406 15.5701Z" fill="#24D3B5"></path><path d="M6.10563 15.4565C7.60184 15.4565 8.81477 14.2457 8.81477 12.7521C8.81477 11.2584 7.60184 10.0476 6.10563 10.0476C4.60941 10.0476 3.39648 11.2584 3.39648 12.7521C3.39648 14.2457 4.60941 15.4565 6.10563 15.4565Z" fill="#909EC0"></path><path d="M22.0353 31.8813C23.5315 31.8813 24.7445 30.6705 24.7445 29.1769C24.7445 27.6832 23.5315 26.4724 22.0353 26.4724C20.5391 26.4724 19.3262 27.6832 19.3262 29.1769C19.3262 30.6705 20.5391 31.8813 22.0353 31.8813Z" fill="#909EC0"></path><path d="M37.965 19.1501C39.4612 19.1501 40.6741 17.9393 40.6741 16.4457C40.6741 14.952 39.4612 13.7412 37.965 13.7412C36.4688 13.7412 35.2559 14.952 35.2559 16.4457C35.2559 17.9393 36.4688 19.1501 37.965 19.1501Z" fill="#909EC0"></path><path d="M53.8927 6.28781C55.3889 6.28781 56.6019 5.07699 56.6019 3.58336C56.6019 2.08973 55.3889 0.878906 53.8927 0.878906C52.3965 0.878906 51.1836 2.08973 51.1836 3.58336C51.1836 5.07699 52.3965 6.28781 53.8927 6.28781Z" fill="#909EC0"></path><path d="M8.45215 22.6812H3.75984C1.68668 22.6812 0 24.3678 0 26.441V47.4609C0 48.5946 1.75781 48.5946 1.75781 47.4609V26.441C1.75781 25.3371 2.65594 24.439 3.75984 24.439H8.45215C9.55606 24.439 10.4542 25.3371 10.4542 26.441V56.2401C10.4542 57.344 9.55606 58.2422 8.45215 58.2422H3.75984C2.65594 58.2422 1.75781 57.344 1.75781 56.2401V52.6172C1.75781 51.4835 0 51.4835 0 52.6172V56.2401C0 58.3133 1.68668 60 3.75984 60H8.45215C10.5253 60 12.212 58.3133 12.212 56.2401V26.441C12.212 24.3678 10.5253 22.6812 8.45215 22.6812Z" fill="black"></path><path d="M24.3818 36.4922H19.6895C17.6164 36.4922 15.9297 38.1789 15.9297 40.252V56.2402C15.9297 58.3133 17.6164 60 19.6895 60H24.3818C26.455 60 28.1417 58.3133 28.1417 56.2402V40.252C28.1417 38.1789 26.455 36.4922 24.3818 36.4922ZM26.3839 56.2402C26.3839 57.3441 25.4857 58.2422 24.3818 58.2422H19.6895C18.5856 58.2422 17.6875 57.3441 17.6875 56.2402V40.252C17.6875 39.1481 18.5856 38.25 19.6895 38.25H24.3818C25.4857 38.25 26.3839 39.1481 26.3839 40.252V56.2402Z" fill="black"></path><path d="M40.3115 26.1055H35.6192C33.5461 26.1055 31.8594 27.7921 31.8594 29.8653V56.2402C31.8594 58.3134 33.5461 60.0001 35.6192 60.0001H40.3115C42.3847 60.0001 44.0714 58.3134 44.0714 56.2402V37.1485C44.0714 36.0148 42.3136 36.0148 42.3136 37.1485V56.2402C42.3136 57.3441 41.4154 58.2423 40.3115 58.2423H35.6192C34.5153 58.2423 33.6172 57.3441 33.6172 56.2402V29.8653C33.6172 28.7614 34.5153 27.8633 35.6192 27.8633H40.3115C41.4154 27.8633 42.3136 28.7614 42.3136 29.8653V31.8751C42.3136 33.0087 44.0714 33.0087 44.0714 31.8751V29.8653C44.0714 27.792 42.3848 26.1055 40.3115 26.1055Z" fill="black"></path><path d="M56.2393 14.6912H51.547C49.4738 14.6912 47.7871 16.3778 47.7871 18.451V56.2401C47.7871 58.3133 49.4738 60 51.547 60H56.2393C58.3124 60 59.9991 58.3133 59.9991 56.2401V18.451C59.9991 16.3778 58.3124 14.6912 56.2393 14.6912ZM58.2413 56.2401C58.2413 57.344 57.3432 58.2421 56.2393 58.2421H51.547C50.443 58.2421 49.5449 57.344 49.5449 56.2401V18.451C49.5449 17.3471 50.443 16.449 51.547 16.449H56.2393C57.3432 16.449 58.2413 17.3471 58.2413 18.451V56.2401Z" fill="black"></path><path d="M6.10539 16.3355C6.7559 16.3355 7.36598 16.1609 7.89262 15.8573L18.9836 27.2932C18.7485 27.6718 18.5801 28.1 18.4994 28.5652C18.3358 29.5086 18.55 30.4591 19.1024 31.2416C19.6546 32.0237 20.4787 32.5444 21.4229 32.7075C21.629 32.7431 21.8341 32.7603 22.0366 32.7603C23.7484 32.7603 25.2681 31.5289 25.57 29.7882V29.7884C25.6955 29.0645 25.5979 28.3368 25.2966 27.6837L35.7618 19.2765C36.4329 19.7761 37.1676 20.027 37.9657 20.0292C39.6776 20.0292 41.1974 18.7978 41.4994 17.0571C41.628 16.3158 41.5223 15.5704 41.2034 14.9052L51.7356 6.44426C52.3366 6.89742 53.084 7.16684 53.8934 7.16684C55.8719 7.16684 57.4813 5.55937 57.4813 3.58348C57.4813 1.60758 55.8719 0 53.8935 0C51.9152 0 50.3055 1.60746 50.3055 3.58336C50.3055 4.11574 50.4232 4.62094 50.6327 5.07551L40.0816 13.5517C39.6412 13.2296 39.1295 13.0104 38.5761 12.9148C36.6279 12.578 34.7664 13.8873 34.4288 15.834C34.3063 16.5402 34.3955 17.2504 34.6798 17.891L24.1946 26.3142C23.7448 25.975 23.2179 25.7446 22.6466 25.6459C21.7892 25.4977 20.9488 25.6684 20.2478 26.0718L9.15637 14.6353C9.49656 14.0877 9.69356 13.4426 9.69356 12.7521C9.69356 10.7762 8.08398 9.16875 6.10551 9.16875C4.12703 9.16875 2.51758 10.7762 2.51758 12.7521C2.51758 14.728 4.12703 16.3355 6.10539 16.3355ZM53.8935 1.75781C54.9026 1.75781 55.7236 2.57672 55.7236 3.58336C55.7236 4.59 54.9026 5.40891 53.8935 5.40891C52.9067 5.40891 52.0633 4.57219 52.0633 3.58336C52.0632 2.57672 52.8842 1.75781 53.8935 1.75781ZM36.1607 16.1344C36.3146 15.2473 37.0896 14.62 37.963 14.62C39.0943 14.62 39.933 15.6537 39.7675 16.7569C39.5954 17.749 38.6467 18.4168 37.6516 18.2445C37.1697 18.1612 36.7492 17.8956 36.4676 17.4968C36.1865 17.0984 36.0774 16.6145 36.1607 16.1344ZM23.5312 28.1257C23.8129 28.5246 23.9044 29.0106 23.8382 29.488C23.6662 30.4801 22.7175 31.1475 21.7223 30.9755C20.7412 30.8059 20.0611 29.8478 20.2313 28.8656C20.5032 27.2992 22.6066 26.8158 23.5312 28.1257ZM6.10539 10.9266C7.11461 10.9266 7.93563 11.7455 7.93563 12.7521C7.93563 13.7587 7.11461 14.5777 6.10539 14.5777C5.09629 14.5777 4.27527 13.7587 4.27527 12.7521C4.27527 11.7455 5.09629 10.9266 6.10539 10.9266Z" fill="black"></path></g><defs><clipPath id="clip0_2372_2"><rect width="60" height="60" fill="white"></rect></clipPath></defs></svg>