<svg xmlns="http://www.w3.org/2000/svg" width="60" height="60" viewBox="0 0 60 60" fill="none"><path fill-rule="evenodd" clip-rule="evenodd" d="M37.9808 14.7059L49.8299 26.1041L52.1413 28.3286L52.9915 29.1465C53.2638 29.4059 53.6988 29.3959 53.9579 29.1266L56.2925 26.6926L58.4312 24.4649C59.3676 23.4873 59.3377 21.9212 58.3615 20.9836L56.2925 18.9952L44.8187 7.95598C43.8423 7.01836 42.2782 7.04825 41.3417 8.02582L36.8685 12.6875C36.6061 12.9602 36.616 13.3958 36.8884 13.6552L37.9808 14.7059Z" fill="#FE636E"></path><path fill-rule="evenodd" clip-rule="evenodd" d="M21.5312 15.4341L8.79883 27.6802C9.20066 31.0617 9.835 34.2272 11.9271 35.9994L29.1926 50.0212L31.2815 51.6272C34.4264 54.0445 37.4052 50.6663 35.0143 48.1691C34.9811 48.1326 34.9445 48.096 34.908 48.0594C35.7149 48.7377 36.6216 48.9306 37.4153 48.8009C39.1621 48.5182 40.3577 46.6695 38.7503 44.9438C41.8919 47.4509 44.5752 43.4575 42.1144 41.2663C44.8575 42.1308 47.8463 38.5764 44.997 35.5572C44.9771 35.5338 44.9539 35.5072 44.9305 35.484L37.7873 24.8571L28.2064 18.7224L21.5312 15.4341Z" fill="#FFBC85"></path><path fill-rule="evenodd" clip-rule="evenodd" d="M28.9332 50.3205C31.5899 47.4908 27.7144 44.2356 25.5724 46.1542L23.2776 48.3354C23.251 48.362 23.2278 48.3853 23.2012 48.4053C21.2751 50.3405 24.7753 54.7494 27.6712 51.6638L28.9332 50.3205Z" fill="#FFE5C1"></path><path fill-rule="evenodd" clip-rule="evenodd" d="M21.5703 42.2073L19.1461 44.7477L19.1361 44.761C17.9207 46.0511 18.7642 48.0295 20.2022 48.8009C21.0922 49.2797 22.208 49.2996 23.201 48.4053L25.798 48.3654L25.5722 46.1542L25.9043 45.8417C28.5013 43.3745 24.752 39.1117 21.8262 41.938L21.5703 42.2073Z" fill="#FFE5C1"></path><path fill-rule="evenodd" clip-rule="evenodd" d="M17.241 38.726L14.9694 41.1366L14.6506 41.4791C12.4089 43.8564 16.424 47.6005 18.7387 45.1732L19.1372 44.7609C19.1704 44.7243 21.6047 44.4716 21.8704 44.4417L21.8273 41.938L22.6043 41.1233C25.2777 38.3203 21.1 34.6294 18.5561 37.3327L17.241 38.726Z" fill="#FFE5C1"></path><path fill-rule="evenodd" clip-rule="evenodd" d="M11.9272 35.9994L11.1567 36.834C8.7855 39.4075 12.3189 43.5108 14.9691 41.1366L17.1444 40.8008L17.2407 38.726C19.3893 36.2954 15.6433 31.9694 12.6944 35.1682L11.9272 35.9994Z" fill="#FFE5C1"></path><path fill-rule="evenodd" clip-rule="evenodd" d="M15.1822 8.21187L4.63826 18.3566L1.63943 21.2394C0.663025 22.177 0.633142 23.7431 1.56971 24.7207L6.04299 29.3824C6.30197 29.6517 6.73709 29.6616 7.00943 29.4023L8.79935 27.6799L21.5318 15.4337L23.1125 13.9108C23.3849 13.6515 23.3948 13.2159 23.1324 12.9432L18.6592 8.28148C17.7227 7.30413 16.1585 7.27425 15.1822 8.21187Z" fill="#7BACDF"></path><path fill-rule="evenodd" clip-rule="evenodd" d="M35.2345 25.8481L32.0332 26.5796L33.2885 27.8531L42.9857 37.4891L43.0521 37.5622C44.2211 38.7991 44.407 40.1225 44.0351 41.1998C45.9512 40.4683 47.1701 37.8581 44.9981 35.5572L44.9317 35.4841L42.0225 32.5946L35.2345 25.8481Z" fill="#F5A96C"></path><path fill-rule="evenodd" clip-rule="evenodd" d="M21.5312 15.4341L19.4922 17.3925L25.8651 20.5347L28.2064 18.7225L21.5312 15.4341Z" fill="#F5A96C"></path><path fill-rule="evenodd" clip-rule="evenodd" d="M28.2064 18.7224L25.8651 20.5346L23.66 22.237C18.0908 26.5462 22.7102 30.8023 26.0145 29.3426L29.7306 27.1048L32.0321 26.5795L35.2334 25.848L42.0214 32.5945L44.9306 35.484C46.7604 34.799 49.3474 32.8239 52.1403 28.3285L37.9798 14.7058L35.436 16.7374C35.0176 17.0698 35.1438 17.0067 34.6157 16.99C32.7061 16.9301 30.2786 17.1198 28.854 18.2203L28.2064 18.7224Z" fill="#FFE5C1"></path><path fill-rule="evenodd" clip-rule="evenodd" d="M28.1964 25.6252L24.4802 27.863C23.4674 28.3119 22.3283 28.2221 21.3984 27.7566C22.2054 29.3061 24.291 30.1041 26.0146 29.3426L29.7307 27.1048L32.0321 26.5795L35.1936 25.858C33.7291 24.6044 33.4668 24.4216 30.4945 25.1031L28.1964 25.6252Z" fill="#FED1A3"></path><path fill-rule="evenodd" clip-rule="evenodd" d="M49.8285 26.104C47.3411 30.1041 45.0198 32.109 43.2497 32.9869C43.0505 33.0866 42.8579 33.1698 42.6719 33.2396L44.9301 35.4839C46.76 34.799 49.3469 32.8239 52.1398 28.3285L49.8285 26.104Z" fill="#FED1A3"></path><path fill-rule="evenodd" clip-rule="evenodd" d="M53.3401 23.8496L51.0055 26.2868C50.7431 26.5561 50.3114 26.5661 50.0391 26.3035L52.1412 28.3285L52.9914 29.1464C53.2637 29.4058 53.6987 29.3958 53.9578 29.1265L56.2924 26.6925L58.4311 24.4648C59.3675 23.4872 59.3377 21.9211 58.3614 20.9835L55.7445 18.4663L55.967 18.6824L55.419 18.1537C56.3821 19.0913 56.412 20.6509 55.4788 21.6218L53.3401 23.8496Z" fill="#FB2A39"></path><path fill-rule="evenodd" clip-rule="evenodd" d="M11.5762 11.6832C12.5526 10.7555 14.1067 10.7921 15.0399 11.763L19.5132 16.4247C19.7721 16.6974 19.7656 17.133 19.4932 17.3923L21.5323 15.4339L23.113 13.911C23.3854 13.6517 23.3954 13.2161 23.133 12.9434L18.6597 8.28168C17.7232 7.30411 16.159 7.27422 15.1827 8.21184L11.5762 11.6832Z" fill="#3987D0"></path><path fill-rule="evenodd" clip-rule="evenodd" d="M10.377 38.8025C10.4002 40.9805 12.9441 42.9521 14.9698 41.1367L16.3944 39.6271L17.2412 38.726C18.1279 37.7218 18.0083 36.3984 17.3607 35.4109C17.3575 35.9894 17.1648 36.568 16.7231 37.0701L15.2154 38.6695L14.4548 39.4808C12.9772 40.8008 11.2271 40.1126 10.377 38.8025Z" fill="#FED1A3"></path><path fill-rule="evenodd" clip-rule="evenodd" d="M14.0957 43.7434C14.627 45.5255 17.1078 46.8855 18.7383 45.1732L19.1369 44.7609C19.1402 44.7542 19.1436 44.7509 19.1468 44.7477L21.5711 42.2073C21.6575 42.1108 21.7404 42.0211 21.8268 41.938L22.6039 41.1233C24.0452 39.6137 23.4972 37.8447 22.285 36.957C22.5041 37.7717 22.3281 38.7126 21.5112 39.5671L20.7341 40.3818C20.6478 40.4649 20.5648 40.5547 20.4784 40.6479V40.6511L18.0542 43.1915C18.0509 43.1948 18.0475 43.1982 18.0409 43.2015L17.6458 43.6171C16.5632 44.7542 15.1086 44.5381 14.0957 43.7434Z" fill="#FED1A3"></path><path fill-rule="evenodd" clip-rule="evenodd" d="M23.2779 48.3352L25.0479 46.6561L25.5726 46.154L25.9047 45.8415C27.2862 44.5281 26.8711 42.7059 25.7354 41.7151C25.9778 42.583 25.7984 43.5638 24.9616 44.3585L24.6327 44.671L23.6963 45.5588L22.3347 46.8556L22.2583 46.9221C21.2654 47.8166 20.1495 47.7965 19.2595 47.3211C19.0403 47.2015 18.8344 47.0551 18.6484 46.8855C18.8676 47.6736 19.4554 48.4017 20.2026 48.8007C21.0926 49.2795 22.2084 49.2995 23.2014 48.4051L23.2779 48.3352Z" fill="#FED1A3"></path><path fill-rule="evenodd" clip-rule="evenodd" d="M28.9336 50.3205C30.262 48.904 29.9564 47.3844 29.0532 46.4568C29.0332 47.0853 28.7676 47.7603 28.1566 48.4085L26.8946 49.7551C25.3437 51.4043 23.6201 50.909 22.6504 49.795C22.6636 51.8133 25.3602 54.1275 27.6716 51.6637L28.9336 50.3205Z" fill="#FED1A3"></path><path d="M35.0246 49.0612C34.8088 49.0612 34.5924 48.9828 34.422 48.8244L32.6187 47.1486C32.2604 46.8157 32.2399 46.2553 32.5729 45.897C32.9058 45.5387 33.4662 45.5182 33.8245 45.8512L35.6277 47.527C35.9861 47.8599 36.0066 48.4203 35.6737 48.7786C35.4991 48.9662 35.2621 49.0612 35.0246 49.0612Z" fill="black"></path><path d="M58.9745 20.3452L45.4314 7.31723C44.7875 6.69883 43.9381 6.37035 43.0435 6.38735C42.1492 6.40598 41.3175 6.77032 40.7019 7.41274L36.2256 12.0776C35.6289 12.7057 35.6518 13.7011 36.2735 14.2934L36.6382 14.6443L34.8009 16.1118C34.7551 16.1093 34.7032 16.107 34.6438 16.105C31.7747 16.0157 29.6443 16.4911 28.3125 17.5199L28.1012 17.6834L23.0535 15.1967L23.7228 14.5527C24.0266 14.2635 24.1989 13.8727 24.2081 13.4521C24.2173 13.0312 24.0617 12.6325 23.7711 12.3306L19.2984 7.66914C18.6826 7.02625 17.8509 6.66203 16.9565 6.64328C16.0575 6.6216 15.2123 6.95465 14.568 7.57364L1.02584 20.6008C-0.303648 21.8777 -0.346656 24.0007 0.93057 25.3341L5.40455 29.9965C5.71112 30.3153 6.12221 30.4759 6.53483 30.4759C6.92565 30.4759 7.31776 30.3317 7.62315 30.0408L8.15377 29.5304C8.52901 31.9184 9.17401 34.3294 10.6942 36.0298L10.5057 36.2339C8.89932 37.9777 9.39901 40.3042 10.6849 41.6081C11.3937 42.3269 12.2552 42.7015 13.1235 42.7286C13.0074 43.8423 13.5178 44.9568 14.3362 45.7328C15.0544 46.4138 16.0147 46.8503 16.9915 46.8502C17.2343 46.8502 17.4781 46.8222 17.7196 46.7652C17.8569 47.5554 18.2692 48.3068 18.8298 48.869C19.5033 49.5442 20.4508 50.0148 21.4601 50.0148C21.5633 50.0148 21.6672 50.0097 21.7715 49.9996C21.785 50.1936 21.8151 50.3908 21.8642 50.5904C22.2069 51.9835 23.3356 53.1549 24.673 53.5052C24.8964 53.5636 25.1843 53.6136 25.5166 53.6136C26.2935 53.6136 27.3129 53.3411 28.3175 52.2702L29.3021 51.2221L30.7421 52.3292C31.6844 53.0538 32.619 53.3494 33.4581 53.3494C34.5118 53.3494 35.4151 52.8831 35.9935 52.2145C36.5434 51.5789 36.8706 50.677 36.7493 49.7125C37.856 49.7689 38.8999 49.3422 39.5741 48.6312C40.073 48.1052 40.3985 47.3887 40.3926 46.6033C41.5394 46.724 42.5406 46.2345 43.1598 45.5001C43.873 44.6542 44.1917 43.3938 43.7866 42.1975C44.8449 41.9691 45.815 41.2994 46.434 40.2923C47.1289 39.1618 47.3849 37.4766 46.3221 35.8118C47.9134 34.9346 49.9983 33.1834 52.303 29.7142L52.3799 29.7879C52.6833 30.0768 53.0736 30.2204 53.4636 30.2204C53.8764 30.2204 54.2886 30.0593 54.596 29.7398L59.0699 25.0776C60.3465 23.7446 60.3035 21.6215 58.9745 20.3452ZM11.8077 37.4347L13.3458 35.7684C13.9749 35.0855 14.6632 34.8061 15.3371 34.9602C16.0438 35.122 16.6734 35.7408 16.9038 36.5003C17.0149 36.8663 17.1145 37.5723 16.5337 38.1878C16.533 38.1885 16.5326 38.1893 16.5319 38.19L14.3751 40.4798C13.4674 41.2904 12.5252 40.9517 11.9457 40.3642C11.2393 39.6479 10.895 38.4254 11.8077 37.4347ZM15.5547 44.4474C15.4205 44.32 14.2719 43.1716 15.2949 42.0866L15.2953 42.0863L19.2009 37.9396C19.6861 37.4241 20.1852 37.2754 20.5994 37.2754C20.7533 37.2754 20.8956 37.296 21.0208 37.3258C21.7176 37.4917 22.3169 38.0464 22.5122 38.7061C22.6939 39.3205 22.5042 39.945 21.9636 40.512L21.1394 41.3754C21.0975 41.4174 21.0564 41.4616 21.0152 41.5055L18.0977 44.5621C17.1898 45.5143 16.072 44.9382 15.5547 44.4474ZM20.0838 47.6184C19.5801 47.1133 19.0856 46.0947 19.7877 45.3592C19.7955 45.351 19.8021 45.3422 19.8096 45.3339L22.1955 42.8342C22.2091 42.8207 22.2228 42.8076 22.2357 42.793C22.244 42.7836 22.2526 42.775 22.261 42.7656L22.4153 42.604C23.0089 42.0164 23.6573 41.7844 24.3034 41.9349C25.0149 42.1004 25.6274 42.7052 25.8273 43.44C25.9509 43.8946 25.9591 44.5688 25.2955 45.1994L25.0043 45.4758C24.997 45.4823 24.9896 45.488 24.9824 45.4945C24.9635 45.5113 24.946 45.5293 24.9289 45.5474L22.7018 47.6617C22.6943 47.6682 22.6863 47.6738 22.6789 47.6805C22.6636 47.6944 22.6497 47.7093 22.6347 47.7235C21.4202 48.8381 20.2981 47.8333 20.0838 47.6184ZM27.0261 51.0578C26.4099 51.7144 25.7685 51.9607 25.1216 51.7916C24.4167 51.607 23.7701 50.9239 23.5839 50.1672C23.5023 49.8359 23.484 49.3732 23.839 49.022C23.8553 49.007 23.8717 48.993 23.888 48.9775L26.1848 46.7969C26.8766 46.2002 27.848 46.4901 28.4174 47.0734C28.6985 47.3611 29.52 48.4021 28.2883 49.7139L27.0261 51.0578ZM44.925 39.3647C44.4762 40.0949 43.5365 40.6796 42.5558 40.4671L39.1779 37.3229C38.8198 36.9896 38.2595 37.0097 37.9262 37.3677C37.593 37.7257 37.6131 38.2861 37.9711 38.6194L41.5112 41.9145C41.5146 41.9177 41.5182 41.9202 41.5216 41.9233C41.5231 41.9247 41.5242 41.9263 41.5257 41.9276C42.3991 42.7054 42.3278 43.7391 41.8057 44.3582C41.2132 45.061 40.2862 45.0256 39.3228 44.2666L35.8105 40.997C35.4524 40.6636 34.8921 40.6839 34.5588 41.0419C34.2257 41.3999 34.2457 41.9603 34.6037 42.2936L38.1183 45.5652C38.7286 46.2286 38.7899 46.8841 38.2888 47.4125C37.693 48.0406 36.5052 48.2432 35.4774 47.3809C35.1123 47.0747 34.5704 47.1123 34.2511 47.4658C33.9316 47.8195 33.9493 48.3624 34.2912 48.6945C35.2558 49.6318 35.0896 50.552 34.6541 51.0555C34.1245 51.6673 33.0436 51.8642 31.8217 50.925L30.3657 49.8057C31.095 48.3074 30.6328 46.8065 29.6849 45.8358C29.1309 45.2689 28.3707 44.8552 27.5625 44.7293C27.7029 44.1671 27.6988 43.5715 27.5364 42.9749C27.1645 41.6086 26.053 40.5231 24.7046 40.2097C24.5375 40.1707 24.3697 40.1448 24.2021 40.1313C24.3919 39.5023 24.4004 38.8441 24.2108 38.2035C23.8358 36.9361 22.7447 35.9154 21.4312 35.6028C20.4515 35.3699 19.4701 35.5568 18.6336 36.1139C18.6222 36.0713 18.6119 36.0288 18.599 35.9861C18.1837 34.6176 17.0585 33.5372 15.7325 33.2338C14.4227 32.9343 13.1129 33.408 12.0442 34.5677L11.902 34.7216C10.655 33.2384 10.1044 30.9416 9.72995 28.0144L13.4648 24.4216C13.8173 24.0825 13.8282 23.5219 13.4891 23.1694C13.1502 22.8169 12.5896 22.806 12.2369 23.1452L8.22889 27.0009C8.19784 27.0269 8.16889 27.0549 8.1417 27.0848L6.54198 28.6237L2.2092 24.1086C1.60721 23.4801 1.6269 22.4797 2.25338 21.8779L15.7953 8.85063C16.0978 8.56024 16.4981 8.40485 16.9196 8.41399C17.3406 8.42278 17.7312 8.5934 18.02 8.89481L22.3541 13.4114L15.0396 20.4482C14.6871 20.7873 14.6762 21.348 15.0153 21.7004C15.3544 22.0529 15.915 22.0636 16.2675 21.7246L21.6961 16.5022L26.5415 18.8893L23.1184 21.5365C19.0141 24.7122 20.2508 27.5704 20.7276 28.3707C21.5412 29.7363 23.0528 30.5246 24.5948 30.5246C25.196 30.5246 25.8019 30.4047 26.3727 30.1525C26.4067 30.1375 26.4397 30.1204 26.4716 30.1012L30.0662 27.9365L34.9554 26.8199L44.3018 36.1074C45.7546 37.5985 45.2218 38.8818 44.925 39.3647ZM57.7914 23.8517L53.4579 28.3676L52.7935 27.7312C52.7687 27.704 52.7417 27.6783 52.713 27.6541L46.6094 21.8071C46.2559 21.4684 45.6956 21.481 45.3572 21.8338C45.0189 22.187 45.0309 22.7477 45.384 23.086L51.0016 28.4676C48.5326 32.2619 46.4175 33.8072 45.1305 34.4341L35.858 25.2198C35.8555 25.2174 35.8528 25.2154 35.8505 25.213C35.8371 25.2 35.8232 25.1879 35.809 25.1758C35.8004 25.1684 35.792 25.1609 35.7832 25.1539C35.7703 25.1437 35.7568 25.1343 35.7435 25.1248C35.7328 25.1173 35.7223 25.1095 35.7114 25.1024C35.6992 25.0946 35.6864 25.0877 35.6739 25.0804C35.6614 25.0732 35.6491 25.0657 35.6364 25.0593C35.6232 25.0526 35.6098 25.0469 35.5963 25.0409C35.5839 25.0353 35.5717 25.0293 35.559 25.0244C35.5426 25.0179 35.5258 25.0125 35.509 25.007C35.4991 25.0039 35.4894 25.0001 35.4794 24.9972C35.4589 24.9912 35.4381 24.9866 35.4171 24.9822C35.4105 24.9808 35.4041 24.979 35.3976 24.9777C35.3756 24.9735 35.3532 24.9707 35.3307 24.9682C35.3249 24.9677 35.3191 24.9666 35.3133 24.966C35.2929 24.9641 35.2723 24.9637 35.2515 24.9633C35.2431 24.9632 35.2347 24.9626 35.2262 24.9626C35.2092 24.9627 35.1921 24.964 35.175 24.9652C35.1623 24.966 35.1498 24.9666 35.1371 24.968C35.1238 24.9695 35.1104 24.9718 35.0971 24.9739C35.0804 24.9764 35.0639 24.9791 35.0475 24.9827C35.0438 24.9835 35.0402 24.9837 35.0366 24.9845L29.5338 26.2414C29.4422 26.2623 29.3545 26.2976 29.2741 26.346L25.6097 28.5527C24.4263 29.0446 22.8985 28.5541 22.2492 27.4641C21.4792 26.1716 22.2094 24.4792 24.2021 22.9374L28.7508 19.4198C28.7587 19.4136 28.7669 19.4078 28.7747 19.4013L29.3958 18.9209C30.3654 18.1717 32.2106 17.8004 34.5882 17.875C34.6658 17.8775 34.7276 17.8811 34.7783 17.8839C35.2956 17.9147 35.5025 17.8193 35.9006 17.5L37.9258 15.8825L42.4706 20.2548C42.8231 20.594 43.3837 20.583 43.7229 20.2307C44.062 19.8782 44.0511 19.3176 43.6987 18.9784L37.6461 13.1553L41.9806 8.63817C42.269 8.33711 42.6596 8.1666 43.0807 8.15781C43.0921 8.15758 43.1033 8.15746 43.1148 8.15746C43.5247 8.15746 43.9106 8.3118 44.2043 8.59387L57.7474 21.622C58.3732 22.2234 58.3929 23.2238 57.7914 23.8517Z" fill="black"></path></svg>