<svg xmlns="http://www.w3.org/2000/svg" width="1207" height="10" viewBox="0 0 1207 10" fill="none"><path d="M1204.5 5.5C1204.78 5.5 1205 5.27614 1205 5C1205 4.72386 1204.78 4.5 1204.5 4.5V5.5ZM6.50104 5.5C6.77718 5.5 7.00104 5.27614 7.00104 5C7.00104 4.72386 6.77718 4.5 6.50104 4.5V5.5ZM11.5031 4.5C11.227 4.5 11.0031 4.72386 11.0031 5C11.0031 5.27614 11.227 5.5 11.5031 5.5V4.5ZM16.5052 5.5C16.7814 5.5 17.0052 5.27614 17.0052 5C17.0052 4.72386 16.7814 4.5 16.5052 4.5V5.5ZM21.5073 4.5C21.2311 4.5 21.0073 4.72386 21.0073 5C21.0073 5.27614 21.2311 5.5 21.5073 5.5V4.5ZM26.5094 5.5C26.7855 5.5 27.0094 5.27614 27.0094 5C27.0094 4.72386 26.7855 4.5 26.5094 4.5V5.5ZM31.5115 4.5C31.2353 4.5 31.0115 4.72386 31.0115 5C31.0115 5.27614 31.2353 5.5 31.5115 5.5V4.5ZM36.5135 5.5C36.7897 5.5 37.0135 5.27614 37.0135 5C37.0135 4.72386 36.7897 4.5 36.5135 4.5V5.5ZM41.5156 4.5C41.2395 4.5 41.0156 4.72386 41.0156 5C41.0156 5.27614 41.2395 5.5 41.5156 5.5V4.5ZM46.5177 5.5C46.7939 5.5 47.0177 5.27614 47.0177 5C47.0177 4.72386 46.7939 4.5 46.5177 4.5V5.5ZM51.5198 4.5C51.2436 4.5 51.0198 4.72386 51.0198 5C51.0198 5.27614 51.2436 5.5 51.5198 5.5V4.5ZM56.5219 5.5C56.798 5.5 57.0219 5.27614 57.0219 5C57.0219 4.72386 56.798 4.5 56.5219 4.5V5.5ZM61.524 4.5C61.2478 4.5 61.024 4.72386 61.024 5C61.024 5.27614 61.2478 5.5 61.524 5.5V4.5ZM66.526 5.5C66.8022 5.5 67.026 5.27614 67.026 5C67.026 4.72386 66.8022 4.5 66.526 4.5V5.5ZM71.5281 4.5C71.252 4.5 71.0281 4.72386 71.0281 5C71.0281 5.27614 71.252 5.5 71.5281 5.5V4.5ZM76.5302 5.5C76.8063 5.5 77.0302 5.27614 77.0302 5C77.0302 4.72386 76.8063 4.5 76.5302 4.5V5.5ZM81.5323 4.5C81.2561 4.5 81.0323 4.72386 81.0323 5C81.0323 5.27614 81.2561 5.5 81.5323 5.5V4.5ZM86.5344 5.5C86.8105 5.5 87.0344 5.27614 87.0344 5C87.0344 4.72386 86.8105 4.5 86.5344 4.5V5.5ZM91.5365 4.5C91.2603 4.5 91.0365 4.72386 91.0365 5C91.0365 5.27614 91.2603 5.5 91.5365 5.5V4.5ZM96.5385 5.5C96.8147 5.5 97.0385 5.27614 97.0385 5C97.0385 4.72386 96.8147 4.5 96.5385 4.5V5.5ZM101.541 4.5C101.264 4.5 101.041 4.72386 101.041 5C101.041 5.27614 101.264 5.5 101.541 5.5V4.5ZM106.543 5.5C106.819 5.5 107.043 5.27614 107.043 5C107.043 4.72386 106.819 4.5 106.543 4.5V5.5ZM111.545 4.5C111.269 4.5 111.045 4.72386 111.045 5C111.045 5.27614 111.269 5.5 111.545 5.5V4.5ZM116.547 5.5C116.823 5.5 117.047 5.27614 117.047 5C117.047 4.72386 116.823 4.5 116.547 4.5V5.5ZM121.549 4.5C121.273 4.5 121.049 4.72386 121.049 5C121.049 5.27614 121.273 5.5 121.549 5.5V4.5ZM126.551 5.5C126.827 5.5 127.051 5.27614 127.051 5C127.051 4.72386 126.827 4.5 126.551 4.5V5.5ZM131.553 4.5C131.277 4.5 131.053 4.72386 131.053 5C131.053 5.27614 131.277 5.5 131.553 5.5V4.5ZM136.555 5.5C136.831 5.5 137.055 5.27614 137.055 5C137.055 4.72386 136.831 4.5 136.555 4.5V5.5ZM141.557 4.5C141.281 4.5 141.057 4.72386 141.057 5C141.057 5.27614 141.281 5.5 141.557 5.5V4.5ZM146.559 5.5C146.836 5.5 147.059 5.27614 147.059 5C147.059 4.72386 146.836 4.5 146.559 4.5V5.5ZM151.561 4.5C151.285 4.5 151.061 4.72386 151.061 5C151.061 5.27614 151.285 5.5 151.561 5.5V4.5ZM156.564 5.5C156.84 5.5 157.064 5.27614 157.064 5C157.064 4.72386 156.84 4.5 156.564 4.5V5.5ZM161.566 4.5C161.29 4.5 161.066 4.72386 161.066 5C161.066 5.27614 161.29 5.5 161.566 5.5V4.5ZM166.568 5.5C166.844 5.5 167.068 5.27614 167.068 5C167.068 4.72386 166.844 4.5 166.568 4.5V5.5ZM171.57 4.5C171.294 4.5 171.07 4.72386 171.07 5C171.07 5.27614 171.294 5.5 171.57 5.5V4.5ZM176.572 5.5C176.848 5.5 177.072 5.27614 177.072 5C177.072 4.72386 176.848 4.5 176.572 4.5V5.5ZM181.574 4.5C181.298 4.5 181.074 4.72386 181.074 5C181.074 5.27614 181.298 5.5 181.574 5.5V4.5ZM186.576 5.5C186.852 5.5 187.076 5.27614 187.076 5C187.076 4.72386 186.852 4.5 186.576 4.5V5.5ZM191.578 4.5C191.302 4.5 191.078 4.72386 191.078 5C191.078 5.27614 191.302 5.5 191.578 5.5V4.5ZM196.58 5.5C196.856 5.5 197.08 5.27614 197.08 5C197.08 4.72386 196.856 4.5 196.58 4.5V5.5ZM201.582 4.5C201.306 4.5 201.082 4.72386 201.082 5C201.082 5.27614 201.306 5.5 201.582 5.5V4.5ZM206.584 5.5C206.861 5.5 207.084 5.27614 207.084 5C207.084 4.72386 206.861 4.5 206.584 4.5V5.5ZM211.587 4.5C211.31 4.5 211.087 4.72386 211.087 5C211.087 5.27614 211.31 5.5 211.587 5.5V4.5ZM216.589 5.5C216.865 5.5 217.089 5.27614 217.089 5C217.089 4.72386 216.865 4.5 216.589 4.5V5.5ZM221.591 4.5C221.315 4.5 221.091 4.72386 221.091 5C221.091 5.27614 221.315 5.5 221.591 5.5V4.5ZM226.593 5.5C226.869 5.5 227.093 5.27614 227.093 5C227.093 4.72386 226.869 4.5 226.593 4.5V5.5ZM231.595 4.5C231.319 4.5 231.095 4.72386 231.095 5C231.095 5.27614 231.319 5.5 231.595 5.5V4.5ZM236.597 5.5C236.873 5.5 237.097 5.27614 237.097 5C237.097 4.72386 236.873 4.5 236.597 4.5V5.5ZM241.599 4.5C241.323 4.5 241.099 4.72386 241.099 5C241.099 5.27614 241.323 5.5 241.599 5.5V4.5ZM246.601 5.5C246.877 5.5 247.101 5.27614 247.101 5C247.101 4.72386 246.877 4.5 246.601 4.5V5.5ZM251.603 4.5C251.327 4.5 251.103 4.72386 251.103 5C251.103 5.27614 251.327 5.5 251.603 5.5V4.5ZM256.605 5.5C256.882 5.5 257.105 5.27614 257.105 5C257.105 4.72386 256.882 4.5 256.605 4.5V5.5ZM261.607 4.5C261.331 4.5 261.107 4.72386 261.107 5C261.107 5.27614 261.331 5.5 261.607 5.5V4.5ZM266.61 5.5C266.886 5.5 267.11 5.27614 267.11 5C267.11 4.72386 266.886 4.5 266.61 4.5V5.5ZM271.612 4.5C271.335 4.5 271.112 4.72386 271.112 5C271.112 5.27614 271.335 5.5 271.612 5.5V4.5ZM276.614 5.5C276.89 5.5 277.114 5.27614 277.114 5C277.114 4.72386 276.89 4.5 276.614 4.5V5.5ZM281.616 4.5C281.34 4.5 281.116 4.72386 281.116 5C281.116 5.27614 281.34 5.5 281.616 5.5V4.5ZM286.618 5.5C286.894 5.5 287.118 5.27614 287.118 5C287.118 4.72386 286.894 4.5 286.618 4.5V5.5ZM291.62 4.5C291.344 4.5 291.12 4.72386 291.12 5C291.12 5.27614 291.344 5.5 291.62 5.5V4.5ZM296.622 5.5C296.898 5.5 297.122 5.27614 297.122 5C297.122 4.72386 296.898 4.5 296.622 4.5V5.5ZM301.624 4.5C301.348 4.5 301.124 4.72386 301.124 5C301.124 5.27614 301.348 5.5 301.624 5.5V4.5ZM306.626 5.5C306.902 5.5 307.126 5.27614 307.126 5C307.126 4.72386 306.902 4.5 306.626 4.5V5.5ZM311.628 4.5C311.352 4.5 311.128 4.72386 311.128 5C311.128 5.27614 311.352 5.5 311.628 5.5V4.5ZM316.63 5.5C316.906 5.5 317.13 5.27614 317.13 5C317.13 4.72386 316.906 4.5 316.63 4.5V5.5ZM321.632 4.5C321.356 4.5 321.132 4.72386 321.132 5C321.132 5.27614 321.356 5.5 321.632 5.5V4.5ZM326.634 5.5C326.911 5.5 327.134 5.27614 327.134 5C327.134 4.72386 326.911 4.5 326.634 4.5V5.5ZM331.637 4.5C331.36 4.5 331.137 4.72386 331.137 5C331.137 5.27614 331.36 5.5 331.637 5.5V4.5ZM336.639 5.5C336.915 5.5 337.139 5.27614 337.139 5C337.139 4.72386 336.915 4.5 336.639 4.5V5.5ZM341.641 4.5C341.365 4.5 341.141 4.72386 341.141 5C341.141 5.27614 341.365 5.5 341.641 5.5V4.5ZM346.643 5.5C346.919 5.5 347.143 5.27614 347.143 5C347.143 4.72386 346.919 4.5 346.643 4.5V5.5ZM351.645 4.5C351.369 4.5 351.145 4.72386 351.145 5C351.145 5.27614 351.369 5.5 351.645 5.5V4.5ZM356.647 5.5C356.923 5.5 357.147 5.27614 357.147 5C357.147 4.72386 356.923 4.5 356.647 4.5V5.5ZM361.649 4.5C361.373 4.5 361.149 4.72386 361.149 5C361.149 5.27614 361.373 5.5 361.649 5.5V4.5ZM366.651 5.5C366.927 5.5 367.151 5.27614 367.151 5C367.151 4.72386 366.927 4.5 366.651 4.5V5.5ZM371.653 4.5C371.377 4.5 371.153 4.72386 371.153 5C371.153 5.27614 371.377 5.5 371.653 5.5V4.5ZM376.655 5.5C376.931 5.5 377.155 5.27614 377.155 5C377.155 4.72386 376.931 4.5 376.655 4.5V5.5ZM381.657 4.5C381.381 4.5 381.157 4.72386 381.157 5C381.157 5.27614 381.381 5.5 381.657 5.5V4.5ZM386.659 5.5C386.935 5.5 387.159 5.27614 387.159 5C387.159 4.72386 386.935 4.5 386.659 4.5V5.5ZM391.661 4.5C391.385 4.5 391.161 4.72386 391.161 5C391.161 5.27614 391.385 5.5 391.661 5.5V4.5ZM396.663 5.5C396.94 5.5 397.163 5.27614 397.163 5C397.163 4.72386 396.94 4.5 396.663 4.5V5.5ZM401.666 4.5C401.389 4.5 401.166 4.72386 401.166 5C401.166 5.27614 401.389 5.5 401.666 5.5V4.5ZM406.668 5.5C406.944 5.5 407.168 5.27614 407.168 5C407.168 4.72386 406.944 4.5 406.668 4.5V5.5ZM411.67 4.5C411.394 4.5 411.17 4.72386 411.17 5C411.17 5.27614 411.394 5.5 411.67 5.5V4.5ZM416.672 5.5C416.948 5.5 417.172 5.27614 417.172 5C417.172 4.72386 416.948 4.5 416.672 4.5V5.5ZM421.674 4.5C421.398 4.5 421.174 4.72386 421.174 5C421.174 5.27614 421.398 5.5 421.674 5.5V4.5ZM426.676 5.5C426.952 5.5 427.176 5.27614 427.176 5C427.176 4.72386 426.952 4.5 426.676 4.5V5.5ZM431.678 4.5C431.402 4.5 431.178 4.72386 431.178 5C431.178 5.27614 431.402 5.5 431.678 5.5V4.5ZM436.68 5.5C436.956 5.5 437.18 5.27614 437.18 5C437.18 4.72386 436.956 4.5 436.68 4.5V5.5ZM441.682 4.5C441.406 4.5 441.182 4.72386 441.182 5C441.182 5.27614 441.406 5.5 441.682 5.5V4.5ZM446.684 5.5C446.96 5.5 447.184 5.27614 447.184 5C447.184 4.72386 446.96 4.5 446.684 4.5V5.5ZM451.686 4.5C451.41 4.5 451.186 4.72386 451.186 5C451.186 5.27614 451.41 5.5 451.686 5.5V4.5ZM456.688 5.5C456.965 5.5 457.188 5.27614 457.188 5C457.188 4.72386 456.965 4.5 456.688 4.5V5.5ZM461.69 4.5C461.414 4.5 461.19 4.72386 461.19 5C461.19 5.27614 461.414 5.5 461.69 5.5V4.5ZM466.693 5.5C466.969 5.5 467.193 5.27614 467.193 5C467.193 4.72386 466.969 4.5 466.693 4.5V5.5ZM471.695 4.5C471.418 4.5 471.195 4.72386 471.195 5C471.195 5.27614 471.418 5.5 471.695 5.5V4.5ZM476.697 5.5C476.973 5.5 477.197 5.27614 477.197 5C477.197 4.72386 476.973 4.5 476.697 4.5V5.5ZM481.699 4.5C481.423 4.5 481.199 4.72386 481.199 5C481.199 5.27614 481.423 5.5 481.699 5.5V4.5ZM486.701 5.5C486.977 5.5 487.201 5.27614 487.201 5C487.201 4.72386 486.977 4.5 486.701 4.5V5.5ZM491.703 4.5C491.427 4.5 491.203 4.72386 491.203 5C491.203 5.27614 491.427 5.5 491.703 5.5V4.5ZM496.705 5.5C496.981 5.5 497.205 5.27614 497.205 5C497.205 4.72386 496.981 4.5 496.705 4.5V5.5ZM501.707 4.5C501.431 4.5 501.207 4.72386 501.207 5C501.207 5.27614 501.431 5.5 501.707 5.5V4.5ZM506.709 5.5C506.985 5.5 507.209 5.27614 507.209 5C507.209 4.72386 506.985 4.5 506.709 4.5V5.5ZM511.711 4.5C511.435 4.5 511.211 4.72386 511.211 5C511.211 5.27614 511.435 5.5 511.711 5.5V4.5ZM516.713 5.5C516.989 5.5 517.213 5.27614 517.213 5C517.213 4.72386 516.989 4.5 516.713 4.5V5.5ZM521.715 4.5C521.439 4.5 521.215 4.72386 521.215 5C521.215 5.27614 521.439 5.5 521.715 5.5V4.5ZM526.717 5.5C526.994 5.5 527.217 5.27614 527.217 5C527.217 4.72386 526.994 4.5 526.717 4.5V5.5ZM531.72 4.5C531.443 4.5 531.22 4.72386 531.22 5C531.22 5.27614 531.443 5.5 531.72 5.5V4.5ZM536.722 5.5C536.998 5.5 537.222 5.27614 537.222 5C537.222 4.72386 536.998 4.5 536.722 4.5V5.5ZM541.724 4.5C541.448 4.5 541.224 4.72386 541.224 5C541.224 5.27614 541.448 5.5 541.724 5.5V4.5ZM546.726 5.5C547.002 5.5 547.226 5.27614 547.226 5C547.226 4.72386 547.002 4.5 546.726 4.5V5.5ZM551.728 4.5C551.452 4.5 551.228 4.72386 551.228 5C551.228 5.27614 551.452 5.5 551.728 5.5V4.5ZM556.73 5.5C557.006 5.5 557.23 5.27614 557.23 5C557.23 4.72386 557.006 4.5 556.73 4.5V5.5ZM561.732 4.5C561.456 4.5 561.232 4.72386 561.232 5C561.232 5.27614 561.456 5.5 561.732 5.5V4.5ZM566.734 5.5C567.01 5.5 567.234 5.27614 567.234 5C567.234 4.72386 567.01 4.5 566.734 4.5V5.5ZM571.736 4.5C571.46 4.5 571.236 4.72386 571.236 5C571.236 5.27614 571.46 5.5 571.736 5.5V4.5ZM576.738 5.5C577.014 5.5 577.238 5.27614 577.238 5C577.238 4.72386 577.014 4.5 576.738 4.5V5.5ZM581.74 4.5C581.464 4.5 581.24 4.72386 581.24 5C581.24 5.27614 581.464 5.5 581.74 5.5V4.5ZM586.742 5.5C587.019 5.5 587.242 5.27614 587.242 5C587.242 4.72386 587.019 4.5 586.742 4.5V5.5ZM591.744 4.5C591.468 4.5 591.244 4.72386 591.244 5C591.244 5.27614 591.468 5.5 591.744 5.5V4.5ZM596.747 5.5C597.023 5.5 597.247 5.27614 597.247 5C597.247 4.72386 597.023 4.5 596.747 4.5V5.5ZM601.749 4.5C601.472 4.5 601.249 4.72386 601.249 5C601.249 5.27614 601.472 5.5 601.749 5.5V4.5ZM606.751 5.5C607.027 5.5 607.251 5.27614 607.251 5C607.251 4.72386 607.027 4.5 606.751 4.5V5.5ZM611.753 4.5C611.477 4.5 611.253 4.72386 611.253 5C611.253 5.27614 611.477 5.5 611.753 5.5V4.5ZM616.755 5.5C617.031 5.5 617.255 5.27614 617.255 5C617.255 4.72386 617.031 4.5 616.755 4.5V5.5ZM621.757 4.5C621.481 4.5 621.257 4.72386 621.257 5C621.257 5.27614 621.481 5.5 621.757 5.5V4.5ZM626.759 5.5C627.035 5.5 627.259 5.27614 627.259 5C627.259 4.72386 627.035 4.5 626.759 4.5V5.5ZM631.761 4.5C631.485 4.5 631.261 4.72386 631.261 5C631.261 5.27614 631.485 5.5 631.761 5.5V4.5ZM636.763 5.5C637.039 5.5 637.263 5.27614 637.263 5C637.263 4.72386 637.039 4.5 636.763 4.5V5.5ZM641.765 4.5C641.489 4.5 641.265 4.72386 641.265 5C641.265 5.27614 641.489 5.5 641.765 5.5V4.5ZM646.767 5.5C647.043 5.5 647.267 5.27614 647.267 5C647.267 4.72386 647.043 4.5 646.767 4.5V5.5ZM651.769 4.5C651.493 4.5 651.269 4.72386 651.269 5C651.269 5.27614 651.493 5.5 651.769 5.5V4.5ZM656.771 5.5C657.048 5.5 657.271 5.27614 657.271 5C657.271 4.72386 657.048 4.5 656.771 4.5V5.5ZM661.774 4.5C661.497 4.5 661.274 4.72386 661.274 5C661.274 5.27614 661.497 5.5 661.774 5.5V4.5ZM666.776 5.5C667.052 5.5 667.276 5.27614 667.276 5C667.276 4.72386 667.052 4.5 666.776 4.5V5.5ZM671.778 4.5C671.502 4.5 671.278 4.72386 671.278 5C671.278 5.27614 671.502 5.5 671.778 5.5V4.5ZM676.78 5.5C677.056 5.5 677.28 5.27614 677.28 5C677.28 4.72386 677.056 4.5 676.78 4.5V5.5ZM681.782 4.5C681.506 4.5 681.282 4.72386 681.282 5C681.282 5.27614 681.506 5.5 681.782 5.5V4.5ZM686.784 5.5C687.06 5.5 687.284 5.27614 687.284 5C687.284 4.72386 687.06 4.5 686.784 4.5V5.5ZM691.786 4.5C691.51 4.5 691.286 4.72386 691.286 5C691.286 5.27614 691.51 5.5 691.786 5.5V4.5ZM696.788 5.5C697.064 5.5 697.288 5.27614 697.288 5C697.288 4.72386 697.064 4.5 696.788 4.5V5.5ZM701.79 4.5C701.514 4.5 701.29 4.72386 701.29 5C701.29 5.27614 701.514 5.5 701.79 5.5V4.5ZM706.792 5.5C707.068 5.5 707.292 5.27614 707.292 5C707.292 4.72386 707.068 4.5 706.792 4.5V5.5ZM711.794 4.5C711.518 4.5 711.294 4.72386 711.294 5C711.294 5.27614 711.518 5.5 711.794 5.5V4.5ZM716.796 5.5C717.072 5.5 717.296 5.27614 717.296 5C717.296 4.72386 717.072 4.5 716.796 4.5V5.5ZM721.798 4.5C721.522 4.5 721.298 4.72386 721.298 5C721.298 5.27614 721.522 5.5 721.798 5.5V4.5ZM726.8 5.5C727.077 5.5 727.3 5.27614 727.3 5C727.3 4.72386 727.077 4.5 726.8 4.5V5.5ZM731.803 4.5C731.526 4.5 731.303 4.72386 731.303 5C731.303 5.27614 731.526 5.5 731.803 5.5V4.5ZM736.805 5.5C737.081 5.5 737.305 5.27614 737.305 5C737.305 4.72386 737.081 4.5 736.805 4.5V5.5ZM741.807 4.5C741.531 4.5 741.307 4.72386 741.307 5C741.307 5.27614 741.531 5.5 741.807 5.5V4.5ZM746.809 5.5C747.085 5.5 747.309 5.27614 747.309 5C747.309 4.72386 747.085 4.5 746.809 4.5V5.5ZM751.811 4.5C751.535 4.5 751.311 4.72386 751.311 5C751.311 5.27614 751.535 5.5 751.811 5.5V4.5ZM756.813 5.5C757.089 5.5 757.313 5.27614 757.313 5C757.313 4.72386 757.089 4.5 756.813 4.5V5.5ZM761.815 4.5C761.539 4.5 761.315 4.72386 761.315 5C761.315 5.27614 761.539 5.5 761.815 5.5V4.5ZM766.817 5.5C767.093 5.5 767.317 5.27614 767.317 5C767.317 4.72386 767.093 4.5 766.817 4.5V5.5ZM771.819 4.5C771.543 4.5 771.319 4.72386 771.319 5C771.319 5.27614 771.543 5.5 771.819 5.5V4.5ZM776.821 5.5C777.097 5.5 777.321 5.27614 777.321 5C777.321 4.72386 777.097 4.5 776.821 4.5V5.5ZM781.823 4.5C781.547 4.5 781.323 4.72386 781.323 5C781.323 5.27614 781.547 5.5 781.823 5.5V4.5ZM786.825 5.5C787.102 5.5 787.325 5.27614 787.325 5C787.325 4.72386 787.102 4.5 786.825 4.5V5.5ZM791.827 4.5C791.551 4.5 791.327 4.72386 791.327 5C791.327 5.27614 791.551 5.5 791.827 5.5V4.5ZM796.83 5.5C797.106 5.5 797.33 5.27614 797.33 5C797.33 4.72386 797.106 4.5 796.83 4.5V5.5ZM801.832 4.5C801.555 4.5 801.332 4.72386 801.332 5C801.332 5.27614 801.555 5.5 801.832 5.5V4.5ZM806.834 5.5C807.11 5.5 807.334 5.27614 807.334 5C807.334 4.72386 807.11 4.5 806.834 4.5V5.5ZM811.836 4.5C811.56 4.5 811.336 4.72386 811.336 5C811.336 5.27614 811.56 5.5 811.836 5.5V4.5ZM816.838 5.5C817.114 5.5 817.338 5.27614 817.338 5C817.338 4.72386 817.114 4.5 816.838 4.5V5.5ZM821.84 4.5C821.564 4.5 821.34 4.72386 821.34 5C821.34 5.27614 821.564 5.5 821.84 5.5V4.5ZM826.842 5.5C827.118 5.5 827.342 5.27614 827.342 5C827.342 4.72386 827.118 4.5 826.842 4.5V5.5ZM831.844 4.5C831.568 4.5 831.344 4.72386 831.344 5C831.344 5.27614 831.568 5.5 831.844 5.5V4.5ZM836.846 5.5C837.122 5.5 837.346 5.27614 837.346 5C837.346 4.72386 837.122 4.5 836.846 4.5V5.5ZM841.848 4.5C841.572 4.5 841.348 4.72386 841.348 5C841.348 5.27614 841.572 5.5 841.848 5.5V4.5ZM846.85 5.5C847.126 5.5 847.35 5.27614 847.35 5C847.35 4.72386 847.126 4.5 846.85 4.5V5.5ZM851.852 4.5C851.576 4.5 851.352 4.72386 851.352 5C851.352 5.27614 851.576 5.5 851.852 5.5V4.5ZM856.854 5.5C857.131 5.5 857.354 5.27614 857.354 5C857.354 4.72386 857.131 4.5 856.854 4.5V5.5ZM861.857 4.5C861.58 4.5 861.357 4.72386 861.357 5C861.357 5.27614 861.58 5.5 861.857 5.5V4.5ZM866.859 5.5C867.135 5.5 867.359 5.27614 867.359 5C867.359 4.72386 867.135 4.5 866.859 4.5V5.5ZM871.861 4.5C871.585 4.5 871.361 4.72386 871.361 5C871.361 5.27614 871.585 5.5 871.861 5.5V4.5ZM876.863 5.5C877.139 5.5 877.363 5.27614 877.363 5C877.363 4.72386 877.139 4.5 876.863 4.5V5.5ZM881.865 4.5C881.589 4.5 881.365 4.72386 881.365 5C881.365 5.27614 881.589 5.5 881.865 5.5V4.5ZM886.867 5.5C887.143 5.5 887.367 5.27614 887.367 5C887.367 4.72386 887.143 4.5 886.867 4.5V5.5ZM891.869 4.5C891.593 4.5 891.369 4.72386 891.369 5C891.369 5.27614 891.593 5.5 891.869 5.5V4.5ZM896.871 5.5C897.147 5.5 897.371 5.27614 897.371 5C897.371 4.72386 897.147 4.5 896.871 4.5V5.5ZM901.873 4.5C901.597 4.5 901.373 4.72386 901.373 5C901.373 5.27614 901.597 5.5 901.873 5.5V4.5ZM906.875 5.5C907.151 5.5 907.375 5.27614 907.375 5C907.375 4.72386 907.151 4.5 906.875 4.5V5.5ZM911.877 4.5C911.601 4.5 911.377 4.72386 911.377 5C911.377 5.27614 911.601 5.5 911.877 5.5V4.5ZM916.879 5.5C917.155 5.5 917.379 5.27614 917.379 5C917.379 4.72386 917.155 4.5 916.879 4.5V5.5ZM921.881 4.5C921.605 4.5 921.381 4.72386 921.381 5C921.381 5.27614 921.605 5.5 921.881 5.5V4.5ZM926.883 5.5C927.16 5.5 927.383 5.27614 927.383 5C927.383 4.72386 927.16 4.5 926.883 4.5V5.5ZM931.886 4.5C931.609 4.5 931.386 4.72386 931.386 5C931.386 5.27614 931.609 5.5 931.886 5.5V4.5ZM936.888 5.5C937.164 5.5 937.388 5.27614 937.388 5C937.388 4.72386 937.164 4.5 936.888 4.5V5.5ZM941.89 4.5C941.614 4.5 941.39 4.72386 941.39 5C941.39 5.27614 941.614 5.5 941.89 5.5V4.5ZM946.892 5.5C947.168 5.5 947.392 5.27614 947.392 5C947.392 4.72386 947.168 4.5 946.892 4.5V5.5ZM951.894 4.5C951.618 4.5 951.394 4.72386 951.394 5C951.394 5.27614 951.618 5.5 951.894 5.5V4.5ZM956.896 5.5C957.172 5.5 957.396 5.27614 957.396 5C957.396 4.72386 957.172 4.5 956.896 4.5V5.5ZM961.898 4.5C961.622 4.5 961.398 4.72386 961.398 5C961.398 5.27614 961.622 5.5 961.898 5.5V4.5ZM966.9 5.5C967.176 5.5 967.4 5.27614 967.4 5C967.4 4.72386 967.176 4.5 966.9 4.5V5.5ZM971.902 4.5C971.626 4.5 971.402 4.72386 971.402 5C971.402 5.27614 971.626 5.5 971.902 5.5V4.5ZM976.904 5.5C977.18 5.5 977.404 5.27614 977.404 5C977.404 4.72386 977.18 4.5 976.904 4.5V5.5ZM981.906 4.5C981.63 4.5 981.406 4.72386 981.406 5C981.406 5.27614 981.63 5.5 981.906 5.5V4.5ZM986.908 5.5C987.185 5.5 987.408 5.27614 987.408 5C987.408 4.72386 987.185 4.5 986.908 4.5V5.5ZM991.91 4.5C991.634 4.5 991.41 4.72386 991.41 5C991.41 5.27614 991.634 5.5 991.91 5.5V4.5ZM996.913 5.5C997.189 5.5 997.413 5.27614 997.413 5C997.413 4.72386 997.189 4.5 996.913 4.5V5.5ZM1001.91 4.5C1001.64 4.5 1001.41 4.72386 1001.41 5C1001.41 5.27614 1001.64 5.5 1001.91 5.5V4.5ZM1006.92 5.5C1007.19 5.5 1007.42 5.27614 1007.42 5C1007.42 4.72386 1007.19 4.5 1006.92 4.5V5.5ZM1011.92 4.5C1011.64 4.5 1011.42 4.72386 1011.42 5C1011.42 5.27614 1011.64 5.5 1011.92 5.5V4.5ZM1016.92 5.5C1017.2 5.5 1017.42 5.27614 1017.42 5C1017.42 4.72386 1017.2 4.5 1016.92 4.5V5.5ZM1021.92 4.5C1021.65 4.5 1021.42 4.72386 1021.42 5C1021.42 5.27614 1021.65 5.5 1021.92 5.5V4.5ZM1026.92 5.5C1027.2 5.5 1027.42 5.27614 1027.42 5C1027.42 4.72386 1027.2 4.5 1026.92 4.5V5.5ZM1031.93 4.5C1031.65 4.5 1031.43 4.72386 1031.43 5C1031.43 5.27614 1031.65 5.5 1031.93 5.5V4.5ZM1036.93 5.5C1037.21 5.5 1037.43 5.27614 1037.43 5C1037.43 4.72386 1037.21 4.5 1036.93 4.5V5.5ZM1041.93 4.5C1041.66 4.5 1041.43 4.72386 1041.43 5C1041.43 5.27614 1041.66 5.5 1041.93 5.5V4.5ZM1046.93 5.5C1047.21 5.5 1047.43 5.27614 1047.43 5C1047.43 4.72386 1047.21 4.5 1046.93 4.5V5.5ZM1051.94 4.5C1051.66 4.5 1051.44 4.72386 1051.44 5C1051.44 5.27614 1051.66 5.5 1051.94 5.5V4.5ZM1056.94 5.5C1057.21 5.5 1057.44 5.27614 1057.44 5C1057.44 4.72386 1057.21 4.5 1056.94 4.5V5.5ZM1061.94 4.5C1061.66 4.5 1061.44 4.72386 1061.44 5C1061.44 5.27614 1061.66 5.5 1061.94 5.5V4.5ZM1066.94 5.5C1067.22 5.5 1067.44 5.27614 1067.44 5C1067.44 4.72386 1067.22 4.5 1066.94 4.5V5.5ZM1071.94 4.5C1071.67 4.5 1071.44 4.72386 1071.44 5C1071.44 5.27614 1071.67 5.5 1071.94 5.5V4.5ZM1076.95 5.5C1077.22 5.5 1077.45 5.27614 1077.45 5C1077.45 4.72386 1077.22 4.5 1076.95 4.5V5.5ZM1081.95 4.5C1081.67 4.5 1081.45 4.72386 1081.45 5C1081.45 5.27614 1081.67 5.5 1081.95 5.5V4.5ZM1086.95 5.5C1087.23 5.5 1087.45 5.27614 1087.45 5C1087.45 4.72386 1087.23 4.5 1086.95 4.5V5.5ZM1091.95 4.5C1091.68 4.5 1091.45 4.72386 1091.45 5C1091.45 5.27614 1091.68 5.5 1091.95 5.5V4.5ZM1096.95 5.5C1097.23 5.5 1097.45 5.27614 1097.45 5C1097.45 4.72386 1097.23 4.5 1096.95 4.5V5.5ZM1101.96 4.5C1101.68 4.5 1101.46 4.72386 1101.46 5C1101.46 5.27614 1101.68 5.5 1101.96 5.5V4.5ZM1106.96 5.5C1107.23 5.5 1107.46 5.27614 1107.46 5C1107.46 4.72386 1107.23 4.5 1106.96 4.5V5.5ZM1111.96 4.5C1111.68 4.5 1111.46 4.72386 1111.46 5C1111.46 5.27614 1111.68 5.5 1111.96 5.5V4.5ZM1116.96 5.5C1117.24 5.5 1117.46 5.27614 1117.46 5C1117.46 4.72386 1117.24 4.5 1116.96 4.5V5.5ZM1121.96 4.5C1121.69 4.5 1121.46 4.72386 1121.46 5C1121.46 5.27614 1121.69 5.5 1121.96 5.5V4.5ZM1126.97 5.5C1127.24 5.5 1127.47 5.27614 1127.47 5C1127.47 4.72386 1127.24 4.5 1126.97 4.5V5.5ZM1131.97 4.5C1131.69 4.5 1131.47 4.72386 1131.47 5C1131.47 5.27614 1131.69 5.5 1131.97 5.5V4.5ZM1136.97 5.5C1137.25 5.5 1137.47 5.27614 1137.47 5C1137.47 4.72386 1137.25 4.5 1136.97 4.5V5.5ZM1141.97 4.5C1141.7 4.5 1141.47 4.72386 1141.47 5C1141.47 5.27614 1141.7 5.5 1141.97 5.5V4.5ZM1146.97 5.5C1147.25 5.5 1147.47 5.27614 1147.47 5C1147.47 4.72386 1147.25 4.5 1146.97 4.5V5.5ZM1151.98 4.5C1151.7 4.5 1151.48 4.72386 1151.48 5C1151.48 5.27614 1151.7 5.5 1151.98 5.5V4.5ZM1156.98 5.5C1157.26 5.5 1157.48 5.27614 1157.48 5C1157.48 4.72386 1157.26 4.5 1156.98 4.5V5.5ZM1161.98 4.5C1161.7 4.5 1161.48 4.72386 1161.48 5C1161.48 5.27614 1161.7 5.5 1161.98 5.5V4.5ZM1166.98 5.5C1167.26 5.5 1167.48 5.27614 1167.48 5C1167.48 4.72386 1167.26 4.5 1166.98 4.5V5.5ZM1171.99 4.5C1171.71 4.5 1171.49 4.72386 1171.49 5C1171.49 5.27614 1171.71 5.5 1171.99 5.5V4.5ZM1176.99 5.5C1177.26 5.5 1177.49 5.27614 1177.49 5C1177.49 4.72386 1177.26 4.5 1176.99 4.5V5.5ZM1181.99 4.5C1181.71 4.5 1181.49 4.72386 1181.49 5C1181.49 5.27614 1181.71 5.5 1181.99 5.5V4.5ZM1186.99 5.5C1187.27 5.5 1187.49 5.27614 1187.49 5C1187.49 4.72386 1187.27 4.5 1186.99 4.5V5.5ZM1191.99 4.5C1191.72 4.5 1191.49 4.72386 1191.49 5C1191.49 5.27614 1191.72 5.5 1191.99 5.5V4.5ZM1197 5.5C1197.27 5.5 1197.5 5.27614 1197.5 5C1197.5 4.72386 1197.27 4.5 1197 4.5V5.5ZM1202 4.5C1201.72 4.5 1201.5 4.72386 1201.5 5C1201.5 5.27614 1201.72 5.5 1202 5.5V4.5ZM4 5.5H6.50104V4.5H4V5.5ZM11.5031 5.5H16.5052V4.5H11.5031V5.5ZM21.5073 5.5H26.5094V4.5H21.5073V5.5ZM31.5115 5.5H36.5135V4.5H31.5115V5.5ZM41.5156 5.5H46.5177V4.5H41.5156V5.5ZM51.5198 5.5H56.5219V4.5H51.5198V5.5ZM61.524 5.5H66.526V4.5H61.524V5.5ZM71.5281 5.5H76.5302V4.5H71.5281V5.5ZM81.5323 5.5H86.5344V4.5H81.5323V5.5ZM91.5365 5.5H96.5385V4.5H91.5365V5.5ZM101.541 5.5H106.543V4.5H101.541V5.5ZM111.545 5.5H116.547V4.5H111.545V5.5ZM121.549 5.5H126.551V4.5H121.549V5.5ZM131.553 5.5H136.555V4.5H131.553V5.5ZM141.557 5.5H146.559V4.5H141.557V5.5ZM151.561 5.5H156.564V4.5H151.561V5.5ZM161.566 5.5H166.568V4.5H161.566V5.5ZM171.57 5.5H176.572V4.5H171.57V5.5ZM181.574 5.5H186.576V4.5H181.574V5.5ZM191.578 5.5H196.58V4.5H191.578V5.5ZM201.582 5.5H206.584V4.5H201.582V5.5ZM211.587 5.5H216.589V4.5H211.587V5.5ZM221.591 5.5H226.593V4.5H221.591V5.5ZM231.595 5.5H236.597V4.5H231.595V5.5ZM241.599 5.5H246.601V4.5H241.599V5.5ZM251.603 5.5H256.605V4.5H251.603V5.5ZM261.607 5.5H266.61V4.5H261.607V5.5ZM271.612 5.5H276.614V4.5H271.612V5.5ZM281.616 5.5H286.618V4.5H281.616V5.5ZM291.62 5.5H296.622V4.5H291.62V5.5ZM301.624 5.5H306.626V4.5H301.624V5.5ZM311.628 5.5H316.63V4.5H311.628V5.5ZM321.632 5.5H326.634V4.5H321.632V5.5ZM331.637 5.5H336.639V4.5H331.637V5.5ZM341.641 5.5H346.643V4.5H341.641V5.5ZM351.645 5.5H356.647V4.5H351.645V5.5ZM361.649 5.5H366.651V4.5H361.649V5.5ZM371.653 5.5H376.655V4.5H371.653V5.5ZM381.657 5.5H386.659V4.5H381.657V5.5ZM391.661 5.5H396.663V4.5H391.661V5.5ZM401.666 5.5H406.668V4.5H401.666V5.5ZM411.67 5.5H416.672V4.5H411.67V5.5ZM421.674 5.5H426.676V4.5H421.674V5.5ZM431.678 5.5H436.68V4.5H431.678V5.5ZM441.682 5.5H446.684V4.5H441.682V5.5ZM451.686 5.5H456.688V4.5H451.686V5.5ZM461.69 5.5H466.693V4.5H461.69V5.5ZM471.695 5.5H476.697V4.5H471.695V5.5ZM481.699 5.5H486.701V4.5H481.699V5.5ZM491.703 5.5H496.705V4.5H491.703V5.5ZM501.707 5.5H506.709V4.5H501.707V5.5ZM511.711 5.5H516.713V4.5H511.711V5.5ZM521.715 5.5H526.717V4.5H521.715V5.5ZM531.72 5.5H536.722V4.5H531.72V5.5ZM541.724 5.5H546.726V4.5H541.724V5.5ZM551.728 5.5H556.73V4.5H551.728V5.5ZM561.732 5.5H566.734V4.5H561.732V5.5ZM571.736 5.5H576.738V4.5H571.736V5.5ZM581.74 5.5H586.742V4.5H581.74V5.5ZM591.744 5.5H596.747V4.5H591.744V5.5ZM601.749 5.5H606.751V4.5H601.749V5.5ZM611.753 5.5H616.755V4.5H611.753V5.5ZM621.757 5.5H626.759V4.5H621.757V5.5ZM631.761 5.5H636.763V4.5H631.761V5.5ZM641.765 5.5H646.767V4.5H641.765V5.5ZM651.769 5.5H656.771V4.5H651.769V5.5ZM661.774 5.5H666.776V4.5H661.774V5.5ZM671.778 5.5H676.78V4.5H671.778V5.5ZM681.782 5.5H686.784V4.5H681.782V5.5ZM691.786 5.5H696.788V4.5H691.786V5.5ZM701.79 5.5H706.792V4.5H701.79V5.5ZM711.794 5.5H716.796V4.5H711.794V5.5ZM721.798 5.5H726.8V4.5H721.798V5.5ZM731.803 5.5H736.805V4.5H731.803V5.5ZM741.807 5.5H746.809V4.5H741.807V5.5ZM751.811 5.5H756.813V4.5H751.811V5.5ZM761.815 5.5H766.817V4.5H761.815V5.5ZM771.819 5.5H776.821V4.5H771.819V5.5ZM781.823 5.5H786.825V4.5H781.823V5.5ZM791.827 5.5H796.83V4.5H791.827V5.5ZM801.832 5.5H806.834V4.5H801.832V5.5ZM811.836 5.5H816.838V4.5H811.836V5.5ZM821.84 5.5H826.842V4.5H821.84V5.5ZM831.844 5.5H836.846V4.5H831.844V5.5ZM841.848 5.5H846.85V4.5H841.848V5.5ZM851.852 5.5H856.854V4.5H851.852V5.5ZM861.857 5.5H866.859V4.5H861.857V5.5ZM871.861 5.5H876.863V4.5H871.861V5.5ZM881.865 5.5H886.867V4.5H881.865V5.5ZM891.869 5.5H896.871V4.5H891.869V5.5ZM901.873 5.5H906.875V4.5H901.873V5.5ZM911.877 5.5H916.879V4.5H911.877V5.5ZM921.881 5.5H926.883V4.5H921.881V5.5ZM931.886 5.5H936.888V4.5H931.886V5.5ZM941.89 5.5H946.892V4.5H941.89V5.5ZM951.894 5.5H956.896V4.5H951.894V5.5ZM961.898 5.5H966.9V4.5H961.898V5.5ZM971.902 5.5H976.904V4.5H971.902V5.5ZM981.906 5.5H986.908V4.5H981.906V5.5ZM991.91 5.5H996.913V4.5H991.91V5.5ZM1001.91 5.5H1006.92V4.5H1001.91V5.5ZM1011.92 5.5H1016.92V4.5H1011.92V5.5ZM1021.92 5.5H1026.92V4.5H1021.92V5.5ZM1031.93 5.5H1036.93V4.5H1031.93V5.5ZM1041.93 5.5H1046.93V4.5H1041.93V5.5ZM1051.94 5.5H1056.94V4.5H1051.94V5.5ZM1061.94 5.5H1066.94V4.5H1061.94V5.5ZM1071.94 5.5H1076.95V4.5H1071.94V5.5ZM1081.95 5.5H1086.95V4.5H1081.95V5.5ZM1091.95 5.5H1096.95V4.5H1091.95V5.5ZM1101.96 5.5H1106.96V4.5H1101.96V5.5ZM1111.96 5.5H1116.96V4.5H1111.96V5.5ZM1121.96 5.5H1126.97V4.5H1121.96V5.5ZM1131.97 5.5H1136.97V4.5H1131.97V5.5ZM1141.97 5.5H1146.97V4.5H1141.97V5.5ZM1151.98 5.5H1156.98V4.5H1151.98V5.5ZM1161.98 5.5H1166.98V4.5H1161.98V5.5ZM1171.99 5.5H1176.99V4.5H1171.99V5.5ZM1181.99 5.5H1186.99V4.5H1181.99V5.5ZM1191.99 5.5H1197V4.5H1191.99V5.5ZM1202 5.5H1204.5V4.5H1202V5.5Z" fill="#234C63"></path><circle cx="5" cy="5" r="5" fill="#234C63"></circle><circle cx="1202" cy="5" r="5" fill="#234C63"></circle><circle cx="803" cy="5" r="5" fill="#234C63"></circle><circle cx="404" cy="5" r="5" fill="#234C63"></circle></svg>