<svg xmlns="http://www.w3.org/2000/svg" width="46" height="40" viewBox="0 0 46 40" fill="none"><path d="M17.888 29.0983C17.7168 29.0983 17.5442 29.0394 17.4035 28.9196L12.56 24.7953C12.3929 24.6529 12.2969 24.4449 12.2969 24.2252C12.2969 24.0059 12.3934 23.7979 12.56 23.6555L17.4035 19.5313C17.718 19.2631 18.1904 19.3011 18.4586 19.6156C18.7263 19.9306 18.6887 20.403 18.3738 20.6707L14.1998 24.2252L18.3738 27.7797C18.6887 28.0479 18.7263 28.5203 18.4586 28.8348C18.3103 29.0089 18.0998 29.0983 17.888 29.0983Z" fill="white"></path><path d="M27.4491 29.0983C27.2373 29.0983 27.0268 29.0089 26.8789 28.8348C26.6108 28.5203 26.6488 28.0479 26.9633 27.7797L31.1372 24.2252L26.9633 20.6707C26.6488 20.403 26.6108 19.9306 26.8789 19.6156C27.1467 19.3011 27.6195 19.2631 27.9336 19.5313L32.777 23.6555C32.9441 23.7979 33.0402 24.0059 33.0402 24.2252C33.0402 24.4449 32.9441 24.6529 32.777 24.7953L27.9336 28.9196C27.7928 29.0394 27.6203 29.0983 27.4491 29.0983Z" fill="white"></path><path d="M20.9538 32.1919C20.9024 32.1919 20.8506 32.1865 20.7984 32.1756C20.3941 32.0904 20.1351 31.6932 20.2203 31.2889L23.2389 16.9568C23.3241 16.5525 23.7209 16.2936 24.1257 16.3788C24.53 16.464 24.789 16.8608 24.7038 17.2655L21.6851 31.5975C21.6108 31.9501 21.3 32.1919 20.9538 32.1919Z" fill="white"></path><path d="M44.5887 11.9855H0.748491C0.334983 11.9855 0 11.6505 0 11.237C0 10.8239 0.334983 10.4885 0.748491 10.4885H44.5887C45.0022 10.4885 45.3372 10.8239 45.3372 11.237C45.3372 11.6505 45.0022 11.9855 44.5887 11.9855Z" fill="white"></path><path d="M12.7886 8.40364C11.4829 8.40364 10.4199 7.34063 10.4199 6.03495C10.4199 4.72885 11.4829 3.66626 12.7886 3.66626C14.0947 3.66626 15.1573 4.72885 15.1573 6.03495C15.1573 7.34063 14.0947 8.40364 12.7886 8.40364ZM12.7886 5.16324C12.3083 5.16324 11.9169 5.55419 11.9169 6.03495C11.9169 6.51571 12.3083 6.90666 12.7886 6.90666C13.2694 6.90666 13.6603 6.51571 13.6603 6.03495C13.6603 5.55419 13.2694 5.16324 12.7886 5.16324Z" fill="white"></path><path d="M5.51127 8.38094C4.20517 8.38094 3.14258 7.31835 3.14258 6.01225C3.14258 4.70614 4.20517 3.64355 5.51127 3.64355C6.81737 3.64355 7.87996 4.70614 7.87996 6.01225C7.87996 7.31835 6.81737 8.38094 5.51127 8.38094ZM5.51127 5.14054C5.03093 5.14054 4.63956 5.53191 4.63956 6.01225C4.63956 6.493 5.03093 6.88395 5.51127 6.88395C5.99202 6.88395 6.38298 6.493 6.38298 6.01225C6.38298 5.53191 5.99202 5.14054 5.51127 5.14054Z" fill="white"></path><path d="M20.0665 8.42642C18.7608 8.42642 17.6982 7.36383 17.6982 6.05773C17.6982 4.75204 18.7608 3.68945 20.0665 3.68945C21.3726 3.68945 22.4352 4.75204 22.4352 6.05773C22.4352 7.36383 21.3726 8.42642 20.0665 8.42642ZM20.0665 5.18602C19.5862 5.18602 19.1952 5.57697 19.1952 6.05773C19.1952 6.53848 19.5862 6.92943 20.0665 6.92943C20.5473 6.92943 20.9382 6.53848 20.9382 6.05773C20.9382 5.57697 20.5473 5.18602 20.0665 5.18602Z" fill="white"></path><path d="M40.3116 40H5.02558C2.25466 40 0 37.7458 0 34.9744V5.02558C0 2.25466 2.25466 0 5.02558 0H40.3116C43.0825 0 45.3372 2.25466 45.3372 5.02558V34.9744C45.3372 37.7458 43.0825 40 40.3116 40ZM5.02558 1.49698C3.08001 1.49698 1.49698 3.08001 1.49698 5.02558V34.9744C1.49698 36.92 3.08001 38.503 5.02558 38.503H40.3116C42.2572 38.503 43.8402 36.92 43.8402 34.9744V5.02558C43.8402 3.08001 42.2572 1.49698 40.3116 1.49698H5.02558Z" fill="white"></path></svg>