<svg xmlns="http://www.w3.org/2000/svg" width="40" height="40" viewBox="0 0 40 40" fill="none"><g clip-path="url(#clip0_22_463)"><path d="M34.7077 4.70641H32.3521V2.93914C32.352 1.31852 31.0335 0 29.4128 0H16.6663C16.3426 0 16.0803 0.262266 16.0803 0.585938C16.0803 0.909609 16.3426 1.17188 16.6663 1.17188H29.4128C30.3873 1.17188 31.1802 1.96461 31.1802 2.93914V25.8854H8.81984V2.93914C8.81984 1.96461 9.61266 1.17188 10.5872 1.17188H13.9209C14.2445 1.17188 14.5068 0.909609 14.5068 0.585938C14.5068 0.262266 14.2445 0 13.9209 0H10.5872C8.96649 0 7.64797 1.31852 7.64797 2.93914V4.70641H5.29234C2.37414 4.70641 0 7.08055 0 9.99875V26.4713C0 29.3895 2.37414 31.7637 5.29234 31.7637H14.2364L12.0273 35.2983H10.5872C9.29086 35.2983 8.23625 36.3529 8.23625 37.6491C8.23625 38.9454 9.29086 40 10.5872 40H24.5104C24.8341 40 25.0963 39.7377 25.0963 39.4141C25.0963 39.0904 24.8341 38.8281 24.5104 38.8281H10.5872C9.93711 38.8281 9.40812 38.2992 9.40812 37.6491C9.40812 36.9991 9.93711 36.4702 10.5872 36.4702H29.4129C30.063 36.4702 30.592 36.9991 30.592 37.6491C30.592 38.2992 30.063 38.8281 29.4129 38.8281H27.2559C26.9322 38.8281 26.6699 39.0904 26.6699 39.4141C26.6699 39.7377 26.9322 40 27.2559 40H29.4129C30.7092 40 31.7638 38.9454 31.7638 37.6491C31.7638 36.3529 30.7092 35.2983 29.4129 35.2983H27.9727L25.7637 31.7637H34.7077C37.6259 31.7637 40.0001 29.3895 40.0001 26.4713V9.99875C40 7.08055 37.6259 4.70641 34.7077 4.70641ZM34.7077 5.87828C36.9797 5.87828 38.8281 7.72672 38.8281 9.99875V25.8854H32.352V5.87828H34.7077ZM5.29234 5.87828H7.64789V25.8854H1.17188V9.99875C1.17188 7.72672 3.02031 5.87828 5.29234 5.87828ZM13.4093 35.2983L15.6184 31.7637H24.3816L26.5907 35.2983H13.4093ZM34.7077 30.5919C33.7484 30.5919 10.2527 30.5919 5.29234 30.5919C3.2193 30.5919 1.49961 29.0527 1.21422 27.0573H38.7857C38.5003 29.0527 36.7807 30.5919 34.7077 30.5919Z" fill="white"></path><path d="M21.6658 7.34195L18.7519 10.2559L18.3347 9.83867C17.6426 9.14414 16.5244 9.15523 15.8416 9.83797C15.1543 10.5254 15.1543 11.6438 15.8418 12.3312L17.2303 13.7191C17.9444 14.427 19.0357 14.5513 19.8789 14.0296C19.9603 13.9802 20.1297 13.8773 24.1586 9.83477C24.8475 9.14547 24.845 8.02906 24.1582 7.34203C23.4684 6.65219 22.353 6.65367 21.6658 7.34195ZM23.3296 9.00641C23.2832 9.05273 19.665 12.6818 19.2426 13.0447C18.8596 13.267 18.3753 13.2038 18.0569 12.8884L16.6703 11.5023C16.4398 11.272 16.4398 10.897 16.6703 10.6666C16.8586 10.4782 17.0959 10.4921 17.0881 10.4937C17.2462 10.4938 17.3942 10.5549 17.5054 10.6666L18.3375 11.4988C18.5741 11.7353 18.9444 11.7205 19.1662 11.4988L22.4947 8.17023C22.725 7.93969 23.0985 7.93953 23.3295 8.17063C23.56 8.40102 23.56 8.77602 23.3296 9.00641Z" fill="white"></path><path d="M20 2.94141C15.7843 2.94141 12.3545 6.37117 12.3545 10.587C12.3545 14.8028 15.7843 18.2326 20 18.2326C24.2158 18.2326 27.6456 14.8028 27.6456 10.587C27.6456 6.37125 24.2158 2.94141 20 2.94141ZM20 17.0608C16.4304 17.0608 13.5264 14.1567 13.5264 10.5871C13.5264 7.0175 16.4304 4.11328 20 4.11328C23.5696 4.11328 26.4737 7.01742 26.4737 10.587C26.4737 14.1566 23.5696 17.0608 20 17.0608Z" fill="white"></path><path d="M10.5898 22.0592C10.5898 23.1932 11.5125 24.1158 12.6465 24.1158H27.3541C28.4882 24.1158 29.4108 23.1931 29.4108 22.0592C29.4108 20.925 28.4881 20.0024 27.3541 20.0024H12.6465C11.5124 20.0024 10.5898 20.9251 10.5898 22.0592ZM28.2389 22.0592C28.2389 22.547 27.842 22.9439 27.3541 22.9439H12.6465C12.1586 22.9439 11.7617 22.547 11.7617 22.0592C11.7617 21.5713 12.1586 21.1743 12.6465 21.1743H27.3541C27.842 21.1743 28.2389 21.5713 28.2389 22.0592Z" fill="white"></path></g><defs><clipPath id="clip0_22_463"><rect width="40" height="40" fill="white"></rect></clipPath></defs></svg>