<svg xmlns="http://www.w3.org/2000/svg" width="40" height="40" viewBox="0 0 40 40" fill="none"><path d="M35.7321 7.65131H36.968C37.3991 7.65131 37.7487 7.30169 37.7487 6.87057C37.7487 6.43945 37.3991 6.08983 36.968 6.08983H34.0012C33.5701 6.08983 33.2205 6.43945 33.2205 6.87057V9.83737C33.2205 10.2685 33.5701 10.6181 34.0012 10.6181C34.4323 10.6181 34.7819 10.2685 34.7819 9.83737V8.97833C37.1509 12.1498 38.4385 15.9978 38.4385 20C38.4385 30.1671 30.1671 38.4385 20 38.4385C9.83292 38.4385 1.56148 30.1671 1.56148 20C1.56148 9.83292 9.83292 1.56148 20 1.56148C20.7519 1.56148 21.5087 1.60715 22.2495 1.69717C22.6769 1.74885 23.0667 1.44444 23.1187 1.01636C23.1708 0.588364 22.866 0.199088 22.4379 0.147091C21.6349 0.0494988 20.8147 0 20 0C14.6578 0 9.63532 2.08035 5.85787 5.85787C2.08035 9.63532 0 14.6578 0 20C0 25.3422 2.08035 30.3647 5.85787 34.1421C9.63532 37.9196 14.6578 40 20 40C25.3422 40 30.3647 37.9196 34.1421 34.1421C37.9196 30.3647 40 25.3422 40 20C40 15.4919 38.494 11.1642 35.7321 7.65131Z" fill="white"></path><path d="M8.46895 11.7902C8.10458 11.5596 7.62232 11.6681 7.39161 12.0322C5.60926 14.8473 4.82025 18.2327 5.16994 21.565C5.52479 24.9466 7.04684 28.1357 9.45572 30.5446C12.3628 33.4517 16.1815 34.9053 20.0002 34.9053C23.819 34.9053 27.6375 33.4518 30.5447 30.5446C36.3589 24.7304 36.3589 15.2699 30.5447 9.45572C28.1395 7.05058 24.9557 5.52908 21.5796 5.1715C18.2535 4.819 14.8718 5.60184 12.0579 7.37544C11.6931 7.60537 11.5839 8.08748 11.8137 8.45224C12.0436 8.81708 12.5257 8.9263 12.8905 8.69645C18.1947 5.35333 25.0001 6.11947 29.4405 10.5598C34.6459 15.7653 34.6459 24.235 29.4405 29.4404C24.2352 34.6459 15.7653 34.6459 10.5599 29.4404C6.18092 25.0614 5.40331 18.0915 8.71098 12.8676C8.94153 12.5033 8.83324 12.0209 8.46895 11.7902Z" fill="white"></path><path d="M30.1499 20.7934H31.1127C31.5438 20.7934 31.8934 20.4438 31.8934 20.0127C31.8934 19.5815 31.5438 19.2319 31.1127 19.2319H30.1499C29.7188 19.2319 29.3691 19.5815 29.3691 20.0127C29.3691 20.4438 29.7187 20.7934 30.1499 20.7934Z" fill="white"></path><path d="M8.10645 19.9873C8.10645 20.4184 8.45606 20.768 8.88718 20.768H9.84999C10.2811 20.768 10.6307 20.4184 10.6307 19.9873C10.6307 19.5562 10.2811 19.2065 9.84999 19.2065H8.88718C8.45606 19.2065 8.10645 19.5561 8.10645 19.9873Z" fill="white"></path><path d="M20.7939 9.85023V8.88743C20.7939 8.4563 20.4443 8.10669 20.0132 8.10669C19.582 8.10669 19.2324 8.4563 19.2324 8.88743V9.85023C19.2324 10.2814 19.582 10.631 20.0132 10.631C20.4443 10.631 20.7939 10.2814 20.7939 9.85023Z" fill="white"></path><path d="M19.207 30.1496V31.1124C19.207 31.5436 19.5566 31.8932 19.9878 31.8932C20.4189 31.8932 20.7685 31.5436 20.7685 31.1124V30.1496C20.7685 29.7185 20.4189 29.3689 19.9878 29.3689C19.5566 29.3689 19.207 29.7184 19.207 30.1496Z" fill="white"></path><path d="M16.0868 14.9826C15.7818 14.6778 15.2876 14.6778 14.9826 14.9826C14.6777 15.2874 14.6777 15.7818 14.9826 16.0868L17.6286 18.7328C17.4258 19.1106 17.3105 19.5421 17.3105 20.0001C17.3105 21.4832 18.517 22.6898 20.0001 22.6898C21.4832 22.6898 22.6898 21.4832 22.6898 20.0001C22.6898 19.5421 22.5744 19.1106 22.3717 18.7328L27.7106 13.3938C28.0155 13.089 28.0155 12.5946 27.7106 12.2896C27.4057 11.9848 26.9115 11.9848 26.6064 12.2896L21.2675 17.6286C20.8896 17.4258 20.4581 17.3105 20.0001 17.3105C19.5422 17.3105 19.1106 17.4259 18.7328 17.6286L16.0868 14.9826ZM21.1283 20.0001C21.1283 20.6222 20.6222 21.1283 20.0001 21.1283C19.378 21.1283 18.872 20.6222 18.872 20.0001C18.872 19.378 19.378 18.872 20.0001 18.872C20.6222 18.872 21.1283 19.378 21.1283 20.0001Z" fill="white"></path><path d="M10.5593 10.5593C10.7053 10.4141 10.7887 10.2126 10.7887 10.0073C10.7887 9.80197 10.7053 9.60132 10.5593 9.45532C10.4141 9.31018 10.2133 9.22656 10.0073 9.22656C9.80197 9.22656 9.60054 9.3101 9.45532 9.45532C9.31018 9.60054 9.22656 9.80197 9.22656 10.0073C9.22656 10.2134 9.3101 10.4141 9.45532 10.5593C9.60054 10.7044 9.80197 10.788 10.0073 10.788C10.2133 10.788 10.4141 10.7044 10.5593 10.5593Z" fill="white"></path><path d="M25.4087 2.33272C25.6149 2.33272 25.8163 2.24988 25.9614 2.10396C26.1066 1.95874 26.1903 1.75801 26.1903 1.55198C26.1903 1.34664 26.1067 1.14521 25.9614 0.999996C25.8163 0.854857 25.6149 0.77124 25.4087 0.77124C25.2033 0.77124 25.0019 0.854779 24.8568 0.999996C24.7115 1.14521 24.6279 1.34664 24.6279 1.55198C24.6279 1.75809 24.7115 1.95874 24.8568 2.10396C25.0019 2.24988 25.2033 2.33272 25.4087 2.33272Z" fill="white"></path></svg>