<svg xmlns="http://www.w3.org/2000/svg" width="190" height="54" viewBox="0 0 190 54" fill="none"><g clip-path="url(#clip0_4_47)"><path d="M50.0806 0H58.6808V54H50.0806V0ZM88.7817 36.774C88.7817 45.0382 81.865 45.697 79.8073 45.697C74.6665 45.697 73.7313 40.8629 73.7313 37.9469V17.28H65.131V37.9037C65.131 43.0229 66.7307 47.2478 69.5343 50.0645C72.0112 52.555 75.7222 53.9158 79.7428 53.9158C82.5938 53.9158 86.6316 53.0237 88.7817 51.0516V54H97.382V17.28H88.7817V36.774ZM114.582 4.32H105.982V17.28H99.532V25.92H105.982V54H114.582V25.92H121.033V17.28H114.582V4.32ZM148.117 43.0207C146.244 44.712 143.772 45.6494 141.058 45.6494C135.077 45.6494 130.684 41.2366 130.684 35.1778C130.684 29.119 134.937 24.8918 141.058 24.8918C143.724 24.8918 146.244 25.7839 148.164 27.4752L149.469 28.6027L155.268 22.7794L153.817 21.4639C150.405 18.3686 145.874 16.632 141.056 16.632C130.306 16.632 122.499 24.4253 122.499 35.1324C122.499 45.7942 130.493 53.8661 141.056 53.8661C145.965 53.8661 150.542 52.1294 153.911 48.9845L155.313 47.669L149.424 41.85L148.117 43.0207ZM185.965 20.4811C183.488 17.9928 180.585 16.632 176.564 16.632C173.714 16.632 170.484 17.5241 168.334 19.494V0H159.734V54H168.334V33.7716C168.334 25.5074 174.178 24.8508 176.236 24.8508C181.376 24.8508 181.234 29.687 181.234 32.5987V54H189.835V32.6441C189.835 27.5249 188.77 23.2999 185.965 20.4811Z" fill="#444444"></path><path d="M140.776 29.0261C142.425 29.0261 144.006 29.6843 145.172 30.8557C146.338 32.0272 146.994 33.6161 146.994 35.2728C146.994 36.9296 146.338 38.5185 145.172 39.6899C144.006 40.8614 142.425 41.5196 140.776 41.5196C139.126 41.5196 137.545 40.8614 136.379 39.6899C135.213 38.5185 134.558 36.9296 134.558 35.2728C134.558 33.6161 135.213 32.0272 136.379 30.8557C137.545 29.6843 139.126 29.0261 140.776 29.0261Z" fill="#FF3D2E"></path><path d="M38.041 40.4373C34.7707 43.8177 30.3287 45.6494 25.6544 45.6494C16.0738 45.6494 9.10755 38.0894 9.10755 27.7128C9.10755 17.2886 16.0738 9.72861 25.6544 9.72861C30.2835 9.72861 34.6761 11.5581 37.9958 14.8932L39.303 16.2086L45.0523 10.4328L43.7902 9.11733C39.0235 4.18604 32.5733 1.51196 25.6544 1.51196C11.5393 1.51196 0.928711 12.7807 0.928711 27.7581C0.928711 42.6902 11.5866 53.9136 25.6544 53.9136C32.6207 53.9136 39.0708 51.192 43.8375 46.2607L45.0996 44.9453L39.3977 39.0765L38.041 40.4373Z" fill="#444444"></path></g><defs><clipPath id="clip0_4_47"><rect width="189" height="54" fill="white" transform="translate(0.882812)"></rect></clipPath></defs></svg>