<svg xmlns="http://www.w3.org/2000/svg" width="173" height="35" viewBox="0 0 173 35" fill="none"><path d="M134.574 13.2739C132.392 13.2739 130.582 14.0397 129.29 15.4579L129.549 14.1815C129.635 13.7844 129.348 13.4441 128.946 13.4441C128.543 13.4441 128.113 13.7844 128.055 14.1815L124.265 33.6102C124.178 34.0073 124.466 34.3476 124.868 34.3476C125.27 34.3476 125.7 34.0073 125.758 33.6102L127.165 26.3776C127.682 27.3136 128.888 28.5616 131.588 28.5616C133.713 28.5616 135.464 27.9092 136.843 26.6613C138.279 25.3566 139.255 23.3995 139.743 20.8752C140.231 18.3509 140.03 16.4222 139.111 15.1175C138.221 13.8979 136.699 13.2739 134.574 13.2739ZM131.846 27.2285C128.63 27.2285 127.366 25.0446 128.17 20.9036C128.974 16.7342 131.013 14.607 134.201 14.607C137.704 14.607 138.997 16.6775 138.164 20.9036C137.331 25.2431 135.321 27.2285 131.846 27.2285ZM167.283 20.1094C165.388 19.4003 163.579 18.748 163.923 16.9895C164.096 16.1102 164.813 14.6353 167.743 14.6353C169.38 14.6353 170.413 15.0891 171.304 16.1953C171.476 16.3938 171.677 16.3938 171.734 16.3938C172.136 16.3655 172.481 16.0818 172.567 15.7131C172.596 15.5429 172.567 15.3728 172.481 15.231V15.2026C171.562 13.9263 170.069 13.2739 168.001 13.2739C165.014 13.2739 162.861 14.6921 162.43 16.9895C161.884 19.7407 164.354 20.6483 166.537 21.4708C168.403 22.1799 170.184 22.8323 169.868 24.5057C169.408 26.8882 166.881 27.2285 165.417 27.2285C163.406 27.2285 162.171 26.6896 161.253 25.4133C161.138 25.2715 160.994 25.2147 160.822 25.2147C160.42 25.2431 160.075 25.5267 159.989 25.8955C159.96 26.0656 159.989 26.2358 160.075 26.3776C160.678 27.4838 162.487 28.6183 165.158 28.6183C168.547 28.6183 170.873 27.0867 171.361 24.534C171.878 21.7828 169.437 20.8752 167.283 20.1094ZM162.746 9.41653H161.166L161.482 7.85656C161.568 7.45948 161.281 7.11912 160.879 7.11912C160.477 7.11912 160.075 7.45948 159.989 7.85656L159.673 9.41653H158.094C157.692 9.41653 157.29 9.75689 157.203 10.154C157.117 10.5511 157.404 10.8914 157.806 10.8914H159.386L159.07 12.4514C158.984 12.8485 159.271 13.1888 159.673 13.1888C160.075 13.1888 160.477 12.8485 160.563 12.4514L160.879 10.8914H162.459C162.861 10.8914 163.263 10.5511 163.349 10.154C163.435 9.84197 163.234 9.50162 162.889 9.41653C162.861 9.44489 162.803 9.41653 162.746 9.41653ZM36.7915 24.5057C37.5669 24.9028 38.9453 25.4416 40.2663 25.4133C41.4725 25.4133 42.1042 24.7609 42.1042 23.9951C42.1042 23.2293 41.6448 22.7188 40.3525 21.9814C38.7443 21.0737 37.5382 19.7974 37.5382 18.124C37.5382 15.1742 40.094 13.0754 43.8273 13.0754C45.4642 13.0754 46.7277 13.3874 47.417 13.7844L46.4406 16.7626C45.6078 16.3938 44.7175 16.1953 43.7986 16.1953C42.5924 16.1953 41.8171 16.7342 41.8171 17.5851C41.8171 18.2658 42.3627 18.748 43.454 19.3152C45.1196 20.2512 46.498 21.5276 46.498 23.3428C46.498 26.6896 43.7411 28.5899 39.9217 28.5616C38.17 28.5332 36.5331 28.0794 35.729 27.5122C35.7577 27.5122 36.7915 24.5057 36.7915 24.5057ZM47.3595 28.4481L51.4948 7.11912H55.745L54.1081 15.3728L54.1655 15.316C55.3142 13.983 56.7788 13.047 58.6742 13.047C60.8854 13.047 62.149 14.4652 62.149 16.8193C62.149 17.5567 62.0341 18.7196 61.8331 19.6556L60.1675 28.4198H55.9173L57.5255 19.9109C57.6403 19.3436 57.6978 18.5778 57.6978 18.0105C57.6978 17.1029 57.3244 16.4222 56.3768 16.4222C55.0271 16.4222 53.5625 18.2091 53.0168 20.9887L51.6097 28.4198L47.3595 28.4481ZM77.5415 18.9181C77.5415 24.1369 74.1528 28.5616 69.1273 28.5616C65.3079 28.5616 63.2689 25.9522 63.2689 22.6904C63.2689 17.6135 66.6576 13.047 71.7693 13.047C75.761 13.047 77.5415 15.9117 77.5415 18.9181ZM67.634 22.6053C67.634 24.1369 68.237 25.3566 69.7016 25.3566C71.9416 25.3566 73.2051 21.3857 73.2051 18.8047C73.2051 17.5567 72.7169 16.2804 71.1949 16.2804C68.8975 16.252 67.634 20.1945 67.634 22.6053ZM76.5363 34.376L79.4942 19.0032C79.8388 17.2731 80.1834 15.0324 80.3558 13.4441H84.1177L83.8593 15.8266H83.9167C85.0654 14.2382 86.731 13.1888 88.4253 13.1888C91.5268 13.1888 92.7904 15.6564 92.7904 18.4643C92.7904 23.5697 89.5166 28.6183 84.5198 28.6183C83.4859 28.6183 82.5096 28.4481 82.0214 28.0511H81.9352L80.7578 34.376H76.5363ZM82.5957 24.7893C83.0552 25.158 83.5721 25.3849 84.3475 25.3849C86.731 25.3849 88.3679 21.5276 88.3679 18.8047C88.3679 17.6702 87.9659 16.4789 86.6736 16.4789C85.1803 16.4789 83.8018 18.2091 83.3136 20.8468L82.5957 24.7893ZM92.934 28.4481L95.8057 13.4441H100.085L97.1841 28.4481H92.934ZM98.4477 11.8841C97.2416 11.8841 96.4375 10.863 96.4375 9.61507C96.4375 8.25365 97.5287 7.09076 98.8784 7.09076C100.171 7.09076 101.004 8.08347 101.004 9.30308C100.975 10.863 99.8261 11.8558 98.5051 11.8558C98.5051 11.8841 98.4477 11.8841 98.4477 11.8841ZM100.889 28.4481L103.129 16.5924H101.147L101.75 13.4441H103.732L103.847 12.6783C104.191 10.9198 104.852 9.10454 106.316 7.91329C107.465 6.94895 108.958 6.49514 110.48 6.49514C111.514 6.49514 112.289 6.63695 112.778 6.86385L111.945 10.154C111.514 10.0122 111.055 9.92707 110.595 9.92707C109.188 9.92707 108.326 11.2601 108.068 12.7066L107.924 13.4724H110.882L110.308 16.6207H107.379L105.139 28.4765L100.889 28.4481ZM116.195 13.4441L116.884 20.1661C117.028 21.3574 117.143 22.5203 117.258 23.7115H117.315C117.66 22.9173 117.975 21.7545 118.579 20.1378L121.163 13.4441H125.614L120.416 24.4206C118.579 28.1929 116.769 30.9441 114.845 32.731C113.323 34.1207 111.543 34.8298 110.681 35L109.504 31.4263C110.222 31.171 111.112 30.8023 111.916 30.235C112.893 29.5543 113.725 28.6467 114.242 27.7107C114.357 27.4838 114.386 27.342 114.328 27.0583L111.773 13.4157C111.715 13.4441 116.195 13.4441 116.195 13.4441ZM159.271 14.8622C158.869 14.8622 158.467 15.2026 158.381 15.5997L156.945 22.9741C156.17 26.718 153.843 27.2285 151.632 27.2285C147.698 27.2285 147.583 25.0162 148.014 22.8323L149.708 14.1815C149.794 13.7844 149.507 13.4441 149.105 13.4441C148.703 13.4441 148.301 13.7844 148.215 14.1815L146.521 22.8323C146.176 24.5908 146.291 25.8671 146.894 26.8031C147.641 27.966 149.134 28.5616 151.374 28.5616C153.614 28.5616 155.337 27.966 156.543 26.8031C157.491 25.8671 158.122 24.5624 158.467 22.8323L159.874 15.5713C159.96 15.2026 159.673 14.8622 159.271 14.8622ZM145.688 7.14748C145.286 7.14748 144.855 7.48784 144.797 7.88492L140.949 27.654C140.863 28.0511 141.15 28.3914 141.552 28.3914C141.954 28.3914 142.357 28.0511 142.443 27.654L146.291 7.88492C146.377 7.48784 146.09 7.14748 145.688 7.14748ZM21.198 4.02755L20.1642 4.33954C20.0493 3.9141 19.877 3.51702 19.676 3.11994C18.9293 1.73015 17.8668 0.992707 16.5745 0.992707C16.4884 0.992707 16.4022 0.9927 16.3161 1.02106C16.2873 0.964337 16.2299 0.935974 16.2012 0.879248C15.6268 0.283624 14.9089 0 14.0474 0C12.3531 0.0567261 10.6875 1.24797 9.33774 3.3752C8.39007 4.87844 7.64342 6.75041 7.4424 8.22528L4.1399 9.24635C3.16351 9.55834 3.1348 9.58671 3.01993 10.4943C2.93377 11.175 0.37793 30.6604 0.37793 30.6604L21.5426 34.2626V3.99918C21.3703 3.99918 21.2842 3.99918 21.198 4.02755ZM16.3161 5.53079L12.7551 6.63695C13.0997 5.33225 13.7602 4.02755 14.5643 3.17666C14.8515 2.86466 15.2822 2.49594 15.7704 2.2974C16.2299 3.26174 16.3161 4.59481 16.3161 5.53079ZM14.0187 1.13452C14.3633 1.10616 14.7366 1.21961 15.0238 1.38979C14.5356 1.64506 14.1048 1.98541 13.7315 2.38249C12.669 3.51702 11.8362 5.27552 11.5203 6.9773L8.56238 7.88492C9.16544 5.2188 11.4054 1.21961 14.0187 1.13452ZM10.7449 16.3371C10.8598 18.124 15.5981 18.4927 15.8566 22.6621C16.0576 25.9522 14.1048 28.1929 11.2618 28.363C7.84444 28.59 5.97781 26.6045 5.97781 26.6045L6.69575 23.5697C6.69575 23.5697 8.59109 24.9878 10.0844 24.8744C11.0608 24.8177 11.4341 24.0235 11.3767 23.4562C11.2331 21.1305 7.38496 21.2723 7.12651 17.4716C6.92549 14.2666 9.05057 11.0049 13.7602 10.7212C15.5694 10.6078 16.4884 11.0616 16.4884 11.0616L15.4258 15.0324C15.4258 15.0324 14.2197 14.4935 12.8125 14.5786C10.7449 14.7204 10.7162 16.0251 10.7449 16.3371ZM17.436 5.19043C17.436 4.33954 17.3212 3.17665 16.9191 2.15558C18.1827 2.38249 18.8145 3.82901 19.1016 4.6799C19.0729 4.6799 17.436 5.19043 17.436 5.19043ZM22.1457 34.2058L30.9332 32.0502C30.9332 32.0502 27.1425 6.80713 27.1425 6.63695C27.1138 6.49514 26.9989 6.38168 26.8266 6.35332C26.7117 6.35332 24.242 6.29659 24.242 6.29659C24.242 6.29659 22.7487 4.85008 22.1744 4.31118V34.2058H22.1457Z" fill="black"></path></svg>