<svg xmlns="http://www.w3.org/2000/svg" width="177" height="54" viewBox="0 0 177 54" fill="none"><g clip-path="url(#clip0_4_52)"><path d="M162.113 25.8839H155.892C151.886 25.8839 149.741 28.9379 149.741 34.0272V52.4247H137.941V25.8821H132.933C128.928 25.8821 126.784 28.936 126.784 34.0253V52.4229H114.982V16.0669H126.784V21.5936C128.716 17.3033 131.362 16.0669 135.296 16.0669H149.742V21.5936C151.674 17.3033 154.32 16.0669 158.255 16.0669H162.115L162.113 25.8839ZM112.407 37.0811H87.8046C88.448 41.1537 90.9508 43.4806 95.1699 43.4806C98.316 43.4806 100.534 42.1704 101.25 39.8454L111.691 42.8255C109.117 49.1512 102.751 53.006 95.1699 53.006C82.3676 53.006 76.5029 42.8975 76.5029 34.2468C76.5029 25.74 81.6517 15.5595 94.454 15.5595C108.043 15.5595 112.548 25.8839 112.548 33.5197C112.557 34.7085 112.51 35.897 112.407 37.0811ZM100.964 30.0284C100.677 26.9007 98.4592 23.9943 94.4558 23.9943C90.7351 23.9943 88.5204 25.6643 87.8046 30.0284H100.964ZM55.9077 52.4229H66.276L79.2214 16.0706H67.3507L61.0565 37.2269L54.6192 16.0688H42.8173L55.9077 52.4229ZM7.5604 52.4229H19.2897V25.8839H30.45V52.4247H42.1069V16.0688H19.2897V13.8157C19.2897 11.343 21.006 9.81695 23.7245 9.81695H30.4482V0H21.7944C13.2819 0 7.5604 5.3089 7.5604 13.0868V16.0688H0.90918V25.8857H7.5604V52.4229Z" fill="#444444"></path><path d="M169.408 53.5135C173.437 53.5135 176.702 50.192 176.702 46.0954C176.702 41.9989 173.437 38.6792 169.408 38.6792C165.379 38.6792 162.111 42.0007 162.111 46.0973C162.111 50.1938 165.379 53.5135 169.408 53.5135Z" fill="#1DBF73"></path></g><defs><clipPath id="clip0_4_52"><rect width="175.846" height="54" fill="white" transform="translate(0.882812)"></rect></clipPath></defs></svg>