<svg xmlns="http://www.w3.org/2000/svg" width="15" height="16" viewBox="0 0 15 16" fill="none"><g clip-path="url(#clip0_52_122)"><path d="M7.49981 0.812988C4.50436 0.812988 2.06738 3.24996 2.06738 6.24539C2.06738 9.96281 6.92888 15.4202 7.13586 15.6507C7.33027 15.8672 7.66971 15.8669 7.86377 15.6507C8.07075 15.4202 12.9322 9.96281 12.9322 6.24539C12.9322 3.24996 10.4952 0.812988 7.49981 0.812988ZM7.49981 8.97858C5.99272 8.97858 4.76665 7.75248 4.76665 6.24539C4.76665 4.7383 5.99275 3.51223 7.49981 3.51223C9.00688 3.51223 10.2329 4.73833 10.2329 6.24542C10.2329 7.75251 9.00688 8.97858 7.49981 8.97858Z" fill="#234C63"></path></g><defs><clipPath id="clip0_52_122"><rect width="15" height="15" fill="white" transform="translate(0 0.812988)"></rect></clipPath></defs></svg>