<svg xmlns="http://www.w3.org/2000/svg" width="124" height="54" viewBox="0 0 124 54" fill="none"><path d="M15.9457 0.00415039H17.0389C20.8339 0.0872005 24.5671 1.62363 27.2484 4.34352C26.2584 5.36088 25.2477 6.33672 24.2783 7.35408C22.7727 5.98376 20.9577 4.92487 18.9776 4.55114C16.0488 3.92827 12.8932 4.48885 10.4388 6.17062C7.75748 7.93543 5.94245 10.9252 5.55057 14.1227C5.11744 17.2786 6.00433 20.6006 8.04623 23.0505C10.0056 25.4382 12.9963 26.9331 16.0901 27.0369C18.9776 27.203 21.9889 26.3103 24.0927 24.2755C25.7427 22.8429 26.5059 20.6629 26.7534 18.5451C23.3296 18.5451 19.9058 18.5658 16.482 18.5451V14.268H30.8991C31.6416 18.8565 30.5691 24.0264 27.104 27.3069C24.794 29.6323 21.5971 31.0026 18.3383 31.2725C15.1826 31.5839 11.9238 30.9818 9.11875 29.4454C5.75682 27.6391 3.07554 24.587 1.75552 20.9951C0.517998 17.6938 0.497373 13.9566 1.65239 10.6346C2.70428 7.60323 4.72556 4.92487 7.32435 3.05624C9.82001 1.20838 12.8519 0.191013 15.9457 0.00415039Z" fill="#3780FF"></path><path d="M98.6514 1.08325H103.065V30.7321C101.601 30.7321 100.116 30.7529 98.6514 30.7114C98.672 20.8492 98.6514 10.9662 98.6514 1.08325Z" fill="#38B137"></path><path d="M40.7165 11.3607C43.439 10.8416 46.3884 11.423 48.6366 13.0632C50.6785 14.5166 52.1016 16.8005 52.5348 19.292C53.0916 22.178 52.3904 25.3339 50.5341 27.6177C48.5335 30.1715 45.254 31.5419 42.0571 31.3342C39.1283 31.1681 36.282 29.694 34.5495 27.2855C32.5901 24.6279 32.1157 20.9737 33.1882 17.8594C34.2608 14.5166 37.2927 11.9628 40.7165 11.3607ZM41.3352 15.3056C40.2215 15.5962 39.1902 16.2399 38.4477 17.1534C36.447 19.5619 36.5708 23.486 38.7777 25.7284C40.0358 27.0156 41.9334 27.6178 43.6865 27.2648C45.3159 26.9741 46.7391 25.8737 47.5228 24.4203C48.8841 21.9496 48.4922 18.5445 46.4091 16.6136C45.0684 15.3679 43.109 14.8488 41.3352 15.3056Z" fill="#FA3913"></path><path d="M62.5782 11.3605C65.6926 10.7584 69.0957 11.6304 71.4264 13.8313C75.2215 17.2571 75.634 23.6727 72.3958 27.6176C70.4364 30.1091 67.2601 31.4794 64.1251 31.3341C61.1344 31.251 58.185 29.7561 56.4112 27.2854C54.4105 24.5655 53.9774 20.8282 55.1118 17.6516C56.2462 14.4126 59.2162 11.9419 62.5782 11.3605ZM63.1969 15.3054C62.0831 15.5961 61.0519 16.2397 60.3094 17.1325C58.3293 19.4994 58.4118 23.3612 60.5363 25.6244C61.7944 26.9739 63.7538 27.6383 65.5688 27.2646C67.1776 26.9532 68.6214 25.8735 69.4051 24.4201C70.7458 21.9286 70.3539 18.5236 68.2501 16.5927C66.9095 15.3469 64.9501 14.8486 63.1969 15.3054Z" fill="#FCBD06"></path><path d="M81.12 12.5649C83.4919 11.07 86.6475 10.6547 89.2051 11.942C90.0095 12.295 90.6695 12.8971 91.3089 13.4992C91.3295 12.9386 91.3089 12.3573 91.3295 11.7759C92.7114 11.7967 94.0933 11.7759 95.4958 11.7967V30.1092C95.4752 32.8706 94.7739 35.7981 92.7939 37.8121C90.6282 40.0337 87.3075 40.7189 84.3169 40.2621C81.12 39.7845 78.3355 37.4384 77.098 34.4693C78.3355 33.8672 79.6349 33.3897 80.9137 32.8291C81.6356 34.5316 83.1 35.985 84.9356 36.3172C86.7713 36.6494 88.8957 36.1926 90.092 34.6562C91.3707 33.0783 91.3707 30.919 91.3089 28.988C90.3601 29.9224 89.2669 30.7529 87.9469 31.0643C85.08 31.874 81.9243 30.8774 79.7174 28.9258C77.4899 26.9741 76.1699 23.9635 76.2936 20.9737C76.3555 17.5894 78.253 14.3297 81.12 12.5649ZM85.3894 15.2225C84.1313 15.4301 82.9556 16.136 82.1512 17.1119C80.2124 19.4373 80.2124 23.1538 82.1719 25.4377C83.2856 26.7872 85.08 27.5347 86.8125 27.3478C88.4419 27.1817 89.9476 26.1436 90.752 24.711C92.1132 22.2818 91.8864 18.9805 90.0507 16.8627C88.9163 15.5547 87.1013 14.9111 85.3894 15.2225Z" fill="#3780FF"></path><path d="M108.367 13.6238C110.842 11.2984 114.658 10.5094 117.834 11.7344C120.845 12.8764 122.763 15.7623 123.733 18.7314C119.257 20.6 114.802 22.4479 110.326 24.3165C110.945 25.5 111.894 26.5796 113.173 27.0156C114.967 27.6593 117.112 27.4309 118.618 26.2267C119.216 25.7699 119.69 25.1678 120.144 24.5864C121.278 25.3546 122.413 26.1021 123.547 26.8703C121.938 29.2995 119.236 31.002 116.328 31.272C113.111 31.6664 109.687 30.4207 107.604 27.8877C104.18 23.9013 104.51 17.2157 108.367 13.6238ZM110.574 17.4649C109.873 18.4822 109.584 19.728 109.604 20.953C112.595 19.7072 115.586 18.4615 118.576 17.195C118.081 16.0323 116.885 15.3263 115.668 15.1395C113.709 14.7865 111.667 15.8454 110.574 17.4649Z" fill="#FA3913"></path><path d="M25.788 43.987C25.6817 43.6581 25.3899 43.4245 25.0448 43.3934L20.3563 42.9677L18.5024 38.6284C18.3657 38.3103 18.0544 38.1045 17.7085 38.1045C17.3626 38.1045 17.0512 38.3103 16.9145 38.6291L15.0606 42.9677L10.3714 43.3934C10.0269 43.4252 9.73589 43.6581 9.62893 43.987C9.52198 44.316 9.62075 44.6767 9.88139 44.9041L13.4253 48.0122L12.3803 52.6155C12.3038 52.9539 12.4352 53.3038 12.716 53.5068C12.867 53.6159 13.0436 53.6714 13.2217 53.6714C13.3752 53.6714 13.5275 53.63 13.6642 53.5482L17.7085 51.1311L21.7512 53.5482C22.047 53.7262 22.4199 53.7099 22.7002 53.5068C22.9811 53.3032 23.1124 52.9532 23.0359 52.6155L21.9909 48.0122L25.5348 44.9048C25.7954 44.6767 25.8949 44.3166 25.788 43.987Z" fill="#FFC107"></path><path d="M45.5434 43.987C45.437 43.6581 45.1453 43.4245 44.8001 43.3934L40.1117 42.9677L38.2578 38.6284C38.1211 38.3103 37.8097 38.1045 37.4638 38.1045C37.1179 38.1045 36.8066 38.3103 36.6699 38.6291L34.816 42.9677L30.1268 43.3934C29.7823 43.4252 29.4913 43.6581 29.3843 43.987C29.2773 44.316 29.3761 44.6767 29.6368 44.9041L33.1807 48.0122L32.1356 52.6155C32.0592 52.9539 32.1905 53.3038 32.4714 53.5068C32.6223 53.6159 32.7989 53.6714 32.977 53.6714C33.1306 53.6714 33.2829 53.63 33.4196 53.5482L37.4638 51.1311L41.5066 53.5482C41.8024 53.7262 42.1753 53.7099 42.4555 53.5068C42.7365 53.3032 42.8677 52.9532 42.7913 52.6155L41.7463 48.0122L45.2902 44.9048C45.5508 44.6767 45.6503 44.3166 45.5434 43.987Z" fill="#FFC107"></path><path d="M65.2992 43.987C65.1929 43.6581 64.9011 43.4245 64.556 43.3934L59.8675 42.9677L58.0136 38.6284C57.8769 38.3103 57.5656 38.1045 57.2197 38.1045C56.8738 38.1045 56.5625 38.3103 56.4258 38.6291L54.5718 42.9677L49.8827 43.3934C49.5381 43.4252 49.2471 43.6581 49.1402 43.987C49.0332 44.316 49.132 44.6767 49.3926 44.9041L52.9365 48.0122L51.8915 52.6155C51.815 52.9539 51.9464 53.3038 52.2272 53.5068C52.3782 53.6159 52.5548 53.6714 52.7329 53.6714C52.8865 53.6714 53.0388 53.63 53.1755 53.5482L57.2197 51.1311L61.2624 53.5482C61.5583 53.7262 61.9312 53.7099 62.2114 53.5068C62.4924 53.3032 62.6236 52.9532 62.5471 52.6155L61.5021 48.0122L65.046 44.9048C65.3067 44.6767 65.4062 44.3166 65.2992 43.987Z" fill="#FFC107"></path><path d="M85.058 43.987C84.9517 43.6581 84.6599 43.4245 84.3148 43.3934L79.6263 42.9677L77.7724 38.6284C77.6357 38.3103 77.3244 38.1045 76.9785 38.1045C76.6326 38.1045 76.3213 38.3103 76.1846 38.6291L74.3306 42.9677L69.6414 43.3934C69.2969 43.4252 69.0059 43.6581 68.899 43.987C68.792 44.316 68.8908 44.6767 69.1514 44.9041L72.6953 48.0122L71.6503 52.6155C71.5738 52.9539 71.7052 53.3038 71.986 53.5068C72.137 53.6159 72.3136 53.6714 72.4917 53.6714C72.6452 53.6714 72.7976 53.63 72.9343 53.5482L76.9785 51.1311L81.0212 53.5482C81.317 53.7262 81.69 53.7099 81.9702 53.5068C82.2511 53.3032 82.3824 52.9532 82.3059 52.6155L81.2609 48.0122L84.8048 44.9048C85.0654 44.6767 85.165 44.3166 85.058 43.987Z" fill="#FFC107"></path><path d="M104.814 43.987C104.708 43.6581 104.416 43.4245 104.071 43.3934L99.3822 42.9677L97.5283 38.6284C97.3916 38.3103 97.0802 38.1045 96.7343 38.1045C96.3884 38.1045 96.0771 38.3103 95.9404 38.6291L94.0865 42.9677L89.3973 43.3934C89.0528 43.4252 88.7618 43.6581 88.6548 43.987C88.5479 44.316 88.6466 44.6767 88.9073 44.9041L92.4512 48.0122L91.4062 52.6155C91.3297 52.9539 91.4611 53.3038 91.7419 53.5068C91.8928 53.6159 92.0695 53.6714 92.2475 53.6714C92.4011 53.6714 92.5534 53.63 92.6901 53.5482L96.7343 51.1311L100.777 53.5482C101.073 53.7262 101.446 53.7099 101.726 53.5068C102.007 53.3032 102.138 52.9532 102.062 52.6155L101.017 48.0122L104.561 44.9048C104.821 44.6767 104.921 44.3166 104.814 43.987Z" fill="#FFC107"></path></svg>