<svg width="107" height="24" viewBox="0 0 107 24" fill="none" xmlns="http://www.w3.org/2000/svg">
<path d="M27.757 4.86572C23.0852 4.86572 19.7046 8.32519 19.7046 12.4647V12.514C19.7046 16.6535 23.0556 20.0637 27.7077 20.0637C32.3794 20.0637 35.7699 16.6042 35.7699 12.4647V12.4056C35.7601 8.27591 32.3991 4.86572 27.757 4.86572ZM30.7926 12.514C30.7926 14.2585 29.6099 15.7369 27.757 15.7369C25.9533 15.7369 24.672 14.2289 24.672 12.4647V12.4056C24.672 10.6611 25.8547 9.18266 27.7077 9.18266C29.5113 9.18266 30.7926 10.6906 30.7926 12.4549V12.514Z" fill="#234C63"/>
<path d="M47.4099 4.86572H37.9087V8.82785V24.0061H43.0141V17.9348C43.9504 19.0387 45.2416 20.0342 47.4493 20.0342C50.8891 20.0342 53.8656 17.1562 53.8656 12.4352V12.3859C53.8557 7.73383 50.8792 4.86572 47.4099 4.86572ZM48.839 12.4647C48.839 14.4261 47.5282 15.7665 45.8625 15.7665C44.2264 15.7665 42.9057 14.3965 42.9057 12.4647V12.4056C42.9057 10.5034 44.2165 9.13338 45.8625 9.13338C47.5282 9.13338 48.839 10.5034 48.839 12.4056V12.4647Z" fill="#234C63"/>
<path d="M61.3769 0.114746H56.0547V3.8699H61.3769V0.114746Z" fill="#379956"/>
<path d="M61.2685 5.18115H56.1631V19.7089H61.2685V5.18115Z" fill="#234C63"/>
<path d="M71.0154 4.98398H70.9759C70.8182 4.97412 70.6606 4.97412 70.493 4.97412C70.3156 4.97412 70.1382 4.97412 69.9608 4.98398H64.609V8.89683H65.427H69.6651C71.6264 8.89683 72.5628 9.7543 72.5628 11.2623V11.5087C71.7349 11.213 70.4142 10.9469 69.0737 10.9469C65.6635 10.9469 63.377 12.5041 63.377 15.5102V15.5595C63.377 18.4572 65.496 20.044 68.2655 20.044C70.1678 20.044 71.5377 19.3146 72.5332 18.2206V19.7286H77.5795V11.3805C77.5795 9.34034 77.1261 7.83237 76.0222 6.75807C74.9578 5.6739 73.3512 5.06283 71.0154 4.98398ZM72.6219 14.4556C72.6219 15.9045 71.5772 16.8408 70.0988 16.8408C69.054 16.8408 68.2951 16.2494 68.2951 15.254V15.1948C68.2951 14.1205 69.1526 13.3912 70.631 13.3912C71.38 13.3912 72.1094 13.5489 72.6219 13.7657V14.4556Z" fill="#234C63"/>
<path d="M89.762 4.86572H89.6634H89.6536H89.6437H80.2017V7.63526V19.7188H85.3071V11.8536C85.3071 10.2668 86.2138 9.40935 87.4557 9.40935C88.668 9.40935 89.4959 10.2668 89.4959 11.8536V19.7188H94.6013V10.2077C94.5915 6.94535 92.7878 4.915 89.762 4.86572Z" fill="#234C63"/>
<path d="M106.597 9.29164V5.18167H103.216V1.50537H98.111V5.18167H96.3862V9.29164H98.111V15.1954C98.111 18.6549 99.9344 20.0051 103 20.0051C104.419 20.0051 105.631 19.6799 106.538 19.1674V15.1658C105.917 15.4615 105.276 15.6488 104.606 15.6488C103.67 15.6488 103.207 15.2151 103.207 14.1999V9.28178L106.597 9.29164Z" fill="#234C63"/>
<path d="M5.36374 12.573H0.149902V19.7186H5.36374V12.573Z" fill="#379956"/>
<path d="M17.26 12.5735V19.7191H12.0461V12.5735H5.36374L0.149902 7.95102V0.913818H5.36374V7.95102H12.0658L17.26 12.5735Z" fill="#234C63"/>
<path d="M17.2607 0.913818H12.0469V7.95102H17.2607V0.913818Z" fill="#379956"/>
</svg>
