<svg xmlns="http://www.w3.org/2000/svg" width="190" height="50" viewBox="0 0 190 50" fill="none"><path d="M49.1421 8.45703C40.8262 8.45703 34.8086 14.615 34.8086 21.9835V22.0712C34.8086 29.4398 40.7736 35.51 49.0544 35.51C57.3703 35.51 63.4054 29.352 63.4054 21.9835V21.8783C63.3879 14.5273 57.4054 8.45703 49.1421 8.45703ZM54.5457 22.0712C54.5457 25.1765 52.4404 27.8082 49.1421 27.8082C45.9315 27.8082 43.6508 25.1239 43.6508 21.9835V21.8783C43.6508 18.773 45.7561 16.1413 49.0544 16.1413C52.265 16.1413 54.5457 18.8256 54.5457 21.966V22.0712Z" fill="#234C63"></path><path d="M84.1249 8.45703H67.2124V15.5098V42.5277H76.3002V31.7205C77.9669 33.6854 80.2652 35.4574 84.1951 35.4574C90.318 35.4574 95.6163 30.3345 95.6163 21.9309V21.8432C95.5987 13.5624 90.3004 8.45703 84.1249 8.45703ZM86.6688 21.9835C86.6688 25.4748 84.3354 27.8608 81.3705 27.8608C78.4582 27.8608 76.1073 25.4222 76.1073 21.9835V21.8783C76.1073 18.4923 78.4406 16.0536 81.3705 16.0536C84.3354 16.0536 86.6688 18.4923 86.6688 21.8783V21.9835Z" fill="#234C63"></path><path d="M108.987 0H99.5132V6.6843H108.987V0Z" fill="#379956"></path><path d="M108.793 9.01855H99.7056V34.8785H108.793V9.01855Z" fill="#234C63"></path><path d="M126.144 8.66745H126.073C125.793 8.64991 125.512 8.6499 125.214 8.6499C124.898 8.6499 124.582 8.64991 124.266 8.66745H114.74V15.6325H116.196H123.74C127.231 15.6325 128.898 17.1588 128.898 19.843V20.2816C127.424 19.7553 125.073 19.2816 122.687 19.2816C116.617 19.2816 112.547 22.0536 112.547 27.4045V27.4923C112.547 32.6502 116.319 35.4748 121.249 35.4748C124.635 35.4748 127.073 34.1766 128.845 32.2292V34.9134H137.828V20.0536C137.828 16.4219 137.021 13.7377 135.056 11.8254C133.161 9.89554 130.301 8.80781 126.144 8.66745ZM129.003 25.5273C129.003 28.1063 127.144 29.773 124.512 29.773C122.652 29.773 121.301 28.7203 121.301 26.9484V26.8431C121.301 24.9308 122.828 23.6326 125.459 23.6326C126.793 23.6326 128.091 23.9133 129.003 24.2992V25.5273Z" fill="#234C63"></path><path d="M159.513 8.45703H159.337H159.32H159.302H142.495V13.3869V34.896H151.583V20.8958C151.583 18.0712 153.197 16.5449 155.408 16.5449C157.565 16.5449 159.039 18.0712 159.039 20.8958V34.896H168.127V17.9659C168.109 12.1588 164.899 8.54475 159.513 8.45703Z" fill="#234C63"></path><path d="M189.479 16.3349V9.01904H183.462V2.4751H174.374V9.01904H171.304V16.3349H174.374V26.8438C174.374 33.0018 177.62 35.4053 183.076 35.4053C185.602 35.4053 187.76 34.8264 189.374 33.9141V26.7912C188.269 27.3175 187.128 27.6509 185.935 27.6509C184.269 27.6509 183.444 26.8789 183.444 25.0719V16.3174L189.479 16.3349Z" fill="#234C63"></path><path d="M9.28082 22.1758H0V34.8952H9.28082V22.1758Z" fill="#379956"></path><path d="M30.4565 22.1765V34.896H21.1757V22.1765H9.28082L0 13.9483V1.42188H9.28082V13.9483H21.2108L30.4565 22.1765Z" fill="#234C63"></path><path d="M30.4581 1.42188H21.1772V13.9484H30.4581V1.42188Z" fill="#379956"></path><path d="M185.019 43.6752C185.491 43.6752 185.896 43.7821 186.235 43.9959C186.575 44.2096 186.822 44.5008 186.976 44.8694V41.7402H188.867V49.9224H186.976V48.8056C186.822 49.1742 186.575 49.4654 186.235 49.6791C185.896 49.8929 185.491 49.9998 185.019 49.9998C184.511 49.9998 184.054 49.8745 183.648 49.6239C183.25 49.3659 182.933 48.9973 182.697 48.5182C182.469 48.039 182.354 47.4788 182.354 46.8375C182.354 46.1888 182.469 45.6286 182.697 45.1568C182.933 44.6777 183.25 44.3128 183.648 44.0622C184.054 43.8042 184.511 43.6752 185.019 43.6752ZM185.627 45.3338C185.222 45.3338 184.894 45.4664 184.643 45.7318C184.4 45.9972 184.278 46.3657 184.278 46.8375C184.278 47.3093 184.4 47.6778 184.643 47.9432C184.894 48.2086 185.222 48.3413 185.627 48.3413C186.025 48.3413 186.35 48.2049 186.6 47.9321C186.858 47.6594 186.987 47.2945 186.987 46.8375C186.987 46.3731 186.858 46.0082 186.6 45.7429C186.35 45.4701 186.025 45.3338 185.627 45.3338Z" fill="#234C63"></path><path d="M181.358 46.6717C181.358 46.8265 181.339 46.9961 181.302 47.1804H177.023C177.045 47.6447 177.163 47.9801 177.377 48.1865C177.591 48.3856 177.864 48.4851 178.195 48.4851C178.475 48.4851 178.708 48.4151 178.892 48.275C179.076 48.1349 179.198 47.9543 179.257 47.7332H181.258C181.177 48.1681 181 48.5588 180.727 48.9052C180.455 49.2443 180.108 49.5134 179.688 49.7124C179.268 49.9041 178.8 49.9999 178.284 49.9999C177.679 49.9999 177.141 49.8746 176.669 49.6239C176.205 49.366 175.84 48.9974 175.575 48.5183C175.309 48.0391 175.177 47.4789 175.177 46.8376C175.177 46.1889 175.306 45.6287 175.564 45.1569C175.829 44.6778 176.198 44.3129 176.669 44.0623C177.141 43.8043 177.679 43.6753 178.284 43.6753C178.896 43.6753 179.434 43.8006 179.898 44.0512C180.362 44.3019 180.72 44.6557 180.971 45.1127C181.229 45.5624 181.358 46.082 181.358 46.6717ZM179.445 46.3843C179.452 45.9788 179.342 45.6766 179.113 45.4776C178.892 45.2712 178.615 45.168 178.284 45.168C177.937 45.168 177.65 45.2712 177.421 45.4776C177.193 45.684 177.064 45.9862 177.034 46.3843H179.445Z" fill="#234C63"></path><path d="M174.103 48.2975V49.9229H173.252C172.529 49.9229 171.966 49.746 171.56 49.3921C171.162 49.031 170.963 48.4376 170.963 47.612V45.3453H170.134V43.7531H170.963V42.2383H172.854V43.7531H174.092V45.3453H172.854V47.6451C172.854 47.8884 172.902 48.0579 172.998 48.1538C173.101 48.2496 173.27 48.2975 173.506 48.2975H174.103Z" fill="#234C63"></path><path d="M166.904 42.0176C166.904 41.7301 167.007 41.4942 167.213 41.3099C167.42 41.1183 167.693 41.0225 168.032 41.0225C168.371 41.0225 168.643 41.1183 168.85 41.3099C169.056 41.4942 169.159 41.7301 169.159 42.0176C169.159 42.2977 169.056 42.5336 168.85 42.7252C168.643 42.9095 168.371 43.0017 168.032 43.0017C167.693 43.0017 167.42 42.9095 167.213 42.7252C167.007 42.5336 166.904 42.2977 166.904 42.0176ZM168.971 43.7535V49.9233H167.081V43.7535H168.971Z" fill="#234C63"></path><path d="M163.049 43.6875C163.808 43.6875 164.405 43.9234 164.84 44.3951C165.275 44.8595 165.492 45.5082 165.492 46.3412V49.9236H163.613V46.5623C163.613 46.1716 163.506 45.8694 163.292 45.6556C163.086 45.4345 162.802 45.3239 162.441 45.3239C162.065 45.3239 161.766 45.4419 161.545 45.6778C161.331 45.9063 161.224 46.2306 161.224 46.6508V49.9236H159.334V46.5623C159.334 46.1716 159.231 45.8694 159.024 45.6556C158.818 45.4345 158.534 45.3239 158.173 45.3239C157.797 45.3239 157.498 45.4382 157.277 45.6667C157.056 45.8952 156.945 46.2232 156.945 46.6508V49.9236H155.055V43.7538H156.945V44.8043C157.108 44.4578 157.355 44.1851 157.686 43.986C158.025 43.787 158.42 43.6875 158.869 43.6875C159.341 43.6875 159.758 43.7981 160.119 44.0192C160.48 44.233 160.753 44.5426 160.937 44.948C161.151 44.5647 161.442 44.2588 161.811 44.0303C162.186 43.8018 162.599 43.6875 163.049 43.6875Z" fill="#234C63"></path><path d="M151.35 42.0176C151.35 41.7301 151.453 41.4942 151.66 41.3099C151.866 41.1183 152.139 41.0225 152.478 41.0225C152.817 41.0225 153.09 41.1183 153.296 41.3099C153.503 41.4942 153.606 41.7301 153.606 42.0176C153.606 42.2977 153.503 42.5336 153.296 42.7252C153.09 42.9095 152.817 43.0017 152.478 43.0017C152.139 43.0017 151.866 42.9095 151.66 42.7252C151.453 42.5336 151.35 42.2977 151.35 42.0176ZM153.418 43.7535V49.9233H151.527V43.7535H153.418Z" fill="#234C63"></path><path d="M147.806 48.4733H150.327V49.9218H145.916V42.1045H147.806V48.4733Z" fill="#234C63"></path><path d="M142.052 46.6717C142.052 46.8265 142.034 46.9961 141.997 47.1804H137.718C137.74 47.6447 137.858 47.9801 138.071 48.1865C138.285 48.3856 138.558 48.4851 138.89 48.4851C139.17 48.4851 139.402 48.4151 139.586 48.275C139.771 48.1349 139.892 47.9543 139.951 47.7332H141.952C141.871 48.1681 141.694 48.5588 141.422 48.9052C141.149 49.2443 140.803 49.5134 140.382 49.7124C139.962 49.9041 139.494 49.9999 138.978 49.9999C138.374 49.9999 137.836 49.8746 137.364 49.6239C136.899 49.366 136.535 48.9974 136.269 48.5183C136.004 48.0391 135.871 47.4789 135.871 46.8376C135.871 46.1889 136 45.6287 136.258 45.1569C136.523 44.6778 136.892 44.3129 137.364 44.0623C137.836 43.8043 138.374 43.6753 138.978 43.6753C139.59 43.6753 140.128 43.8006 140.592 44.0512C141.057 44.3019 141.414 44.6557 141.665 45.1127C141.923 45.5624 142.052 46.082 142.052 46.6717ZM140.139 46.3843C140.146 45.9788 140.036 45.6766 139.807 45.4776C139.586 45.2712 139.31 45.168 138.978 45.168C138.632 45.168 138.344 45.2712 138.116 45.4776C137.887 45.684 137.758 45.9862 137.729 46.3843H140.139Z" fill="#234C63"></path><path d="M134.799 48.2975V49.9229H133.947C133.225 49.9229 132.661 49.746 132.255 49.3921C131.857 49.031 131.658 48.4376 131.658 47.612V45.3453H130.829V43.7531H131.658V42.2383H133.549V43.7531H134.788V45.3453H133.549V47.6451C133.549 47.8884 133.597 48.0579 133.693 48.1538C133.796 48.2496 133.966 48.2975 134.201 48.2975H134.799Z" fill="#234C63"></path><path d="M125.823 43.6753C126.295 43.6753 126.7 43.7822 127.039 43.9959C127.378 44.2097 127.629 44.5009 127.791 44.8694V43.7527H129.671V49.9225H127.791V48.8057C127.629 49.1743 127.378 49.4655 127.039 49.6792C126.7 49.893 126.295 49.9999 125.823 49.9999C125.314 49.9999 124.857 49.8746 124.452 49.6239C124.054 49.366 123.737 48.9974 123.501 48.5183C123.272 48.0391 123.158 47.4789 123.158 46.8376C123.158 46.1889 123.272 45.6287 123.501 45.1569C123.737 44.6778 124.054 44.3129 124.452 44.0623C124.857 43.8043 125.314 43.6753 125.823 43.6753ZM126.431 45.3338C126.026 45.3338 125.698 45.4665 125.447 45.7319C125.204 45.9973 125.082 46.3658 125.082 46.8376C125.082 47.3094 125.204 47.6779 125.447 47.9433C125.698 48.2087 126.026 48.3413 126.431 48.3413C126.829 48.3413 127.153 48.205 127.404 47.9322C127.662 47.6595 127.791 47.2946 127.791 46.8376C127.791 46.3732 127.662 46.0083 127.404 45.7429C127.153 45.4702 126.829 45.3338 126.431 45.3338Z" fill="#234C63"></path><path d="M119.014 48.0762L120.352 43.7529H122.364L120.175 49.9227H117.831L115.642 43.7529H117.654L119.014 48.0762Z" fill="#234C63"></path><path d="M112.457 42.0176C112.457 41.7301 112.56 41.4942 112.766 41.3099C112.973 41.1183 113.245 41.0225 113.584 41.0225C113.923 41.0225 114.196 41.1183 114.403 41.3099C114.609 41.4942 114.712 41.7301 114.712 42.0176C114.712 42.2977 114.609 42.5336 114.403 42.7252C114.196 42.9095 113.923 43.0017 113.584 43.0017C113.245 43.0017 112.973 42.9095 112.766 42.7252C112.56 42.5336 112.457 42.2977 112.457 42.0176ZM114.524 43.7535V49.9233H112.633V43.7535H114.524Z" fill="#234C63"></path><path d="M109.387 44.9148C109.623 44.5389 109.925 44.2403 110.294 44.0192C110.669 43.7981 111.075 43.6875 111.51 43.6875V45.7109H110.968C110.467 45.7109 110.076 45.8178 109.796 46.0316C109.523 46.2453 109.387 46.6065 109.387 47.1152V49.9236H107.496V43.7538H109.387V44.9148Z" fill="#234C63"></path><path d="M102.21 47.1796V49.9218H100.319V42.1045H103.382C104.31 42.1045 105.018 42.3367 105.505 42.8011C105.991 43.2581 106.234 43.8773 106.234 44.6587C106.234 45.1452 106.124 45.5801 105.903 45.9634C105.689 46.3393 105.368 46.6379 104.941 46.859C104.513 47.0728 103.993 47.1796 103.382 47.1796H102.21ZM103.172 45.6648C103.931 45.6648 104.31 45.3294 104.31 44.6587C104.31 43.9731 103.931 43.6304 103.172 43.6304H102.21V45.6648H103.172Z" fill="#234C63"></path></svg>