<svg xmlns="http://www.w3.org/2000/svg" width="100" height="100" viewBox="0 0 100 100" fill="none"><rect width="100" height="100" rx="10" fill="#EEEEEE"></rect><g clip-path="url(#clip0_1_2)"><path d="M55.4434 62.672C55.4136 60.0515 54.3137 58.1308 53.0779 56.2851C50.5266 52.4744 50.4976 48.2836 51.6943 43.9055C51.8098 43.4839 51.934 43.0652 52.0402 42.6406C52.1677 42.1314 52.3462 42.1021 52.6885 42.4515C54.2442 44.0383 55.4168 45.8865 55.7582 48.3307C55.7685 48.4057 55.8011 48.4757 55.8404 48.61C56.1545 48.4227 56.2582 48.0746 56.3936 47.7727C57.954 44.2939 58.1707 40.6328 57.5222 36.8352C56.9231 33.3269 55.7829 29.9937 55.1098 26.5121C54.6637 24.2035 54.4813 21.8834 55.0838 19.5653C55.1482 19.3197 55.1679 19.0511 55.3327 18.85C55.5423 18.8398 55.5237 19.0464 55.5376 19.1752C55.8033 21.6331 56.8938 23.6698 57.9838 25.7068C58.9406 27.4955 59.9699 29.2294 60.8016 31.1106C62.5099 34.9745 63.3212 39.0745 63.1156 43.4028C62.8039 49.9678 60.7641 55.7534 57.0957 60.7505C56.6238 61.3915 56.2189 62.1217 55.4434 62.672Z" fill="#AA4927"></path><path d="M44.868 18.7597C45.1783 19.7171 45.3793 20.6559 45.4416 21.6498C45.6029 24.2187 45.1049 26.6679 44.5075 29.104C43.8208 31.9051 42.9748 34.6531 42.5686 37.5444C42.0549 41.2015 42.3729 44.7018 43.8934 48.0005C43.9936 48.2178 44.029 48.5064 44.3285 48.6122C44.5131 47.9205 44.6933 47.2352 44.8785 46.552C45.3506 44.8156 46.4129 43.5906 47.5255 42.4084C47.8577 42.0555 48.0289 42.2404 48.1508 42.6378C48.6488 44.2601 48.9812 45.925 49.1964 47.6324C49.6685 51.3802 48.3905 54.4459 46.5024 57.2847C45.5501 58.7164 44.9107 60.2915 44.7712 62.1152C44.7626 62.2277 44.7824 62.3783 44.7122 62.4541C44.6865 62.4787 44.6553 62.4943 44.6223 62.4988C44.4272 62.5351 44.2064 62.284 44.1766 62.2487C42.6879 60.5206 41.945 59.0663 41.945 59.0663C41.1232 57.457 41.1221 57.7671 40.4337 56.3926C37.9672 51.4658 36.8381 46.1563 37.1239 40.465C37.3385 36.1826 38.6098 32.2954 40.5644 28.6914C41.6015 26.7792 42.7241 24.9292 43.6134 22.9097C44.1382 21.7185 44.5476 20.4921 44.6332 19.1423C44.6414 19.0186 44.6358 18.8775 44.868 18.7597Z" fill="#AA4927"></path><path d="M55.4434 62.6719C55.6541 62.6294 55.9938 62.5589 56.409 62.4623C56.409 62.4623 58.022 62.0872 59.3221 61.6478C63.966 60.0757 66.5319 56.9578 66.5319 56.9578C69.1193 53.7596 71.3213 47.8062 71.5337 46.5882C71.5567 46.4562 71.6354 45.933 71.9957 45.5736C72.1985 45.3715 72.4697 45.2607 72.8444 45.2097C75.4219 44.8524 78.0329 45.0131 80.5638 45.6849C81.1197 45.8317 81.2309 46.0978 81.0646 46.7145C80.0859 50.3438 78.6023 53.6206 76.3143 56.3813C74.3346 58.7705 72.1657 60.5119 69.8212 61.6568C65.9695 63.5375 62.4292 63.3194 59.4427 63.1636C58.1024 63.0932 56.7669 62.929 55.4434 62.6719Z" fill="#AA4927"></path><path d="M44.7122 62.4541C43.0138 62.9565 41.2744 63.2471 39.5232 63.3209C37.4633 63.4072 33.9247 63.5115 29.9497 61.4432C27.6365 60.2396 25.518 58.4619 23.6095 56.081C21.408 53.335 19.977 50.0468 19.0569 46.45C18.9369 45.9818 19.0981 45.837 19.4307 45.7432C21.7281 45.0962 24.052 44.9679 26.4124 45.06C27.918 45.1187 28.5032 45.8177 28.9244 47.5359C29.4428 49.6491 30.6973 52.3917 31.8517 54.676C34.5944 60.103 40.6708 61.6753 41.954 62.0075C42.8617 62.2419 43.784 62.3913 44.7122 62.4541Z" fill="#AA4927"></path><path d="M44.527 62.4891C43.4113 62.3187 42.3139 62.0133 41.2526 61.578C36.3404 59.5605 33.6627 55.3124 32.781 53.8884C30.9713 50.9651 29.8079 47.4675 29.319 43.3738C28.9768 40.506 29.2332 37.6649 29.7467 34.8456C29.8632 34.2069 30.1057 34.0413 30.6374 34.2357C32.4791 34.9087 34.2305 35.8055 35.8836 36.9692C35.9394 37.0084 36.0913 37.108 36.1774 37.311C36.2606 37.5086 36.2469 37.7187 36.2179 37.874C36.029 39.2821 35.9278 40.7044 35.9152 42.1296C35.8529 49.471 38.1755 54.8473 39.502 56.9968C39.7595 57.4155 40.0704 57.8694 40.0704 57.8694C41.0427 59.3098 42.1729 60.5954 43.4322 61.693C43.8685 62.0387 44.2489 62.3045 44.527 62.4891Z" fill="#AA4927"></path><path d="M50.088 68.0241C49.6944 66.7179 48.8065 66.0404 47.9534 65.3231C47.5916 65.0193 47.2453 64.6916 46.8822 64.3885C46.0818 63.7188 45.8625 62.7949 45.9868 61.7053C46.1185 60.5496 46.4588 59.4832 46.988 58.4996C47.2607 57.9924 47.5422 57.4885 47.8542 57.0141C48.9524 55.3444 49.8713 53.5833 50.0345 51.2449C50.3219 51.7661 50.2528 52.2003 50.3292 52.5867C50.6435 54.177 51.3924 55.4965 52.2063 56.7792C52.7642 57.6598 53.2822 58.5681 53.6899 59.5613C54.0546 60.4506 54.2021 61.3919 54.239 62.3588C54.2782 63.3862 53.7025 64.0284 53.0989 64.6299C52.8792 64.8489 52.6309 65.03 52.3921 65.2218C51.4739 65.9611 50.5255 66.6644 50.088 68.0241Z" fill="#AA4927"></path><path d="M62.8974 64.6502C62.7336 65.7238 62.2028 66.4843 61.4477 67.049C60.2654 67.9331 58.9202 68.1947 57.5628 68.3938C56.8092 68.5043 56.0541 68.6116 55.297 68.6799C53.3395 68.8565 51.7662 69.8871 50.4761 71.5685C50.2813 71.8223 50.0882 72.1544 49.7815 71.7455C47.8579 69.1823 45.3076 68.5301 42.5398 68.383C41.0837 68.3058 39.6601 67.8861 38.4832 66.7574C37.7965 66.0992 37.3388 65.2756 37.1026 64.1112C38.804 66.2325 40.965 66.5444 43.1269 66.8225C44.4143 66.988 45.7078 67.0886 46.998 67.2274C47.5345 67.2854 48.6271 67.482 49.6792 68.3655C49.8231 68.4865 49.9614 68.6164 50.0933 68.7547C50.1468 68.6886 50.2326 68.5866 50.3444 68.4711C51.5761 67.2003 53.1193 67.2656 55.0906 67.1793C56.6999 67.1088 58.3078 67.0513 59.8817 66.6056C61.0323 66.279 62.0639 65.697 62.8974 64.6502Z" fill="#AA4927"></path><path d="M70.2536 34.8396C70.1224 34.2162 69.878 34.1111 69.3967 34.2787C67.5668 34.9154 65.8294 35.782 64.2173 36.9852C64.1544 37.0319 63.9754 37.148 63.8817 37.3853C63.8402 37.4928 63.8193 37.6094 63.8203 37.7272C64.8026 42.8228 64.3451 48.1521 62.5159 52.9198C62.5159 52.9198 62.1005 53.999 61.6031 55.0103C60.9194 56.4008 58.8024 59.3909 55.4434 62.6714C56.7192 62.4126 57.9668 61.9917 59.164 61.4164C60.0348 60.9974 60.8749 60.4965 61.676 59.9186C62.1629 59.5658 62.5326 59.2574 62.7802 59.0478C69.501 53.3577 72.1714 43.96 70.2536 34.8396Z" fill="#AA4927"></path><path d="M50 11.9705C60.8473 11.9705 69.94 18.6755 72.3731 27.6988C70.8084 17.9109 61.3887 10 50 10C38.6113 10 29.1916 17.9109 27.6271 27.6988C30.06 18.6757 39.1529 11.9705 50 11.9705Z" fill="#AA4927"></path><path d="M72.483 82.0464C72.9051 82.4555 73.1162 83.1519 73.1162 84.1356C73.1162 84.8676 72.9743 85.5208 72.6907 86.0954C72.407 86.6699 72.0052 87.1185 71.4854 87.4411C70.9652 87.7637 70.3677 87.925 69.6926 87.925C68.1059 87.925 67.3125 87.008 67.3125 85.174C67.3125 84.4343 67.4543 83.7811 67.7378 83.2145C68.0213 82.648 68.4231 82.2092 68.9431 81.8981C69.4631 81.5873 70.0639 81.4319 70.7455 81.4319C71.4818 81.4322 72.061 81.6371 72.483 82.0464ZM69.9964 83.026C69.8411 83.6162 69.7263 84.293 69.652 85.0565C69.598 85.5995 69.571 86.0678 69.5711 86.4612C69.5711 86.6973 69.5947 86.8823 69.642 87.0162C69.6892 87.1501 69.7736 87.2168 69.8951 87.2163C70.0977 87.2163 70.2682 86.9526 70.4067 86.4252C70.5452 85.8979 70.6549 85.2565 70.7359 84.501C70.8101 83.8479 70.8472 83.2971 70.8472 82.8484C70.8472 82.6203 70.8253 82.4453 70.7814 82.3232C70.7374 82.2012 70.6581 82.1402 70.5434 82.1402C70.334 82.1405 70.1516 82.4358 69.9964 83.026Z" fill="#AA4927"></path><path d="M78.9398 85.6466C78.9062 85.8592 78.8893 86.0244 78.8892 86.1423C78.8852 86.3254 78.9352 86.5046 79.031 86.65C79.1254 86.7918 79.2638 86.8744 79.4462 86.8978C79.3584 87.2284 79.1609 87.4823 78.8538 87.6593C78.5568 87.8335 78.2291 87.9245 77.8967 87.9249C77.646 87.9279 77.3975 87.8696 77.1672 87.7538C76.9444 87.6398 76.7892 87.4725 76.7013 87.2519C76.4782 87.4838 76.216 87.6588 75.9314 87.7656C75.6479 87.8716 75.3205 87.9248 74.9491 87.9249C74.4427 87.9249 74.0477 87.8344 73.764 87.6533C73.4803 87.4722 73.3385 87.1063 73.3387 86.5554C73.3387 86.2486 73.3893 85.7489 73.4906 85.0564C73.4973 84.9698 73.5073 84.885 73.5209 84.8025C73.5344 84.72 73.5445 84.6392 73.5513 84.5604L73.9573 81.6684L76.4679 81.385L75.8398 85.0326C75.8307 85.1162 75.8173 85.199 75.7995 85.2807C75.6982 85.9024 75.6475 86.3471 75.6475 86.6147C75.6475 86.9685 75.7286 87.1455 75.8907 87.1459C76.0662 87.1459 76.2062 87.014 76.3108 86.7502C76.4185 86.4746 76.4919 86.1825 76.5286 85.8827L77.1363 81.6684L79.6179 81.385L78.9398 85.6466Z" fill="#AA4927"></path><path d="M81.9934 86.2899C81.8751 86.168 81.6945 86.0126 81.4516 85.8237L81.1072 85.5521C80.8034 85.2925 80.562 85.0309 80.383 84.7671C80.2088 84.5191 80.114 84.2083 80.1146 83.8878C80.1108 83.4386 80.2316 83 80.459 82.6373C80.6879 82.2677 81.0241 81.9746 81.4675 81.758C81.911 81.5414 82.4394 81.433 83.0528 81.4329C83.5592 81.4329 83.9455 81.5214 84.2115 81.6985C84.4776 81.8755 84.611 82.1766 84.6117 82.6015C84.6117 82.9637 84.5138 83.245 84.318 83.4456C84.1221 83.6462 83.8352 83.7462 83.4571 83.7457C83.2545 83.7457 83.0924 83.7024 82.9709 83.6159C83.0653 83.2933 83.1125 82.9904 83.1127 82.7071C83.1127 82.4868 83.0688 82.3196 82.9809 82.2054C82.941 82.1509 82.8913 82.1072 82.8353 82.0776C82.7793 82.048 82.7184 82.0332 82.6569 82.0341C82.5082 82.0341 82.3714 82.1008 82.2467 82.2342C82.1219 82.3675 82.0595 82.5249 82.0593 82.7063C82.0593 82.9818 82.1386 83.206 82.2973 83.3791C82.4559 83.5522 82.7007 83.7529 83.0316 83.9813C83.3826 84.2252 83.6511 84.4613 83.8369 84.6896C84.0227 84.9178 84.1157 85.2208 84.1158 85.5984C84.1203 86.0224 84.0105 86.4374 83.8019 86.7848C83.5925 87.135 83.2785 87.4101 82.8599 87.6101C82.4414 87.8102 81.9248 87.9102 81.3102 87.9102C80.7699 87.9102 80.3122 87.8217 79.9369 87.6447C79.5617 87.4676 79.3743 87.1666 79.3748 86.7416C79.3748 86.4425 79.4727 86.1945 79.6685 85.9978C79.8643 85.8011 80.1277 85.7027 80.4586 85.7027C80.7556 85.7027 81.0088 85.7735 81.2182 85.9153C81.1371 86.1749 81.0966 86.3916 81.0967 86.5655C81.0967 86.7938 81.1439 86.9688 81.2384 87.0907C81.2824 87.1496 81.3369 87.1966 81.3982 87.2282C81.4595 87.2599 81.526 87.2754 81.5931 87.2738C81.7397 87.2745 81.8817 87.2137 81.993 87.1025C82.111 86.9887 82.1701 86.8334 82.1703 86.6363C82.1706 86.5276 82.1116 86.4121 81.9934 86.2899Z" fill="#AA4927"></path><path d="M89.4835 81.751C89.828 81.9636 90.0001 82.3531 90 82.9197C90 83.4944 89.7941 83.9509 89.3822 84.2892C88.9704 84.6275 88.3019 84.832 87.3768 84.9029C87.3227 84.9109 87.1539 84.9227 86.8704 84.9384C86.8492 85.0667 86.839 85.1972 86.8399 85.3278C86.8399 85.6191 86.9024 85.8358 87.0272 85.9781C87.1521 86.1203 87.3497 86.191 87.6199 86.1904C87.8935 86.1867 88.1643 86.1267 88.4201 86.0133C88.6969 85.8953 88.8994 85.7379 89.0277 85.5411C89.1222 85.6278 89.188 85.7164 89.2251 85.8067C89.2623 85.8971 89.2809 86.0131 89.2809 86.1549C89.2809 86.5327 89.1611 86.8554 88.9213 87.123C88.6816 87.3906 88.376 87.5912 88.0046 87.725C87.6306 87.859 87.2413 87.9265 86.85 87.925C86.1347 87.925 85.5743 87.7007 85.1688 87.252C84.7632 86.8034 84.5607 86.1266 84.5611 85.2218C84.5611 84.5135 84.6928 83.8721 84.9561 83.2976C85.2195 82.723 85.6195 82.2685 86.1563 81.9341C86.6931 81.5996 87.3565 81.4324 88.1465 81.4324C88.6935 81.4324 89.1392 81.5386 89.4835 81.751ZM86.9412 84.4662C87.2111 84.4662 87.4441 84.3679 87.6401 84.1711C87.8361 83.9743 87.989 83.7256 88.0857 83.4459C88.187 83.1588 88.2377 82.8852 88.2377 82.6253C88.2377 82.4364 88.2106 82.2849 88.1566 82.1709C88.1025 82.0569 88.0249 81.9998 87.9237 81.9996C87.5049 81.9993 87.1774 82.8215 86.9412 84.4662Z" fill="#AA4927"></path><path d="M27.4778 81.751C27.8221 81.9636 27.9942 82.3531 27.9942 82.9197C27.9942 83.4944 27.7883 83.9509 27.3765 84.2892C26.9646 84.6275 26.2962 84.8321 25.371 84.9029C25.317 84.9109 25.1482 84.9228 24.8646 84.9384C24.8435 85.0667 24.8333 85.1972 24.8342 85.3278C24.8342 85.6191 24.8966 85.8358 25.0215 85.9781C25.1464 86.1203 25.3439 86.1911 25.6142 86.1904C25.8877 86.1867 26.1586 86.1267 26.4143 86.0133C26.6911 85.8953 26.8937 85.7379 27.022 85.5412C27.1164 85.6278 27.1822 85.7164 27.2194 85.8068C27.2566 85.8971 27.2752 86.0132 27.2752 86.1549C27.2752 86.5327 27.1553 86.8554 26.9156 87.123C26.6758 87.3906 26.3704 87.591 25.9993 87.7242C25.6253 87.8583 25.236 87.9257 24.8447 87.9243C24.1294 87.9243 23.569 87.6999 23.1635 87.2513C22.7579 86.8026 22.5554 86.1259 22.5558 85.221C22.5558 84.5128 22.6875 83.8714 22.9508 83.2968C23.2142 82.7223 23.6142 82.2678 24.151 81.9333C24.6878 81.5989 25.3512 81.4316 26.1412 81.4316C26.6879 81.4321 27.1334 81.5386 27.4778 81.751ZM24.9354 84.4663C25.2054 84.4663 25.4383 84.3679 25.6343 84.1712C25.8303 83.9742 25.9831 83.7256 26.08 83.4459C26.1813 83.1588 26.2319 82.8853 26.2319 82.6253C26.2319 82.4364 26.2049 82.285 26.1508 82.1709C26.0967 82.0569 26.0191 81.9998 25.918 81.9996C25.4991 81.9993 25.1716 82.8215 24.9354 84.4663Z" fill="#AA4927"></path><path d="M16.2247 78.0876H15.8093L14.4729 85.4223C14.3985 85.9417 14.3614 86.3392 14.3615 86.6148C14.3613 86.7853 14.3766 86.9554 14.407 87.1222C14.4375 87.2875 14.4696 87.4016 14.5033 87.4646C14.3032 87.6199 14.0824 87.7355 13.85 87.807C13.6108 87.8844 13.3639 87.9241 13.1157 87.925C12.6904 87.925 12.3697 87.8011 12.1535 87.5531C11.9374 87.3052 11.8293 86.957 11.8293 86.5085C11.8293 85.8946 11.9643 84.8204 12.2344 83.2858L13.2569 78.0876H11.9402" fill="#AA4927"></path><path d="M19.5369 80.547C19.449 81.0745 19.3274 81.5309 19.1721 81.9162C19.5638 81.5936 20.0837 81.4323 20.7318 81.4323C21.7448 81.4323 22.2513 81.877 22.2513 82.7663C22.2481 82.9964 22.226 83.2256 22.1854 83.4508C22.1413 83.7105 22.0755 84.0529 21.9878 84.4779C21.819 85.265 21.7346 85.8042 21.7346 86.0953C21.7346 86.5751 21.9205 86.8426 22.2925 86.8978C22.1979 87.2284 21.9987 87.4823 21.6949 87.6593C21.3832 87.8385 21.0398 87.9295 20.6924 87.9249C20.2804 87.9249 19.9442 87.8049 19.6838 87.5648C19.4235 87.3247 19.2935 86.9843 19.294 86.5437C19.2968 86.3155 19.3188 86.0881 19.3596 85.8649C19.4035 85.6093 19.4795 85.2139 19.5875 84.6785C19.7835 83.7815 19.8814 83.1638 19.8813 82.8253C19.8813 82.5027 19.8036 82.3413 19.6484 82.3411C19.4592 82.3411 19.3173 82.4848 19.2229 82.772C19.1285 83.0593 19.0408 83.4511 18.9596 83.9475L18.3318 87.6896L15.8603 87.973L17.298 79.4263L19.7692 79.1429L19.5369 80.547Z" fill="#AA4927"></path><path d="M11.0611 79.139C10.6624 79.0477 10.2483 78.6238 10.1024 78.0481C9.87452 77.1487 10.0261 76.6076 10.5571 76.4247C10.6955 76.3803 10.8376 76.3527 10.9809 76.3424C11.146 76.3281 11.3652 76.3162 11.6386 76.3067C12.1465 76.2949 17.768 75.3011 18.0074 75.2188C18.4024 75.0827 18.565 74.7797 18.4952 74.3097C18.7964 74.332 19.0671 74.5039 19.3071 74.8254C19.5472 75.1468 19.7236 75.5307 19.8365 75.9771C19.9641 76.4812 19.9695 76.9263 19.8528 77.3123C19.7361 77.6983 19.496 77.9537 19.1327 78.0786C18.9435 78.1398 18.7493 78.1773 18.5533 78.1904C18.3293 78.2091 12.6415 78.3832 12.2975 78.3972C11.7177 78.4077 11.3268 78.4477 11.1246 78.5172C10.932 78.5839 10.8533 78.686 10.8886 78.8236C10.9315 78.9917 10.959 79.0179 11.0603 79.139" fill="#AA4927"></path><path d="M66.7149 85.4223C66.6407 85.9417 66.6035 86.3392 66.6035 86.6148C66.6034 86.7853 66.6186 86.9554 66.649 87.1222C66.6795 87.2875 66.7116 87.4016 66.7454 87.4646C66.5438 87.6206 66.3213 87.7363 66.0871 87.807C65.8494 87.8836 65.6041 87.9233 65.3575 87.925C64.9389 87.925 64.6199 87.8011 64.4005 87.5531C64.181 87.3052 64.0713 86.9767 64.0713 86.5675C64.0713 86.4103 64.1016 86.0483 64.1623 85.4814L64.3245 84.3482H63.1598L62.6019 87.6889H60.0312L61.3166 79.8983H63.9093L63.3321 83.3571H64.4867L65.0337 79.8983H67.6367L66.7149 85.4223Z" fill="#AA4927"></path><path d="M29.8115 87.6494L31.0719 79.8925L31.8787 79.8572C32.2687 79.8417 32.6451 79.8339 33.008 79.8337C34.1174 79.8337 34.9443 79.871 35.4888 79.9455C36.0332 80.0201 36.45 80.2061 36.7391 80.5037C37.0281 80.8015 37.1726 81.2794 37.1728 81.9375C37.1728 82.4861 37.0601 82.9542 36.8348 83.342C36.6111 83.7284 36.2958 84.0306 35.9273 84.2116C35.5475 84.4037 35.1255 84.4997 34.6613 84.4997C33.9355 84.4997 33.4817 84.2568 33.3001 83.7709C33.468 83.7554 33.6025 83.728 33.7035 83.6887C34.0798 83.5791 34.3706 83.3382 34.5757 82.9659C34.778 82.604 34.8847 82.1809 34.8828 81.7489C34.8828 81.3415 34.7987 81.0497 34.6307 80.8736C34.4626 80.6976 34.2172 80.6094 33.8947 80.6093C33.7333 80.6093 33.6459 80.6171 33.6324 80.6328L32.493 87.6491L29.8115 87.6494Z" fill="#AA4927"></path><path d="M42.1289 82.0315C42.5489 82.439 42.759 83.1324 42.7591 84.1118C42.7591 84.8402 42.6179 85.4905 42.3355 86.0625C42.0531 86.6345 41.6532 87.0811 41.1356 87.4022C40.6178 87.7234 40.0228 87.884 39.3507 87.8842C37.7709 87.8842 36.981 86.9713 36.981 85.1457C36.981 84.4094 37.1221 83.7591 37.4045 83.1949C37.6869 82.6307 38.0869 82.194 38.6044 81.8847C39.122 81.5751 39.7203 81.4203 40.3994 81.4203C41.1321 81.4203 41.7086 81.624 42.1289 82.0315ZM39.6533 83.0069C39.4985 83.5946 39.3841 84.2684 39.31 85.0284C39.256 85.5691 39.2292 86.0352 39.2293 86.4269C39.2293 86.662 39.2528 86.8461 39.2999 86.9793C39.347 87.1126 39.431 87.1793 39.552 87.1794C39.7537 87.1794 39.9235 86.917 40.0612 86.3921C40.199 85.8673 40.3082 85.2287 40.3889 84.4764C40.463 83.8262 40.5 83.2777 40.4998 82.8311C40.4998 82.6036 40.478 82.4292 40.4344 82.3079C40.3907 82.1865 40.3121 82.1258 40.1983 82.1258C39.9896 82.1256 39.8079 82.4193 39.6533 83.0069Z" fill="#AA4927"></path><path d="M48.1186 82.0315C48.5386 82.439 48.7486 83.1324 48.7488 84.1118C48.7488 84.8402 48.6076 85.4905 48.3252 86.0625C48.0428 86.6345 47.6429 87.0811 47.1253 87.4022C46.6074 87.7234 46.0125 87.884 45.3404 87.8842C43.7604 87.8842 42.9705 86.9713 42.9706 85.1457C42.9706 84.4094 43.1118 83.7591 43.3942 83.1949C43.6766 82.6307 44.0766 82.194 44.5941 81.8847C45.1117 81.5751 45.71 81.4203 46.3891 81.4203C47.1216 81.4203 47.6981 81.624 48.1186 82.0315ZM45.643 83.0069C45.4882 83.5946 45.3738 84.2684 45.2997 85.0284C45.2457 85.5691 45.2188 86.0352 45.219 86.4269C45.219 86.662 45.2425 86.8461 45.2896 86.9793C45.3366 87.1126 45.4207 87.1793 45.5417 87.1794C45.7434 87.1794 45.9131 86.917 46.0509 86.3921C46.1887 85.8673 46.2979 85.2287 46.3786 84.4764C46.4524 83.8262 46.4894 83.2777 46.4895 82.8311C46.4895 82.6036 46.468 82.4292 46.4251 82.3079C46.3811 82.1866 46.3024 82.1258 46.188 82.1258C45.9793 82.1256 45.7976 82.4193 45.643 83.0069Z" fill="#AA4927"></path><path d="M51.3806 86.2156C51.2394 87.0931 51.0749 87.8017 50.8871 88.3414C50.6992 88.8811 50.452 89.2929 50.1453 89.5768C49.8393 89.8589 49.4477 90 48.9705 90C48.6143 90 48.3067 89.9216 48.0478 89.7649C47.9229 89.6916 47.8123 89.589 47.7229 89.4636C47.6336 89.3382 47.5674 89.1927 47.5285 89.0361C47.7976 89.0281 48.0161 88.9302 48.184 88.7423C48.352 88.5544 48.4931 88.2684 48.6074 87.8845C48.7218 87.501 48.8363 86.9604 48.9507 86.2626L49.697 81.6554L52.167 81.3738L51.3806 86.2156ZM52.0359 79.0229C52.2578 79.2108 52.3687 79.4654 52.3687 79.7867C52.3687 80.1158 52.2528 80.3705 52.0209 80.5508C51.789 80.731 51.4848 80.8211 51.1083 80.8211C50.7318 80.8211 50.4292 80.7329 50.2006 80.5565C49.972 80.3801 49.8576 80.1314 49.8573 79.8102C49.8573 79.4811 49.98 79.2206 50.2253 79.0287C50.4706 78.8368 50.7782 78.7408 51.148 78.7408C51.5179 78.7408 51.8139 78.8349 52.0359 79.0229Z" fill="#AA4927"></path><path d="M57.5922 85.6161C57.5632 85.7787 57.5463 85.9439 57.5418 86.1098C57.5379 86.292 57.5876 86.4703 57.6827 86.615C57.7769 86.756 57.9147 86.8383 58.0962 86.8618C58.009 87.1909 57.8124 87.4436 57.5064 87.6199C57.2107 87.7934 56.8844 87.884 56.5534 87.8845C56.3039 87.8874 56.0566 87.8292 55.8275 87.7139C55.6056 87.6003 55.451 87.4336 55.3636 87.2137C55.1753 87.4174 54.94 87.58 54.6576 87.7014C54.3753 87.8228 54.0627 87.8835 53.7199 87.8837C53.1284 87.8837 52.7016 87.6819 52.4393 87.2782C52.1771 86.8746 52.046 86.285 52.046 85.5096C52.046 84.6713 52.1805 83.9446 52.4494 83.3295C52.7184 82.7145 53.1032 82.2424 53.6041 81.9132C54.1047 81.5841 54.6946 81.4196 55.3737 81.4196C55.5391 81.4181 55.7042 81.4338 55.8672 81.4666C56.045 81.5074 56.2201 81.5624 56.3914 81.6312L58.2771 81.3726L57.5922 85.6161ZM55.3636 82.1256C55.2155 82.1256 55.0828 82.2039 54.9653 82.3607C54.8479 82.5174 54.737 82.821 54.6325 83.2715C54.5282 83.7217 54.4291 84.37 54.3351 85.2165C54.2967 85.5595 54.2765 85.9049 54.2746 86.2508C54.2746 86.5176 54.2964 86.7272 54.3401 86.8796C54.3837 87.032 54.4624 87.1083 54.5761 87.1087C54.7576 87.1087 54.8955 86.9872 54.9896 86.7443C55.0837 86.5014 55.155 86.2034 55.2033 85.8505L55.7277 82.2659C55.6395 82.1723 55.5181 82.1256 55.3636 82.1256Z" fill="#AA4927"></path></g><defs><clipPath id="clip0_1_2"><rect width="80" height="80" fill="white" transform="translate(10 10)"></rect></clipPath></defs></svg>