<svg xmlns="http://www.w3.org/2000/svg" width="126" height="126" viewBox="0 0 126 126" fill="none"><rect x="0.0898438" y="0.283203" width="125" height="125" rx="10" fill="#EEECFF"></rect><path d="M98.0211 73.1955C97.5164 71.709 96.313 70.6301 94.6327 70.1576C92.8271 69.6502 90.481 69.8135 87.6589 70.6438L74.8426 74.4142C74.1808 73.074 72.9675 72.0141 71.4132 71.5989L62.2953 69.163C55.6308 64.5011 52.0616 65.8448 46.8145 68.4156C43.9089 69.8389 40.9708 71.2341 37.9782 72.6478L37.7426 72.1121C37.052 70.5421 35.2118 69.8253 33.6412 70.5142L28.7568 72.6567C27.9912 72.9926 27.4037 73.6034 27.1025 74.3765C26.8013 75.1496 26.8208 75.997 27.1574 76.7623L35.8935 96.6223C36.4057 97.7874 37.5504 98.4824 38.7487 98.4824C39.1656 98.4824 39.5893 98.3982 39.9947 98.2204L44.879 96.0779C45.6445 95.742 46.2322 95.1312 46.5334 94.3581C46.8346 93.585 46.8151 92.7376 46.4785 91.9723L45.626 90.0343L49.9848 87.9111C51.1528 87.342 52.3277 87.2411 53.5757 87.6024L63.8237 90.5696C64.5777 90.788 65.3563 90.8814 66.1465 90.8814C68.8748 90.8812 71.7342 89.7662 74.1374 88.8289C74.3489 88.7465 74.5563 88.6656 74.7592 88.5872L93.9826 81.1631C97.1029 79.958 99.0277 76.1603 98.0211 73.1955ZM44.648 93.6234C44.5431 93.8925 44.3365 94.1062 44.0661 94.2248L39.182 96.3674C38.6313 96.6083 37.9874 96.3577 37.7455 95.8077L29.0094 75.9477C28.8906 75.6776 28.883 75.3804 28.9879 75.1111C29.0928 74.842 29.2994 74.6283 29.5696 74.5097L34.4539 72.3672C34.596 72.3049 34.7443 72.2754 34.8904 72.2754C35.31 72.2754 35.7111 72.519 35.8906 72.9268L44.6266 92.7869C44.7453 93.057 44.7529 93.3542 44.648 93.6234ZM93.2537 79.2754L74.0303 86.6995C73.8253 86.7787 73.6158 86.8604 73.4022 86.9436C70.5876 88.0413 67.085 89.4073 64.3865 88.626L54.1385 85.6587C52.4108 85.1585 50.7151 85.3042 49.0986 86.0919L44.8107 88.1807L38.7932 74.5006C41.8098 73.0757 44.7714 71.6696 47.7047 70.2326C52.5984 67.835 55.4245 66.7772 61.2756 70.9196C61.3736 70.989 61.4831 71.0404 61.5991 71.0713L70.8908 73.5538C72.6745 74.0303 73.7378 75.8691 73.2614 77.6526C72.7848 79.4362 70.9456 80.4996 69.1624 80.023L56.8139 76.7241C56.2748 76.5799 55.7197 76.9006 55.5754 77.4404C55.4312 77.9802 55.7519 78.5347 56.2917 78.6789L68.6402 81.9778C71.5023 82.743 74.4518 81.0361 75.2164 78.1748C75.3784 77.5682 75.4294 76.9575 75.382 76.3648L88.23 72.5853C92.4695 71.3382 95.4136 71.8093 96.1052 73.8463C96.7608 75.7771 95.3483 78.4664 93.2537 79.2754ZM62.5869 37.3506C65.4177 37.3506 67.7207 35.0477 67.7207 32.2169C67.7207 29.3865 65.4177 27.084 62.5869 27.084C59.7561 27.084 57.4532 29.3867 57.4532 32.217C57.4533 35.0477 59.7563 37.3506 62.5869 37.3506ZM62.5869 29.1074C64.3019 29.1074 65.6972 30.5023 65.6972 32.217C65.6972 33.932 64.3021 35.3273 62.5869 35.3273C60.8718 35.3273 59.4766 33.9322 59.4766 32.217C59.4768 30.5023 60.8719 29.1074 62.5869 29.1074ZM60.2804 52.2297L59.7124 53.6721L54.451 53.9934C54.036 54.0188 53.6789 54.2953 53.5506 54.6906C53.4222 55.0859 53.5484 55.5195 53.8692 55.7838L57.9369 59.1364L56.6166 64.2396C56.5126 64.642 56.6652 65.0672 57.0015 65.3115C57.1784 65.44 57.3871 65.5047 57.5961 65.5047C57.7847 65.5047 57.9736 65.4521 58.1399 65.3462L62.5852 62.5135L67.0307 65.3462C67.3812 65.5693 67.8326 65.5556 68.169 65.3115C68.5053 65.0672 68.658 64.642 68.5539 64.2396L67.2336 59.1364L71.3013 55.7838C71.6222 55.5195 71.7485 55.0859 71.62 54.6906C71.4915 54.2953 71.1345 54.0188 70.7196 53.9934L65.4582 53.6721L64.8902 52.23C68.797 51.8617 72.5171 50.5074 72.5171 47.6321C72.5171 42.1569 68.0626 37.7024 62.5874 37.7024C57.1118 37.7024 52.6571 42.1569 52.6571 47.6321C52.6566 50.5066 56.3751 51.861 60.2804 52.2297ZM68.0316 55.8565L65.4489 57.9852C65.1454 58.2352 65.0145 58.6386 65.1129 59.0192L65.9513 62.2594L63.1288 60.4609C62.963 60.3552 62.7741 60.3023 62.5851 60.3023C62.396 60.3023 62.2073 60.3551 62.0413 60.4609L59.2191 62.2593L60.0573 59.0192C60.1558 58.6385 60.0247 58.2352 59.7213 57.9852L57.1387 55.8565L60.4792 55.6526C60.8718 55.6286 61.2149 55.3793 61.359 55.0133L62.5851 51.8996L63.8114 55.0135C63.9554 55.3793 64.2985 55.6286 64.691 55.6526L68.0316 55.8565ZM62.5869 39.7258C66.9464 39.7258 70.4932 43.2726 70.4932 47.6321C70.4932 48.9052 67.7444 50.0165 64.1152 50.263L63.5262 48.7674C63.3739 48.3807 63.0006 48.1264 62.5849 48.1264C62.1692 48.1264 61.7959 48.3807 61.6434 48.7676L61.0546 50.2627C57.4273 50.0157 54.6799 48.9046 54.6799 47.6321C54.6801 43.2726 58.227 39.7258 62.5869 39.7258ZM35.4201 50.2911C36.8724 50.8257 38.8046 51.1201 40.8611 51.1201C44.744 51.1201 49.2784 50.0517 49.2784 47.041C49.2784 42.5834 45.7947 38.9241 41.4073 38.6416C43.5958 38.3716 45.2956 36.5008 45.2956 34.2406C45.2956 31.7957 43.3063 29.8065 40.8611 29.8065C38.416 29.8065 36.4266 31.7957 36.4266 34.2406C36.4266 36.5009 38.1266 38.3716 40.315 38.6416C35.9268 38.9237 32.4435 42.5831 32.4435 47.041C32.4436 48.0237 32.9601 49.3853 35.4201 50.2911ZM38.4501 34.2406C38.4501 32.9115 39.5316 31.83 40.8611 31.83C42.1907 31.83 43.2722 32.9113 43.2722 34.2406C43.2722 35.57 42.1907 36.6517 40.8611 36.6517C39.5316 36.6517 38.4501 35.57 38.4501 34.2406ZM40.8611 40.6475C44.3867 40.6475 47.2548 43.5157 47.2548 47.041C47.2548 48.0134 44.6289 49.0967 40.861 49.0967C37.0929 49.0967 34.4671 48.0134 34.4671 47.041C34.4671 43.5157 37.3354 40.6475 40.8611 40.6475ZM91.628 56.7078C91.4995 56.3125 91.1426 56.0361 90.7276 56.0106L86.7212 55.7661L85.2504 52.0315C85.0981 51.6446 84.7248 51.3904 84.3091 51.3904C83.8934 51.3904 83.5201 51.6446 83.3678 52.0315L81.897 55.7661L77.8908 56.0106C77.4758 56.0361 77.1187 56.3125 76.9903 56.7078C76.862 57.1031 76.9883 57.5369 77.309 57.8012L80.4065 60.3538L79.4011 64.2396C79.2971 64.642 79.4497 65.0672 79.786 65.3115C79.9629 65.4401 80.1716 65.5047 80.3806 65.5047C80.5692 65.5047 80.7581 65.4521 80.9243 65.3462L84.3091 63.1893L87.694 65.3462C88.0447 65.5693 88.4959 65.5556 88.8324 65.3115C89.1687 65.0672 89.3213 64.642 89.2173 64.2396L88.2119 60.3538L91.3093 57.8012C91.6301 57.537 91.7565 57.1033 91.628 56.7078ZM86.4277 59.2023C86.1241 59.4523 85.9932 59.8557 86.0916 60.2364L86.615 62.2593L84.853 61.1364C84.6872 61.0308 84.4983 60.9779 84.3093 60.9779C84.1202 60.9779 83.9315 61.0306 83.7655 61.1364L82.0037 62.2591L82.527 60.2364C82.6255 59.8557 82.4944 59.4523 82.191 59.2023L80.5789 57.8738L82.6642 57.7464C83.0568 57.7224 83.3999 57.4731 83.5438 57.1072L84.3094 55.1634L85.075 57.1072C85.2189 57.4731 85.5621 57.7224 85.9546 57.7464L88.04 57.8738L86.4277 59.2023ZM48.1796 56.7078C48.0511 56.3125 47.6941 56.0361 47.2792 56.0106L43.2729 55.7661L41.8023 52.0315C41.6498 51.6446 41.2765 51.3904 40.8609 51.3904C40.4452 51.3904 40.0719 51.6446 39.9194 52.0315L38.4488 55.7661L34.4425 56.0106C34.0276 56.0361 33.6704 56.3125 33.5421 56.7078C33.4137 57.1031 33.5401 57.5369 33.8608 57.8012L36.9582 60.3538L35.9529 64.2396C35.8488 64.642 36.0014 65.0672 36.3377 65.3115C36.5147 65.4401 36.7234 65.5047 36.9323 65.5047C37.121 65.5047 37.3099 65.4521 37.4761 65.3462L40.8609 63.1893L44.2458 65.3462C44.5964 65.5693 45.0476 65.5556 45.3841 65.3115C45.7204 65.0672 45.8731 64.642 45.769 64.2396L44.7636 60.3538L47.8609 57.8011C48.1818 57.5369 48.3081 57.1033 48.1796 56.7078ZM42.9792 59.2024C42.6757 59.4525 42.5448 59.8559 42.6432 60.2364L43.1666 62.2593L41.4046 61.1364C41.2388 61.0308 41.0499 60.9779 40.8609 60.9779C40.6718 60.9779 40.483 61.0306 40.3171 61.1364L38.5553 62.2591L39.0786 60.2364C39.1771 59.8557 39.046 59.4523 38.7426 59.2023L37.1305 57.8738L39.2158 57.7464C39.6083 57.7224 39.9515 57.4731 40.0956 57.1072L40.861 55.1634L41.6264 57.1072C41.7705 57.4731 42.1136 57.7224 42.5062 57.7464L44.5916 57.8738L42.9792 59.2024ZM78.8684 50.2911C80.3206 50.8257 82.2529 51.1201 84.3094 51.1201C88.1922 51.1201 92.7266 50.0517 92.7266 47.041C92.7266 42.5834 89.243 38.9241 84.8556 38.6416C87.0441 38.3716 88.7439 36.5008 88.7439 34.2406C88.7439 31.7957 86.7546 29.8065 84.3094 29.8065C81.8642 29.8065 79.875 31.7957 79.875 34.2406C79.875 36.5009 81.575 38.3716 83.7634 38.6416C79.3752 38.9237 75.8919 42.5831 75.8919 47.041C75.8919 48.0237 76.4083 49.3853 78.8684 50.2911ZM81.8985 34.2406C81.8985 32.9115 82.98 31.83 84.3095 31.83C85.6391 31.83 86.7206 32.9113 86.7206 34.2406C86.7206 35.57 85.6391 36.6517 84.3095 36.6517C82.98 36.6517 81.8985 35.57 81.8985 34.2406ZM84.3094 40.6475C87.835 40.6475 90.703 43.5157 90.703 47.041C90.703 48.0134 88.0772 49.0967 84.3093 49.0967C80.5412 49.0967 77.9153 48.0134 77.9153 47.041C77.9153 43.5157 80.7837 40.6475 84.3094 40.6475Z" fill="#7064CE"></path></svg>