<svg xmlns="http://www.w3.org/2000/svg" width="126" height="126" viewBox="0 0 126 126" fill="none"><rect x="0.860352" y="0.297852" width="125" height="125" rx="10" fill="#F5FEE6"></rect><g clip-path="url(#clip0_3_873)"><path d="M56.7638 91.3986L56.5464 92.4606L56.7559 91.3975C56.1687 91.2818 55.5985 91.664 55.4828 92.2511C55.367 92.8388 55.7493 93.4085 56.337 93.5242C56.3387 93.5248 56.3551 93.5276 56.3567 93.5282C56.4256 93.5412 56.4939 93.548 56.5617 93.548C57.0715 93.548 57.526 93.1866 57.6248 92.6672C57.7377 92.0789 57.3521 91.511 56.7638 91.3986Z" fill="#7AA72F"></path><path d="M65.0517 91.747L65.1596 92.8253L65.0484 91.7475C64.4527 91.8085 64.0197 92.3409 64.0812 92.9365C64.1383 93.4943 64.6091 93.9099 65.1579 93.9099C65.1951 93.9099 65.233 93.9076 65.2702 93.9042L65.3002 93.9008C65.893 93.8314 66.3136 93.2967 66.2475 92.7039C66.1809 92.1117 65.6445 91.6849 65.0517 91.747Z" fill="#7AA72F"></path><path d="M60.9021 91.8836C60.9021 91.8836 60.8869 91.883 60.8863 91.883C60.289 91.8559 59.7899 92.32 59.7628 92.9179C59.7363 93.5158 60.206 94.0222 60.8039 94.0493C60.8208 94.0504 60.8372 94.0504 60.8541 94.0504C61.43 94.0504 61.9099 93.5971 61.9359 93.0156C61.963 92.4177 61.5006 91.9107 60.9021 91.8836Z" fill="#7AA72F"></path><path d="M52.7598 90.2972L52.7463 90.2921C52.1829 90.09 51.5686 90.3847 51.3665 90.9481C51.1638 91.5115 51.463 92.1348 52.0265 92.3375C52.1478 92.381 52.2715 92.4013 52.3929 92.4013C52.8372 92.4013 53.2544 92.1264 53.4131 91.6837C53.6157 91.1203 53.3233 90.4993 52.7598 90.2972Z" fill="#7AA72F"></path><path d="M69.1426 90.9882L69.4097 92.0389L69.1393 90.9893C68.5594 91.1384 68.2105 91.7295 68.3596 92.3093C68.4855 92.7982 68.9258 93.1234 69.4086 93.1234C69.4983 93.1234 69.5892 93.1121 69.6801 93.0884C69.6846 93.0873 69.7038 93.0822 69.7089 93.0811C70.2842 92.9241 70.6207 92.333 70.4671 91.7566C70.3136 91.1807 69.7202 90.838 69.1426 90.9882Z" fill="#7AA72F"></path><path d="M73.0614 89.6213L73.491 90.6161L73.058 89.6224C72.5092 89.8618 72.258 90.5004 72.4968 91.0491C72.6746 91.4573 73.0732 91.7006 73.4916 91.7006C73.6355 91.7006 73.7829 91.6713 73.9235 91.6103C73.928 91.6081 73.9455 91.6007 73.95 91.5985C74.4937 91.3529 74.7336 90.716 74.4909 90.1712C74.2481 89.6258 73.6079 89.3814 73.0614 89.6213Z" fill="#7AA72F"></path><path d="M48.6193 40.2075C48.7931 40.2075 48.9699 40.1657 49.133 40.0788C49.6615 39.7971 49.8608 39.1405 49.579 38.612C49.2973 38.0842 48.6413 37.8837 48.1128 38.166L48.0998 38.1728C47.572 38.4545 47.3783 39.1077 47.66 39.6362C47.8543 40.0009 48.2314 40.2075 48.6193 40.2075Z" fill="#7AA72F"></path><path d="M36.0806 52.3148C36.2415 52.399 36.4137 52.4391 36.5837 52.4391C36.9738 52.4391 37.3509 52.2279 37.5446 51.8581L37.5638 51.8203C37.828 51.2828 37.6067 50.633 37.0692 50.3693C36.5357 50.1062 35.8909 50.323 35.6233 50.8532C35.3467 51.3827 35.5511 52.0371 36.0806 52.3148Z" fill="#7AA72F"></path><path d="M34.5546 56.3927C34.6698 56.4317 34.7866 56.4503 34.9024 56.4503C35.354 56.4503 35.7758 56.1652 35.9288 55.7136L35.9429 55.6706C36.119 55.0987 35.7978 54.4918 35.2253 54.3162C34.6579 54.1412 34.0555 54.4562 33.8743 55.0208C33.684 55.5871 33.9883 56.2013 34.5546 56.3927Z" fill="#7AA72F"></path><path d="M38.2192 48.5226C38.4118 48.6626 38.6348 48.7304 38.8561 48.7304C39.1909 48.7304 39.5217 48.5751 39.7334 48.2838L39.7475 48.2646C40.0953 47.7779 39.9818 47.1027 39.4963 46.7549C39.0102 46.4066 38.3327 46.5184 37.9838 47.0039L38.8572 47.6464L37.9804 47.0084C37.6281 47.4928 37.7354 48.1709 38.2192 48.5226Z" fill="#7AA72F"></path><path d="M44.9394 42.5488C45.1669 42.5488 45.3961 42.4771 45.592 42.3281C46.0753 41.9746 46.1797 41.2966 45.8263 40.8133C45.4723 40.33 44.7943 40.2256 44.3116 40.579L44.2845 40.5988C43.808 40.9607 43.7131 41.6421 44.075 42.1192C44.2884 42.4003 44.6119 42.5488 44.9394 42.5488Z" fill="#7AA72F"></path><path d="M33.5869 72.832C33.7303 73.2978 34.1582 73.5965 34.6212 73.5965C34.7268 73.5965 34.8346 73.5807 34.9407 73.5479C35.5098 73.3735 35.8311 72.7705 35.6606 72.2003C35.4974 71.6312 34.9074 71.297 34.3333 71.4533C33.7557 71.6109 33.4153 72.2071 33.5728 72.7846C33.5762 72.7959 33.5835 72.8207 33.5869 72.832Z" fill="#7AA72F"></path><path d="M41.6648 45.4056C41.9466 45.4056 42.2283 45.2966 42.4411 45.0798C42.864 44.6564 42.864 43.9699 42.4411 43.547C42.0177 43.1236 41.3312 43.1236 40.9077 43.547L40.8897 43.5651C40.4708 43.9925 40.4792 44.6778 40.9066 45.0968C41.1172 45.3034 41.391 45.4056 41.6648 45.4056Z" fill="#7AA72F"></path><path d="M34.7849 68.106C34.7087 67.5171 34.1707 67.0993 33.5813 67.1693C32.9873 67.2405 32.5628 67.7796 32.6333 68.3741L32.6395 68.4176C32.7186 68.9562 33.181 69.3424 33.71 69.3424C33.7619 69.3424 33.815 69.3384 33.8686 69.3305C34.4586 69.2447 34.8679 68.6959 34.7849 68.106Z" fill="#7AA72F"></path><path d="M33.4232 65.0014C33.4345 65.0014 33.4452 65.002 33.4559 65.002C34.0397 65.002 34.5218 64.5373 34.5388 63.9496L34.5399 63.9033C34.5399 63.3043 34.0544 62.8193 33.4559 62.8193C32.8614 62.8193 32.3793 63.297 32.3719 63.8892C32.3561 64.4865 32.8264 64.9839 33.4232 65.0014Z" fill="#7AA72F"></path><path d="M33.6608 60.6542C33.7258 60.6655 33.7896 60.6711 33.8534 60.6711C34.3683 60.6711 34.825 60.3025 34.9193 59.778C34.9221 59.7622 34.9244 59.7463 34.9266 59.7305C35.0141 59.1383 34.6048 58.5873 34.012 58.5003C33.4265 58.4134 32.8783 58.8159 32.7841 59.3997C32.6813 59.988 33.0731 60.5486 33.6608 60.6542Z" fill="#7AA72F"></path><path d="M84.7943 48.8647C85.0044 49.1696 85.342 49.3328 85.6864 49.3328C85.8981 49.3328 86.1126 49.2707 86.3001 49.1414C86.7929 48.8026 86.9177 48.1274 86.579 47.634L85.6779 48.2369L86.5756 47.6289C86.2391 47.1332 85.565 47.0039 85.0699 47.3398C84.5742 47.6757 84.4449 48.3498 84.7808 48.8455L84.7943 48.8647Z" fill="#7AA72F"></path><path d="M90.33 59.7729C89.7349 59.8395 89.307 60.3764 89.3742 60.9714L89.3798 61.0183C89.4572 61.5586 89.9212 61.9487 90.4519 61.9487C90.5027 61.9487 90.5547 61.9453 90.6066 61.938C91.1943 61.8539 91.6042 61.3125 91.528 60.7253C91.4597 60.1319 90.9211 59.7062 90.33 59.7729Z" fill="#7AA72F"></path><path d="M88.5008 56.714L88.5053 56.7281C88.6442 57.2007 89.0761 57.5067 89.5447 57.5067C89.6457 57.5067 89.7485 57.4926 89.8507 57.4621C90.4254 57.2933 90.754 56.6909 90.5852 56.1161L90.5807 56.102C90.4119 55.5273 89.8095 55.1987 89.2347 55.3681C88.6605 55.5369 88.332 56.1393 88.5008 56.714Z" fill="#7AA72F"></path><path d="M86.9696 52.6609C87.1588 53.0454 87.5455 53.2695 87.9475 53.2695C88.1073 53.2695 88.2699 53.2339 88.4229 53.1583C88.9598 52.8941 89.1828 52.2482 88.918 51.7107L87.9356 52.1686L88.9169 51.7085C88.6628 51.1665 88.0175 50.9333 87.4755 51.1874C86.9335 51.4414 86.6998 52.0867 86.9538 52.6287L86.9696 52.6609Z" fill="#7AA72F"></path><path d="M82.0641 45.4795C82.2764 45.6963 82.5569 45.8047 82.8381 45.8047C83.1119 45.8047 83.3857 45.702 83.5969 45.4948C84.0215 45.0792 84.031 44.4001 83.6217 43.9721C83.2158 43.5346 82.5315 43.508 82.0923 43.9134C81.6525 44.3193 81.6254 45.0053 82.0313 45.4451L82.0641 45.4795Z" fill="#7AA72F"></path><path d="M90.6823 64.2991C90.0867 64.2838 89.5881 64.7507 89.5672 65.3464C89.5402 65.9397 89.9958 66.445 90.5897 66.4783C90.6106 66.4795 90.6303 66.48 90.6512 66.48C91.222 66.48 91.7002 66.0334 91.7324 65.4559L91.7341 65.4113C91.751 64.8134 91.2802 64.3166 90.6823 64.2991Z" fill="#7AA72F"></path><path d="M75.1322 40.1568L75.1582 40.1709C75.3197 40.2567 75.493 40.2973 75.6635 40.2973C76.0491 40.2973 76.4223 40.0896 76.6182 39.7254C76.9005 39.1998 76.7017 38.5426 76.1778 38.2581L75.6533 39.2066L76.1744 38.2558C75.6494 37.9679 74.9905 38.1604 74.7026 38.6855C74.4152 39.21 74.6072 39.8694 75.1322 40.1568Z" fill="#7AA72F"></path><path d="M78.7986 42.5341L78.8155 42.5471C79.0114 42.6956 79.2412 42.7673 79.4698 42.7673C79.7973 42.7673 80.1208 42.6194 80.3342 42.3382C80.6961 41.8612 80.6024 41.1814 80.1259 40.8195L80.1185 40.8145C79.6437 40.4497 78.9634 40.5389 78.5987 41.0137C78.234 41.4886 78.3237 42.1694 78.7986 42.5341Z" fill="#7AA72F"></path><path d="M99.6912 80.7095L94.6027 75.612C94.1697 75.1784 93.5944 74.9396 92.9818 74.9396C92.3698 74.9396 91.7939 75.1784 91.3615 75.612L91.2435 75.73L90.9092 75.3958C90.4965 74.9819 90.177 74.5003 89.9602 73.9759C89.941 73.9064 89.9156 73.8387 89.8829 73.7749C89.7169 73.3085 89.6305 72.8123 89.6305 72.3025V70.8605C89.7293 70.9125 89.8371 70.9503 89.9529 70.9701C90.015 70.9808 90.0765 70.9859 90.1375 70.9859C90.6518 70.9859 91.1069 70.6189 91.2023 70.0972C91.318 69.5112 90.938 68.9415 90.3515 68.8241C90.0934 68.7727 89.8383 68.8173 89.6237 68.9336C89.5571 67.3935 88.9276 65.9549 87.8323 64.8574L82.8957 59.9123C81.788 58.8029 80.315 58.1921 78.7483 58.1921C77.5356 58.1921 76.3805 58.5596 75.406 59.2399L74.8821 58.7132V46.3151C74.8821 44.8207 74.3396 43.3788 73.3549 42.2558C72.6543 41.4575 72.2687 40.4322 72.2687 39.3686V38.4602H72.3432C73.6067 38.4602 74.6348 37.4321 74.6348 36.168V28.9573C74.6348 27.6932 73.6067 26.6651 72.3432 26.6651H52.0948C50.8313 26.6651 49.8032 27.6932 49.8032 28.9573V36.168C49.8032 37.4321 50.8313 38.4602 52.0948 38.4602H52.2619V38.9356C52.2619 40.1042 51.8074 41.2029 50.9826 42.0289L48.7971 44.2183C47.6375 45.3802 46.9989 46.9243 46.9989 48.5672V55.5606C46.9989 56.5108 47.227 57.4079 47.6284 58.2028C46.191 58.2858 44.8513 58.8848 43.8249 59.9123L38.8883 64.8574C37.7286 66.0193 37.0901 67.564 37.0901 69.2063V72.3025C37.0901 73.4711 36.6362 74.5698 35.8113 75.3958L35.481 75.7266C35.4794 75.7277 35.4782 75.7289 35.4771 75.73L35.3597 75.612C34.9266 75.1784 34.3513 74.9396 33.7388 74.9396C33.1268 74.9396 32.5509 75.1784 32.1184 75.612L27.0294 80.7095C26.1373 81.6033 26.1373 83.0576 27.0294 83.9513L28.7722 85.6964C29.1951 86.1204 29.8816 86.121 30.305 85.6981C30.7285 85.2747 30.7296 84.5887 30.3062 84.1647L28.5639 82.4191C28.5148 82.3699 28.5148 82.2903 28.5639 82.2412L33.653 77.1437C33.7004 77.0963 33.7777 77.0957 33.8252 77.1437L34.7098 78.0301H34.7104L46.7906 90.1311L48.1439 91.4873C48.193 91.5364 48.193 91.616 48.1439 91.6651L43.0554 96.7626C43.0074 96.8106 42.93 96.8106 42.8826 96.7626L33.3752 87.2388C32.9523 86.8148 32.2658 86.8143 31.8424 87.2371C31.4184 87.6606 31.4178 88.3465 31.8407 88.7705L41.3487 98.2943C41.7811 98.7279 42.357 98.9667 42.9696 98.9667C43.5816 98.9667 44.1569 98.7279 44.5899 98.2943L49.6784 93.1968C50.5704 92.3036 50.5704 90.8493 49.6784 89.9556L49.6231 89.9002L50.265 89.2572C51.0147 88.5057 52.0107 88.0541 53.0692 87.9858C54.5591 87.8892 55.961 87.2535 57.0162 86.1961L61.6908 81.5112C63.039 81.1572 64.0886 80.0591 64.3737 78.6838C64.8542 78.9125 65.3911 79.0412 65.9579 79.0412C67.9966 79.0412 69.6553 77.3808 69.6553 75.3393V72.7654C70.1216 72.9783 70.6393 73.0979 71.1847 73.0979C73.2234 73.0979 74.8816 71.4375 74.8816 69.396V61.7867L78.2159 65.1374C78.4276 65.3503 78.706 65.4564 78.9843 65.4564C79.261 65.4564 79.5376 65.3514 79.7493 65.1408C80.1733 64.7185 80.175 64.0326 79.7527 63.608L76.9727 60.8145C77.5108 60.5181 78.1171 60.36 78.7483 60.36C79.7352 60.36 80.6634 60.7451 81.3612 61.4446L86.2978 66.3891C87.0487 67.1417 87.4625 68.1421 87.4625 69.2063V72.3025C87.4625 74.0498 88.1417 75.6922 89.3747 76.9274L89.7112 77.2645L88.1389 78.8397L78.6292 88.3657L78.0991 87.8345C78.0934 87.8294 78.0883 87.8237 78.0827 87.8186L77.9895 87.7249C76.8672 86.6009 75.3761 85.9251 73.7919 85.8223C72.8282 85.7596 71.9215 85.3486 71.2355 84.6621L67.6736 81.1194C67.2491 80.6971 66.5626 80.6988 66.1403 81.1234C65.7185 81.5479 65.7202 82.2344 66.1448 82.6562L69.7044 86.1961C70.7596 87.2535 72.1614 87.8892 73.6519 87.9858C74.7099 88.0541 75.7058 88.5057 76.4556 89.2566L76.5081 89.3091C76.5363 89.3413 76.5662 89.3712 76.5979 89.3995L77.0975 89.8997L77.0422 89.9556C76.1502 90.8493 76.1502 92.3031 77.0422 93.1968L82.1307 98.2943C82.5637 98.7279 83.139 98.9667 83.7516 98.9667C84.3636 98.9667 84.9394 98.7279 85.3725 98.2943L99.6912 83.9508C100.583 83.057 100.583 81.6033 99.6912 80.7095ZM90.3571 69.9307L90.3368 69.9273L90.1392 69.8872L90.3571 69.9307ZM55.4817 84.6644C54.7991 85.3486 53.8924 85.7596 52.9292 85.8223C51.3445 85.9251 49.8534 86.6009 48.731 87.7249L48.0914 88.3657L47.5155 87.7887C47.5082 87.7814 47.5008 87.7735 47.4935 87.7667L37.0094 77.2645L37.3458 76.9274C38.5789 75.6922 39.258 74.0498 39.258 72.3025V69.2063C39.258 68.1421 39.6713 67.1417 40.4228 66.3891L45.3594 61.4446C46.0572 60.7451 46.9854 60.36 47.9723 60.36C48.6051 60.36 49.2138 60.5192 49.7535 60.8179L46.969 63.6069C46.5461 64.0303 46.5467 64.7168 46.9701 65.1397C47.1818 65.3509 47.4591 65.4564 47.7363 65.4564C48.014 65.4564 48.2918 65.3503 48.5035 65.1386L51.8294 61.8065V75.3393C51.8294 77.3808 53.4881 79.0412 55.5268 79.0412C56.1016 79.0412 56.6458 78.9091 57.1313 78.6742C57.3515 79.7486 58.038 80.6542 58.9685 81.1702L55.4817 84.6644ZM72.7142 69.3966C72.7142 70.2423 72.0276 70.9305 71.1847 70.9305C70.3412 70.9305 69.6553 70.2423 69.6553 69.3966V57.3051C69.6553 56.7067 69.1703 56.2211 68.5713 56.2211C67.9723 56.2211 67.4873 56.7067 67.4873 57.3051V75.3399C67.4873 76.1856 66.8014 76.8732 65.9579 76.8732C65.2008 76.8732 64.5724 76.3188 64.451 75.5934V57.2927C64.451 56.6937 63.9661 56.2087 63.3671 56.2087C63.1745 56.2087 62.9933 56.2595 62.8364 56.3476C62.4937 56.5299 62.2605 56.8901 62.2605 57.3051V75.3393C62.2605 75.4771 62.2684 75.612 62.2831 75.7458V77.9301C62.2831 78.7759 61.5971 79.4641 60.7536 79.4641C59.9107 79.4641 59.2248 78.7759 59.2248 77.9301V57.2797C59.2248 56.6813 58.7392 56.1957 58.1408 56.1957C57.5418 56.1957 57.0563 56.6813 57.0563 57.2797V75.3393C57.0563 76.185 56.3703 76.8732 55.5274 76.8732C54.6839 76.8732 53.998 76.185 53.998 75.3393V55.1755C53.998 54.5765 53.5124 54.091 52.914 54.091C52.315 54.091 51.83 54.5765 51.83 55.1755V58.9051C51.7391 58.9345 51.651 58.9757 51.5692 59.0299C50.1673 58.5031 49.1669 57.147 49.1669 55.5606V48.5672C49.1669 47.503 49.5807 46.5025 50.3316 45.75L52.5171 43.5605C53.7507 42.3253 54.4299 40.6829 54.4299 38.9356V38.4602H56.6091C57.2081 38.4602 57.6931 37.9747 57.6931 37.3762C57.6931 36.7772 57.2081 36.2922 56.6091 36.2922H52.0948C52.0265 36.2922 51.9711 36.2363 51.9711 36.168V28.9573C51.9711 28.889 52.0265 28.8331 52.0948 28.8331H72.3427C72.4115 28.8331 72.4669 28.889 72.4669 28.9573V36.168C72.4669 36.2369 72.4115 36.2922 72.3427 36.2922H61.6982C61.0997 36.2922 60.6142 36.7772 60.6142 37.3762C60.6142 37.9747 61.0997 38.4602 61.6982 38.4602H70.1007V39.3686C70.1007 40.9584 70.6772 42.4912 71.7245 43.6859C72.3624 44.4131 72.7142 45.3469 72.7142 46.3151V69.3966ZM98.1567 82.4191L83.838 96.7626C83.8142 96.7869 83.7855 96.7988 83.7516 96.7988C83.7183 96.7988 83.6895 96.7869 83.6652 96.7626L78.5767 91.6651C78.5276 91.616 78.5276 91.5364 78.5767 91.4873L79.3959 90.6664L79.3965 90.6658L87.7087 82.3395L92.8954 77.1437C92.9428 77.0957 93.0202 77.0957 93.0676 77.1437L98.1567 82.2412C98.2058 82.2903 98.2058 82.3699 98.1567 82.4191Z" fill="#7AA72F"></path><path d="M55.5268 31.4064C54.8905 31.4064 54.3728 31.9252 54.3728 32.5626C54.3728 33.2006 54.8905 33.7189 55.5268 33.7189C56.1637 33.7189 56.6814 33.2006 56.6814 32.5626C56.6814 31.9252 56.1637 31.4064 55.5268 31.4064Z" fill="#7AA72F"></path><path d="M93.3363 80.819C92.6995 80.819 92.1818 81.3379 92.1818 81.9753C92.1818 82.6127 92.6995 83.1315 93.3363 83.1315C93.9726 83.1315 94.4903 82.6127 94.4903 81.9753C94.4903 81.3379 93.9726 80.819 93.3363 80.819Z" fill="#7AA72F"></path><path d="M44.4245 91.8779C44.4245 91.2405 43.9068 90.7217 43.2705 90.7217C42.6337 90.7217 42.1159 91.2405 42.1159 91.8779C42.1159 92.5153 42.6337 93.0342 43.2705 93.0342C43.9068 93.0342 44.4245 92.5153 44.4245 91.8779Z" fill="#7AA72F"></path></g><defs><clipPath id="clip0_3_873"><rect width="74" height="74" fill="white" transform="translate(26.3604 25.7979)"></rect></clipPath></defs></svg>