<svg xmlns="http://www.w3.org/2000/svg" width="126" height="126" viewBox="0 0 126 126" fill="none"><rect x="0.631836" y="0.297852" width="125" height="125" rx="10" fill="#D7EBDD"></rect><g clip-path="url(#clip0_3_874)"><path d="M40.7517 51.0441C41.3504 51.0441 41.8357 50.5588 41.8357 49.9601C41.8357 49.3614 41.3504 48.8761 40.7517 48.8761C40.1531 48.8761 39.6678 49.3614 39.6678 49.9601C39.6678 50.5588 40.1531 51.0441 40.7517 51.0441Z" fill="#379956"></path><path d="M99.96 63.5616C99.96 63.5616 99.9598 63.5615 99.9598 63.5613L88.6205 43.9212C88.4487 43.6232 88.1709 43.4101 87.8386 43.3211C87.5063 43.2322 87.1592 43.2779 86.8619 43.4497L79.1987 47.874C78.584 48.2289 78.3727 49.0177 78.7276 49.6324L79.0555 50.2004L76.7242 51.5434C75.2144 52.4148 73.3388 52.4147 71.8292 51.5431L71.7591 51.5027C71.2409 51.2032 70.5778 51.3808 70.2783 51.8993C69.9789 52.4177 70.1565 53.0807 70.6749 53.3802L70.7452 53.4206C72.9217 54.6772 75.6282 54.6794 77.8072 53.4216L80.1395 52.0781L88.5954 66.7241L87.0628 67.611L70.2074 57.8795C70.3682 57.5402 70.4951 57.1851 70.5868 56.816C70.7311 56.235 70.377 55.647 69.7959 55.5028C69.215 55.3584 68.6269 55.7125 68.4827 56.2936C68.3646 56.7689 68.1518 57.2074 67.8503 57.5969C67.1768 58.4668 66.1594 58.9681 65.0579 58.9681C64.0696 58.9681 63.1536 58.57 62.4786 57.8474C61.6113 56.919 60.2271 56.7196 59.1125 57.3629L57.5632 58.2573C55.5142 59.44 52.8851 58.7357 51.7026 56.6871L51.3489 56.0747C51.346 56.0696 51.3484 56.0607 51.3535 56.0576L60.8399 50.5806C62.3777 49.6927 64.2883 49.6928 65.8261 50.5806L65.9857 50.6728C66.504 50.9721 67.1671 50.7945 67.4664 50.276C67.7658 49.7576 67.5881 49.0946 67.0697 48.7953L66.9101 48.7031C64.7038 47.4295 61.9626 47.4292 59.7559 48.7031L53.0059 52.6003C51.8495 52.5254 50.7131 52.1813 49.7014 51.5975L47.2254 50.1707L47.536 49.6326C47.7078 49.3347 47.7535 48.9878 47.6646 48.6557C47.5756 48.3235 47.3624 48.0459 47.0648 47.8742L45.3946 46.9099C44.876 46.6105 44.213 46.788 43.9138 47.3066C43.6145 47.825 43.7921 48.488 44.3106 48.7873L45.2181 49.3113C44.8361 49.9729 35.4575 66.2173 34.7594 67.4261L28.6218 63.8826L39.0805 45.7676L39.915 46.2493C40.4333 46.5487 41.0965 46.3709 41.3958 45.8526C41.6951 45.3342 41.5175 44.6712 40.999 44.3719L39.402 43.4499C39.1041 43.2778 38.7571 43.2319 38.4249 43.3211C38.0929 43.4101 37.8153 43.623 37.6433 43.9209L26.3041 63.561C25.949 64.1756 26.1603 64.9644 26.7752 65.3197L34.4384 69.7441C35.0554 70.1 35.843 69.8846 36.1967 69.2728L36.5366 68.6841L37.3639 69.161C36.9258 70.192 36.9594 71.4096 37.5613 72.4524L38.5442 74.1547C39.1389 75.1849 40.1479 75.8183 41.2515 75.9679C41.1342 76.7622 41.2735 77.5999 41.7054 78.3479L42.6882 80.05C43.1811 80.9037 43.9767 81.5143 44.9287 81.7694C45.5407 81.9334 46.1753 81.9391 46.7831 81.7856C46.8149 82.3549 46.9799 82.9131 47.2733 83.4213L48.2562 85.1236C49.2042 86.7655 51.238 87.4086 52.9432 86.6537C52.9915 87.1775 53.1529 87.6892 53.4238 88.1582L54.4066 89.8605C55.4211 91.6173 57.6803 92.2311 59.4472 91.2111L61.2687 90.1595C61.7551 89.8787 62.1791 89.5203 62.5279 89.101L66.3706 91.3195C67.2366 91.8196 68.243 91.9464 69.2043 91.679C70.1666 91.4113 70.9627 90.7825 71.4456 89.908L72.3962 88.1871C72.6458 87.7353 72.7893 87.2508 72.8351 86.7637L73.3872 87.0826C74.2522 87.5821 75.2586 87.7097 76.2208 87.442C77.1832 87.1743 77.9792 86.5455 78.4621 85.6712L79.4126 83.9504C79.7037 83.4234 79.8504 82.8524 79.8662 82.2842C81.3541 82.5506 82.9181 81.8801 83.7164 80.4977L84.6992 78.7954C85.0983 78.1043 85.2474 77.3364 85.1752 76.5969C85.4321 76.5794 85.6894 76.5349 85.9433 76.4627C86.9117 76.1877 87.7078 75.548 88.1846 74.6616L89.1163 72.9301C89.8035 71.6527 89.6723 70.1647 88.8908 69.0585L89.6795 68.602L90.067 69.2733C90.4201 69.8849 91.2078 70.1008 91.8254 69.7444L99.4889 65.3198C100.103 64.9644 100.314 64.1759 99.96 63.5616ZM45.4898 79.6751C45.0971 79.5699 44.7689 79.318 44.5657 78.9659L43.5829 77.2636C43.1633 76.5369 43.4132 75.6042 44.1399 75.1846C45.7673 74.245 45.8222 74.2134 46.8873 73.5984C48.0882 72.9058 49.6203 73.3248 50.308 74.5157C50.9985 75.7119 50.5872 77.2468 49.3912 77.9373L46.6446 79.5229C46.2926 79.7264 45.8824 79.7801 45.4898 79.6751ZM50.1335 84.0393L49.1507 82.337C48.7311 81.6103 48.981 80.6776 49.7077 80.2579L52.2693 78.7789C52.6628 78.5517 53.0927 78.4439 53.5175 78.4439C54.3838 78.4439 55.2276 78.8931 55.6909 79.6958C56.3815 80.8919 55.9702 82.4269 54.7742 83.1173L52.2126 84.5962C51.4859 85.016 50.5532 84.7661 50.1335 84.0393ZM60.1846 88.2816L58.3632 89.3332C57.6365 89.753 56.7037 89.5029 56.2841 88.7762L55.3013 87.0739C55.0981 86.7218 55.044 86.3116 55.1492 85.9189C55.2544 85.5262 55.5064 85.1982 55.8584 84.9948L57.68 83.9432C58.2606 83.608 58.9354 83.5201 59.5806 83.693C60.2268 83.8661 60.7669 84.2805 61.1015 84.8601C61.5217 85.5767 61.5472 86.477 61.1797 87.2202C60.9629 87.6621 60.6204 88.0301 60.1846 88.2816ZM87.2071 71.9023L86.2755 73.6338C86.0788 73.9995 85.7505 74.2634 85.3511 74.3768C84.9517 74.4903 84.5337 74.4383 84.1741 74.2307C76.9147 70.0384 83.5399 73.8649 75.4313 69.1835C74.9128 68.884 74.2499 69.0617 73.9506 69.5802C73.6513 70.0987 73.8289 70.7617 74.3474 71.061L82.2705 75.6354C82.9926 76.0567 83.24 76.9862 82.8216 77.7109L81.8388 79.4132C81.4192 80.1399 80.4864 80.3898 79.7597 79.9703C74.9333 77.1837 80.9236 80.6422 71.8426 75.3993C71.324 75.0998 70.661 75.2776 70.3619 75.796C70.0625 76.3144 70.2402 76.9774 70.7586 77.2767C75.245 79.8671 73.791 79.0275 76.9434 80.8477C77.6566 81.2595 77.9128 82.1809 77.5148 82.9015L76.5642 84.6226C76.365 84.9834 76.0366 85.2427 75.6398 85.3531C75.2427 85.4637 74.8278 85.4108 74.4711 85.2048C70.4481 82.8822 72.2526 83.9239 68.233 81.6033C67.7146 81.3037 67.0516 81.4816 66.7523 82.0001C66.453 82.5185 66.6306 83.1815 67.149 83.4808L69.9271 85.0848C70.6402 85.4966 70.8965 86.4179 70.4983 87.1386L69.5477 88.8596C69.3485 89.2202 69.0202 89.4796 68.6233 89.5901C68.2262 89.7005 67.8113 89.6476 67.4544 89.4418L63.488 87.1518C63.7522 85.9986 63.5737 84.8063 62.9788 83.7762C62.3549 82.6953 61.3472 81.922 60.1415 81.5991C59.4843 81.423 58.8114 81.3922 58.16 81.5016C58.2768 80.5329 58.0929 79.5202 57.5686 78.6121C56.5729 76.8875 54.6364 76.0375 52.7779 76.3351C52.9025 75.3329 52.6994 74.3221 52.1856 73.432C51.5592 72.3472 50.5606 71.6086 49.4434 71.2838C50.1337 69.9612 50.1704 68.3365 49.4085 66.9172C49.1254 66.3897 48.4682 66.1918 47.9408 66.4747C47.4133 66.7578 47.2151 67.415 47.4982 67.9424C48.1417 69.1412 47.722 70.6134 46.5427 71.2943C44.7377 72.3365 45.1749 72.084 42.5009 73.6279C42.1488 73.8312 41.7388 73.8849 41.3461 73.7799C40.9534 73.6747 40.6253 73.4228 40.4219 73.0707L39.4391 71.3684C39.0195 70.6417 39.2694 69.709 39.9961 69.2893L44.0378 66.9558C44.1827 66.8721 44.3354 66.803 44.4918 66.7501C45.059 66.5585 45.3634 65.9434 45.1718 65.3762C44.9802 64.8091 44.3649 64.5053 43.7979 64.6962C43.5064 64.7948 43.2225 64.9233 42.954 65.0782L38.9118 67.4117C38.872 67.4347 38.8326 67.4585 38.7939 67.4828L37.6206 66.8065L46.1415 52.048L48.6185 53.4754C49.1281 53.7695 49.6626 54.0162 50.214 54.2134C49.7388 54.5065 49.399 54.9624 49.2539 55.5041C49.1031 56.0666 49.1805 56.6542 49.4717 57.1587L49.8254 57.7711C51.6057 60.8547 55.5632 61.9149 58.6475 60.1349L60.1967 59.2405C60.4293 59.1065 60.7227 59.143 60.8947 59.3272C61.9684 60.4768 63.486 61.1362 65.0584 61.1362C66.5083 61.1362 67.87 60.5984 68.9132 59.6357C74.9415 63.1162 86.6078 69.8515 86.628 69.8634C87.345 70.2773 87.5996 71.173 87.2071 71.9023ZM91.5042 67.4261L81.0456 49.3113L87.1832 45.7678L97.6418 63.8826L91.5042 67.4261Z" fill="#379956"></path><path d="M85.5119 51.0441C86.1106 51.0441 86.5959 50.5588 86.5959 49.9601C86.5959 49.3614 86.1106 48.8761 85.5119 48.8761C84.9132 48.8761 84.4279 49.3614 84.4279 49.9601C84.4279 50.5588 84.9132 51.0441 85.5119 51.0441Z" fill="#379956"></path><path d="M63.0566 43.9289C64.7544 43.9289 66.1357 42.5476 66.1357 40.8498V36.8593C66.1357 35.1614 64.7544 33.7801 63.0564 33.7801C61.3586 33.7801 59.9773 35.1614 59.9773 36.8593V40.8497C59.9773 42.5476 61.3586 43.9289 63.0566 43.9289ZM62.1453 36.8593C62.1453 36.3568 62.554 35.9481 63.0566 35.9481C63.559 35.9481 63.9677 36.3568 63.9677 36.8593V40.8497C63.9677 41.3521 63.559 41.7608 63.0566 41.7608C62.5545 41.7608 62.1453 41.3524 62.1453 40.8497V36.8593Z" fill="#379956"></path><path d="M71.4927 45.5113C71.9764 45.7907 72.505 45.9232 73.0272 45.9232C74.0921 45.9232 75.1292 45.371 75.699 44.3842L77.6941 40.9284C78.5431 39.458 78.0373 37.571 76.567 36.7222C75.0967 35.8731 73.2097 36.3788 72.3607 37.8493L70.3656 41.305C69.9543 42.0173 69.845 42.8472 70.0581 43.6416C70.2708 44.4361 70.7804 45.1001 71.4927 45.5113ZM72.2431 42.389L74.2382 38.9332C74.4887 38.4994 75.0468 38.3479 75.4829 38.5997C75.9179 38.8509 76.0675 39.4093 75.8165 39.8444L73.8214 43.3003C73.5702 43.7354 73.0118 43.8849 72.5767 43.6338C72.3659 43.5121 72.2152 43.3156 72.152 43.0806C72.089 42.8454 72.1214 42.5999 72.2431 42.389Z" fill="#379956"></path><path d="M50.414 44.3842C50.9838 45.371 52.0208 45.9232 53.0858 45.9232C53.6079 45.9232 54.1367 45.7905 54.6203 45.5113C56.0906 44.6623 56.5963 42.7755 55.7474 41.305L53.7523 37.8493C52.9033 36.3788 51.0163 35.8734 49.546 36.7222C48.8337 37.1334 48.3241 37.7974 48.1112 38.5919C47.8983 39.3863 48.0076 40.2161 48.4188 40.9284L50.414 44.3842ZM50.2053 39.1531C50.3155 38.7425 50.6852 38.478 51.0841 38.478C51.3993 38.478 51.7061 38.6414 51.8748 38.9334L53.8699 42.3891C54.1211 42.8243 53.9715 43.3826 53.5363 43.6338C53.1011 43.885 52.5428 43.7353 52.2916 43.3003L50.2964 39.8444C50.1747 39.6336 50.1424 39.3881 50.2053 39.1531Z" fill="#379956"></path></g><defs><clipPath id="clip0_3_874"><rect width="74" height="74" fill="white" transform="translate(26.1318 25.7979)"></rect></clipPath></defs></svg>