<svg xmlns="http://www.w3.org/2000/svg" width="125" height="126" viewBox="0 0 125 126" fill="none"><rect y="0.283203" width="125" height="125" rx="10" fill="#FFE9EF"></rect><g clip-path="url(#clip0_3_875)"><path d="M96.2126 82.6974L84.5797 57.8588C84.3259 57.3167 83.6804 57.0832 83.1381 57.3369C82.596 57.5908 82.3623 58.2363 82.6162 58.7785L94.249 83.6164C94.7693 84.7292 94.2877 86.0585 93.1754 86.5796L70.8718 97.0247C69.7596 97.5457 68.4307 97.0646 67.9093 95.9523L63.7394 87.0461L74.5928 60.8597C75.0618 59.7279 75.0355 58.4414 74.521 57.3298L68.5843 44.5059L76.2796 46.9404C76.8718 47.1274 77.362 47.557 77.6251 48.1201L80.4755 54.204C80.6598 54.5974 81.0503 54.8284 81.4579 54.8284C81.6118 54.8284 81.7684 54.7953 81.9171 54.7258C82.4592 54.4718 82.6928 53.8262 82.4387 53.2841L79.5887 47.2012C79.0701 46.0909 78.1019 45.2423 76.9329 44.8732L67.6525 41.9371C69.5658 39.1422 71.5813 35.4047 72.2748 33.7315C74.0933 29.3441 72.6256 26.9041 70.6458 26.0834C68.6658 25.2631 65.9025 25.9494 64.084 30.3369C63.3019 32.2239 62.5843 36.3335 62.074 39.8591C61.4667 39.8968 60.8562 40.024 60.2616 40.2513L46.2207 45.6161C45.0974 46.0453 44.189 46.9287 43.7285 48.0394L28.7109 84.2744C28.2613 85.3592 28.261 86.5541 28.7102 87.6391C29.1593 88.7241 30.0041 89.5691 31.0888 90.0186L35.4811 91.839C36.0342 92.0683 36.6686 91.8058 36.8977 91.2527C37.1269 90.6995 36.8644 90.0653 36.3113 89.8361L31.919 88.0156C31.3693 87.7878 30.9411 87.3595 30.7134 86.8096C30.4858 86.2597 30.4859 85.6542 30.7139 85.1044L45.7319 48.8691C45.9653 48.3061 46.4257 47.8583 46.995 47.6408L61.0358 42.2761C61.277 42.1839 61.5223 42.1171 61.7687 42.0736C61.6348 43.0918 61.5261 43.9823 61.4475 44.6497C60.9877 44.676 60.5323 44.7895 60.1026 44.9907C59.2166 45.4055 58.5452 46.1406 58.2122 47.0604C57.8791 47.9803 57.9242 48.9747 58.339 49.8607C58.9609 51.1889 60.2834 51.9697 61.6615 51.9697C62.1808 51.9697 62.7083 51.8587 63.209 51.6243C64.095 51.2095 64.7663 50.4742 65.0995 49.5546C65.4325 48.6346 65.3875 47.6402 64.9727 46.7543C64.6637 46.0946 64.1769 45.5544 63.5688 45.1836C63.6494 44.4933 63.7724 43.4754 63.9285 42.2904C64.8668 42.656 65.6689 43.3687 66.1199 44.343L72.5533 58.2402C72.8142 58.8035 72.8273 59.4557 72.5896 60.0292L57.5817 96.2402C57.3539 96.7898 56.9256 97.2181 56.3757 97.4457C55.8259 97.6735 55.2203 97.6732 54.6705 97.4454L41.2581 91.8866C40.7052 91.6571 40.0707 91.9198 39.8415 92.4729C39.6124 93.0261 39.8747 93.6603 40.4279 93.8895L53.8403 99.4483C54.3888 99.6757 54.9578 99.7832 55.5177 99.7832C57.2433 99.7832 58.8839 98.761 59.5844 97.0702L62.6151 89.7582L65.9457 96.8718C66.6925 98.4657 68.2799 99.4028 69.9335 99.4028C70.557 99.4028 71.1904 99.2696 71.7913 98.9879L94.0949 88.543C96.2894 87.5148 97.2394 84.8928 96.2126 82.6974ZM63.0609 48.8163C62.925 49.1915 62.6511 49.4914 62.2895 49.6608C61.5434 50.0103 60.6519 49.6874 60.3025 48.9413C60.1332 48.58 60.1149 48.1741 60.2507 47.7988C60.3866 47.4236 60.6605 47.1237 61.022 46.9543C61.2234 46.8599 61.4386 46.8125 61.6547 46.8125C61.8263 46.8125 61.9983 46.8424 62.1643 46.9025C62.5395 47.0384 62.8394 47.3123 63.0088 47.6738C63.1784 48.0354 63.1969 48.4409 63.0609 48.8163ZM65.7924 40.8169C65.3065 40.5089 64.7801 40.2697 64.2298 40.1056C64.7186 36.7226 65.3891 32.8521 66.0875 31.1668C66.5794 29.9797 67.9274 27.3039 69.816 28.0862C71.7045 28.869 70.7643 31.7142 70.2722 32.9011C69.6056 34.5095 67.6401 38.1442 65.7924 40.8169Z" fill="#C54F73"></path><path d="M47.8175 62.3344C50.1661 61.0843 52.8611 60.8234 55.406 61.6006C59.6301 62.8901 62.4654 66.7208 62.4613 71.1328C62.4608 71.7314 62.9457 72.2173 63.5445 72.2179C63.5448 72.2179 63.545 72.2179 63.5455 72.2179C64.1437 72.2179 64.629 71.7332 64.6296 71.1348C64.6319 68.5891 63.8039 66.0484 62.2982 63.9805C60.7405 61.8415 58.5762 60.3014 56.0389 59.5267C49.6421 57.5741 42.8495 61.1894 40.897 67.5859C39.951 70.6847 40.2684 73.9662 41.7908 76.8262C43.313 79.6862 45.8576 81.7822 48.9563 82.7281C50.1144 83.0817 51.3081 83.2571 52.4996 83.2571C54.194 83.2571 55.8827 82.9019 57.4526 82.1986C60.1 81.0125 62.2354 78.9212 63.4657 76.3096C63.7209 75.7681 63.4887 75.122 62.9471 74.8669C62.4056 74.6115 61.7595 74.8439 61.5044 75.3855C59.4133 79.8245 54.2914 82.0899 49.5896 80.6542C47.0448 79.8775 44.955 78.1562 43.7048 75.8075C42.4548 73.4589 42.194 70.7638 42.971 68.219C43.7475 65.6744 45.469 63.5844 47.8175 62.3344Z" fill="#C54F73"></path><path d="M56.6673 68.1768C56.4079 67.6892 55.974 67.3316 55.4455 67.1704L54.953 67.0201L55.2876 65.924C55.4624 65.3513 55.1399 64.7453 54.5674 64.5706C53.9945 64.3961 53.3889 64.7183 53.214 65.2908L52.8719 66.4118C51.4276 66.1625 49.9852 67.0204 49.5465 68.4579C49.3161 69.2125 49.3935 70.0118 49.7642 70.7081C50.1348 71.4045 50.7547 71.9151 51.5091 72.1454L52.8738 72.5619C53.0745 72.6232 53.2393 72.7589 53.3379 72.9442C53.4365 73.1293 53.457 73.3419 53.3957 73.5427C53.3344 73.7433 53.1987 73.9081 53.0134 74.0067C52.8283 74.1054 52.6158 74.1259 52.415 74.0645L51.7329 73.8562L50.2948 73.4173C50.4076 72.8748 50.09 72.3257 49.5496 72.1608C48.9766 71.9864 48.3709 72.3085 48.1962 72.8812C47.8633 73.9718 48.4796 75.13 49.5704 75.4631L50.0629 75.6134L49.7283 76.7095C49.5536 77.2822 49.8761 77.8882 50.4485 78.0629C50.5541 78.0952 50.6606 78.1105 50.7654 78.1105C51.2296 78.1105 51.6593 77.8099 51.8019 77.3426L52.1438 76.2228C52.3114 76.252 52.4799 76.2683 52.6482 76.2683C53.1256 76.2683 53.5989 76.1512 54.0322 75.9205C54.7286 75.55 55.2392 74.9301 55.4694 74.1756C55.945 72.6178 55.0646 70.9637 53.5068 70.4882L52.1422 70.0716C51.9416 70.0103 51.7768 69.8746 51.6782 69.6893C51.5797 69.5042 51.559 69.2916 51.6204 69.0908C51.7467 68.6766 52.1864 68.4422 52.6012 68.5689L53.283 68.777L53.2834 68.7772H53.2837L54.7213 69.2161C54.6085 69.7584 54.9262 70.3075 55.4666 70.4724C56.0392 70.6471 56.6452 70.3247 56.82 69.7521C56.9811 69.2239 56.9269 68.6645 56.6673 68.1768Z" fill="#C54F73"></path><path d="M89.033 82.6404L82.0949 67.8968C81.8398 67.355 81.1937 67.1224 80.6524 67.3775C80.1107 67.6325 79.8783 68.2784 80.1331 68.8199L87.0713 83.5635C87.2561 83.9561 87.6459 84.1863 88.0529 84.1863C88.2076 84.1863 88.3647 84.1531 88.5137 84.0828C89.0554 83.8279 89.2878 83.1821 89.033 82.6404Z" fill="#C54F73"></path><path d="M84.1859 85.2326L77.2478 70.489C76.9929 69.9471 76.3467 69.7147 75.8054 69.9697C75.2637 70.2246 75.0311 70.8705 75.2861 71.4121L82.2242 86.1557C82.4089 86.5482 82.7989 86.7785 83.2059 86.7785C83.3605 86.7785 83.5176 86.7452 83.6666 86.675C84.2083 86.42 84.4408 85.7741 84.1859 85.2326Z" fill="#C54F73"></path></g><defs><clipPath id="clip0_3_875"><rect width="74" height="74" fill="white" transform="translate(25.5 25.7832)"></rect></clipPath></defs></svg>