<svg xmlns="http://www.w3.org/2000/svg" width="123" height="35" viewBox="0 0 123 35" fill="none"><g clip-path="url(#clip0_1280_243)"><path d="M13.8287 1.22401C14.0734 1.22401 14.1958 1.34639 14.4406 1.46877C12.972 2.08065 11.5035 3.67156 10.7692 7.09814L8.07692 7.8324C8.93357 5.38485 10.6469 1.22401 13.8287 1.22401ZM15.1748 2.44779C15.4196 3.18205 15.6643 4.0387 15.6643 5.38485C15.6643 5.50723 15.6643 5.50723 15.6643 5.6296L12.1154 6.60863C12.8496 4.0387 14.0734 2.9373 15.1748 2.44779ZM18.3566 4.65058L16.7657 5.14009C16.7657 5.01772 16.7657 4.89534 16.7657 4.77296C16.7657 3.67156 16.6434 2.81492 16.3986 2.08065C17.2552 2.32541 17.9895 3.42681 18.3566 4.65058ZM26.3112 6.60863C26.3112 6.48625 26.1888 6.36387 26.0664 6.36387C25.8217 6.36387 23.2517 6.11911 23.2517 6.11911C23.2517 6.11911 21.4161 4.28345 21.1713 4.16107C20.9266 3.91632 20.5594 4.0387 20.4371 4.0387C20.4371 4.0387 20.0699 4.16107 19.458 4.40583C18.8462 2.69254 17.7448 1.10163 15.9091 1.10163H15.7867C15.2972 0.367367 14.5629 0.122612 13.951 0.122612C9.54545 0.000233963 7.46503 5.50723 6.73077 8.32191C5.75175 8.56667 4.77273 8.9338 3.67133 9.30093C2.69231 9.54569 2.69231 9.66807 2.56993 10.5247C2.44755 11.1366 0 30.4723 0 30.4723L19.458 34.1436L29.9825 31.8184C29.9825 31.8184 26.3112 6.85338 26.3112 6.60863Z" fill="#8DB849"></path><path d="M25.944 6.36375C25.8216 6.36375 23.2517 6.11899 23.2517 6.11899C23.2517 6.11899 21.416 4.28333 21.1713 4.16095C21.0489 4.03857 21.0489 4.03857 20.9265 4.03857L19.458 34.1435L29.9825 31.8183C29.9825 31.8183 26.3112 6.85326 26.3112 6.6085C26.3112 6.48613 26.0664 6.36375 25.944 6.36375Z" fill="#5A863E"></path><path d="M15.9094 12.2381L14.5633 16.1542C14.5633 16.1542 13.4619 15.5423 11.9934 15.5423C9.91294 15.5423 9.79056 16.7661 9.79056 17.1332C9.79056 18.8465 14.4409 19.5808 14.4409 23.7416C14.4409 27.0458 12.3605 29.1262 9.5458 29.1262C6.24161 29.1262 4.52832 27.0458 4.52832 27.0458L5.38496 24.1087C5.38496 24.1087 7.09825 25.5773 8.56678 25.5773C9.5458 25.5773 9.91294 24.843 9.91294 24.2311C9.91294 21.9059 6.11923 21.7836 6.11923 17.9899C6.11923 14.808 8.4444 11.7486 12.9724 11.7486C15.0528 11.6262 15.9094 12.2381 15.9094 12.2381Z" fill="#FFFFFE"></path><path d="M42.343 19.4582C41.2416 18.8463 40.7521 18.3568 40.7521 17.7449C40.7521 16.8883 41.4863 16.3988 42.7101 16.3988C44.0563 16.3988 45.28 17.0107 45.28 17.0107L46.259 14.0736C46.259 14.0736 45.4024 13.3393 42.8325 13.3393C39.1611 13.3393 36.7136 15.4198 36.7136 18.3568C36.7136 20.0701 37.9374 21.2939 39.4059 22.1505C40.6297 22.8848 41.1192 23.3743 41.1192 24.1086C41.1192 24.8428 40.5073 25.5771 39.2835 25.5771C37.5702 25.5771 35.8569 24.7205 35.8569 24.7205L34.8779 27.6575C34.8779 27.6575 36.3465 28.6366 38.9164 28.6366C42.5877 28.6366 45.28 26.8009 45.28 23.4967C45.28 21.661 43.9339 20.3149 42.343 19.4582ZM57.1507 13.217C55.315 13.217 53.8465 14.0736 52.7451 15.4198L54.336 7.09809H50.1751L46.1367 28.2694H50.2975L51.6437 21.0491C52.1332 18.3568 53.6017 16.6435 54.9479 16.6435C55.9269 16.6435 56.294 17.2554 56.294 18.2345C56.294 18.8463 56.294 19.4582 56.1716 20.0701L54.5807 28.3918H58.7416L60.3325 19.8254C60.4548 18.9687 60.5772 17.8673 60.5772 17.1331C60.5772 14.6855 59.3535 13.217 57.1507 13.217ZM67.7975 25.3324C66.329 25.3324 65.8395 24.1086 65.8395 22.64C65.8395 20.3149 67.0632 16.3988 69.266 16.3988C70.7346 16.3988 71.2241 17.6226 71.2241 18.8463C71.2241 21.5386 70.0003 25.3324 67.7975 25.3324ZM69.8779 13.217C64.8604 13.217 61.5562 17.7449 61.5562 22.7624C61.5562 25.9442 63.5143 28.5142 67.308 28.5142C72.2031 28.5142 75.5073 24.1086 75.5073 18.9687C75.5073 16.0317 73.794 13.217 69.8779 13.217ZM82.1157 25.4547C81.0143 25.4547 80.4024 24.8428 80.4024 24.8428L81.1367 20.9268C81.6262 18.3568 82.9723 16.6435 84.4409 16.6435C85.6646 16.6435 86.1542 17.8673 86.1542 18.9687C86.0318 21.661 84.4409 25.4547 82.1157 25.4547ZM86.1542 13.217C83.3395 13.217 81.7486 15.6645 81.7486 15.6645L81.9933 13.4617H78.322C78.1996 14.9303 77.8325 17.2554 77.4653 18.9687L74.5283 34.1435H78.6891L79.7905 28.0247H79.9129C79.9129 28.0247 80.7695 28.5142 82.3604 28.5142C87.2556 28.5142 90.4374 23.4967 90.4374 18.4792C90.4374 15.7869 89.2136 13.217 86.1542 13.217ZM96.3115 7.34285C94.9653 7.34285 93.9863 8.44424 93.9863 9.7904C93.9863 11.0142 94.7206 11.8708 95.9444 11.8708C97.2905 11.8708 98.3919 11.0142 98.3919 9.42326C98.3919 8.19949 97.5353 7.34285 96.3115 7.34285ZM90.5597 28.2694H94.7206L97.5353 13.5841H93.3744L90.5597 28.2694ZM108.06 13.5841H105.123L105.245 12.8498C105.49 11.3813 106.346 10.1575 107.693 10.1575C108.427 10.1575 109.039 10.4023 109.039 10.4023L109.895 7.09809C109.895 7.09809 109.161 6.73096 107.693 6.73096C106.224 6.73096 104.756 7.09809 103.654 8.07711C102.186 9.30089 101.574 11.0142 101.207 12.7275L101.084 13.4617H99.1262L98.5143 16.6435H100.472L98.2695 28.2694H102.43L104.633 16.6435H107.448L108.06 13.5841ZM117.972 13.5841C117.972 13.5841 115.402 20.0701 114.179 23.6191C114.056 22.5177 113.2 13.5841 113.2 13.5841H108.794L111.242 27.0456C111.242 27.2904 111.242 27.5352 111.119 27.7799C110.63 28.7589 109.773 29.6156 108.916 30.2275C108.182 30.8393 107.203 31.2065 106.591 31.4512L107.693 35.0002C108.549 34.8778 110.263 34.1435 111.731 32.7974C113.567 31.0841 115.402 28.2694 117.116 24.5981L122.133 13.7065L117.972 13.5841Z" fill="#1A1919"></path></g><defs><clipPath id="clip0_1280_243"><rect width="122.378" height="35" fill="white"></rect></clipPath></defs></svg>