<svg xmlns="http://www.w3.org/2000/svg" width="91" height="19" viewBox="0 0 91 19" fill="none"><path d="M9.02447 1.46352C9.17415 1.00287 9.82585 1.00287 9.97553 1.46353L11.5206 6.21885C11.5876 6.42486 11.7795 6.56434 11.9962 6.56434H16.9962C17.4806 6.56434 17.6819 7.18415 17.2901 7.46885L13.245 10.4078C13.0697 10.5351 12.9964 10.7608 13.0633 10.9668L14.6084 15.7221C14.7581 16.1828 14.2309 16.5659 13.839 16.2812L9.79389 13.3422C9.61865 13.2149 9.38135 13.2149 9.20611 13.3422L5.16099 16.2812C4.76913 16.5659 4.24189 16.1828 4.39157 15.7221L5.93667 10.9668C6.0036 10.7608 5.93027 10.5351 5.75503 10.4078L1.70991 7.46885C1.31805 7.18415 1.51944 6.56434 2.0038 6.56434H7.00385C7.22046 6.56434 7.41244 6.42486 7.47937 6.21885L9.02447 1.46352Z" fill="#FCBC0E"></path><path d="M27.0245 1.46352C27.1741 1.00287 27.8259 1.00287 27.9755 1.46353L29.5206 6.21885C29.5876 6.42486 29.7795 6.56434 29.9962 6.56434H34.9962C35.4806 6.56434 35.6819 7.18415 35.2901 7.46885L31.245 10.4078C31.0697 10.5351 30.9964 10.7608 31.0633 10.9668L32.6084 15.7221C32.7581 16.1828 32.2309 16.5659 31.839 16.2812L27.7939 13.3422C27.6186 13.2149 27.3814 13.2149 27.2061 13.3422L23.161 16.2812C22.7691 16.5659 22.2419 16.1828 22.3916 15.7221L23.9367 10.9668C24.0036 10.7608 23.9303 10.5351 23.755 10.4078L19.7099 7.46885C19.3181 7.18415 19.5194 6.56434 20.0038 6.56434H25.0038C25.2205 6.56434 25.4124 6.42486 25.4794 6.21885L27.0245 1.46352Z" fill="#FCBC0E"></path><path d="M45.0245 1.46352C45.1741 1.00287 45.8259 1.00287 45.9755 1.46353L47.5206 6.21885C47.5876 6.42486 47.7795 6.56434 47.9962 6.56434H52.9962C53.4806 6.56434 53.6819 7.18415 53.2901 7.46885L49.245 10.4078C49.0697 10.5351 48.9964 10.7608 49.0633 10.9668L50.6084 15.7221C50.7581 16.1828 50.2309 16.5659 49.839 16.2812L45.7939 13.3422C45.6186 13.2149 45.3814 13.2149 45.2061 13.3422L41.161 16.2812C40.7691 16.5659 40.2419 16.1828 40.3916 15.7221L41.9367 10.9668C42.0036 10.7608 41.9303 10.5351 41.755 10.4078L37.7099 7.46885C37.3181 7.18415 37.5194 6.56434 38.0038 6.56434H43.0038C43.2205 6.56434 43.4124 6.42486 43.4794 6.21885L45.0245 1.46352Z" fill="#FCBC0E"></path><path d="M63.0245 1.46352C63.1741 1.00287 63.8259 1.00287 63.9755 1.46353L65.5206 6.21885C65.5876 6.42486 65.7795 6.56434 65.9962 6.56434H70.9962C71.4806 6.56434 71.6819 7.18415 71.2901 7.46885L67.245 10.4078C67.0697 10.5351 66.9964 10.7608 67.0633 10.9668L68.6084 15.7221C68.7581 16.1828 68.2309 16.5659 67.839 16.2812L63.7939 13.3422C63.6186 13.2149 63.3814 13.2149 63.2061 13.3422L59.161 16.2812C58.7691 16.5659 58.2419 16.1828 58.3916 15.7221L59.9367 10.9668C60.0036 10.7608 59.9303 10.5351 59.755 10.4078L55.7099 7.46885C55.3181 7.18415 55.5194 6.56434 56.0038 6.56434H61.0038C61.2205 6.56434 61.4124 6.42486 61.4794 6.21885L63.0245 1.46352Z" fill="#FCBC0E"></path><path d="M81.0245 1.46352C81.1741 1.00287 81.8259 1.00287 81.9755 1.46353L83.5206 6.21885C83.5876 6.42486 83.7795 6.56434 83.9962 6.56434H88.9962C89.4806 6.56434 89.6819 7.18415 89.2901 7.46885L85.245 10.4078C85.0697 10.5351 84.9964 10.7608 85.0633 10.9668L86.6084 15.7221C86.7581 16.1828 86.2309 16.5659 85.839 16.2812L81.7939 13.3422C81.6186 13.2149 81.3814 13.2149 81.2061 13.3422L77.161 16.2812C76.7691 16.5659 76.2419 16.1828 76.3916 15.7221L77.9367 10.9668C78.0036 10.7608 77.9303 10.5351 77.755 10.4078L73.7099 7.46885C73.3181 7.18415 73.5194 6.56434 74.0038 6.56434H79.0038C79.2205 6.56434 79.4124 6.42486 79.4794 6.21885L81.0245 1.46352Z" fill="#FCBC0E"></path></svg>