<svg xmlns="http://www.w3.org/2000/svg" width="120" height="54" viewBox="0 0 120 54" fill="none"><path d="M0.729492 31.2856H23.0564V53.9999H0.729492V31.2856ZM24.917 31.2856H47.2439V53.9999H24.917V31.2856ZM49.1045 31.2856H71.4314V53.9999H49.1045V31.2856ZM73.292 31.2856H95.619V53.9999H73.292V31.2856ZM97.4795 31.2856H119.806V53.9999H97.4795V31.2856Z" fill="#00B67A"></path><path d="M11.8926 46.5941L15.2881 45.7186L16.7068 50.1669L11.8926 46.5941ZM19.707 40.8445H13.7299L11.8926 35.1187L10.0552 40.8445H4.07812L8.91563 44.3936L7.07831 50.1195L11.9158 46.5704L14.8927 44.3936L19.707 40.8445ZM36.0801 46.5941L39.4756 45.7186L40.8943 50.1669L36.0801 46.5941ZM43.8945 40.8445H37.9174L36.0801 35.1187L34.2427 40.8445H28.2656L33.1031 44.3936L31.2658 50.1195L36.1033 46.5704L39.0802 44.3936L43.8945 40.8445ZM60.2676 46.5941L63.6631 45.7186L65.0818 50.1669L60.2676 46.5941ZM68.082 40.8445H62.1049L60.2676 35.1187L58.4303 40.8445H52.4531L57.2906 44.3936L55.4533 50.1195L60.2908 46.5704L63.2678 44.3936L68.082 40.8445ZM84.4551 46.5941L87.8506 45.7186L89.2693 50.1669L84.4551 46.5941ZM92.2695 40.8445H86.2924L84.4551 35.1187L82.6178 40.8445H76.6407L81.4782 44.3936L79.6408 50.1195L84.4783 46.5704L87.4553 44.3936L92.2695 40.8445ZM108.643 46.5941L112.038 45.7186L113.457 50.1669L108.643 46.5941ZM116.457 40.8445H110.48L108.643 35.1187L106.805 40.8445H100.828L105.666 44.3936L103.828 50.1195L108.666 46.5704L111.643 44.3936L116.457 40.8445Z" fill="white"></path><path d="M32.0277 10.4397H44.0743V12.6997H39.331V25.4397H36.7312V12.6997H32.0078L32.0277 10.4397ZM43.5583 14.5797H45.7811V16.6797H45.8207C45.9001 16.3797 46.0391 16.0997 46.2375 15.8197C46.436 15.5397 46.6741 15.2797 46.9718 15.0597C47.2497 14.8197 47.5672 14.6397 47.9244 14.4997C48.2618 14.3597 48.6191 14.2797 48.9763 14.2797C49.2541 14.2797 49.4526 14.2997 49.5518 14.2997C49.6511 14.3197 49.7701 14.3397 49.8694 14.3397V16.6397C49.7106 16.5997 49.532 16.5797 49.3534 16.5597C49.1747 16.5397 49.016 16.5197 48.8374 16.5197C48.4404 16.5197 48.0634 16.5997 47.7061 16.7597C47.3489 16.9197 47.0512 17.1597 46.7734 17.4597C46.5154 17.7797 46.2971 18.1597 46.1383 18.6197C45.9795 19.0797 45.9001 19.6197 45.9001 20.2197V25.3797H43.5186L43.5583 14.5797ZM60.7848 25.4397H58.4429V23.9197H58.4032C58.1055 24.4797 57.6689 24.8997 57.0934 25.2397C56.5178 25.5797 55.9224 25.7397 55.3271 25.7397C53.918 25.7397 52.886 25.3997 52.2509 24.6797C51.6158 23.9797 51.2983 22.8997 51.2983 21.4797V14.5797H53.6798V21.2397C53.6798 22.1997 53.8584 22.8797 54.2355 23.2597C54.5928 23.6597 55.1087 23.8597 55.7637 23.8597C56.2598 23.8597 56.6766 23.7797 57.014 23.6197C57.3514 23.4597 57.6292 23.2597 57.8277 22.9997C58.046 22.7397 58.1849 22.4197 58.2841 22.0597C58.3834 21.6997 58.4231 21.2997 58.4231 20.8797V14.5797H60.8046V25.4397H60.7848ZM64.8334 21.9597C64.9128 22.6597 65.1708 23.1397 65.6272 23.4397C66.0837 23.7197 66.6394 23.8597 67.2744 23.8597C67.4928 23.8597 67.7508 23.8397 68.0286 23.7997C68.3064 23.7597 68.5843 23.6997 68.8225 23.5997C69.0805 23.4997 69.2789 23.3597 69.4377 23.1597C69.5965 22.9597 69.6758 22.7197 69.656 22.4197C69.6361 22.1197 69.5369 21.8597 69.3186 21.6597C69.1003 21.4597 68.8423 21.3197 68.5248 21.1797C68.2072 21.0597 67.8301 20.9597 67.4134 20.8797C66.9966 20.7997 66.5798 20.6997 66.1432 20.5997C65.7066 20.4997 65.27 20.3797 64.8532 20.2397C64.4364 20.0997 64.0792 19.9197 63.7418 19.6597C63.4243 19.4197 63.1464 19.1197 62.9678 18.7397C62.7694 18.3597 62.6701 17.9197 62.6701 17.3597C62.6701 16.7597 62.8091 16.2797 63.1068 15.8797C63.3846 15.4797 63.7617 15.1597 64.1983 14.9197C64.6349 14.6797 65.1311 14.4997 65.6669 14.3997C66.2028 14.2997 66.7188 14.2597 67.1951 14.2597C67.7508 14.2597 68.2866 14.3197 68.7828 14.4397C69.2789 14.5597 69.7552 14.7397 70.1521 15.0197C70.5689 15.2797 70.9063 15.6397 71.1643 16.0597C71.4421 16.4797 71.6009 16.9997 71.6803 17.5997H69.1995C69.0805 17.0197 68.8225 16.6397 68.4255 16.4397C68.0088 16.2397 67.5523 16.1397 67.0164 16.1397C66.8577 16.1397 66.6394 16.1597 66.4211 16.1797C66.1829 16.2197 65.9845 16.2597 65.7661 16.3397C65.5677 16.4197 65.3891 16.5397 65.2501 16.6797C65.1112 16.8197 65.0318 17.0197 65.0318 17.2597C65.0318 17.5597 65.1311 17.7797 65.3295 17.9597C65.528 18.1397 65.786 18.2797 66.1234 18.4197C66.4409 18.5397 66.818 18.6397 67.2348 18.7197C67.6515 18.7997 68.0881 18.8997 68.5248 18.9997C68.9614 19.0997 69.3781 19.2197 69.7949 19.3597C70.2117 19.4997 70.5888 19.6797 70.9063 19.9397C71.2238 20.1797 71.5017 20.4797 71.7001 20.8397C71.8986 21.1997 71.9978 21.6597 71.9978 22.1797C71.9978 22.8197 71.8589 23.3597 71.5612 23.8197C71.2635 24.2597 70.8865 24.6397 70.43 24.9197C69.9735 25.1997 69.4377 25.3997 68.882 25.5397C68.3064 25.6597 67.7508 25.7397 67.1951 25.7397C66.5203 25.7397 65.8852 25.6597 65.3097 25.4997C64.7341 25.3397 64.2181 25.0997 63.8014 24.7997C63.3846 24.4797 63.0472 24.0997 62.8091 23.6197C62.5709 23.1597 62.432 22.5997 62.4121 21.9397H64.8135V21.9597H64.8334ZM72.6726 14.5797H74.4786V11.2997H76.8601V14.5597H79.0035V16.3397H76.8601V22.1397C76.8601 22.3997 76.88 22.5997 76.8998 22.7997C76.9197 22.9797 76.9792 23.1397 77.0388 23.2597C77.1181 23.3797 77.2372 23.4797 77.3762 23.5397C77.5349 23.5997 77.7334 23.6397 78.0112 23.6397C78.17 23.6397 78.3486 23.6397 78.5074 23.6197C78.6661 23.5997 78.8448 23.5797 79.0035 23.5397V25.3997C78.7455 25.4397 78.4875 25.4597 78.2295 25.4797C77.9715 25.5197 77.7334 25.5197 77.4555 25.5197C76.8205 25.5197 76.3243 25.4597 75.9472 25.3397C75.5701 25.2197 75.2725 25.0397 75.0541 24.8197C74.8358 24.5797 74.6969 24.2997 74.6175 23.9597C74.5381 23.6197 74.4985 23.1997 74.4786 22.7597V16.3597H72.6726V14.5397V14.5797ZM80.6706 14.5797H82.9132V16.0597H82.9529C83.2903 15.4197 83.7468 14.9797 84.3422 14.6997C84.9375 14.4197 85.5726 14.2797 86.2871 14.2797C87.1405 14.2797 87.8748 14.4197 88.5098 14.7397C89.1449 15.0397 89.6609 15.4397 90.0777 15.9797C90.4945 16.4997 90.812 17.1197 91.0105 17.8197C91.2089 18.5197 91.328 19.2797 91.328 20.0597C91.328 20.7997 91.2288 21.4997 91.0502 22.1797C90.8517 22.8597 90.5738 23.4797 90.1968 23.9997C89.8197 24.5197 89.3434 24.9397 88.748 25.2597C88.1526 25.5797 87.4778 25.7397 86.684 25.7397C86.3466 25.7397 85.9894 25.6997 85.652 25.6397C85.3146 25.5797 84.9772 25.4797 84.6597 25.3397C84.3422 25.1997 84.0445 25.0197 83.7865 24.7997C83.5086 24.5797 83.2903 24.3197 83.1117 24.0397H83.072V29.4597H80.6905V14.5797H80.6706ZM88.9862 20.0197C88.9862 19.5397 88.9266 19.0597 88.7877 18.5997C88.6686 18.1397 88.4702 17.7397 88.2122 17.3797C87.9542 17.0197 87.6366 16.7397 87.2794 16.5197C86.9023 16.2997 86.4657 16.1997 85.9894 16.1997C84.9971 16.1997 84.2429 16.5397 83.7269 17.2397C83.2308 17.9397 82.9728 18.8797 82.9728 20.0397C82.9728 20.5997 83.0323 21.0997 83.1712 21.5597C83.3102 22.0197 83.4888 22.4197 83.7666 22.7597C84.0246 23.0997 84.3422 23.3597 84.7192 23.5597C85.0963 23.7597 85.5131 23.8597 86.0092 23.8597C86.5649 23.8597 87.0015 23.7397 87.3786 23.5197C87.7557 23.2997 88.0534 22.9997 88.3114 22.6597C88.5495 22.2997 88.7282 21.8997 88.8274 21.4397C88.9266 20.9597 88.9862 20.4997 88.9862 20.0197ZM93.1737 10.4397H95.5552V12.6997H93.1737V10.4397ZM93.1737 14.5797H95.5552V25.4397H93.1737V14.5797ZM97.6788 10.4397H100.06V25.4397H97.6788V10.4397ZM107.324 25.7397C106.471 25.7397 105.697 25.5997 105.022 25.2997C104.347 24.9997 103.791 24.6197 103.315 24.1197C102.859 23.6197 102.501 22.9997 102.263 22.2997C102.025 21.5997 101.886 20.8197 101.886 19.9997C101.886 19.1797 102.005 18.4197 102.263 17.7197C102.501 17.0197 102.859 16.4197 103.315 15.8997C103.772 15.3997 104.347 14.9997 105.022 14.7197C105.697 14.4397 106.471 14.2797 107.324 14.2797C108.177 14.2797 108.951 14.4197 109.626 14.7197C110.301 14.9997 110.857 15.3997 111.333 15.8997C111.789 16.3997 112.147 17.0197 112.385 17.7197C112.623 18.4197 112.762 19.1797 112.762 19.9997C112.762 20.8397 112.643 21.5997 112.385 22.2997C112.127 22.9997 111.789 23.5997 111.333 24.1197C110.876 24.6197 110.301 25.0197 109.626 25.2997C108.951 25.5797 108.197 25.7397 107.324 25.7397ZM107.324 23.8397C107.84 23.8397 108.316 23.7197 108.693 23.4997C109.09 23.2797 109.388 22.9797 109.646 22.6197C109.904 22.2597 110.083 21.8397 110.202 21.3997C110.321 20.9397 110.38 20.4797 110.38 19.9997C110.38 19.5397 110.321 19.0797 110.202 18.6197C110.083 18.1597 109.904 17.7597 109.646 17.3997C109.388 17.0397 109.07 16.7597 108.693 16.5397C108.296 16.3197 107.84 16.1997 107.324 16.1997C106.808 16.1997 106.332 16.3197 105.955 16.5397C105.558 16.7597 105.26 17.0597 105.002 17.3997C104.744 17.7597 104.565 18.1597 104.446 18.6197C104.327 19.0797 104.268 19.5397 104.268 19.9997C104.268 20.4797 104.327 20.9397 104.446 21.3997C104.565 21.8597 104.744 22.2597 105.002 22.6197C105.26 22.9797 105.578 23.2797 105.955 23.4997C106.352 23.7397 106.808 23.8397 107.324 23.8397ZM113.476 14.5797H115.282V11.2997H117.664V14.5597H119.807V16.3397H117.664V22.1397C117.664 22.3997 117.684 22.5997 117.704 22.7997C117.723 22.9797 117.783 23.1397 117.842 23.2597C117.922 23.3797 118.041 23.4797 118.18 23.5397C118.339 23.5997 118.537 23.6397 118.815 23.6397C118.974 23.6397 119.152 23.6397 119.311 23.6197C119.47 23.5997 119.648 23.5797 119.807 23.5397V25.3997C119.549 25.4397 119.291 25.4597 119.033 25.4797C118.775 25.5197 118.537 25.5197 118.259 25.5197C117.624 25.5197 117.128 25.4597 116.751 25.3397C116.374 25.2197 116.076 25.0397 115.858 24.8197C115.64 24.5797 115.501 24.2997 115.421 23.9597C115.342 23.6197 115.302 23.1997 115.282 22.7597V16.3597H113.476V14.5397V14.5797Z" fill="#444444"></path><path d="M29.2484 10.44H18.3529L14.9989 0L11.625 10.44L0.729492 10.42L9.54119 16.88L6.16734 27.32L14.979 20.86L23.7907 27.32L20.4367 16.88L29.2484 10.44Z" fill="#00B67A"></path><path d="M21.1896 19.2399L20.4354 16.8799L14.9976 20.8599L21.1896 19.2399Z" fill="#005128"></path></svg>