<svg xmlns="http://www.w3.org/2000/svg" width="179" height="54" viewBox="0 0 179 54" fill="none"><g clip-path="url(#clip0_4_44)"><path d="M49.1479 34.1041C46.2453 34.1041 43.5255 32.8607 41.0545 30.8366L41.6562 27.9792L41.6823 27.8733C42.2181 24.831 43.918 19.7243 49.1479 19.7243C53.0701 19.7243 56.2604 22.9523 56.2604 26.9207C56.2472 30.8761 53.0572 34.1041 49.1479 34.1041ZM49.1479 12.4353C42.4665 12.4353 37.2892 16.8273 35.1844 24.0503C31.9679 19.1687 29.5359 13.3085 28.1109 8.37402H20.9199V27.3044C20.9199 31.035 17.9127 34.0773 14.2256 34.0773C10.5385 34.0773 7.53165 31.035 7.53165 27.3044V8.37402H0.339926V27.3044C0.313764 35.0567 6.55041 41.4196 14.212 41.4196C21.874 41.4196 28.1106 35.0567 28.1106 27.3044V24.1297C29.5094 27.0796 31.2221 30.0559 33.3011 32.7019L28.8948 53.656H36.256L39.446 38.4563C42.2439 40.2686 45.4605 41.4065 49.1475 41.4065C57.0313 41.4065 63.4511 34.8714 63.4511 26.8943C63.4511 18.9305 57.0317 12.4353 49.1479 12.4353Z" fill="#6FDA44"></path><path d="M85.4049 13.2552L90.0464 32.1856L95.1587 13.2552H101.251L93.3937 40.6124H87.3007L82.4765 21.5627L77.6648 40.599H71.5722L63.7139 13.2421H69.8068L74.9188 32.1725L79.5603 13.2421H85.4045V13.2556L85.4049 13.2552ZM115.829 12.435C107.919 12.435 101.513 18.9301 101.513 26.9204C101.513 34.924 107.932 41.4061 115.829 41.4061C123.74 41.4061 130.159 34.924 130.159 26.9204C130.159 18.9171 123.74 12.435 115.829 12.435ZM115.829 35.4531C111.175 35.4531 107.409 31.6431 107.409 26.9338C107.409 22.2241 111.188 18.4145 115.829 18.4145C120.484 18.4145 124.249 22.2241 124.249 26.9338C124.249 31.63 120.484 35.4531 115.829 35.4531ZM147.561 19.3801C143.469 19.3801 140.161 22.7401 140.161 26.8674V40.599H134.029V13.2552H140.161V17.4619C140.161 17.4619 142.776 13.2418 148.15 13.2418H150.032V19.3801H147.561ZM168.141 25.8623C172.494 23.3751 175.45 18.6524 175.45 13.2418H169.317C169.317 17.8057 165.657 21.5098 161.146 21.5098H160.322V0.0527344H154.19V40.5986H160.322V27.7141H161.055C161.656 27.7141 162.441 28.1112 162.794 28.6004L171.501 40.599H178.849L168.141 25.8623Z" fill="#444444"></path></g><defs><clipPath id="clip0_4_44"><rect width="178.615" height="54" fill="white" transform="translate(0.267578)"></rect></clipPath></defs></svg>