<svg xmlns="http://www.w3.org/2000/svg" width="114" height="20" viewBox="0 0 114 20" fill="none"><g clip-path="url(#clip0_54_1350)"><path d="M6.66675 10.4167L8.75008 12.5001L13.3334 7.91675" stroke="#00A200" stroke-width="2" stroke-linecap="square"></path><path d="M10.0001 18.3334C11.0303 18.3334 11.915 17.7102 12.2977 16.8203C12.433 16.5057 12.8799 16.3207 13.198 16.4474C14.098 16.8061 15.1642 16.6212 15.8927 15.8927C16.6211 15.1642 16.806 14.098 16.4474 13.1981C16.3207 12.8799 16.5057 12.433 16.8203 12.2977C17.7102 11.915 18.3334 11.0303 18.3334 10.0001C18.3334 8.96983 17.7102 8.0852 16.8203 7.70243C16.5057 7.56713 16.3207 7.12024 16.4474 6.80213C16.8061 5.9022 16.6212 4.83601 15.8927 4.10753C15.1642 3.37906 14.098 3.19413 13.1981 3.55276C12.8799 3.67953 12.433 3.49441 12.2977 3.17983C11.915 2.2899 11.0303 1.66675 10.0001 1.66675C8.96983 1.66675 8.0852 2.28989 7.70243 3.17982C7.56713 3.4944 7.12024 3.67951 6.80213 3.55274C5.9022 3.19411 4.83601 3.37903 4.10753 4.10751C3.37906 4.83598 3.19413 5.90217 3.55276 6.80211C3.67953 7.12022 3.49441 7.56713 3.17983 7.70243C2.2899 8.08519 1.66675 8.96983 1.66675 10.0001C1.66675 11.0303 2.28989 11.915 3.17982 12.2977C3.4944 12.433 3.67951 12.8799 3.55274 13.198C3.19411 14.098 3.37903 15.1642 4.10751 15.8927C4.83598 16.6211 5.90217 16.806 6.80211 16.4474C7.12021 16.3207 7.56713 16.5057 7.70243 16.8203C8.08519 17.7102 8.96983 18.3334 10.0001 18.3334Z" stroke="#00A200" stroke-width="2" stroke-linecap="square"></path></g><path d="M22.6898 5.354H24.8178L26.5398 11.682L28.2478 5.354H30.3898L27.4498 15H25.6298L22.6898 5.354ZM35.4187 12.844L36.8327 13.81C36.1607 14.79 34.9707 15.14 33.8507 15.14C31.9887 15.14 30.4347 13.768 30.4347 11.71C30.4347 9.638 31.9887 8.322 33.8507 8.322C35.7127 8.322 37.1967 9.708 37.1967 11.766C37.1967 11.934 37.1827 12.2 37.1687 12.368H32.3807C32.4927 13.124 33.2907 13.46 33.9907 13.46C34.5367 13.46 35.0967 13.278 35.4187 12.844ZM32.4087 11.15H35.2367C35.1247 10.352 34.4247 10.03 33.8647 10.03C33.3327 10.03 32.5627 10.31 32.4087 11.15ZM40.4699 12.718V15H38.5239V8.462H40.4699V10.044C40.8059 8.826 41.6459 8.322 42.3179 8.322C42.7799 8.322 43.1159 8.406 43.4379 8.56L43.0879 10.31C42.7379 10.142 42.4159 10.114 42.0939 10.114C40.9739 10.114 40.4699 10.982 40.4699 12.718ZM46.3759 8.462V15H44.4439V8.462H46.3759ZM44.1919 6.04C44.1919 5.396 44.7519 4.906 45.4099 4.906C46.0679 4.906 46.5999 5.382 46.5999 6.04C46.5999 6.67 46.0819 7.188 45.4099 7.188C44.7519 7.188 44.1919 6.67 44.1919 6.04ZM56.1006 8.462V15H54.1686V10.002H50.7806V15H48.8206V10.002H47.5886V8.462H48.8206V8.014C48.8206 5.998 49.8846 4.906 51.7746 4.906H52.4886V6.768H51.7746C51.1026 6.768 50.7806 7.23 50.7806 8.014V8.462H56.1006ZM53.9166 6.04C53.9166 5.396 54.4766 4.906 55.1346 4.906C55.7926 4.906 56.3246 5.382 56.3246 6.04C56.3246 6.67 55.8066 7.188 55.1346 7.188C54.4766 7.188 53.9166 6.67 53.9166 6.04ZM62.489 12.844L63.903 13.81C63.231 14.79 62.041 15.14 60.921 15.14C59.059 15.14 57.505 13.768 57.505 11.71C57.505 9.638 59.059 8.322 60.921 8.322C62.783 8.322 64.267 9.708 64.267 11.766C64.267 11.934 64.253 12.2 64.239 12.368H59.451C59.563 13.124 60.361 13.46 61.061 13.46C61.607 13.46 62.167 13.278 62.489 12.844ZM59.479 11.15H62.307C62.195 10.352 61.495 10.03 60.935 10.03C60.403 10.03 59.633 10.31 59.479 11.15ZM70.2562 11.71C70.2562 10.744 69.5282 10.156 68.7442 10.156C67.9042 10.156 67.2322 10.758 67.2322 11.71C67.2322 12.676 67.9182 13.292 68.7442 13.292C69.5702 13.292 70.2562 12.662 70.2562 11.71ZM72.2302 15H70.2982V14.188C69.9762 14.79 69.2062 15.14 68.3802 15.14C66.7002 15.14 65.2162 13.824 65.2162 11.752C65.2162 9.652 66.7002 8.322 68.3802 8.322C69.2062 8.322 69.9762 8.658 70.2982 9.26V4.906H72.2302V15ZM79.4081 11.71C79.4081 12.662 80.0941 13.292 80.9201 13.292C81.7461 13.292 82.4321 12.676 82.4321 11.71C82.4321 10.758 81.7601 10.156 80.9201 10.156C80.1361 10.156 79.4081 10.744 79.4081 11.71ZM79.3661 15H77.4341V4.906H79.3661V9.26C79.6881 8.658 80.4581 8.322 81.2841 8.322C82.9641 8.322 84.4481 9.652 84.4481 11.752C84.4481 13.824 82.9641 15.14 81.2841 15.14C80.4581 15.14 79.6881 14.79 79.3661 14.188V15ZM90.07 11.92V8.462H92.016V15H90.07V14.104C89.72 14.762 89.006 15.14 88.376 15.14C86.906 15.14 85.786 14.23 85.786 12.368V8.462H87.732V11.948C87.732 12.998 88.446 13.25 88.894 13.25C89.496 13.25 90.07 12.914 90.07 11.92ZM100.001 8.462L95.969 18.206H93.911L95.479 14.328L92.959 8.462H95.031L96.473 12.172L97.929 8.462H100.001ZM105.405 12.844L106.819 13.81C106.147 14.79 104.957 15.14 103.837 15.14C101.975 15.14 100.421 13.768 100.421 11.71C100.421 9.638 101.975 8.322 103.837 8.322C105.699 8.322 107.183 9.708 107.183 11.766C107.183 11.934 107.169 12.2 107.155 12.368H102.367C102.479 13.124 103.277 13.46 103.977 13.46C104.523 13.46 105.083 13.278 105.405 12.844ZM102.395 11.15H105.223C105.111 10.352 104.411 10.03 103.851 10.03C103.319 10.03 102.549 10.31 102.395 11.15ZM110.456 12.718V15H108.51V8.462H110.456V10.044C110.792 8.826 111.632 8.322 112.304 8.322C112.766 8.322 113.102 8.406 113.424 8.56L113.074 10.31C112.724 10.142 112.402 10.114 112.08 10.114C110.96 10.114 110.456 10.982 110.456 12.718Z" fill="#00A200"></path><defs><clipPath id="clip0_54_1350"><rect width="20" height="20" fill="white"></rect></clipPath></defs></svg>